<svg xmlns="http://www.w3.org/2000/svg" viewBox="0 0 750 500"><g id="freepik--background-simple--inject-16"><path d="M93.49,445.31H689c2.21-8.78,15-62,15.6-117.82.63-61.14-49.68-142.65-103.81-170.68S462,57.46,383.64,58.74,256.9,97,242.89,121.79s-33.75,46.49-100,80.88S48,275.27,39.09,317.94C30.56,358.77,71,428.76,93.49,445.31Z" style="fill:#92E3A9"></path><path d="M93.49,445.31H689c2.21-8.78,15-62,15.6-117.82.63-61.14-49.68-142.65-103.81-170.68S462,57.46,383.64,58.74,256.9,97,242.89,121.79s-33.75,46.49-100,80.88S48,275.27,39.09,317.94C30.56,358.77,71,428.76,93.49,445.31Z" style="fill:#fff;opacity:0.7000000000000001"></path></g><g id="freepik--Sofa--inject-16"><path d="M675.22,294.66c0-.61-.09-1.2-.15-1.8-2.53-25.74-24.66-45.13-50.53-45.13H134.91c-25.87,0-48,19.39-50.53,45.13-.06.6-.11,1.19-.15,1.8-2.31,33.85,0,150.65,0,150.65h591S677.53,328.51,675.22,294.66Z" style="fill:#92E3A9;stroke:#263238;stroke-linecap:round;stroke-linejoin:round"></path><path d="M154.42,306.2a5.39,5.39,0,1,0-5.39,5.38A5.39,5.39,0,0,0,154.42,306.2Z" style="fill:#92E3A9;stroke:#263238;stroke-linecap:round;stroke-linejoin:round"></path><circle cx="225.96" cy="306.2" r="5.38" style="fill:#92E3A9;stroke:#263238;stroke-linecap:round;stroke-linejoin:round"></circle><circle cx="302.89" cy="306.2" r="5.38" style="fill:#92E3A9;stroke:#263238;stroke-linecap:round;stroke-linejoin:round"></circle><circle cx="379.82" cy="306.2" r="5.38" style="fill:#92E3A9;stroke:#263238;stroke-linecap:round;stroke-linejoin:round"></circle><circle cx="456.74" cy="306.2" r="5.38" style="fill:#92E3A9;stroke:#263238;stroke-linecap:round;stroke-linejoin:round"></circle><path d="M539.06,306.2a5.39,5.39,0,1,0-5.39,5.38A5.39,5.39,0,0,0,539.06,306.2Z" style="fill:#92E3A9;stroke:#263238;stroke-linecap:round;stroke-linejoin:round"></path><path d="M616,306.2a5.39,5.39,0,1,0-5.39,5.38A5.39,5.39,0,0,0,616,306.2Z" style="fill:#92E3A9;stroke:#263238;stroke-linecap:round;stroke-linejoin:round"></path><path d="M154.42,420.82A5.39,5.39,0,1,0,149,426.2,5.39,5.39,0,0,0,154.42,420.82Z" style="fill:#92E3A9;stroke:#263238;stroke-linecap:round;stroke-linejoin:round"></path><circle cx="225.96" cy="420.82" r="5.38" style="fill:#92E3A9;stroke:#263238;stroke-linecap:round;stroke-linejoin:round"></circle><circle cx="302.89" cy="420.82" r="5.38" style="fill:#92E3A9;stroke:#263238;stroke-linecap:round;stroke-linejoin:round"></circle><circle cx="379.82" cy="420.82" r="5.38" style="fill:#92E3A9;stroke:#263238;stroke-linecap:round;stroke-linejoin:round"></circle><circle cx="456.74" cy="420.82" r="5.38" style="fill:#92E3A9;stroke:#263238;stroke-linecap:round;stroke-linejoin:round"></circle><path d="M539.06,420.82a5.39,5.39,0,1,0-5.39,5.38A5.39,5.39,0,0,0,539.06,420.82Z" style="fill:#92E3A9;stroke:#263238;stroke-linecap:round;stroke-linejoin:round"></path><path d="M616,420.82a5.39,5.39,0,1,0-5.39,5.38A5.4,5.4,0,0,0,616,420.82Z" style="fill:#92E3A9;stroke:#263238;stroke-linecap:round;stroke-linejoin:round"></path><circle cx="183.65" cy="365.43" r="5.38" style="fill:#92E3A9;stroke:#263238;stroke-linecap:round;stroke-linejoin:round"></circle><circle cx="260.58" cy="365.43" r="5.39" style="fill:#92E3A9;stroke:#263238;stroke-linecap:round;stroke-linejoin:round"></circle><circle cx="337.51" cy="365.43" r="5.38" style="fill:#92E3A9;stroke:#263238;stroke-linecap:round;stroke-linejoin:round"></circle><path d="M419.82,365.43a5.39,5.39,0,1,0-5.39,5.39A5.38,5.38,0,0,0,419.82,365.43Z" style="fill:#92E3A9;stroke:#263238;stroke-linecap:round;stroke-linejoin:round"></path><path d="M496.75,365.43a5.39,5.39,0,1,0-5.39,5.39A5.38,5.38,0,0,0,496.75,365.43Z" style="fill:#92E3A9;stroke:#263238;stroke-linecap:round;stroke-linejoin:round"></path><circle cx="568.29" cy="365.43" r="5.38" style="fill:#92E3A9;stroke:#263238;stroke-linecap:round;stroke-linejoin:round"></circle></g><g id="freepik--Balloons--inject-16"><path d="M686.67,169c0,19-15.84,49-29.47,49-11.34,0-29.47-30-29.47-49s13.2-34.38,29.47-34.38S686.67,150,686.67,169Z" style="fill:#263238;stroke:#263238;stroke-linecap:round;stroke-linejoin:round"></path><polyline points="656.37 218.91 656.66 225.79 662.39 224.36 657.2 218" style="fill:#263238;stroke:#263238;stroke-linecap:round;stroke-linejoin:round"></polyline><path d="M678.24,148.34c3.47,5.23,3.37,11.39-.21,13.77s-9.3.07-12.76-5.16-3.38-11.39.21-13.76S674.77,143.12,678.24,148.34Z" style="fill:#fff"></path><path d="M662.33,141.14c-.23,1.16-1.87,1.82-3.65,1.46s-3-1.58-2.82-2.75,1.87-1.82,3.65-1.47S662.56,140,662.33,141.14Z" style="fill:#fff"></path><path d="M659,222.06a75.14,75.14,0,0,0-2,12.37,96.75,96.75,0,0,0-.34,9.78,22.19,22.19,0,0,0,.62,6.3c1,3.38,3.07,6.41,4.93,9.37a80.92,80.92,0,0,1,6.32,11.32,34.71,34.71,0,0,1,2.07,6.51,27.17,27.17,0,0,1,.53,3.71c0,.32,0,.65,0,1,0,.49,0-.5,0-.51s0,.35,0,.44c-.05.75-.1,1.49-.19,2.23-.83,6.49-3.92,12.15-7.46,17.55-3.21,4.9-6.64,9.63-10.07,14.38a69.83,69.83,0,0,0-6.51,10.16c-3.91,8-3.69,17.29-3.29,26,.08,1.77.19,3.53.32,5.3,0-.59.06-1.66,0-2.41-.67-9.29-1-18.85,3.44-27.32a82.2,82.2,0,0,1,6.44-9.79c3.34-4.6,6.66-9.22,9.78-14,3.38-5.16,6.32-10.57,7.25-16.76a36,36,0,0,0-.37-12.85c-1.81-8.14-6.91-14.65-10.94-21.75a25.7,25.7,0,0,1-2.22-4.79c-1-3-.73-6.18-.53-9.24A76.13,76.13,0,0,1,659,224.56c.21-.78-.21-1.72,0-2.5Z" style="fill:#263238"></path><path d="M97.77,204.55c0,19-15.84,49-29.47,49-11.34,0-29.47-30-29.47-49S52,170.17,68.3,170.17,97.77,185.57,97.77,204.55Z" style="fill:#263238;stroke:#263238;stroke-linecap:round;stroke-linejoin:round"></path><polyline points="67.47 254.49 67.75 261.37 73.49 259.94 68.3 253.58" style="fill:#263238;stroke:#263238;stroke-linecap:round;stroke-linejoin:round"></polyline><path d="M89.34,183.92c3.46,5.23,3.37,11.39-.21,13.77s-9.3.07-12.77-5.16-3.37-11.38.21-13.76S85.87,178.7,89.34,183.92Z" style="fill:#fff"></path><path d="M73.43,176.72c-.24,1.16-1.87,1.82-3.66,1.46s-3-1.58-2.81-2.75,1.86-1.82,3.65-1.46S73.66,175.55,73.43,176.72Z" style="fill:#fff"></path><path d="M70.08,257.64A76.19,76.19,0,0,0,68,270a94.1,94.1,0,0,0-.34,9.79,22.27,22.27,0,0,0,.62,6.3c1,3.37,3.06,6.4,4.93,9.36a80.86,80.86,0,0,1,6.31,11.32,34,34,0,0,1,2.08,6.51,29,29,0,0,1,.52,3.71c0,.32,0,.65.06,1s0-.51,0-.52,0,.36,0,.45c0,.74-.1,1.48-.2,2.22-.83,6.49-3.91,12.16-7.45,17.55-3.21,4.9-6.64,9.64-10.07,14.38A69.39,69.39,0,0,0,58,362.23c-3.91,8-3.69,17.28-3.29,26,.08,1.77.19,3.54.32,5.3,0-.59.06-1.65,0-2.41-.67-9.28-1-18.85,3.45-27.32A80,80,0,0,1,64.89,354c3.35-4.61,6.67-9.23,9.79-14,3.37-5.16,6.32-10.57,7.25-16.76a35.81,35.81,0,0,0-.38-12.85c-1.8-8.14-6.9-14.64-10.93-21.75a25.7,25.7,0,0,1-2.22-4.79c-1-3-.73-6.18-.53-9.23a76.9,76.9,0,0,1,2.21-14.48c.21-.78-.2-1.72,0-2.5Z" style="fill:#263238"></path><path d="M618.13,93.86c0,19-15.84,49-29.47,49-11.34,0-29.47-30-29.47-49s13.19-34.38,29.47-34.38S618.13,74.87,618.13,93.86Z" style="fill:#92E3A9;stroke:#263238;stroke-linecap:round;stroke-linejoin:round"></path><polyline points="587.83 143.8 588.11 150.68 593.85 149.25 588.66 142.89" style="fill:#263238;stroke:#263238;stroke-linecap:round;stroke-linejoin:round"></polyline><path d="M609.7,73.23c3.46,5.23,3.37,11.39-.21,13.77s-9.3.07-12.77-5.16-3.37-11.39.21-13.76S606.23,68,609.7,73.23Z" style="fill:#fff"></path><path d="M593.79,66c-.24,1.17-1.87,1.83-3.66,1.47s-3-1.58-2.81-2.75,1.86-1.82,3.65-1.47S594,64.86,593.79,66Z" style="fill:#fff"></path><path d="M590.44,149.45a116.46,116.46,0,0,1,17,19.78c2.8,4.21,5.36,8.8,5.56,14,0,.23,0,.47,0,.7s.06-1.86,0-.87c0,.39,0,.77-.08,1.16a12.38,12.38,0,0,1-.33,1.8,11.34,11.34,0,0,1-1.44,3.17c-2,3.08-4.57,5.78-6.83,8.64a166.9,166.9,0,0,0-12.9,18.55,33.79,33.79,0,0,0-3.65,8.36,26,26,0,0,0-.63,7,19.86,19.86,0,0,0,4.05,11.14c2.68,3.86,5.87,7.35,8.52,11.24a42.42,42.42,0,0,1,6.71,15.78,49,49,0,0,1,.69,5.27c-.07-.83.06-1.67,0-2.5a42.19,42.19,0,0,0-5.37-17.81c-2.48-4.32-5.7-8.09-8.73-12-2.52-3.26-4.94-6.79-5.65-10.93-.09-.55-.14-1.1-.19-1.65-.11-1.31-.09,1.51,0,.74,0-.35,0-.7.08-1a21.27,21.27,0,0,1,.76-3.61,36.65,36.65,0,0,1,4.16-8.73A187.82,187.82,0,0,1,605,199.41c2.15-2.68,4.65-5.25,6.41-8.22a14.2,14.2,0,0,0,1.6-7.5,28.46,28.46,0,0,0-.37-6,25.85,25.85,0,0,0-2.88-7.11c-4.79-8.68-11.8-16.34-18.88-23.21l-.46-.44c.12.11,0,1.08,0,1.25s-.14,1.1,0,1.25Z" style="fill:#263238"></path><path d="M155.77,92c0,19-15.84,49-29.47,49-11.34,0-29.47-30-29.47-49S110,57.57,126.3,57.57,155.77,73,155.77,92Z" style="fill:#92E3A9;stroke:#263238;stroke-linecap:round;stroke-linejoin:round"></path><polyline points="125.47 141.89 125.75 148.77 131.49 147.34 126.3 140.98" style="fill:#263238;stroke:#263238;stroke-linecap:round;stroke-linejoin:round"></polyline><path d="M147.33,71.32c3.47,5.23,3.38,11.39-.21,13.77s-9.29.06-12.76-5.16-3.37-11.39.21-13.76S143.87,66.1,147.33,71.32Z" style="fill:#fff"></path><path d="M131.42,64.11c-.23,1.17-1.86,1.83-3.65,1.47s-3-1.59-2.82-2.75,1.87-1.82,3.66-1.47S131.65,63,131.42,64.11Z" style="fill:#fff"></path><path d="M128.08,147.54a116.91,116.91,0,0,1,17,19.78c2.8,4.21,5.36,8.8,5.56,14,0,.23,0,.47,0,.7s.06-1.86,0-.87c0,.39,0,.77-.08,1.16a11.14,11.14,0,0,1-.32,1.8,11.64,11.64,0,0,1-1.44,3.17c-2,3.08-4.57,5.78-6.83,8.64a164.26,164.26,0,0,0-12.9,18.55,33.43,33.43,0,0,0-3.65,8.36,25.63,25.63,0,0,0-.63,7c0,4.15,1.7,7.78,4,11.14,2.69,3.86,5.88,7.35,8.52,11.24A42.42,42.42,0,0,1,144.05,268a44.43,44.43,0,0,1,.69,5.27c-.06-.83.07-1.67,0-2.5A42,42,0,0,0,139.37,253c-2.47-4.32-5.69-8.09-8.72-12-2.52-3.26-5-6.79-5.65-10.93-.09-.55-.14-1.1-.19-1.65-.11-1.31-.09,1.51,0,.74,0-.35,0-.7.09-1a20.34,20.34,0,0,1,.76-3.61,36.87,36.87,0,0,1,4.15-8.74,189,189,0,0,1,12.86-18.2c2.15-2.68,4.65-5.25,6.41-8.22a14.11,14.11,0,0,0,1.59-7.51,28.4,28.4,0,0,0-.36-6,26.16,26.16,0,0,0-2.88-7.11c-4.79-8.68-11.8-16.34-18.88-23.21l-.46-.44a4.77,4.77,0,0,1,0,1.25c0,.21-.14,1.1,0,1.25Z" style="fill:#263238"></path><path d="M348.23,65.37c0,19-15.84,49-29.47,49-11.34,0-29.47-30-29.47-49S302.48,31,318.76,31,348.23,46.38,348.23,65.37Z" style="fill:#92E3A9;stroke:#263238;stroke-linecap:round;stroke-linejoin:round"></path><polyline points="317.92 115.31 318.21 122.19 323.94 120.76 318.76 114.4" style="fill:#263238;stroke:#263238;stroke-linecap:round;stroke-linejoin:round"></polyline><path d="M339.79,44.74c3.47,5.23,3.37,11.39-.21,13.77s-9.3.07-12.76-5.16S323.45,42,327,39.59,336.33,39.52,339.79,44.74Z" style="fill:#fff"></path><path d="M323.88,37.54c-.23,1.16-1.87,1.82-3.65,1.46s-3.05-1.58-2.82-2.75,1.87-1.82,3.66-1.47S324.11,36.37,323.88,37.54Z" style="fill:#fff"></path><path d="M320.54,121a116.4,116.4,0,0,1,17,19.78c2.81,4.21,5.37,8.8,5.57,14,0,.23,0,.47,0,.7s.06-1.86,0-.87c0,.39,0,.77-.08,1.16a11,11,0,0,1-.32,1.8,11.37,11.37,0,0,1-1.45,3.17c-2,3.08-4.56,5.78-6.82,8.65a163.25,163.25,0,0,0-12.9,18.54,33.43,33.43,0,0,0-3.65,8.36,26,26,0,0,0-.64,7,19.86,19.86,0,0,0,4,11.14c2.69,3.87,5.88,7.35,8.52,11.24a42.49,42.49,0,0,1,6.71,15.78,44.43,44.43,0,0,1,.69,5.27c-.06-.83.07-1.67,0-2.5a42,42,0,0,0-5.37-17.81c-2.47-4.31-5.69-8.09-8.73-12-2.51-3.26-4.94-6.79-5.64-10.93-.1-.55-.14-1.1-.19-1.65-.11-1.31-.1,1.51,0,.74,0-.35.05-.7.09-1a19.42,19.42,0,0,1,.76-3.62,36.62,36.62,0,0,1,4.15-8.73,187.92,187.92,0,0,1,12.86-18.21c2.15-2.68,4.65-5.24,6.41-8.22a14.1,14.1,0,0,0,1.59-7.5,28.45,28.45,0,0,0-.36-6,26.48,26.48,0,0,0-2.88-7.11c-4.8-8.68-11.8-16.33-18.88-23.21l-.46-.44a4.77,4.77,0,0,1,0,1.25c0,.21-.14,1.11,0,1.25Z" style="fill:#263238"></path></g><g id="freepik--character-2--inject-16"><path d="M362.62,275.64S312,297.9,311.74,299.49,287,385.57,287,385.57l42.47,7.5L329,445.31H447.57L448,332s52.7-13.86,56.11-16.81,9.77-12.27,6.59-22-14.31-14.54-16.36-14.54-44.75-1.36-44.75-1.36S406.23,270,404.87,270,362.62,275.64,362.62,275.64Z" style="fill:#fff;stroke:#263238;stroke-miterlimit:10"></path><path d="M469.92,309.5s3.61,10.64,7.7,13.75" style="fill:none;stroke:#263238;stroke-miterlimit:10"></path><path d="M464.36,301.81s-3.93,17.68-2.95,23.57" style="fill:none;stroke:#263238;stroke-miterlimit:10"></path><line x1="331.74" y1="374.17" x2="332.89" y2="316.05" style="fill:none;stroke:#263238;stroke-miterlimit:10"></line><line x1="332.39" y1="347.81" x2="321.59" y2="310.48" style="fill:none;stroke:#263238;stroke-miterlimit:10"></line><polygon points="368.98 301.76 389.88 342.19 394.42 342.87 416.45 291.31 410.32 289.04 394.42 331.06 388.97 331.06 375.34 301.53 368.98 301.76" style="fill:#263238;stroke:#263238;stroke-miterlimit:10"></polygon><polygon points="389.88 342.19 392.37 393.52 400.1 404.2 405.78 389.21 394.42 342.87 389.88 342.19" style="fill:#263238;stroke:#263238;stroke-miterlimit:10"></polygon><polygon points="389.88 342.19 380.33 424.64 388.06 439.18 395.55 424.87 394.42 342.87 389.88 342.19" style="fill:#263238;stroke:#263238;stroke-miterlimit:10"></polygon><path d="M364.89,269.5s-3.41,0-3.86,2.27-6.13,22.72-9.77,26.13-2.5,5.68-.68,4.54,7.72-6.82,9.31-7.95,3.64,3.63,3.86,6.13,1.59,3.18,6.82,3.18,19.08,5.68,19.08,5.68,14.31-7,17.26-9.54.68-6.81,2.73-7.95,7,4.09,11.13,3.41,1.13-2.5-.46-4.77-7.27-14.77-9.54-19.54-4.54-7-7.72-7.27S364.89,269.5,364.89,269.5Z" style="fill:#fff;stroke:#263238;stroke-miterlimit:10"></path><path d="M363.07,260.19s1.37,25.67,3,30.21,21.57,20.67,23.62,19.08,16.35-20.67,16.81-23.85-.91-29.07-.91-29.07-13.4,6.81-18.4,7.72S363.07,260.19,363.07,260.19Z" style="fill:#fff;stroke:#263238;stroke-miterlimit:10"></path><polygon points="390.6 272.98 364.77 278.69 363.5 262.81 390.6 272.98" style="fill:#263238;stroke:#263238;stroke-miterlimit:10"></polygon><path d="M467.14,288.54s-4.91,10.65-2.78,13.27,5.4,12.11,17,12.44,27.5-5.9,30-16.37S513.8,283.47,511,280s-9.5-9.82-14.08-9.17S467.14,288.54,467.14,288.54Z" style="fill:#fff;stroke:#263238;stroke-miterlimit:10"></path><path d="M426.54,204.39s-6.06-8.19-10.32-10.48-10.8-6.39-12-6.06S408.69,228,408.69,228s5.08,6.39,8.68,8.35,10.48,5.08,10.48,5.08,42.89,57.3,45.19,58.94,17.68,2.29,22.75-1.14,9.83-13.43,7.86-19S483.19,264,474.84,258.91s-42.41-34.38-42.41-34.38-2.62-12.94-2.95-14.25A47.33,47.33,0,0,0,426.54,204.39Z" style="fill:#fff;stroke:#263238;stroke-miterlimit:10"></path><path d="M354.67,228.84s-3.86-2.27-6.13-.22-.46,10.9,1.13,15.22,7,2.95,7,2.95,4.09,15.22,5.23,15.9,15.67,10.22,18.4,11.36,11.35-.69,13.17-2.28S408.27,259.05,409,255a113.9,113.9,0,0,0,.68-12.95s6.81-3.18,7.49-7,1.37-12.5-1.13-15a4,4,0,0,0-5.23-.46l-2.95-12L354,223.17Z" style="fill:#fff;stroke:#263238;stroke-miterlimit:10"></path><path d="M354,223.17s0,15.21.91,15.67,3.63,0,3.86-1.59-.68-15.22-.68-15.22Z" style="fill:#263238;stroke:#263238;stroke-miterlimit:10"></path><path d="M404,208s-2.5,8.4-1.36,9.54a70.52,70.52,0,0,0,5.9,4.31s-.68,10.45,1.14,11.13,2.95-.22,2.95-2.72-1.82-10.68-1.82-10.68l-2.95-12Z" style="fill:#263238;stroke:#263238;stroke-miterlimit:10"></path><ellipse cx="393.28" cy="231.23" rx="1.36" ry="2.61" style="fill:#263238"></ellipse><ellipse cx="372.16" cy="233.16" rx="1.36" ry="2.61" style="fill:#263238"></ellipse><path d="M376.93,243.84s4.77,3.18,6.13,3.18,5-2.28,6.13-3.64" style="fill:none;stroke:#263238;stroke-miterlimit:10"></path><path d="M402.37,246.11s-7.95,7-17,8.63-19.76-5.91-19.76-5.91" style="fill:none;stroke:#263238;stroke-miterlimit:10"></path><path d="M364.52,230.89s6.85-5.51,11.5-3.86l-.24-3.3a11.77,11.77,0,0,0-12.48,4.68Z" style="fill:#263238"></path><path d="M398.19,225.21s-6.85-5.51-11.49-3.86l.24-3.3a11.78,11.78,0,0,1,12.48,4.68Z" style="fill:#263238"></path><path d="M352.56,202.2s7-10.9,18.81-14.81,22-.84,23.6,1l1.64,1.88Z" style="fill:#263238;stroke:#263238;stroke-miterlimit:10"></path><path d="M396.42,178.2a6.42,6.42,0,0,0,2.52,6,3.88,3.88,0,0,1,1.28,2.54L387.61,191l-2-2.3s2.35-5.55,1.37-6.59-7.33-3.84-7.33-3.84-4.23,7.06-3.07,8.51,5.13,3,5.13,3l-.09,3.2-7.15,2.4-7.38,2-2.15-2.46s2.35-5.55,1.38-6.59-7.34-3.84-7.34-3.84-4.23,7.06-3.06,8.51,5.12,3,5.12,3l-.08,3-12.74,3.39a4,4,0,0,1-.34-2.83,6.4,6.4,0,0,0-1.19-6.39c-2.16-2.65-6.42-1.58-6.42-1.58L350.83,226,411,207.87,400.9,173.35S396.76,174.81,396.42,178.2Z" style="fill:#92E3A9;stroke:#263238;stroke-linecap:round;stroke-linejoin:round"></path><path d="M325.19,377.28s-22.76-7.86-26.2-8-18.66,11.3-21.93,16.37-3.12,21.45-1,24.4,19.65,8.51,22.76,7.69,27.83-33.4,27.83-33.4S327.32,379.9,325.19,377.28Z" style="fill:#fff;stroke:#263238;stroke-miterlimit:10"></path><path d="M338.29,373s-29.47,5.56-37.49,7.85-15.07,8.35-16.54,13.59-.82,21,9.17,25.22,20.46-2,24.07-5.24,26.36-22.27,26.36-22.27S346,377,344,374.83,338.29,373,338.29,373Z" style="fill:#fff;stroke:#263238;stroke-miterlimit:10"></path><path d="M365,355.83a12.67,12.67,0,0,0,4.09-2.78c1.64-1.8,4.09-1.14,3.6,2.95s-6.22,8.18-6.22,8.18Z" style="fill:#fff;stroke:#263238;stroke-miterlimit:10"></path><path d="M355.58,384.89h0A11.93,11.93,0,0,1,343.65,373l1.79-36.46h20.27L367.5,373A11.92,11.92,0,0,1,355.58,384.89Z" style="fill:#fff;stroke:#263238;stroke-miterlimit:10"></path><path d="M345.15,342.42,343.65,373a11.93,11.93,0,0,0,23.85,0L366,342.42Z" style="fill:#92E3A9;stroke:#263238;stroke-linecap:round;stroke-linejoin:round"></path><polygon points="356.94 405.59 356.94 382.85 354.21 382.85 354.21 405.59 340.38 410.56 340.38 411.62 355.55 411.62 355.6 411.62 370.77 411.62 370.77 410.56 356.94 405.59" style="fill:#fff;stroke:#263238;stroke-miterlimit:10"></polygon><path d="M336.32,376.63s1-9,2.13-12.77,13.1-4.59,15.39-4.59a3,3,0,0,1,3.28,3.11c-.17,1.31-1.31,1.15-3.93,2.3s-8.19,3.6-8.19,3.6l-.49,1.47,3.05-1.24c6.4-1.58,17.72-4.33,18.89-4.33,1.64,0,2.46,2.3,2.62,3.12s-1,2.12-1,2.12,3.11.17,3.27,2.46a5.79,5.79,0,0,1-1.31,3.93s1.8,2.29.82,4.09S357,389.89,354.33,391,346,394.64,343,394.8s-4.92-3.27-5.73-4.58" style="fill:#fff;stroke:#263238;stroke-miterlimit:10"></path><line x1="368.09" y1="369.42" x2="344.18" y2="377.28" style="fill:none;stroke:#263238;stroke-miterlimit:10"></line><line x1="370.05" y1="375.81" x2="346.31" y2="386.45" style="fill:none;stroke:#263238;stroke-miterlimit:10"></line><path d="M342.71,370.9s-1.31,2.29-1,4.09a31,31,0,0,0,1,3.77s-1,3.93-.33,5.24a8.76,8.76,0,0,0,2.13,2.45,5.08,5.08,0,0,0,3.44,3.28" style="fill:none;stroke:#263238;stroke-miterlimit:10"></path><path d="M338.45,363.86a10.52,10.52,0,0,0,1.48,6.55" style="fill:none;stroke:#263238;stroke-miterlimit:10"></path><path d="M438.49,233.86s-3.28-21.61-4.59-24.23-13.26-9.5-17.84-12.12-4.42,2.46-2.78,5.4,12.11,8,12.11,8-3.27,14.9-1.47,19.32,7.2,6.71,7.86,6.71" style="fill:#fff;stroke:#263238;stroke-miterlimit:10"></path></g><g id="freepik--character-3--inject-16"><polygon points="529.04 445.31 532.62 415.43 503.56 411.54 501.64 445.31 529.04 445.31" style="fill:#fff;stroke:#263238;stroke-miterlimit:10"></polygon><path d="M500.79,302.2,503.07,374,501.7,406.3l27.73,3.41,3.18-30s-22.27-74.1-23.18-75.46S500.79,302.2,500.79,302.2Z" style="fill:#fff;stroke:#263238;stroke-miterlimit:10"></path><path d="M499.33,395.12s0,19.9.75,19.9,29.84,3.48,29.84,3.48V399.1Z" style="fill:#fff;stroke:#263238;stroke-miterlimit:10"></path><path d="M524.43,386.75c.43,1.08,4.1,52.77,4.51,58.56H635.51l-7.89-59.92s-3.18-68-6.36-79.1-14.55-24.54-23-26.82-37.27-8-37.27-8l-35.69,8.41s-23.18,19.32-24.55,22.27,2,24.1,6.6,37.73S524,385.62,524.43,386.75Z" style="fill:#fff;stroke:#263238;stroke-miterlimit:10"></path><polygon points="525.87 297.03 535.54 315.16 533.12 424.39 541.18 438.09 552.47 421.57 541.18 313.95 548.44 298.24 530.71 282.92 525.87 297.03" style="fill:#263238;stroke:#263238;stroke-miterlimit:10"></polygon><polygon points="518.75 293.57 519.43 309.02 528.52 299.48 518.75 293.57" style="fill:#fff;stroke:#263238;stroke-miterlimit:10"></polygon><polygon points="536.71 305.84 518.75 293.57 525.34 279.93 536.71 305.84" style="fill:#fff;stroke:#263238;stroke-miterlimit:10"></polygon><path d="M499.43,212.42s-7.73,18.87-6.36,20.91a40.37,40.37,0,0,1,2.95,6.6s-7.73,10.45-6.59,12.27,8,4.32,8,4.32,6.59,25.68,10,26.59,9.31-2.73,9.31-2.73l20,25.46,6.36-18.18L554.43,264l-3.18-6.59-.68-7.5s7.27-7.5,7.73-18.41-7.46-29.3-8.6-30.89-23-4.8-31.63-6.84-11.37-1.14-11.82,1.13-2.05-6.59-5.46-4.09-4.31,7.5-3.4,8.87-8.41-3-8.41.91S493.52,211.74,499.43,212.42Z" style="fill:#fff;stroke:#263238;stroke-miterlimit:10"></path><path d="M537.84,266.52c2.5-4.77-.91-31.37.23-33.41s6.59-5,10.45-1.37,3,10.69.46,14.1a36.35,36.35,0,0,1-4.55,5.22l6.4-1.42c1.28-1.43,7.06-8.42,7.47-18.12.45-10.91-7.46-29.3-8.6-30.89s-23-4.8-31.63-6.84-11.37-1.14-11.82,1.13-2.05-6.59-5.46-4.09-4.31,7.5-3.4,8.87-8.41-3-8.41.91,4.54,11.13,10.45,11.81c0,0,20-1.36,20.68,1.37s-5.22,8.64-3.63,10.91,13.63,8.63,13.63,8.63L530.8,252s-.23,1.59-3.41.46S515.57,244.7,510.8,247s-13.41,9.55-13.41,9.55,6.59,25.68,10,26.59,9.31-2.73,9.31-2.73S535.34,271.29,537.84,266.52Z" style="fill:#263238;stroke:#263238;stroke-miterlimit:10"></path><ellipse cx="503.41" cy="239.36" rx="1.02" ry="2.61" style="fill:#263238"></ellipse><path d="M498.29,234.47s2.5-5.68,8.19-2.73" style="fill:none;stroke:#263238;stroke-miterlimit:10"></path><path d="M504,259.25l6.82-7.05s2.95,9.32.22,11.82S504,259.25,504,259.25Z" style="fill:#fff;stroke:#263238;stroke-miterlimit:10"></path><polygon points="536.93 295.16 536.71 305.84 544.43 296.29 536.93 295.16" style="fill:#fff;stroke:#263238;stroke-miterlimit:10"></polygon><polygon points="553.52 261.29 536.93 295.16 552.62 308.34 564.66 270.15 553.52 261.29" style="fill:#fff;stroke:#263238;stroke-miterlimit:10"></polygon><path d="M545.82,388.69h0a11.93,11.93,0,0,1-12.79-11l-1-36.49,20.21-1.54,4.55,36.22A11.93,11.93,0,0,1,545.82,388.69Z" style="fill:#fff;stroke:#263238;stroke-miterlimit:10"></path><path d="M532.21,347.12,533,377.7a11.92,11.92,0,1,0,23.78-1.81L553,345.54Z" style="fill:#92E3A9;stroke:#263238;stroke-linecap:round;stroke-linejoin:round"></path><polygon points="548.75 409.22 547.03 386.54 544.31 386.75 546.03 409.43 532.62 415.43 532.7 416.49 547.82 415.34 547.88 415.33 563 414.18 562.92 413.13 548.75 409.22" style="fill:#fff;stroke:#263238;stroke-miterlimit:10"></polygon><path d="M612.85,367.43l-30.46,18.41s-10.23-7-15.45-14.09-13.19-11.36-14.78-10.91-19.32,5-20.23,7.28-2.72,6.13-.22,7.5,6.36-4.55,6.36-4.55,9.55-1.36,10.45-1.59-8.63,4.09-9.54,5.91-9.55,9.77-8.87,12.73,2.73,2.27,2.73,2.27.91,4.55,4.09,3.64,8.19-5.91,9.09-6.59,10.46-.69,11.6-.91-9.1,3.18-10.23,4.54-5.23,6.82-4.55,8,5.23-.68,6.59-1.59,6.37-3.19,6.37-3.19l9.32,1.37s7.72,5.68,11.59,5.91a63.83,63.83,0,0,0,7.95-.23c.91,0,24.55-7.05,26.82-8s22-7.5,22-7.5Z" style="fill:#fff;stroke:#263238;stroke-miterlimit:10"></path><path d="M556,376.07s-10.69,1.36-12.51,3.18-10.68,11.14-10.68,11.14" style="fill:none;stroke:#263238;stroke-miterlimit:10"></path><line x1="548.52" y1="369.48" x2="552.62" y2="367.66" style="fill:none;stroke:#263238;stroke-miterlimit:10"></line><path d="M579.44,326.3s5.91,12.5,12.27,17.5,26.59,17,26.59,17l29.55,15.46s18.86-18.64,20-21.59-4.55-8.19-7.73-10.91S626,301.75,616,294.48s-14.55-12.05-22.5-11.82" style="fill:#fff;stroke:#263238;stroke-miterlimit:10"></path><path d="M626,351.3s15.91-6.37,16.59-6.59" style="fill:none;stroke:#263238;stroke-miterlimit:10"></path><path d="M640.12,332.89s-15.91,16.36-16.59,17.95" style="fill:none;stroke:#263238;stroke-miterlimit:10"></path><line x1="631.26" y1="318.79" x2="621.26" y2="353.8" style="fill:none;stroke:#263238;stroke-miterlimit:10"></line><path d="M621.26,353.8s-13.64,11.59-11.37,14.77,23,22.27,24.09,22.05,16.6-12.05,16.82-14.32-23.41-24.09-24.77-25S621.26,353.8,621.26,353.8Z" style="fill:#fff;stroke:#263238;stroke-miterlimit:10"></path></g><g id="freepik--character-1--inject-16"><path d="M185.87,263s-62,21.69-62.64,25.26.34,68.19,0,89S122,445.31,122,445.31H234.54l4.54-70.72s9.41,21.41,12,24,27.26-22.07,27.26-22.07l-9.09-45.1s-3.89-38.94-4.54-41.21-26.29-15.57-42.19-22.39S188.14,262.64,185.87,263Z" style="fill:#fff;stroke:#263238;stroke-miterlimit:10"></path><path d="M188.12,302.18l8.46,17.34L185.7,419.87l14.51,16.93,9.27-19.75-4.84-97.94s11.69-13.3,12.09-14.51,0-14.91,0-14.91L195,288.08Z" style="fill:#263238;stroke:#263238;stroke-miterlimit:10"></path><polyline points="252.13 312.57 239.08 374.59 253.23 347.27" style="fill:none;stroke:#263238;stroke-miterlimit:10"></polyline><path d="M249,364.73s8.83-10,21.65-5.75" style="fill:none;stroke:#263238;stroke-miterlimit:10"></path><path d="M278.87,362.08s-6.85-4-9.72-3.1-18.79,10.83-21.22,17.46-.66,18.34.66,23.65,13,9.5,18.35,8.18,13-6,14.14-9.29S285.94,370.92,278.87,362.08Z" style="fill:#fff;stroke:#263238;stroke-miterlimit:10"></path><path d="M314.19,338s3.54-13.45,4.48-15.34,9.44-6.37,10.85-7.78,5.9-5.9,7.55-8.49,3.78-4.49,4.48-2.13-2.77,11.46-2.77,11.46l11.8-3.78s8.43-12.16,10.56-9.8-4.25,26.42-5.9,31.14-12.74,7.55-18.17,9.2a118,118,0,0,0-13.92,5.9S297.44,379,294.37,385.14s-21.23,16.51-25.95,17.69-10.86.94-13.45-7.79.94-18.87,10.38-25.71S314.19,338,314.19,338Z" style="fill:#fff;stroke:#263238;stroke-miterlimit:10"></path><path d="M357.32,325.39s2.87-13.26-.88-11.49-5.09,16.35-5.09,16.35-12.37-.44-15-.44-11.27,1.11-13.7,4.42-2.66,5.53-2.66,5.53" style="fill:none;stroke:#263238;stroke-miterlimit:10"></path><line x1="338.78" y1="315.67" x2="332.57" y2="319.65" style="fill:none;stroke:#263238;stroke-miterlimit:10"></line><path d="M280.25,332.65h0A11.61,11.61,0,0,1,267.79,322l-1-35.54,19.69-1.5L291,320.19A11.61,11.61,0,0,1,280.25,332.65Z" style="fill:#fff;stroke:#263238;stroke-miterlimit:10"></path><path d="M267,292.17l.8,29.78A11.61,11.61,0,0,0,291,320.19l-3.71-29.56Z" style="fill:#92E3A9;stroke:#263238;stroke-linecap:round;stroke-linejoin:round"></path><polygon points="283.1 352.65 281.42 330.56 278.78 330.76 280.46 352.85 267.39 358.7 267.47 359.73 282.2 358.61 282.25 358.6 296.98 357.48 296.9 356.46 283.1 352.65" style="fill:#fff;stroke:#263238;stroke-miterlimit:10"></polygon><path d="M155.56,275.67S123.18,282,121,287.5s6.3,75.24,8.51,88.72,4,29.84,12.82,31.16,28.5-12.6,28.5-12.6L168.15,353s1.11-26.74-.44-35.14-11.93-17.46-11.93-17.46" style="fill:#fff;stroke:#263238;stroke-miterlimit:10"></path><path d="M151.36,358.76a40.79,40.79,0,0,0-13.26,20.56" style="fill:none;stroke:#263238;stroke-miterlimit:10"></path><path d="M153.57,358.54s-9.51,1.77-14.59,7.52" style="fill:none;stroke:#263238;stroke-miterlimit:10"></path><path d="M139.2,300.86s11.49,1.55,18.12,7.3" style="fill:none;stroke:#263238;stroke-miterlimit:10"></path><path d="M176.55,353.46a2.68,2.68,0,0,0-2.43-3.32c-3.1-.44-17,2.21-18.79,3.1s-7.07,10.38-8.17,22.76,11.49,28.51,12.82,28.51,17.67-5.31,19-7.29,2-16.58,2.43-17.46S176.55,353.46,176.55,353.46Z" style="fill:#fff;stroke:#263238;stroke-miterlimit:10"></path><path d="M251.69,329.37s10.16-22.76,10.83-24.31,11.05-7.51,11.71-7.51,15.47,3.09,16.79,3.53a4.42,4.42,0,0,1,2.88,4c0,2-1.11,2.65-2.43,2.21s-4.65-2.43-5.31-2.43h-9.72l-2,2.65s6,0,7.51.44,10.39,3.54,12.38,4.2a4.37,4.37,0,0,1,2.87,4v1.33a9.15,9.15,0,0,1-.66,4.2c-.89,1.76-5.31,3.31-5.31,3.31s-4.19,2.87-7.07,5.3-13.7,7.3-13.7,7.3,0,4.42-6,6.41a73.11,73.11,0,0,1-14.36,2.65S177.43,387.05,175,388.38s-7.07-5.75-7.73-17,2.21-16.58,2.21-16.58Z" style="fill:#fff;stroke:#263238;stroke-miterlimit:10"></path><path d="M297.21,317.44s-16.79-1.77-17.68-1.77-10.83,2.87-10.83,2.87" style="fill:none;stroke:#263238;stroke-miterlimit:10"></path><line x1="274.45" y1="307.49" x2="268.48" y2="309.26" style="fill:none;stroke:#263238;stroke-miterlimit:10"></line><polyline points="291.25 324.95 279.75 325.83 268.93 328.93" style="fill:none;stroke:#263238;stroke-miterlimit:10"></polyline><path d="M194.3,254.2s-6.48-.65-9.08,2.6a57.18,57.18,0,0,0-5.19,8.44s-4.87,52.24-1.62,48.34S191.06,300,191.06,300s-.32,4.86,1.3,5.84,8.11,1,8.11,1,9.09.65,11-1.95a23.13,23.13,0,0,0,2.92-5.19s7.14,19.79,8.11,15.25,4.55-31.47,5.52-41.86S203.39,251.61,194.3,254.2Z" style="fill:#fff;stroke:#263238;stroke-miterlimit:10"></path><path d="M262.45,206.83s1.62,13.95,1.29,17.2-2.92,9.73-2.27,11.35S268,243.5,266,245.77a30,30,0,0,1-5.52,4.54s-6.17,15.25-7.79,18.17-6.81,3.57-11,2.92-11-1.95-11-1.95-3.9,5.2-9.09,12.66-20.44,23.69-21.09,24.66-8.44-19.15-7.79-28.55.65-32.78.65-32.78S194,227.27,205,213.32s44.46-19.47,48.35-17.52S262.45,206.83,262.45,206.83Z" style="fill:#fff;stroke:#263238;stroke-miterlimit:10"></path><path d="M255.25,252.35l-10.49-5.78s-1.8,11.93,1.09,11.93S255.25,252.35,255.25,252.35Z" style="fill:none;stroke:#263238;stroke-miterlimit:10"></path><polygon points="230.65 269.45 221.33 264.46 222.81 279.26 230.65 269.45" style="fill:#263238;stroke:#263238;stroke-miterlimit:10"></polygon><path d="M213.34,240.17s1.18,11.26,2.66,13.33" style="fill:none;stroke:#263238;stroke-miterlimit:10"></path><path d="M259.85,223.38a9.54,9.54,0,0,0-12.65,2.27" style="fill:none;stroke:#263238;stroke-miterlimit:10"></path><path d="M257.25,231.17c0,1.61-.81,2.92-1.81,2.92s-1.81-1.31-1.81-2.92.81-2.92,1.81-2.92S257.25,229.55,257.25,231.17Z" style="fill:#263238"></path><path d="M218,225l4.54,1.62.33-4.86a9.2,9.2,0,0,0,2.59,2.59c1.3.65,8.77,3.25,8.77,3.25s-3.57-6.82-3.57-8.12,4.54-5.84,6.49-8.76,7.78-4.86,7.78-4.86l-1.94,10,6.49-5.84.32,4.87a81.47,81.47,0,0,0,8.11-2.59c6.49-2.28,10.06-8.12,10.39-14.61s-3.25-10.7-3.57-12-17.2-9.09-27.91-9.09-25,3.57-32.12,7.14-14.28,10.71-15.25,15.9.65,13.95-1,19.15S180,227,182.3,236.68s19.14,17.52,20.44,17.52.33-7.14.33-7.14,2.27,1.63,3.89,1.63h4.22l-2.78-4.86-1.12-2s1.3-3.24,3.25-8.43S218,225,218,225Z" style="fill:#263238;stroke:#263238;stroke-miterlimit:10"></path><path d="M221.24,229.54s-5.52-13.63-11.68-8.43-3.25,13-1,16.55,6.82,4.21,6.82,4.21" style="fill:#fff;stroke:#263238;stroke-miterlimit:10"></path></g><g id="freepik--Bottle--inject-16"><path d="M474.8,377.29c-3-8.33-16.4-28.31-19.56-34.3s-11.46-30.55-11.46-30.55l-2.61.66,0-.11-1.95.61-2,.5,0,.12-2.57.81s5.88,25.25,6.34,32-.42,30.8,1.42,39.46c1.47,6.94,9.92,35.56,13.2,46.59a8.06,8.06,0,0,0,9.94,5.47l6.52-1.86,3.92-1.11,6.52-1.86a8.07,8.07,0,0,0,5.58-9.88C485.09,412.74,477.2,384,474.8,377.29Z" style="fill:#263238;stroke:#263238;stroke-miterlimit:10"></path><path d="M443.48,312.53l-8.5,2.41a2.1,2.1,0,0,1-2.6-1.45h0a2.1,2.1,0,0,1,1.45-2.6l8.49-2.42a2.12,2.12,0,0,1,2.61,1.45h0A2.13,2.13,0,0,1,443.48,312.53Z" style="fill:#263238;stroke:#263238;stroke-miterlimit:10"></path><rect x="432.36" y="306.54" width="10.44" height="2.81" transform="translate(-67.56 131.47) rotate(-15.88)" style="fill:#92E3A9;stroke:#263238;stroke-linecap:round;stroke-linejoin:round"></rect><rect x="451.14" y="400.45" width="33.7" height="28.56" transform="translate(-95.62 143.87) rotate(-15.88)" style="fill:#fff;stroke:#263238;stroke-miterlimit:10"></rect><path d="M460.24,351.38c-2.21-3.58-4.06-6.61-5-8.39-3.17-6-11.46-30.55-11.46-30.55l-2.61.66,0-.11-1.95.61-2,.5,0,.12-2.57.81s5.88,25.25,6.34,32c.14,2,.16,5.55.17,9.76Z" style="fill:#92E3A9;stroke:#263238;stroke-linecap:round;stroke-linejoin:round"></path><polygon points="488.68 445.31 444.03 445.31 434.46 374.1 498.25 374.1 488.68 445.31" style="fill:#a6a6a6;stroke:#263238;stroke-miterlimit:10"></polygon><polygon points="438.58 377.73 447.49 444.62 450.85 444.62 441.94 379.61 438.58 377.73" style="fill:#263238"></polygon><polygon points="441.52 377.73 450.43 444.62 453.78 444.62 444.87 379.61 441.52 377.73" style="fill:#fff"></polygon><polygon points="434.46 374.1 466.36 409.71 498.25 374.1 434.46 374.1" style="fill:#fff;stroke:#263238;stroke-miterlimit:10"></polygon><path d="M505,388.58a4.26,4.26,0,1,1-4.26-4.25A4.25,4.25,0,0,1,505,388.58Z" style="fill:#a6a6a6;stroke:#263238;stroke-miterlimit:10"></path><path d="M436,388.58a4.26,4.26,0,1,1-4.26-4.25A4.25,4.25,0,0,1,436,388.58Z" style="fill:#a6a6a6;stroke:#263238;stroke-miterlimit:10"></path></g><g id="freepik--Table--inject-16"><line x1="49.95" y1="445.31" x2="703.86" y2="445.31" style="fill:none;stroke:#263238;stroke-miterlimit:10"></line></g></svg>