<svg xmlns="http://www.w3.org/2000/svg" version="1.1" xmlns:xlink="http://www.w3.org/1999/xlink" xmlns:svgjs="http://svgjs.dev/svgjs" viewBox="0 0 800 800"><defs><linearGradient x1="50%" y1="0%" x2="50%" y2="100%" id="ffflurry-grad" gradientTransform="rotate(270)"><stop stop-color="hsl(238, 82%, 13%)" stop-opacity="1" offset="0%"></stop><stop stop-color="hsl(185, 53%, 55%)" stop-opacity="1" offset="45%"></stop><stop stop-color="hsl(0, 73%, 55%)" stop-opacity="1" offset="100%"></stop></linearGradient></defs><rect width="100%" height="100%" fill="hsl(238, 82%, 13%)"></rect><g fill="url(#ffflurry-grad)"><rect width="139" height="2" x="706.5" y="499" rx="1" transform="rotate(325, 776, 500)" opacity="0.22"></rect><rect width="258" height="2" x="334" y="636" rx="1" transform="rotate(325, 463, 637)" opacity="0.48"></rect><rect width="141" height="2" x="433.5" y="589" rx="1" transform="rotate(325, 504, 590)" opacity="0.85"></rect><rect width="66" height="2" x="741" y="711" rx="1" transform="rotate(325, 774, 712)" opacity="0.15"></rect><rect width="168" height="2" x="519" y="466" rx="1" transform="rotate(325, 603, 467)" opacity="0.27"></rect><rect width="124" height="2" x="511" y="404" rx="1" transform="rotate(325, 573, 405)" opacity="0.24"></rect><rect width="145" height="2" x="102.5" y="212" rx="1" transform="rotate(325, 175, 213)" opacity="0.93"></rect><rect width="25" height="2" x="70.5" y="641" rx="1" transform="rotate(325, 83, 642)" opacity="0.57"></rect><rect width="106" height="2" x="358" y="703" rx="1" transform="rotate(325, 411, 704)" opacity="0.51"></rect><rect width="82" height="2" x="131" y="785" rx="1" transform="rotate(325, 172, 786)" opacity="0.88"></rect><rect width="288" height="2" x="114" y="271" rx="1" transform="rotate(325, 258, 272)" opacity="0.47"></rect><rect width="123" height="2" x="11.5" y="687" rx="1" transform="rotate(325, 73, 688)" opacity="0.55"></rect><rect width="81" height="2" x="716.5" y="16" rx="1" transform="rotate(325, 757, 17)" opacity="0.66"></rect><rect width="27" height="2" x="759.5" y="157" rx="1" transform="rotate(325, 773, 158)" opacity="0.55"></rect><rect width="80" height="2" x="393" y="444" rx="1" transform="rotate(325, 433, 445)" opacity="0.40"></rect><rect width="72" height="2" x="593" y="127" rx="1" transform="rotate(325, 629, 128)" opacity="0.45"></rect><rect width="43" height="2" x="343.5" y="180" rx="1" transform="rotate(325, 365, 181)" opacity="0.21"></rect><rect width="36" height="2" x="192" y="480" rx="1" transform="rotate(325, 210, 481)" opacity="0.43"></rect><rect width="50" height="2" x="327" y="105" rx="1" transform="rotate(325, 352, 106)" opacity="0.38"></rect><rect width="70" height="2" x="563" y="548" rx="1" transform="rotate(325, 598, 549)" opacity="0.47"></rect><rect width="54" height="2" x="570" y="721" rx="1" transform="rotate(325, 597, 722)" opacity="0.30"></rect><rect width="289" height="2" x="570.5" y="132" rx="1" transform="rotate(325, 715, 133)" opacity="0.40"></rect><rect width="78" height="2" x="726" y="396" rx="1" transform="rotate(325, 765, 397)" opacity="0.91"></rect><rect width="185" height="2" x="203.5" y="223" rx="1" transform="rotate(325, 296, 224)" opacity="0.15"></rect><rect width="263" height="2" x="79.5" y="49" rx="1" transform="rotate(325, 211, 50)" opacity="0.74"></rect><rect width="75" height="2" x="328.5" y="252" rx="1" transform="rotate(325, 366, 253)" opacity="0.77"></rect><rect width="263" height="2" x="602.5" y="464" rx="1" transform="rotate(325, 734, 465)" opacity="0.36"></rect><rect width="67" height="2" x="253.5" y="19" rx="1" transform="rotate(325, 287, 20)" opacity="0.88"></rect><rect width="78" height="2" x="214" y="434" rx="1" transform="rotate(325, 253, 435)" opacity="0.83"></rect><rect width="188" height="2" x="26" y="722" rx="1" transform="rotate(325, 120, 723)" opacity="0.50"></rect><rect width="152" height="2" x="300" y="35" rx="1" transform="rotate(325, 376, 36)" opacity="0.45"></rect><rect width="145" height="2" x="703.5" y="575" rx="1" transform="rotate(325, 776, 576)" opacity="0.76"></rect><rect width="45" height="2" x="429.5" y="31" rx="1" transform="rotate(325, 452, 32)" opacity="0.09"></rect><rect width="225" height="2" x="132.5" y="677" rx="1" transform="rotate(325, 245, 678)" opacity="0.49"></rect><rect width="107" height="2" x="349.5" y="501" rx="1" transform="rotate(325, 403, 502)" opacity="0.09"></rect><rect width="262" height="2" x="254" y="632" rx="1" transform="rotate(325, 385, 633)" opacity="0.61"></rect><rect width="131" height="2" x="-45.5" y="660" rx="1" transform="rotate(325, 20, 661)" opacity="0.99"></rect><rect width="74" height="2" x="132" y="748" rx="1" transform="rotate(325, 169, 749)" opacity="0.95"></rect><rect width="224" height="2" x="66" y="438" rx="1" transform="rotate(325, 178, 439)" opacity="0.93"></rect><rect width="226" height="2" x="-75" y="133" rx="1" transform="rotate(325, 38, 134)" opacity="0.53"></rect><rect width="125" height="2" x="-29.5" y="312" rx="1" transform="rotate(325, 33, 313)" opacity="0.43"></rect><rect width="169" height="2" x="117.5" y="384" rx="1" transform="rotate(325, 202, 385)" opacity="0.20"></rect><rect width="123" height="2" x="158.5" y="422" rx="1" transform="rotate(325, 220, 423)" opacity="0.53"></rect><rect width="195" height="2" x="440.5" y="256" rx="1" transform="rotate(325, 538, 257)" opacity="0.48"></rect><rect width="50" height="2" x="623" y="745" rx="1" transform="rotate(325, 648, 746)" opacity="0.87"></rect><rect width="140" height="2" x="286" y="517" rx="1" transform="rotate(325, 356, 518)" opacity="0.36"></rect><rect width="232" height="2" x="-94" y="773" rx="1" transform="rotate(325, 22, 774)" opacity="0.71"></rect><rect width="58" height="2" x="275" y="520" rx="1" transform="rotate(325, 304, 521)" opacity="0.90"></rect><rect width="99" height="2" x="616.5" y="260" rx="1" transform="rotate(325, 666, 261)" opacity="0.31"></rect><rect width="65" height="2" x="274.5" y="660" rx="1" transform="rotate(325, 307, 661)" opacity="0.47"></rect><rect width="121" height="2" x="402.5" y="505" rx="1" transform="rotate(325, 463, 506)" opacity="0.61"></rect><rect width="234" height="2" x="305" y="372" rx="1" transform="rotate(325, 422, 373)" opacity="0.86"></rect><rect width="145" height="2" x="196.5" y="111" rx="1" transform="rotate(325, 269, 112)" opacity="0.13"></rect><rect width="161" height="2" x="592.5" y="26" rx="1" transform="rotate(325, 673, 27)" opacity="0.78"></rect><rect width="70" height="2" x="723" y="773" rx="1" transform="rotate(325, 758, 774)" opacity="0.76"></rect><rect width="264" height="2" x="187" y="323" rx="1" transform="rotate(325, 319, 324)" opacity="0.41"></rect><rect width="238" height="2" x="231" y="756" rx="1" transform="rotate(325, 350, 757)" opacity="0.76"></rect><rect width="332" height="2" x="-81" y="514" rx="1" transform="rotate(325, 85, 515)" opacity="0.07"></rect><rect width="252" height="2" x="-38" y="584" rx="1" transform="rotate(325, 88, 585)" opacity="0.15"></rect><rect width="114" height="2" x="19" y="371" rx="1" transform="rotate(325, 76, 372)" opacity="0.81"></rect><rect width="154" height="2" x="-29" y="647" rx="1" transform="rotate(325, 48, 648)" opacity="0.91"></rect><rect width="169" height="2" x="515.5" y="271" rx="1" transform="rotate(325, 600, 272)" opacity="0.33"></rect><rect width="36" height="2" x="640" y="645" rx="1" transform="rotate(325, 658, 646)" opacity="0.58"></rect><rect width="149" height="2" x="482.5" y="113" rx="1" transform="rotate(325, 557, 114)" opacity="0.60"></rect><rect width="254" height="2" x="416" y="497" rx="1" transform="rotate(325, 543, 498)" opacity="0.40"></rect><rect width="298" height="2" x="390" y="351" rx="1" transform="rotate(325, 539, 352)" opacity="0.18"></rect><rect width="209" height="2" x="650.5" y="620" rx="1" transform="rotate(325, 755, 621)" opacity="0.85"></rect><rect width="187" height="2" x="412.5" y="63" rx="1" transform="rotate(325, 506, 64)" opacity="0.35"></rect><rect width="69" height="2" x="39.5" y="778" rx="1" transform="rotate(325, 74, 779)" opacity="0.49"></rect><rect width="143" height="2" x="169.5" y="176" rx="1" transform="rotate(325, 241, 177)" opacity="0.38"></rect><rect width="147" height="2" x="609.5" y="349" rx="1" transform="rotate(325, 683, 350)" opacity="0.18"></rect><rect width="231" height="2" x="6.5" y="773" rx="1" transform="rotate(325, 122, 774)" opacity="0.31"></rect><rect width="106" height="2" x="-20" y="728" rx="1" transform="rotate(325, 33, 729)" opacity="0.70"></rect><rect width="203" height="2" x="-73.5" y="539" rx="1" transform="rotate(325, 28, 540)" opacity="0.66"></rect><rect width="180" height="2" x="418" y="543" rx="1" transform="rotate(325, 508, 544)" opacity="0.37"></rect><rect width="174" height="2" x="130" y="590" rx="1" transform="rotate(325, 217, 591)" opacity="0.74"></rect><rect width="195" height="2" x="63.5" y="124" rx="1" transform="rotate(325, 161, 125)" opacity="0.94"></rect><rect width="40" height="2" x="263" y="464" rx="1" transform="rotate(325, 283, 465)" opacity="0.16"></rect><rect width="87" height="2" x="167.5" y="341" rx="1" transform="rotate(325, 211, 342)" opacity="0.12"></rect><rect width="120" height="2" x="401" y="220" rx="1" transform="rotate(325, 461, 221)" opacity="0.19"></rect><rect width="299" height="2" x="569.5" y="214" rx="1" transform="rotate(325, 719, 215)" opacity="0.25"></rect><rect width="86" height="2" x="621" y="689" rx="1" transform="rotate(325, 664, 690)" opacity="0.95"></rect><rect width="34" height="2" x="462" y="401" rx="1" transform="rotate(325, 479, 402)" opacity="0.60"></rect><rect width="119" height="2" x="237.5" y="66" rx="1" transform="rotate(325, 297, 67)" opacity="0.74"></rect><rect width="282" height="2" x="494" y="398" rx="1" transform="rotate(325, 635, 399)" opacity="0.11"></rect><rect width="205" height="2" x="639.5" y="317" rx="1" transform="rotate(325, 742, 318)" opacity="0.77"></rect><rect width="87" height="2" x="-27.5" y="694" rx="1" transform="rotate(325, 16, 695)" opacity="0.27"></rect><rect width="84" height="2" x="382" y="570" rx="1" transform="rotate(325, 424, 571)" opacity="0.65"></rect><rect width="37" height="2" x="157.5" y="636" rx="1" transform="rotate(325, 176, 637)" opacity="0.09"></rect><rect width="77" height="2" x="101.5" y="390" rx="1" transform="rotate(325, 140, 391)" opacity="0.62"></rect><rect width="66" height="2" x="644" y="529" rx="1" transform="rotate(325, 677, 530)" opacity="0.70"></rect><rect width="140" height="2" x="-45" y="40" rx="1" transform="rotate(325, 25, 41)" opacity="0.09"></rect><rect width="202" height="2" x="497" y="54" rx="1" transform="rotate(325, 598, 55)" opacity="0.34"></rect><rect width="82" height="2" x="-14" y="606" rx="1" transform="rotate(325, 27, 607)" opacity="0.42"></rect><rect width="249" height="2" x="-52.5" y="231" rx="1" transform="rotate(325, 72, 232)" opacity="0.73"></rect><rect width="278" height="2" x="360" y="138" rx="1" transform="rotate(325, 499, 139)" opacity="0.09"></rect><rect width="161" height="2" x="332.5" y="128" rx="1" transform="rotate(325, 413, 129)" opacity="0.53"></rect><rect width="158" height="2" x="115" y="708" rx="1" transform="rotate(325, 194, 709)" opacity="0.11"></rect><rect width="149" height="2" x="178.5" y="549" rx="1" transform="rotate(325, 253, 550)" opacity="0.94"></rect><rect width="163" height="2" x="213.5" y="159" rx="1" transform="rotate(325, 295, 160)" opacity="0.58"></rect><rect width="261" height="2" x="424.5" y="617" rx="1" transform="rotate(325, 555, 618)" opacity="0.73"></rect><rect width="46" height="2" x="238" y="361" rx="1" transform="rotate(325, 261, 362)" opacity="0.89"></rect><rect width="234" height="2" x="434" y="181" rx="1" transform="rotate(325, 551, 182)" opacity="0.97"></rect><rect width="207" height="2" x="56.5" y="335" rx="1" transform="rotate(325, 160, 336)" opacity="0.81"></rect><rect width="161" height="2" x="631.5" y="720" rx="1" transform="rotate(325, 712, 721)" opacity="0.11"></rect><rect width="73" height="2" x="550.5" y="675" rx="1" transform="rotate(325, 587, 676)" opacity="0.55"></rect><rect width="109" height="2" x="574.5" y="193" rx="1" transform="rotate(325, 629, 194)" opacity="0.68"></rect><rect width="203" height="2" x="25.5" y="459" rx="1" transform="rotate(325, 127, 460)" opacity="0.55"></rect><rect width="37" height="2" x="190.5" y="294" rx="1" transform="rotate(325, 209, 295)" opacity="0.93"></rect><rect width="104" height="2" x="90" y="32" rx="1" transform="rotate(325, 142, 33)" opacity="0.41"></rect><rect width="257" height="2" x="545.5" y="82" rx="1" transform="rotate(325, 674, 83)" opacity="0.89"></rect><rect width="204" height="2" x="631" y="663" rx="1" transform="rotate(325, 733, 664)" opacity="0.89"></rect><rect width="142" height="2" x="63" y="679" rx="1" transform="rotate(325, 134, 680)" opacity="0.26"></rect><rect width="40" height="2" x="436" y="112" rx="1" transform="rotate(325, 456, 113)" opacity="0.50"></rect><rect width="220" height="2" x="111" y="222" rx="1" transform="rotate(325, 221, 223)" opacity="0.89"></rect><rect width="40" height="2" x="311" y="462" rx="1" transform="rotate(325, 331, 463)" opacity="0.67"></rect><rect width="335" height="2" x="319.5" y="317" rx="1" transform="rotate(325, 487, 318)" opacity="0.60"></rect><rect width="294" height="2" x="-70" y="50" rx="1" transform="rotate(325, 77, 51)" opacity="0.45"></rect><rect width="206" height="2" x="671" y="260" rx="1" transform="rotate(325, 774, 261)" opacity="0.85"></rect><rect width="150" height="2" x="514" y="773" rx="1" transform="rotate(325, 589, 774)" opacity="0.44"></rect><rect width="211" height="2" x="580.5" y="775" rx="1" transform="rotate(325, 686, 776)" opacity="0.30"></rect><rect width="131" height="2" x="288.5" y="578" rx="1" transform="rotate(325, 354, 579)" opacity="0.61"></rect><rect width="226" height="2" x="96" y="135" rx="1" transform="rotate(325, 209, 136)" opacity="0.48"></rect><rect width="66" height="2" x="654" y="591" rx="1" transform="rotate(325, 687, 592)" opacity="0.47"></rect><rect width="230" height="2" x="31" y="556" rx="1" transform="rotate(325, 146, 557)" opacity="0.60"></rect><rect width="270" height="2" x="272" y="308" rx="1" transform="rotate(325, 407, 309)" opacity="0.12"></rect><rect width="269" height="2" x="473.5" y="333" rx="1" transform="rotate(325, 608, 334)" opacity="0.48"></rect><rect width="305" height="2" x="359.5" y="688" rx="1" transform="rotate(325, 512, 689)" opacity="0.94"></rect><rect width="252" height="2" x="-13" y="303" rx="1" transform="rotate(325, 113, 304)" opacity="0.91"></rect><rect width="303" height="2" x="218.5" y="417" rx="1" transform="rotate(325, 370, 418)" opacity="0.49"></rect><rect width="230" height="2" x="508" y="605" rx="1" transform="rotate(325, 623, 606)" opacity="0.67"></rect><rect width="259" height="2" x="-22.5" y="116" rx="1" transform="rotate(325, 107, 117)" opacity="0.20"></rect><rect width="193" height="2" x="452.5" y="21" rx="1" transform="rotate(325, 549, 22)" opacity="0.42"></rect><rect width="92" height="2" x="681" y="541" rx="1" transform="rotate(325, 727, 542)" opacity="0.40"></rect><rect width="157" height="2" x="47.5" y="620" rx="1" transform="rotate(325, 126, 621)" opacity="0.15"></rect><rect width="320" height="2" x="90" y="763" rx="1" transform="rotate(325, 250, 764)" opacity="0.29"></rect><rect width="217" height="2" x="143.5" y="500" rx="1" transform="rotate(325, 252, 501)" opacity="0.08"></rect><rect width="102" height="2" x="90" y="258" rx="1" transform="rotate(325, 141, 259)" opacity="0.63"></rect><rect width="115" height="2" x="459.5" y="441" rx="1" transform="rotate(325, 517, 442)" opacity="0.27"></rect><rect width="178" height="2" x="401" y="762" rx="1" transform="rotate(325, 490, 763)" opacity="0.74"></rect><rect width="351" height="2" x="-136.5" y="440" rx="1" transform="rotate(325, 39, 441)" opacity="0.24"></rect><rect width="207" height="2" x="657.5" y="67" rx="1" transform="rotate(325, 761, 68)" opacity="0.44"></rect><rect width="100" height="2" x="607" y="490" rx="1" transform="rotate(325, 657, 491)" opacity="0.83"></rect><rect width="157" height="2" x="-55.5" y="212" rx="1" transform="rotate(325, 23, 213)" opacity="0.17"></rect><rect width="206" height="2" x="79" y="518" rx="1" transform="rotate(325, 182, 519)" opacity="0.51"></rect><rect width="24" height="2" x="67" y="734" rx="1" transform="rotate(325, 79, 735)" opacity="0.15"></rect><rect width="172" height="2" x="210" y="588" rx="1" transform="rotate(325, 296, 589)" opacity="0.88"></rect><rect width="287" height="2" x="164.5" y="400" rx="1" transform="rotate(325, 308, 401)" opacity="0.75"></rect><rect width="251" height="2" x="561.5" y="427" rx="1" transform="rotate(325, 687, 428)" opacity="0.94"></rect><rect width="171" height="2" x="33.5" y="189" rx="1" transform="rotate(325, 119, 190)" opacity="0.35"></rect></g></svg>