<svg xmlns="http://www.w3.org/2000/svg" version="1.1" xmlns:xlink="http://www.w3.org/1999/xlink" xmlns:svgjs="http://svgjs.dev/svgjs" viewBox="0 0 800 800"><defs><linearGradient x1="50%" y1="0%" x2="50%" y2="100%" id="ffflurry-grad" gradientTransform="rotate(270)"><stop stop-color="hsl(219, 1%, 99%)" stop-opacity="1" offset="0%"></stop><stop stop-color="#fbbf24" stop-opacity="1" offset="45%"></stop><stop stop-color="#04949a" stop-opacity="1" offset="100%"></stop></linearGradient></defs><rect width="100%" height="100%" fill="hsl(219, 1%, 99%)"></rect><g fill="url(#ffflurry-grad)"><rect width="851" height="2" x="-218.5" y="418" rx="1" transform="rotate(314, 207, 419)" opacity="0.92"></rect><rect width="550" height="2" x="432" y="70" rx="1" transform="rotate(314, 707, 71)" opacity="0.83"></rect><rect width="490" height="2" x="342" y="741" rx="1" transform="rotate(314, 587, 742)" opacity="0.52"></rect><rect width="1152" height="2" x="-6" y="385" rx="1" transform="rotate(314, 570, 386)" opacity="0.30"></rect><rect width="670" height="2" x="59" y="269" rx="1" transform="rotate(314, 394, 270)" opacity="0.97"></rect><rect width="253" height="2" x="83.5" y="129" rx="1" transform="rotate(314, 210, 130)" opacity="0.29"></rect><rect width="181" height="2" x="94.5" y="728" rx="1" transform="rotate(314, 185, 729)" opacity="0.42"></rect><rect width="584" height="2" x="184" y="61" rx="1" transform="rotate(314, 476, 62)" opacity="0.21"></rect><rect width="975" height="2" x="214.5" y="228" rx="1" transform="rotate(314, 702, 229)" opacity="0.88"></rect><rect width="962" height="2" x="-167" y="554" rx="1" transform="rotate(314, 314, 555)" opacity="0.24"></rect><rect width="1069" height="2" x="-464.5" y="327" rx="1" transform="rotate(314, 70, 328)" opacity="0.31"></rect><rect width="357" height="2" x="236.5" y="426" rx="1" transform="rotate(314, 415, 427)" opacity="0.60"></rect><rect width="399" height="2" x="542.5" y="693" rx="1" transform="rotate(314, 742, 694)" opacity="0.89"></rect><rect width="540" height="2" x="73" y="148" rx="1" transform="rotate(314, 343, 149)" opacity="0.30"></rect><rect width="134" height="2" x="145" y="251" rx="1" transform="rotate(314, 212, 252)" opacity="0.93"></rect><rect width="1008" height="2" x="-73" y="678" rx="1" transform="rotate(314, 431, 679)" opacity="0.34"></rect><rect width="837" height="2" x="-348.5" y="104" rx="1" transform="rotate(314, 70, 105)" opacity="0.64"></rect><rect width="1144" height="2" x="39" y="582" rx="1" transform="rotate(314, 611, 583)" opacity="0.75"></rect><rect width="356" height="2" x="77" y="38" rx="1" transform="rotate(314, 255, 39)" opacity="0.70"></rect><rect width="655" height="2" x="398.5" y="441" rx="1" transform="rotate(314, 726, 442)" opacity="0.86"></rect><rect width="275" height="2" x="407.5" y="197" rx="1" transform="rotate(314, 545, 198)" opacity="0.53"></rect><rect width="872" height="2" x="-351" y="579" rx="1" transform="rotate(314, 85, 580)" opacity="0.50"></rect></g></svg>