<!-- <svg id='patternId' width='100%' height='100%' xmlns='http://www.w3.org/2000/svg'><defs><pattern id='a' patternUnits='userSpaceOnUse' width='69.283' height='40' patternTransform='scale(2) rotate(0)'><rect x='0' y='0' width='100%' height='100%' fill='hsla(0, 0%, 0%, 1)'/><path d='M46.189-20L57.736 0M46.189 20l11.547 20m-46.189 0l11.547 20M11.547 0l11.547 20m40.415 30H40.415M28.868 30H5.774m23.094-40H5.774m57.735 20H40.415m0 20L28.868 50m11.547-60L28.868 10m46.188 0L63.509 30M5.774 10L-5.773 30m75.056 10H46.189L34.64 20 46.19 0h23.094C73.13 6.667 76.98 13.333 80.83 20zM57.736 60H34.64L23.094 40l11.547-20h23.095c3.848 6.667 7.698 13.333 11.547 20L57.736 60zm0-40H34.64L23.094 0l11.547-20h23.095L69.283 0c-3.87 6.7-8.118 14.06-11.547 20zM34.64 60H11.547L0 40l11.547-20h23.094L46.19 40 34.64 60zm0-40H11.547L0 0l11.547-20h23.094L46.19 0 34.64 20zM23.094 40H0l-5.773-10-5.774-10L0 0h23.094l11.547 20-11.547 20z'  stroke-width='1' stroke='hsla(122, 39%, 49%, 1)' fill='none'/></pattern></defs><rect width='800%' height='800%' transform='translate(0,0)' fill='url(#a)'/></svg> -->
<svg xmlns="http://www.w3.org/2000/svg" version="1.1" xmlns:xlink="http://www.w3.org/1999/xlink" xmlns:svgjs="http://svgjs.dev/svgjs" viewBox="0 0 800 800"><defs><linearGradient x1="50%" y1="0%" x2="50%" y2="100%" id="ffflurry-grad" gradientTransform="rotate(270)"><stop stop-color="hsl(0, 0%, 100%)" stop-opacity="1" offset="0%"></stop><stop stop-color="#00a1a3" stop-opacity="1" offset="45%"></stop><stop stop-color="hsl(55, 94%, 54%)" stop-opacity="1" offset="100%"></stop></linearGradient></defs><rect width="100%" height="100%" fill="hsl(0, 0%, 100%)"></rect><g fill="url(#ffflurry-grad)"><rect width="319" height="4" x="551.5" y="44" rx="2" transform="rotate(313, 711, 46)" opacity="0.53"></rect><rect width="262" height="4" x="199" y="318" rx="2" transform="rotate(313, 330, 320)" opacity="0.92"></rect><rect width="399" height="4" x="504.5" y="559" rx="2" transform="rotate(313, 704, 561)" opacity="0.15"></rect><rect width="394" height="4" x="501" y="148" rx="2" transform="rotate(313, 698, 150)" opacity="0.73"></rect><rect width="438" height="4" x="226" y="646" rx="2" transform="rotate(313, 445, 648)" opacity="0.89"></rect><rect width="105" height="4" x="385.5" y="174" rx="2" transform="rotate(313, 438, 176)" opacity="0.47"></rect><rect width="1046" height="4" x="-347" y="300" rx="2" transform="rotate(313, 176, 302)" opacity="0.84"></rect><rect width="142" height="4" x="-9" y="130" rx="2" transform="rotate(313, 62, 132)" opacity="0.31"></rect><rect width="223" height="4" x="629.5" y="728" rx="2" transform="rotate(313, 741, 730)" opacity="0.89"></rect><rect width="698" height="4" x="-302" y="730" rx="2" transform="rotate(313, 47, 732)" opacity="0.83"></rect><rect width="103" height="4" x="444.5" y="749" rx="2" transform="rotate(313, 496, 751)" opacity="0.25"></rect><rect width="375" height="4" x="434.5" y="687" rx="2" transform="rotate(313, 622, 689)" opacity="0.50"></rect><rect width="765" height="4" x="248.5" y="430" rx="2" transform="rotate(313, 631, 432)" opacity="0.10"></rect><rect width="248" height="4" x="123" y="45" rx="2" transform="rotate(313, 247, 47)" opacity="0.07"></rect><rect width="167" height="4" x="59.5" y="653" rx="2" transform="rotate(313, 143, 655)" opacity="0.10"></rect><rect width="736" height="4" x="311" y="259" rx="2" transform="rotate(313, 679, 261)" opacity="0.60"></rect><rect width="207" height="4" x="128.5" y="162" rx="2" transform="rotate(313, 232, 164)" opacity="0.74"></rect><rect width="434" height="4" x="535" y="386" rx="2" transform="rotate(313, 752, 388)" opacity="0.24"></rect><rect width="1038" height="4" x="-201" y="477" rx="2" transform="rotate(313, 318, 479)" opacity="0.87"></rect><rect width="573" height="4" x="-116.5" y="758" rx="2" transform="rotate(313, 170, 760)" opacity="0.70"></rect><rect width="685" height="4" x="181.5" y="65" rx="2" transform="rotate(313, 524, 67)" opacity="0.75"></rect><rect width="445" height="4" x="39.5" y="632" rx="2" transform="rotate(313, 262, 634)" opacity="0.88"></rect><rect width="668" height="4" x="-287" y="578" rx="2" transform="rotate(313, 47, 580)" opacity="0.37"></rect><rect width="226" height="4" x="391" y="357" rx="2" transform="rotate(313, 504, 359)" opacity="0.47"></rect><rect width="266" height="4" x="343" y="532" rx="2" transform="rotate(313, 476, 534)" opacity="0.22"></rect><rect width="232" height="4" x="-56" y="375" rx="2" transform="rotate(313, 60, 377)" opacity="0.79"></rect><rect width="602" height="4" x="-144" y="496" rx="2" transform="rotate(313, 157, 498)" opacity="0.43"></rect><rect width="431" height="4" x="113.5" y="738" rx="2" transform="rotate(313, 329, 740)" opacity="0.78"></rect></g></svg>