<svg xmlns="http://www.w3.org/2000/svg" viewBox="0 0 500 500"><g id="freepik--background-complete--inject-52"><path d="M317.81,250.31l-120.35-1.13L161,249l-9.92,0-2.58,0a7.44,7.44,0,0,0-.88,0,5,5,0,0,0,.88.06l2.58.06,9.91.12,36.48.19,120.36.08c47,0,89.51,0,120.31.27,15.39.11,27.85.25,36.47.42,4.3.08,7.65.16,9.91.25a18.7,18.7,0,0,1,3.46.25,18.62,18.62,0,0,1-3.46.22c-2.27.06-5.61.11-9.92.15-8.61.08-21.07.1-36.47,0C407.32,251.14,364.79,250.78,317.81,250.31Z" style="fill:#f5f5f5"></path><path d="M316.88,260.61,198.17,241.32l-36-5.68-9.8-1.47-2.55-.35a4.79,4.79,0,0,0-.88-.09,5.61,5.61,0,0,0,.86.19l2.54.45L162.1,236l36,5.7L317,259.93C363.4,267,405.41,273.5,435.8,278.37c15.19,2.43,27.48,4.45,36,5.91,4.24.73,7.53,1.32,9.75,1.75a18.81,18.81,0,0,1,3.38.78,18.54,18.54,0,0,1-3.46-.3c-2.25-.28-5.56-.73-9.82-1.35-8.52-1.22-20.83-3.08-36-5.45C405.16,275,363.2,268.18,316.88,260.61Z" style="fill:#f5f5f5"></path><path d="M314.29,270.65l-114.1-37.23-34.63-11.11-9.45-3-2.46-.74a4.74,4.74,0,0,0-.85-.21,7.26,7.26,0,0,0,.82.32l2.43.83,9.39,3.1,34.62,11.14L314.51,270c44.68,14.1,85.12,26.93,114.34,36.39,14.61,4.72,26.42,8.6,34.55,11.35,4.07,1.37,7.23,2.45,9.35,3.22a18,18,0,0,1,3.21,1.28,17.67,17.67,0,0,1-3.36-.82c-2.18-.62-5.38-1.57-9.49-2.83-8.21-2.51-20.07-6.24-34.7-10.9C399.15,298.35,358.81,285.22,314.29,270.65Z" style="fill:#f5f5f5"></path><path d="M310.11,280.16,203.46,226l-32.41-16.27-8.84-4.37-2.31-1.1a4.71,4.71,0,0,0-.81-.35,5.47,5.47,0,0,0,.76.44l2.26,1.19,8.78,4.5,32.39,16.29,107.16,53.27c41.84,20.76,79.69,39.61,107,53.42,13.66,6.9,24.69,12.54,32.28,16.49,3.8,2,6.74,3.53,8.72,4.61a19,19,0,0,1,3,1.75,17.28,17.28,0,0,1-3.18-1.33c-2.05-.94-5.05-2.37-8.91-4.24-7.7-3.74-18.81-9.24-32.5-16.08C389.43,320.48,351.72,301.35,310.11,280.16Z" style="fill:#f5f5f5"></path><path d="M304.45,288.91l-96.62-69.74-29.39-21-8-5.65-2.11-1.45a4.7,4.7,0,0,0-.74-.46,6.52,6.52,0,0,0,.67.55l2.05,1.52,7.95,5.77,29.37,21,97.27,68.89c38,26.85,72.35,51.23,97.11,69,12.39,8.89,22.38,16.13,29.24,21.19,3.43,2.53,6.09,4.51,7.87,5.88a18.28,18.28,0,0,1,2.64,2.18,17.26,17.26,0,0,1-2.94-1.8c-1.87-1.24-4.6-3.11-8.11-5.54-7-4.87-17.1-12-29.52-20.82C376.31,340.79,342.14,316.16,304.45,288.91Z" style="fill:#f5f5f5"></path><path d="M297.46,296.7l-84.29-83.5L187.5,188l-7-6.79-1.85-1.75a4.71,4.71,0,0,0-.66-.57,6.8,6.8,0,0,0,.58.64l1.78,1.82,6.92,6.9,25.66,25.2L298,296.22c33.23,32.27,63.27,61.54,84.88,82.86,10.82,10.66,19.52,19.32,25.5,25.35,3,3,5.28,5.38,6.82,7a17.44,17.44,0,0,1,2.26,2.55,17.23,17.23,0,0,1-2.61-2.22c-1.65-1.51-4.05-3.77-7.12-6.7-6.15-5.87-15-14.42-25.83-25C360.14,358.8,330.33,329.32,297.46,296.7Z" style="fill:#f5f5f5"></path><path d="M289.3,303.34l-69.89-95.23c-9-12.13-16.28-21.94-21.33-28.76l-5.86-7.78-1.55-2a4.63,4.63,0,0,0-.55-.66,4.44,4.44,0,0,0,.47.72c.34.49.83,1.17,1.46,2.06l5.74,7.86,21.3,28.78,70.79,94.6c27.66,36.91,52.65,70.36,70.59,94.69,9,12.16,16.19,22,21.12,28.9,2.47,3.43,4.37,6.11,5.63,7.94a17.29,17.29,0,0,1,1.82,2.87,19,19,0,0,1-2.22-2.59c-1.39-1.75-3.4-4.34-6-7.7-5.13-6.73-12.48-16.51-21.51-28.63C341.29,374.16,316.56,340.52,289.3,303.34Z" style="fill:#f5f5f5"></path><path d="M280.19,308.65c-21-40.87-40-77.86-53.72-104.68L210,172.33c-2-3.7-3.48-6.58-4.54-8.57-.51-1-.91-1.69-1.2-2.22a5.94,5.94,0,0,0-.45-.74,7.32,7.32,0,0,0,.35.79l1.12,2.26c1,2,2.5,4.91,4.39,8.64,3.9,7.5,9.5,18.31,16.42,31.66l54.7,104.19c21.38,40.66,40.68,77.5,54.49,104.25,6.91,13.38,12.45,24.23,16.21,31.75,1.89,3.77,3.33,6.7,4.28,8.7a17.13,17.13,0,0,1,1.34,3.11,17,17,0,0,1-1.78-2.89c-1.09-1.93-2.66-4.8-4.66-8.51-4-7.42-9.67-18.2-16.64-31.55C320.13,386.51,301.12,349.53,280.19,308.65Z" style="fill:#f5f5f5"></path><path d="M270.32,312.52c-14.1-43.58-26.85-83-36.1-111.59-4.68-14.24-8.48-25.76-11.11-33.77-1.34-3.95-2.38-7-3.09-9.15l-.84-2.38a4.05,4.05,0,0,0-.32-.79,7.86,7.86,0,0,0,.22.83c.17.57.42,1.36.74,2.4l2.94,9.2L233.84,201,271,312.31c14.53,43.41,27.63,82.75,36.94,111.28,4.65,14.26,8.36,25.83,10.87,33.84,1.25,4,2.2,7.12,2.81,9.24a17.15,17.15,0,0,1,.82,3.27,16.67,16.67,0,0,1-1.29-3.12c-.77-2.08-1.85-5.15-3.22-9.12-2.74-7.94-6.61-19.45-11.33-33.7C297.16,395.51,284.37,356.08,270.32,312.52Z" style="fill:#f5f5f5"></path><path d="M260,314.82c-6.87-45.18-13.08-86.08-17.59-115.72-2.32-14.77-4.2-26.73-5.5-35-.68-4.11-1.21-7.31-1.57-9.52-.19-1.06-.34-1.88-.44-2.47a4.89,4.89,0,0,0-.19-.83,4.94,4.94,0,0,0,.08.85c.08.59.19,1.41.34,2.48.33,2.22.8,5.42,1.42,9.54l5.48,35c4.78,29.6,11.38,70.43,18.67,115.56s13.89,85.94,18.46,115.54c2.29,14.8,4.08,26.79,5.26,35.08.59,4.15,1,7.37,1.29,9.56a16.58,16.58,0,0,1,.27,3.36,17.16,17.16,0,0,1-.76-3.29c-.42-2.16-1-5.37-1.71-9.5-1.42-8.25-3.38-20.21-5.73-35C273,400.89,266.78,360,260,314.82Z" style="fill:#f5f5f5"></path><path d="M249.33,315.52c.43-45.67.81-87,1.09-117,.06-14.94.11-27,.15-35.45,0-4.16,0-7.4,0-9.63,0-1.08,0-1.91,0-2.51a6.75,6.75,0,0,0,0-.85,4.53,4.53,0,0,0-.06.85c0,.6,0,1.43-.06,2.51,0,2.23-.07,5.47-.12,9.63,0,8.41-.1,20.5-.17,35.45,0,30,0,71.3,0,117s0,87-.21,116.93c-.1,15-.24,27.07-.4,35.44-.08,4.19-.16,7.44-.25,9.64a17,17,0,0,1-.26,3.36,18,18,0,0,1-.23-3.36c-.06-2.21-.12-5.46-.16-9.64-.08-8.37-.11-20.49-.07-35.45C248.53,402.52,248.88,361.18,249.33,315.52Z" style="fill:#f5f5f5"></path><path d="M238.73,314.62c7.72-45.06,14.71-85.83,19.78-115.38,2.45-14.76,4.44-26.71,5.82-35,.65-4.11,1.15-7.32,1.5-9.53.16-1.06.28-1.89.37-2.48a4.94,4.94,0,0,0,.08-.85,7.19,7.19,0,0,0-.19.84l-.46,2.46c-.39,2.21-.95,5.4-1.66,9.5-1.39,8.3-3.38,20.24-5.85,35-4.79,29.6-11.39,70.44-18.69,115.56s-13.9,85.94-18.89,115.48c-2.5,14.77-4.57,26.71-6.07,35-.75,4.13-1.35,7.32-1.79,9.49a16.17,16.17,0,0,1-.8,3.27,17.13,17.13,0,0,1,.31-3.35c.28-2.19.75-5.41,1.38-9.55,1.25-8.28,3.16-20.25,5.59-35C224,400.44,231,359.65,238.73,314.62Z" style="fill:#f5f5f5"></path><path d="M228.4,312.11,266.63,201.2c4.82-14.2,8.71-25.69,11.42-33.67l3-9.18.76-2.39a4.29,4.29,0,0,0,.22-.83,5.07,5.07,0,0,0-.32.79c-.21.56-.49,1.35-.86,2.37-.74,2.12-1.81,5.18-3.18,9.13-2.71,8-6.62,19.46-11.44,33.66-9.53,28.49-22.67,67.81-37.18,111.25s-27.65,82.75-37.37,111.15c-4.85,14.2-8.84,25.68-11.65,33.59-1.41,3.95-2.53,7-3.31,9.09a17.82,17.82,0,0,1-1.32,3.11,16.34,16.34,0,0,1,.84-3.27c.64-2.11,1.62-5.22,2.91-9.22,2.58-8,6.4-19.51,11.2-33.73C200,394.6,213.44,355.39,228.4,312.11Z" style="fill:#f5f5f5"></path><path d="M218.61,308.06c21.76-40.49,41.45-77.13,55.71-103.69l16.73-31.51,4.48-8.59,1.14-2.25a4.27,4.27,0,0,0,.35-.79,8,8,0,0,0-.45.74l-1.23,2.2-4.61,8.53L274,204.19,219.24,308.37c-21.33,40.68-40.71,77.49-54.9,104.05-7.09,13.28-12.88,24-16.94,31.39-2,3.69-3.63,6.55-4.74,8.47a19.4,19.4,0,0,1-1.8,2.88,16.37,16.37,0,0,1,1.36-3.1c1-2,2.45-4.91,4.37-8.66,3.84-7.49,9.48-18.29,16.52-31.6C177.18,385.18,196.84,348.51,218.61,308.06Z" style="fill:#f5f5f5"></path><path d="M209.6,302.56l71.71-93.95L302.89,180l5.81-7.82,1.49-2a6.8,6.8,0,0,0,.48-.72,4.63,4.63,0,0,0-.57.65l-1.57,2-5.93,7.72L281,208.39,210.18,303c-27.62,36.94-52.67,70.35-71,94.43-9.15,12-16.59,21.75-21.79,28.43-2.6,3.33-4.64,5.91-6,7.64a18.09,18.09,0,0,1-2.25,2.57,17.39,17.39,0,0,1,1.85-2.85c1.28-1.82,3.2-4.48,5.7-7.89,5-6.82,12.32-16.62,21.41-28.7C156.27,372.44,181.59,339.21,209.6,302.56Z" style="fill:#f5f5f5"></path><path d="M201.59,295.77l85.86-82,25.9-25c3-3,5.36-5.26,7-6.84l1.79-1.8a6.31,6.31,0,0,0,.59-.64,5.92,5.92,0,0,0-.66.56l-1.87,1.74-7.1,6.73c-6.14,5.91-15,14.43-25.91,24.94l-85.09,82.73c-33.19,32.31-63.29,61.53-85.21,82.55-11,10.51-19.87,19-26.07,24.79-3.1,2.9-5.53,5.14-7.19,6.64a18.28,18.28,0,0,1-2.63,2.2,16.75,16.75,0,0,1,2.28-2.54c1.56-1.6,3.88-3.94,6.9-6.93,6-6,14.82-14.56,25.73-25.12C137.72,356.73,168.05,327.74,201.59,295.77Z" style="fill:#f5f5f5"></path><path d="M194.75,287.85l97.94-68,29.58-20.75,8-5.7,2.06-1.5a7.25,7.25,0,0,0,.68-.54,5,5,0,0,0-.74.45l-2.13,1.43-8.08,5.58-29.59,20.72-97.3,68.86c-38,26.9-72.36,51.21-97.38,68.66-12.51,8.73-22.67,15.75-29.72,20.55-3.53,2.4-6.29,4.25-8.17,5.47A17.41,17.41,0,0,1,57,384.86a18.8,18.8,0,0,1,2.66-2.16c1.8-1.35,4.47-3.3,7.92-5.8,6.92-5,17-12.14,29.45-20.92C121.91,338.42,156.51,314.36,194.75,287.85Z" style="fill:#f5f5f5"></path><path d="M189.27,279,297,226.72l32.55-16,8.81-4.41,2.28-1.18a5,5,0,0,0,.76-.43,6.67,6.67,0,0,0-.81.34l-2.32,1.09-8.89,4.28-32.56,16L189.59,279.61c-41.81,20.8-79.7,39.59-107.22,53-13.76,6.72-24.92,12.11-32.66,15.78-3.88,1.83-6.89,3.24-9,4.16a17.3,17.3,0,0,1-3.2,1.3,18.49,18.49,0,0,1,3-1.73c2-1.06,4.94-2.59,8.75-4.53,7.63-3.88,18.72-9.41,32.45-16.19C109.19,317.86,147.23,299.36,189.27,279Z" style="fill:#f5f5f5"></path><path d="M185.29,269.41l114.8-35.16,34.73-10.82,9.42-3,2.44-.81a6.46,6.46,0,0,0,.82-.31,4.74,4.74,0,0,0-.85.21l-2.47.71-9.47,2.87L300,233.88,185.51,270.06C140.85,284.22,100.39,297,71,306c-14.68,4.54-26.57,8.15-34.81,10.59-4.12,1.22-7.33,2.14-9.51,2.74a19,19,0,0,1-3.37.8,18.18,18.18,0,0,1,3.22-1.26c2.13-.74,5.29-1.8,9.38-3.13,8.16-2.67,20-6.44,34.66-11C99.92,295.55,140.48,283.09,185.29,269.41Z" style="fill:#f5f5f5"></path><path d="M182.92,259.33,302,242.16l36-5.37,9.79-1.53,2.55-.43a5.09,5.09,0,0,0,.86-.18,5.74,5.74,0,0,0-.88.07l-2.56.34L338,236.44l-36.06,5.35L183,260c-46.39,7.15-88.42,13.55-118.87,18-15.23,2.24-27.56,4-36.09,5.14-4.27.57-7.58,1-9.83,1.25a18.65,18.65,0,0,1-3.46.27,18.29,18.29,0,0,1,3.38-.74c2.23-.41,5.52-1,9.77-1.66,8.5-1.39,20.8-3.3,36-5.6C94.37,272.09,136.44,266,182.92,259.33Z" style="fill:#f5f5f5"></path><path d="M182.19,249l120.35,1,36.48.13,9.91,0,2.58,0a6,6,0,0,0,.88-.05,5,5,0,0,0-.88-.06l-2.58-.05-9.91-.11-36.48-.15-120.36.07c-47,.06-89.51.05-120.31-.13-15.39-.09-27.85-.22-36.47-.37-4.3-.07-7.65-.15-9.91-.24a17.63,17.63,0,0,1-3.46-.25,18.62,18.62,0,0,1,3.46-.22c2.27-.07,5.61-.12,9.92-.17,8.61-.08,21.07-.11,36.47-.09C92.68,248.28,135.21,248.59,182.19,249Z" style="fill:#f5f5f5"></path><path d="M183.11,238.7l118.74,19.15,36,5.64,9.8,1.46,2.55.35a5.29,5.29,0,0,0,.88.08,5.61,5.61,0,0,0-.86-.19l-2.54-.45-9.78-1.6-36-5.66L183,239.38c-46.42-7-88.44-13.45-118.83-18.28-15.2-2.42-27.49-4.42-36-5.88-4.24-.72-7.53-1.31-9.76-1.73a17.22,17.22,0,0,1-3.37-.78,19.7,19.7,0,0,1,3.45.3c2.25.28,5.56.73,9.82,1.33,8.53,1.22,20.84,3.07,36.05,5.42C94.8,224.46,136.77,231.19,183.11,238.7Z" style="fill:#f5f5f5"></path><path d="M185.68,228.66l114.15,37.09,34.65,11.07,9.45,2.95,2.46.73a5.68,5.68,0,0,0,.85.22,4.36,4.36,0,0,0-.81-.32l-2.44-.83-9.39-3.09L300,265.39l-114.5-36.07c-44.7-14-85.15-26.82-114.38-36.24-14.62-4.71-26.43-8.57-34.57-11.31-4.07-1.36-7.23-2.45-9.36-3.21a18.07,18.07,0,0,1-3.2-1.28,18.07,18.07,0,0,1,3.36.82c2.18.62,5.38,1.57,9.49,2.82,8.22,2.5,20.08,6.21,34.72,10.86C100.79,201.07,141.14,214.15,185.68,228.66Z" style="fill:#f5f5f5"></path><path d="M189.85,219.15l106.72,54.08L329,289.46l8.85,4.35,2.31,1.11a5.06,5.06,0,0,0,.81.34,7.18,7.18,0,0,0-.76-.44l-2.27-1.19-8.77-4.48-32.42-16.26L189.53,219.76c-41.87-20.71-79.75-39.51-107.09-53.29C68.77,159.59,57.73,154,50.13,150c-3.8-2-6.74-3.52-8.72-4.6a18,18,0,0,1-3-1.75A18.49,18.49,0,0,1,41.64,145c2,.94,5,2.37,8.91,4.23,7.71,3.73,18.82,9.21,32.52,16C110.47,178.93,148.21,198,189.85,219.15Z" style="fill:#f5f5f5"></path><path d="M195.5,210.39,292.21,280l29.42,21,8,5.64,2.11,1.44a7.32,7.32,0,0,0,.74.47,5,5,0,0,0-.68-.55l-2-1.52c-1.84-1.34-4.51-3.28-8-5.76l-29.4-21L195.08,211c-38-26.82-72.41-51.15-97.2-68.91-12.4-8.88-22.4-16.11-29.27-21.15-3.43-2.53-6.09-4.51-7.87-5.87a19.15,19.15,0,0,1-2.64-2.18A17.75,17.75,0,0,1,61,114.63c1.88,1.25,4.61,3.11,8.12,5.54,7,4.86,17.12,12,29.55,20.78C123.57,158.6,157.77,183.19,195.5,210.39Z" style="fill:#f5f5f5"></path><path d="M202.48,202.59l84.4,83.4,25.7,25.16,7,6.78,1.85,1.75a5.54,5.54,0,0,0,.66.57,5.33,5.33,0,0,0-.58-.64l-1.78-1.82-6.93-6.89-25.69-25.17L202,203.08c-33.27-32.23-63.35-61.47-85-82.76C106.16,109.67,97.45,101,91.47,95c-3-3-5.3-5.37-6.84-7a18.11,18.11,0,0,1-2.26-2.55A17.44,17.44,0,0,1,85,87.67c1.65,1.52,4.06,3.77,7.13,6.7,6.16,5.86,15,14.4,25.86,25C139.72,140.57,169.57,170,202.48,202.59Z" style="fill:#f5f5f5"></path><path d="M210.63,196l70,95.14L302,319.82l5.87,7.77,1.55,2a6,6,0,0,0,.56.66,6.73,6.73,0,0,0-.47-.73l-1.47-2.06-5.74-7.85L281,290.87l-70.91-94.52c-27.7-36.87-52.74-70.3-70.71-94.6-9-12.15-16.22-22-21.16-28.87-2.47-3.43-4.37-6.1-5.64-7.94a17.54,17.54,0,0,1-1.82-2.86,17.66,17.66,0,0,1,2.22,2.58c1.39,1.75,3.41,4.34,6,7.7,5.14,6.71,12.51,16.49,21.55,28.6C158.55,125.19,183.33,158.79,210.63,196Z" style="fill:#f5f5f5"></path><path d="M219.74,190.62l53.85,104.61c7,13.34,12.58,24.13,16.48,31.63,2,3.69,3.49,6.57,4.55,8.56l1.21,2.22a6.77,6.77,0,0,0,.44.73,5.22,5.22,0,0,0-.34-.78l-1.12-2.26c-1-2-2.51-4.91-4.41-8.63l-16.46-31.64L219.11,190.93c-21.44-40.63-40.79-77.45-54.63-104.18C157.55,73.38,152,62.54,148.22,55c-1.89-3.77-3.33-6.7-4.29-8.7a18.7,18.7,0,0,1-1.34-3.1,16.74,16.74,0,0,1,1.79,2.89c1.09,1.93,2.66,4.8,4.66,8.5,4,7.42,9.7,18.19,16.68,31.53C179.69,112.81,198.75,149.77,219.74,190.62Z" style="fill:#f5f5f5"></path><path d="M229.6,186.74l36.24,111.55C270.55,312.52,274.36,324,277,332l3.1,9.15c.37,1,.64,1.81.84,2.37a5,5,0,0,0,.32.8,4.19,4.19,0,0,0-.21-.83c-.18-.57-.43-1.37-.74-2.4l-3-9.2c-2.64-8-6.44-19.52-11.13-33.76-9.55-28.49-22.73-67.79-37.3-111.22s-27.74-82.71-37.08-111.23c-4.68-14.26-8.4-25.82-10.92-33.83-1.25-4-2.21-7.11-2.82-9.24a16,16,0,0,1-.82-3.27,17.52,17.52,0,0,1,1.29,3.13c.77,2.07,1.86,5.14,3.23,9.11,2.75,7.93,6.64,19.44,11.37,33.68C202.65,103.78,215.49,143.2,229.6,186.74Z" style="fill:#f5f5f5"></path><path d="M240,184.42c6.92,45.18,13.19,86.07,17.73,115.7,2.34,14.78,4.24,26.73,5.56,35,.68,4.11,1.21,7.31,1.58,9.51.19,1.07.34,1.89.44,2.47a5.24,5.24,0,0,0,.19.84,4.94,4.94,0,0,0-.08-.85c-.08-.59-.2-1.42-.34-2.49-.34-2.21-.82-5.42-1.43-9.53l-5.53-35c-4.82-29.6-11.47-70.43-18.82-115.54S225.26,98.6,220.65,69c-2.3-14.8-4.11-26.78-5.3-35.07-.59-4.15-1-7.37-1.3-9.56a18.31,18.31,0,0,1-.28-3.36,16.58,16.58,0,0,1,.77,3.29c.42,2.16,1,5.36,1.72,9.49,1.43,8.26,3.4,20.22,5.77,35C226.78,98.37,233.08,139.26,240,184.42Z" style="fill:#f5f5f5"></path><path d="M250.58,183.71c-.36,45.68-.69,87-.93,117-.05,14.95-.08,27.05-.11,35.45,0,4.16,0,7.4,0,9.64,0,1.08,0,1.91,0,2.51a5.58,5.58,0,0,0,0,.85,4.67,4.67,0,0,0,.06-.85c0-.6,0-1.43.05-2.51,0-2.24.06-5.48.11-9.64,0-8.4.07-20.5.13-35.45,0-30-.09-71.29-.15-117s-.11-87,.06-116.93c.08-15,.21-27.08.36-35.45.07-4.18.15-7.43.24-9.64a17.7,17.7,0,0,1,.25-3.36A17.14,17.14,0,0,1,251,21.7c.07,2.2.13,5.45.18,9.64.09,8.37.13,20.48.11,35.44C251.27,96.71,251,138.06,250.58,183.71Z" style="fill:#f5f5f5"></path><path d="M261.19,184.6c-7.67,45.07-14.6,85.85-19.63,115.41-2.43,14.76-4.4,26.71-5.77,35-.65,4.12-1.15,7.32-1.5,9.53-.15,1.07-.27,1.89-.36,2.48a4.94,4.94,0,0,0-.08.85A4.89,4.89,0,0,0,234,347l.46-2.47c.38-2.2.94-5.4,1.65-9.5,1.37-8.3,3.35-20.24,5.8-35,4.74-29.6,11.3-70.45,18.54-115.58s13.78-86,18.74-115.5c2.47-14.77,4.53-26.72,6-35,.74-4.13,1.34-7.32,1.78-9.49a16.36,16.36,0,0,1,.79-3.28,17.51,17.51,0,0,1-.3,3.36c-.29,2.19-.75,5.41-1.37,9.55-1.24,8.28-3.14,20.25-5.55,35C275.79,98.77,268.89,139.56,261.19,184.6Z" style="fill:#f5f5f5"></path><path d="M271.52,187.1c-14.87,43.33-28.33,82.54-38.09,111-4.79,14.2-8.67,25.7-11.37,33.68-1.3,4-2.32,7.05-3,9.18l-.75,2.4a5.92,5.92,0,0,0-.23.83,5.36,5.36,0,0,0,.33-.8c.2-.56.49-1.34.85-2.36.74-2.12,1.81-5.19,3.17-9.14l11.4-33.67c9.48-28.51,22.57-67.84,37-111.3s27.54-82.78,37.22-111.19c4.83-14.21,8.8-25.69,11.61-33.61,1.4-4,2.51-7,3.3-9.09a17.83,17.83,0,0,1,1.31-3.12,16.34,16.34,0,0,1-.84,3.27c-.63,2.12-1.61,5.23-2.89,9.22-2.57,8-6.38,19.52-11.15,33.75C299.85,104.57,286.42,143.8,271.52,187.1Z" style="fill:#f5f5f5"></path><path d="M281.31,191.14,225.74,294.9l-16.69,31.52c-1.93,3.72-3.43,6.61-4.47,8.6l-1.13,2.26a7,7,0,0,0-.36.78,4.42,4.42,0,0,0,.45-.74c.3-.52.7-1.25,1.23-2.2l4.61-8.54,16.7-31.51c14-26.7,33.28-63.54,54.6-104.25s40.61-77.53,54.76-104.11c7.08-13.29,12.86-24,16.91-31.41,2-3.69,3.62-6.55,4.72-8.48a17.87,17.87,0,0,1,1.81-2.88,18,18,0,0,1-1.37,3.1c-1,2-2.44,4.92-4.35,8.66-3.83,7.5-9.46,18.31-16.48,31.63C322.64,114,303,150.66,281.31,191.14Z" style="fill:#f5f5f5"></path><path d="M290.33,196.62l-71.58,94c-9.09,12.06-16.44,21.83-21.55,28.6-2.5,3.38-4.45,6-5.8,7.82l-1.48,2.05a6.8,6.8,0,0,0-.48.72,4.3,4.3,0,0,0,.56-.65l1.57-2,5.92-7.73,21.57-28.58,70.7-94.68c27.56-37,52.57-70.41,70.83-94.51,9.13-12,16.56-21.77,21.75-28.45,2.59-3.35,4.63-5.93,6-7.66A17.74,17.74,0,0,1,390.61,63a16.78,16.78,0,0,1-1.84,2.85c-1.28,1.83-3.2,4.49-5.69,7.9-5,6.82-12.29,16.64-21.37,28.73C343.57,126.68,318.29,159.94,290.33,196.62Z" style="fill:#f5f5f5"></path><path d="M298.35,203.4c-33.48,32.06-63.79,61.06-85.75,82.08l-25.87,25-7,6.84-1.79,1.8a6.31,6.31,0,0,0-.59.64,4.13,4.13,0,0,0,.66-.56l1.87-1.73c1.64-1.57,4-3.83,7.09-6.74,6.13-5.93,15-14.45,25.88-25l85-82.83c33.15-32.36,63.21-61.61,85.1-82.66,10.95-10.52,19.85-19,26-24.82,3.1-2.91,5.52-5.15,7.18-6.65a18.28,18.28,0,0,1,2.63-2.2,17.37,17.37,0,0,1-2.28,2.54c-1.55,1.61-3.87,4-6.89,6.94-6,6-14.8,14.58-25.7,25.15C362.14,142.36,331.85,171.4,298.35,203.4Z" style="fill:#f5f5f5"></path><path d="M305.2,211.32l-97.85,68.11L177.8,300.21l-8,5.71-2.06,1.51a5.61,5.61,0,0,0-.68.54,4.7,4.7,0,0,0,.74-.46l2.12-1.43L178,300.5l29.56-20.77,97.21-69c37.92-26.95,72.3-51.3,97.29-68.79,12.5-8.74,22.65-15.77,29.7-20.58,3.52-2.4,6.27-4.25,8.16-5.48a18.3,18.3,0,0,1,2.94-1.78,17.27,17.27,0,0,1-2.66,2.16c-1.79,1.36-4.46,3.32-7.91,5.82-6.91,5-16.95,12.16-29.41,21C378,160.66,343.41,184.76,305.2,211.32Z" style="fill:#f5f5f5"></path><path d="M310.69,220.17l-107.61,52.4-32.53,16L161.74,293l-2.27,1.17a4.43,4.43,0,0,0-.76.44,6.67,6.67,0,0,0,.81-.34l2.32-1.09,8.88-4.29,32.54-16,107.11-53.36c41.78-20.85,79.65-39.68,107.15-53.16,13.75-6.73,24.91-12.14,32.64-15.81,3.87-1.84,6.89-3.25,8.95-4.18a17.1,17.1,0,0,1,3.19-1.3,18,18,0,0,1-3,1.73c-2,1.07-4.94,2.6-8.75,4.54-7.63,3.89-18.7,9.44-32.42,16.23C390.72,181.2,352.7,199.75,310.69,220.17Z" style="fill:#f5f5f5"></path><path d="M314.68,229.75l-114.75,35.3-34.72,10.86-9.41,3-2.44.81a4.94,4.94,0,0,0-.82.31,4.74,4.74,0,0,0,.85-.21l2.47-.72,9.47-2.88,34.72-10.84,114.41-36.32c44.65-14.21,85.09-27,114.43-36.11,14.67-4.55,26.56-8.18,34.8-10.63,4.11-1.23,7.32-2.15,9.5-2.76a18.54,18.54,0,0,1,3.37-.8,17.24,17.24,0,0,1-3.22,1.26c-2.13.75-5.29,1.81-9.37,3.15-8.16,2.68-20,6.46-34.65,11.07C400,203.5,359.48,216,314.68,229.75Z" style="fill:#f5f5f5"></path><path d="M317.07,239.82,198,257.14l-36,5.42-9.78,1.54-2.55.43a6.81,6.81,0,0,0-.86.18,5.74,5.74,0,0,0,.88-.07l2.56-.34,9.81-1.39,36-5.4L317,239.14c46.38-7.2,88.4-13.66,118.84-18.16,15.23-2.25,27.56-4,36.09-5.18,4.26-.58,7.58-1,9.83-1.26a18.2,18.2,0,0,1,3.46-.28,19,19,0,0,1-3.38.75c-2.23.41-5.53,1-9.77,1.67-8.5,1.4-20.8,3.33-36,5.64C405.6,227,363.54,233.1,317.07,239.82Z" style="fill:#f5f5f5"></path><path d="M228,224.42l4.62,1.74-4,1.14a4.19,4.19,0,0,0-2.84,2.72l-1.45,4.44L222.52,230a4.15,4.15,0,0,0-2.45-2.37L216,226.16l4.4-1.81a4.16,4.16,0,0,0,2.31-2.36l1.59-4.13,1.14,3.84A4.17,4.17,0,0,0,228,224.42Z" style="fill:#ebebeb"></path><path d="M122.78,328.12l4.62,1.73-4,1.14a4.16,4.16,0,0,0-2.83,2.73l-1.45,4.43-1.79-4.45a4.17,4.17,0,0,0-2.46-2.37l-4-1.48,4.39-1.8a4.22,4.22,0,0,0,2.32-2.37l1.59-4.13,1.13,3.84A4.24,4.24,0,0,0,122.78,328.12Z" style="fill:#ebebeb"></path><path d="M239.32,419l4.63,1.74-4,1.14a4.17,4.17,0,0,0-2.83,2.72L235.65,429l-1.79-4.45a4.17,4.17,0,0,0-2.45-2.38l-4.06-1.47,4.39-1.81a4.17,4.17,0,0,0,2.32-2.36l1.59-4.13,1.14,3.84A4.18,4.18,0,0,0,239.32,419Z" style="fill:#ebebeb"></path><path d="M304.7,355.06l4.26,1.6-3.7,1a3.86,3.86,0,0,0-2.62,2.51l-1.34,4.1-1.65-4.11a3.87,3.87,0,0,0-2.26-2.19l-3.75-1.36L297.7,355a3.88,3.88,0,0,0,2.14-2.18L301.3,349l1.05,3.54A3.88,3.88,0,0,0,304.7,355.06Z" style="fill:#ebebeb"></path><path d="M137.58,89.51l4.26,1.6-3.7,1a3.85,3.85,0,0,0-2.62,2.52l-1.34,4.09-1.64-4.11a3.89,3.89,0,0,0-2.27-2.19l-3.75-1.36,4.06-1.67a3.85,3.85,0,0,0,2.14-2.18l1.46-3.81,1,3.54A3.9,3.9,0,0,0,137.58,89.51Z" style="fill:#ebebeb"></path><path d="M226.84,285.47l7,2.65-6.12,1.73a6.39,6.39,0,0,0-4.32,4.16l-2.22,6.77L218.51,294a6.33,6.33,0,0,0-3.74-3.62l-6.19-2.25,6.7-2.76a6.36,6.36,0,0,0,3.53-3.61l2.42-6.29,1.74,5.85A6.39,6.39,0,0,0,226.84,285.47Z" style="fill:#ebebeb"></path><path d="M402.79,361.67l7,2.65-6.12,1.74a6.35,6.35,0,0,0-4.32,4.15L397.18,377l-2.72-6.79a6.38,6.38,0,0,0-3.75-3.62l-6.19-2.25,6.71-2.76a6.36,6.36,0,0,0,3.53-3.61l2.42-6.29,1.74,5.85A6.37,6.37,0,0,0,402.79,361.67Z" style="fill:#ebebeb"></path><path d="M371.71,80.8l7.05,2.65-6.12,1.74a6.37,6.37,0,0,0-4.32,4.15l-2.21,6.77-2.73-6.79a6.39,6.39,0,0,0-3.74-3.62l-6.19-2.25,6.7-2.75a6.39,6.39,0,0,0,3.53-3.61l2.43-6.3,1.73,5.86A6.38,6.38,0,0,0,371.71,80.8Z" style="fill:#ebebeb"></path><path d="M299,240.56l9.6,3.61-8.34,2.37a8.7,8.7,0,0,0-5.89,5.66l-3,9.22-3.71-9.25a8.64,8.64,0,0,0-5.1-4.93l-8.44-3.07,9.14-3.75a8.71,8.71,0,0,0,4.81-4.92l3.3-8.58,2.37,8A8.71,8.71,0,0,0,299,240.56Z" style="fill:#ebebeb"></path><path d="M121,410.37l9.61,3.62-8.35,2.36a8.7,8.7,0,0,0-5.89,5.66l-3,9.23L109.6,422a8.67,8.67,0,0,0-5.1-4.93L96.06,414l9.14-3.76a8.71,8.71,0,0,0,4.81-4.92l3.3-8.58,2.37,8A8.69,8.69,0,0,0,121,410.37Z" style="fill:#ebebeb"></path></g><g id="freepik--cake-pop-3--inject-52"><path d="M307.12,454.26h0a5.68,5.68,0,0,1-3.72-7.12l53.14-168.87,10.84,3.41L314.24,450.55A5.67,5.67,0,0,1,307.12,454.26Z" style="fill:#e0e0e0"></path><path d="M307.12,454.26a7.67,7.67,0,0,0,.93.18,5.61,5.61,0,0,0,2.73-.32,5.72,5.72,0,0,0,3.18-3c.59-1.68,1.16-3.7,1.87-5.92,2.8-8.95,6.84-21.9,11.84-37.91,10.07-32.05,24-76.4,39.46-125.66l.17.32-5.41-1.7-5.43-1.71.33-.17L317.18,404c-5.07,16-9.17,28.92-12,37.86-.69,2.23-1.38,4.21-1.85,5.93a5.58,5.58,0,0,0,.87,4.29,5.45,5.45,0,0,0,2.05,1.83,7.6,7.6,0,0,0,.87.39l-.23-.07a3.84,3.84,0,0,1-.67-.27,5.6,5.6,0,0,1-2.11-1.82,5.72,5.72,0,0,1-.93-4.38c.47-1.76,1.13-3.72,1.81-6,2.8-8.95,6.84-21.89,11.84-37.91l39.46-125.66.08-.25.25.08,5.43,1.71,5.41,1.7.24.08-.07.24L328,407.36l-12,37.87c-.73,2.23-1.31,4.21-1.93,5.92a5.71,5.71,0,0,1-3.27,3.06,5.58,5.58,0,0,1-2.78.28,4.06,4.06,0,0,1-.7-.15Z" style="fill:#263238"></path><circle cx="383.29" cy="214.02" r="62.44" transform="translate(89 539.76) rotate(-77.08)" style="fill:#ae7461"></circle><g style="opacity:0.2"><path d="M435,228.72a53.77,53.77,0,1,1-102.59-32.28c8.91-28.33,15.41,21.55,43.74,30.46S444,200.39,435,228.72Z"></path></g><path d="M382.26,270.52l-30.57-4.45c3.17,6.72,2.14,11.31-.6,18.19a11.84,11.84,0,0,0-1.13,4.93c.1,1.7.29,3.25,2,3.43,2.33.24,3.88-2.35,6.13-2.9,2.92-.71,6.13,2.17,8.85.94,2.08-.94,2.41-3.59,3-5.75C371.61,278.73,377.09,274.41,382.26,270.52Z" style="fill:#ae7461"></path><g style="opacity:0.2"><path d="M355,269.48a24.83,24.83,0,0,0,16.32,5.94,22.68,22.68,0,0,1-3.43,2.51,6.89,6.89,0,0,1-9.4-2,22.58,22.58,0,0,1-3-5.56"></path></g><path d="M325.59,391.71h0a1.8,1.8,0,0,1-1.18-2.27l25.13-79.87a1.81,1.81,0,0,1,2.27-1.18h0a1.81,1.81,0,0,1,1.19,2.27l-25.13,79.87A1.81,1.81,0,0,1,325.59,391.71Z" style="fill:#fff"></path><path d="M325.56,398.76a2.09,2.09,0,0,1-4-1.25,2.09,2.09,0,1,1,4,1.25Z" style="fill:#fff"></path><g style="opacity:0.2"><path d="M430.39,181.5a43.66,43.66,0,0,1,13.1,50.13,12.75,12.75,0,0,1-4,5.9c-2,1.4-4.93,1.66-6.67,0-2.6-2.48-1.47-7.8-4.71-9.37-2.93-1.41-6.59,1.88-9.52.46-2.08-1-2.56-3.84-4.35-5.31-1.6-1.31-4-1.25-5.88-.49a24.58,24.58,0,0,0-5.18,3.36c-7.95,5.8-18.41,8.38-27.95,6s-17.8-10.1-20-19.69c-.72-3.19-1-6.84-3.44-9s-6.06-1.87-8.89-.5-5.06,3.7-7.41,5.79-5,4.07-8.16,4.45A5.69,5.69,0,0,1,321,208L339.1,181.4l43.8-14.49Z"></path></g><path d="M446.17,186.47c-3.78-12.84-16-27.15-33.7-35.73a44.12,44.12,0,0,0-6-2.34l-7.94-2.5c-.94-.29-1.9-.56-2.86-.76-19.06-4.08-35.07-1.42-48.63,7.9-13.89,9.56-23.68,24.34-29.25,40.26-1.56,4.44-2.77,9.61.82,13.44a8.27,8.27,0,0,0,2.33,1.73c4.55,2.29,9.61.73,13.13-2.35s5.46-7.31,9.62-9.59a7.72,7.72,0,0,1,4.85-1c5.41.83,6.86,7.17,8.67,12.08a30.62,30.62,0,0,0,52,9.4,6.34,6.34,0,0,1,4.7-2.34c5.36-.05,4.5,7.25,8.46,8.63,3.36,1.17,7-3.14,10.22-1.67,4.4,2,.29,10.07,4.39,13a4.71,4.71,0,0,0,4.82.24c2.46-1.19,3.8-3.63,4.89-6C452.56,216,450.18,200.07,446.17,186.47Z" style="fill:#FF725E"></path><g style="opacity:0.30000000000000004"><path d="M408.39,167.61a14.81,14.81,0,0,0-1.42-11.8c-2.93-4.52-8.55-6.45-13.86-7.35a60.14,60.14,0,0,0-58.47,23.71l-7.21,11.34a54.29,54.29,0,0,0-2.93,5.27c-1,2.29-1.4,5.38.6,6.3,2.22,1,5.28.11,7.45-1s3.91-2.95,6-4.29a15.85,15.85,0,0,1,17.4.34c3.31,2.36,5.69,6,9.39,7.7,4.78,2.18,10.4.48,15.12-1.81a64,64,0,0,0,22.1-17.73A30.08,30.08,0,0,0,408.39,167.61Z" style="fill:#fff"></path></g><g style="opacity:0.6000000000000001"><path d="M381.26,148.71c0,.44-4.73.6-12,2.54a63.79,63.79,0,0,0-42.73,37c-3,6.93-3.8,11.62-4.23,11.53-.27,0-.09-4.88,2.52-12.21a58.7,58.7,0,0,1,6.08-12.19,59.35,59.35,0,0,1,25-21.67,59,59,0,0,1,12.93-4.28C376.44,147.92,381.27,148.43,381.26,148.71Z" style="fill:#fff"></path></g><ellipse cx="403.52" cy="167.89" rx="13.02" ry="10.01" transform="translate(122.26 502.41) rotate(-72.53)" style="fill:#ffbf9d"></ellipse><path d="M410.5,161.2c-.23.07-.58-.93-1.85-1.75a5.34,5.34,0,0,0-2.41-.83,6.07,6.07,0,0,0-3.05.63,11.61,11.61,0,0,0-4.35,4.13c-.9,1.35-1.45,2.24-1.66,2.15s0-1.12.7-2.69a12.22,12.22,0,0,1,1.61-2.6,9,9,0,0,1,3-2.4,6.84,6.84,0,0,1,3.9-.65,5.71,5.71,0,0,1,2.92,1.39,4.06,4.06,0,0,1,1.17,1.81C410.65,160.88,410.6,161.17,410.5,161.2Z" style="fill:#fff"></path><path d="M388.51,146.44c.24,8.35-3.57,15.24-8.51,15.38s-9.15-6.52-9.39-14.87,3.58-15.24,8.52-15.38S388.28,138.09,388.51,146.44Z" style="fill:#455a64"></path><ellipse cx="369.53" cy="175.16" rx="8.95" ry="15.45" transform="translate(-11.87 322.69) rotate(-46.51)" style="fill:#455a64"></ellipse><path d="M383.66,138.81c-.21.1-.68-.61-1.49-1.56a5.94,5.94,0,0,0-1.56-1.34,3.28,3.28,0,0,0-2.18-.43,3.68,3.68,0,0,0-1.93,1.2,8.07,8.07,0,0,0-1.15,1.77c-.55,1.14-.91,1.92-1.13,1.85s-.23-.88.1-2.24a6.41,6.41,0,0,1,1.06-2.29,4.63,4.63,0,0,1,2.75-1.82,4.27,4.27,0,0,1,3.25.75,5.7,5.7,0,0,1,1.7,1.92C383.75,137.87,383.84,138.72,383.66,138.81Z" style="fill:#fff"></path><path d="M435.49,201.47c4.35,5.26,5.35,11.61,2.24,14.18s-9.16.4-13.51-4.86-5.36-11.61-2.24-14.18S431.14,196.21,435.49,201.47Z" style="fill:#455a64"></path><path d="M428.53,199c-.1.21-.78,0-1.77-.16a5.24,5.24,0,0,0-1.64,0,2.6,2.6,0,0,0-1.52.78,2.9,2.9,0,0,0-.62,1.65,7,7,0,0,0,.11,1.68c.19,1,.32,1.72.11,1.8s-.66-.42-1.16-1.46a5.14,5.14,0,0,1-.5-2.05,3.88,3.88,0,0,1,.88-2.65,3.64,3.64,0,0,1,2.56-1.18,4.58,4.58,0,0,1,2.11.42C428.15,198.28,428.62,198.81,428.53,199Z" style="fill:#fff"></path><path d="M405.47,193.12a8,8,0,0,0-4.55-3.56,15.13,15.13,0,0,0-19.3,8.34,7.38,7.38,0,0,0-.44,5.39c.83,2.18,3.11,3.46,5.35,4.11a17.82,17.82,0,0,0,16.73-4,10.23,10.23,0,0,0,3.09-4.72A7.64,7.64,0,0,0,405.47,193.12Z" style="fill:#e0e0e0"></path><path d="M399.71,193.07c-.06.22-1,.06-2.54.09a12.76,12.76,0,0,0-10.07,4.91c-1,1.17-1.42,2-1.64,2s-.08-1.1.72-2.57a10.89,10.89,0,0,1,11.07-5.39C398.89,192.33,399.78,192.89,399.71,193.07Z" style="fill:#fff"></path><path d="M446.17,193.51a6.71,6.71,0,0,0,2.58-4.07,12.6,12.6,0,0,0-8.48-15.32,6.16,6.16,0,0,0-4.51.07c-1.74.87-2.62,2.86-3,4.77a14.85,14.85,0,0,0,4.67,13.55,8.43,8.43,0,0,0,4.16,2.18A6.39,6.39,0,0,0,446.17,193.51Z" style="fill:#e0e0e0"></path><path d="M360.82,173.11c-.17.11-.69-.28-1.15-1.19a6.49,6.49,0,0,1-.56-3.88,6.29,6.29,0,0,1,1.73-3.55,2.08,2.08,0,0,1,1.18-.6c.34,0,.51.11.5.21s-.46.39-.83,1.1a9.45,9.45,0,0,0-1,3.08C360.22,170.83,361.19,172.88,360.82,173.11Z" style="fill:#fff"></path><path d="M329.88,179.52c6-2.25,12-1.24,13.27,2.25s-2.52,8.15-8.55,10.4-12,1.25-13.28-2.25S323.85,181.77,329.88,179.52Z" style="fill:#ffbf9d"></path><path d="M328,191.07c0,.2-.42.47-1.21.53a4.86,4.86,0,0,1-2.9-.89,4.55,4.55,0,0,1-1.85-2.45,1.55,1.55,0,0,1,0-1.06c.12-.25.29-.31.38-.26s.22.43.59.87a8.54,8.54,0,0,0,1.72,1.62C326.26,190.52,327.91,190.64,328,191.07Z" style="fill:#fff"></path><path d="M371.83,198c-.4,1.28-3,1.62-5.71.76s-4.66-2.61-4.26-3.9,3-1.62,5.72-.76S372.24,196.69,371.83,198Z" style="fill:#455a64"></path><path d="M448,214.65c1,.86.36,3.36-1.49,5.57s-4.2,3.3-5.23,2.43-.37-3.36,1.49-5.57S447,213.78,448,214.65Z" style="fill:#e0e0e0"></path><path d="M394,220.28c-.41,1.29-3,1.63-5.72.76s-4.66-2.61-4.25-3.89,3-1.63,5.72-.76S394.44,219,394,220.28Z" style="fill:#e0e0e0"></path><path d="M351.23,165.32c-.41,1.29-3,1.63-5.72.76s-4.66-2.61-4.25-3.9,3-1.62,5.72-.76S351.63,164,351.23,165.32Z" style="fill:#455a64"></path><path d="M416.39,186.64c-.76-1.12.55-3.34,2.93-5s4.93-2,5.69-.94-.55,3.33-2.93,5S417.15,187.75,416.39,186.64Z" style="fill:#ffbf9d"></path><ellipse cx="358.75" cy="152.37" rx="2.44" ry="4.14" transform="translate(184.51 501.02) rotate(-86.46)" style="fill:#ffbf9d"></ellipse><path d="M424.42,161.58c-1.3.36-2.85-1.13-3.46-3.34s-.06-4.28,1.24-4.65,2.84,1.14,3.46,3.34S425.72,161.22,424.42,161.58Z" style="fill:#455a64"></path></g><g id="freepik--cake-pop-2--inject-52"><path d="M253.39,370.62h0a5.91,5.91,0,0,1-5.91-5.9v-184h11.81v184A5.9,5.9,0,0,1,253.39,370.62Z" style="fill:#e0e0e0"></path><path d="M253.39,370.62a8.79,8.79,0,0,0,1-.11,5.87,5.87,0,0,0,2.61-1.17,5.93,5.93,0,0,0,2.2-4c.06-1.85,0-4,0-6.45,0-9.75-.05-23.84-.08-41.28,0-34.9-.05-83.21-.08-136.86l.26.26H247.48l.26-.26c0,53.66-.05,102-.07,136.87,0,17.44-.07,31.53-.09,41.27,0,2.43-.05,4.6,0,6.46a5.86,5.86,0,0,0,4.81,5.16,8.79,8.79,0,0,0,1,.11h-.25a3.77,3.77,0,0,1-.74-.06,5.71,5.71,0,0,1-2.66-1.14,6,6,0,0,1-2.3-4.06c-.08-1.88,0-4-.05-6.47,0-9.74,0-23.83-.09-41.27,0-34.9,0-83.21-.08-136.87v-.27h12.33v.27c0,53.65-.06,102-.08,136.86,0,17.44-.06,31.53-.08,41.28,0,2.43,0,4.59-.06,6.47a6,6,0,0,1-2.29,4.06,5.75,5.75,0,0,1-2.66,1.14,3.87,3.87,0,0,1-.74.06Z" style="fill:#263238"></path><circle cx="253.96" cy="108.71" r="64.89" transform="translate(91.23 331.95) rotate(-77.08)" style="fill:#FF725E"></circle><g style="opacity:0.2"><path d="M309.84,107.15a55.88,55.88,0,1,1-111.76,0c0-30.86,22,16.55,52.86,16.55S309.84,76.29,309.84,107.15Z"></path></g><path d="M270.56,165l-31.68,5.13c5.23,5.67,5.64,10.54,5.07,18.22a12.29,12.29,0,0,0,.42,5.23c.63,1.66,1.3,3.14,3.08,2.77,2.38-.48,3.11-3.53,5.18-4.78,2.67-1.62,6.75.24,9.06-1.83,1.77-1.58,1.27-4.31,1.17-6.63C262.57,176.51,266.65,170.51,270.56,165Z" style="fill:#FF725E"></path><g style="opacity:0.2"><path d="M243.18,172.53a25.81,25.81,0,0,0,18,.79,21.92,21.92,0,0,1-2.62,3.56,7.92,7.92,0,0,1-3.71,2.31,8,8,0,0,1-6.24-1.38,23.71,23.71,0,0,1-4.7-4.58"></path></g><path d="M252.19,302.86h0a1.89,1.89,0,0,1-1.88-1.89V214a1.88,1.88,0,0,1,1.88-1.89h0a1.88,1.88,0,0,1,1.89,1.89v87A1.89,1.89,0,0,1,252.19,302.86Z" style="fill:#fff"></path><circle cx="252.19" cy="309.85" r="2.17" style="fill:#fff"></circle><g style="opacity:0.30000000000000004"><path d="M258.25,60.78c.45.49-1.39,3.25-5.62,6.45a47,47,0,0,1-18.83,8.11,53.43,53.43,0,0,1-11.28,1,49.67,49.67,0,0,1-5-.31A13.79,13.79,0,0,1,213,74.74a8.66,8.66,0,0,1-1.85-1.27,7.7,7.7,0,0,1-1.28-1.53,6.32,6.32,0,0,1-1-3,3.63,3.63,0,0,1,.35-1.92c.21-.39.44-.54.61-.5.37.09.43.9,1,1.93a6,6,0,0,0,3.62,2.85,12.65,12.65,0,0,0,3.48.42c1.35,0,2.93-.1,4.53-.18a78.79,78.79,0,0,0,10.38-1.36,71.65,71.65,0,0,0,17.91-6.13C255.08,61.92,257.74,60.21,258.25,60.78Z"></path><path d="M318.85,106.12c.28.19-.49,1.95-2.33,4.87a80.27,80.27,0,0,1-9,11.45,97.86,97.86,0,0,1-7.31,7,101.89,101.89,0,0,1-9.26,7.07A100,100,0,0,1,267,148.41a103.48,103.48,0,0,1-13.44,3.47,100.9,100.9,0,0,1-12.83,1.49A94.67,94.67,0,0,1,219,152a76.2,76.2,0,0,1-14.08-3.89c-3.21-1.28-4.86-2.26-4.75-2.57s2,0,5.31.62,8.1,1.56,14,2.19a111.33,111.33,0,0,0,20.88.25,112.67,112.67,0,0,0,12.18-1.71,111,111,0,0,0,12.74-3.4,108,108,0,0,0,22.95-11c3.35-2.06,6.35-4.29,9.16-6.39s5.26-4.27,7.45-6.3C313.7,111.73,318.17,105.63,318.85,106.12Z"></path><path d="M272.82,161.21c.34.57-2.2,2.94-7.18,5.41l-2,.92c-.69.32-1.44.57-2.2.86a47.89,47.89,0,0,1-5,1.58,55,55,0,0,1-23.81.85,49.23,49.23,0,0,1-5.08-1.22c-.79-.24-1.55-.44-2.26-.7l-2-.78c-5.14-2.12-7.84-4.31-7.54-4.89s3.53.26,8.63,1.37l2,.42c.7.15,1.43.24,2.18.37,1.5.3,3.12.46,4.81.69a75.14,75.14,0,0,0,22.07-.79c1.67-.34,3.28-.62,4.75-1,.74-.19,1.47-.33,2.15-.53l2-.56C269.31,161.72,272.44,160.54,272.82,161.21Z"></path><path d="M309.68,77.51c.28.19-.51,1.94-2.36,4.84a81,81,0,0,1-9.08,11.41c-2.1,2.26-4.56,4.59-7.28,7a108,108,0,0,1-9.22,7.09A103.25,103.25,0,0,1,258,120a106.7,106.7,0,0,1-13.34,3.71,105.7,105.7,0,0,1-12.76,1.8,98.13,98.13,0,0,1-21.71-.74A77.68,77.68,0,0,1,196,121.39c-3.25-1.15-4.94-2-4.84-2.38s2-.11,5.33.41,8.14,1.25,14.1,1.68a117.21,117.21,0,0,0,20.87-.38,114.33,114.33,0,0,0,12.13-2,115.6,115.6,0,0,0,12.67-3.63,112.34,112.34,0,0,0,22.83-11.22c3.34-2.08,6.33-4.32,9.12-6.43s5.26-4.27,7.45-6.3C304.48,83.06,309,77,309.68,77.51Z"></path><path d="M290.46,56.57c.3.16-.12,1.72-1.33,4.36a57.19,57.19,0,0,1-6.52,10.43A72.27,72.27,0,0,1,277,77.79a73.14,73.14,0,0,1-7.4,6.49,71.33,71.33,0,0,1-19.83,10.77A72.84,72.84,0,0,1,238.39,98a73.13,73.13,0,0,1-10.87,1,68.45,68.45,0,0,1-18.23-2.22,54.55,54.55,0,0,1-11.51-4.36C195.22,91,194,90,194.1,89.68s1.72,0,4.43.81a106.73,106.73,0,0,0,11.54,2.64,79.13,79.13,0,0,0,17.3,1A78.94,78.94,0,0,0,237.5,93a77.53,77.53,0,0,0,10.55-2.82,76.3,76.3,0,0,0,18.7-9.71A83.29,83.29,0,0,0,274,74.66c2.15-2,4.11-3.84,5.79-5.68C286.58,61.67,289.73,56.17,290.46,56.57Z"></path></g><path d="M257.65,57.84c.45.49-1.51,3.29-5.92,6.49a49.64,49.64,0,0,1-19.45,8.07,56.91,56.91,0,0,1-11.58,1c-1.8,0-3.44-.09-5.1-.29a15.13,15.13,0,0,1-4.7-1.28,8.41,8.41,0,0,1-3.3-2.74,6.47,6.47,0,0,1-1.14-3,3.56,3.56,0,0,1,.32-2c.22-.41.45-.57.62-.52.37.09.41.93,1,2a6.07,6.07,0,0,0,3.83,2.84,14.41,14.41,0,0,0,3.64.4c1.41,0,3-.1,4.69-.19a84.28,84.28,0,0,0,10.72-1.36,76.54,76.54,0,0,0,18.55-6.12C254.4,59,257.15,57.26,257.65,57.84Z" style="fill:#ffbf9d"></path><path d="M320.47,103.18c.27.2-.56,2-2.52,4.95a81,81,0,0,1-9.55,11.59c-2.22,2.28-4.8,4.63-7.67,7a108.86,108.86,0,0,1-9.68,7.07,103.4,103.4,0,0,1-51.84,16.6,107.64,107.64,0,0,1-12-.13A102.68,102.68,0,0,1,216.88,149a80.6,80.6,0,0,1-14.51-3.88c-3.31-1.27-5-2.24-4.91-2.57s2,0,5.46.62,8.35,1.55,14.47,2.19c3.06.32,6.43.51,10,.61s7.46,0,11.49-.34a111.28,111.28,0,0,0,49.6-15.88c3.48-2.07,6.63-4.28,9.55-6.4s5.5-4.29,7.8-6.33c4.62-4.07,8.12-7.66,10.51-10.18S320.16,103,320.47,103.18Z" style="fill:#ffbf9d"></path><path d="M272.76,158.27c.33.57-2.35,3-7.53,5.43l-2.05.92c-.72.31-1.49.57-2.28.86-1.58.61-3.32,1.07-5.16,1.58a59.16,59.16,0,0,1-24.57.84c-1.86-.38-3.63-.72-5.25-1.22-.81-.24-1.59-.44-2.33-.7l-2.11-.78c-5.34-2.11-8.17-4.31-7.88-4.9s3.64.26,8.93,1.37l2.08.42c.72.15,1.48.24,2.26.37,1.55.3,3.23.46,5,.69a93.61,93.61,0,0,0,11.48.42,91.63,91.63,0,0,0,11.41-1.21c1.74-.34,3.4-.62,4.93-1,.77-.19,1.52-.33,2.23-.53l2-.56C269.14,158.78,272.38,157.59,272.76,158.27Z" style="fill:#ffbf9d"></path><path d="M311,74.56c.28.2-.57,2-2.54,4.93A83.11,83.11,0,0,1,298.84,91c-2.21,2.28-4.79,4.63-7.65,7a110.69,110.69,0,0,1-9.62,7.1,109.4,109.4,0,0,1-24.63,12,109.54,109.54,0,0,1-26.89,5.38,112.64,112.64,0,0,1-12,.19c-3.74-.19-7.22-.49-10.36-1a83.1,83.1,0,0,1-14.61-3.36c-3.35-1.15-5.11-2-5-2.38s2-.12,5.48.41,8.39,1.24,14.53,1.67c3.06.22,6.43.31,10,.3s7.46-.21,11.48-.65a120.33,120.33,0,0,0,25.63-5.53A120.08,120.08,0,0,0,279,101.12c3.46-2.09,6.6-4.32,9.52-6.44s5.49-4.29,7.79-6.33c4.62-4.06,8.13-7.63,10.54-10.14S310.66,74.34,311,74.56Z" style="fill:#ffbf9d"></path><path d="M291,53.63c.3.16-.16,1.76-1.47,4.45a58,58,0,0,1-6.92,10.57,75.3,75.3,0,0,1-5.92,6.47A78.38,78.38,0,0,1,269,81.61a75.55,75.55,0,0,1-20.57,10.64A75.89,75.89,0,0,1,225.56,96a78.13,78.13,0,0,1-10.08-.59,72.07,72.07,0,0,1-8.63-1.65A58,58,0,0,1,195,89.43c-2.65-1.37-4-2.38-3.83-2.69.34-.77,6.34,1.76,16.45,3.43,2.52.43,5.3.73,8.28,1a91.1,91.1,0,0,0,9.54.08,81.09,81.09,0,0,0,21.35-3.9,81.13,81.13,0,0,0,19.45-9.62,90.08,90.08,0,0,0,7.59-5.77c2.26-2,4.31-3.87,6.08-5.71C287,58.83,290.31,53.21,291,53.63Z" style="fill:#ffbf9d"></path><g style="opacity:0.6000000000000001"><path d="M237.89,50.41a3.66,3.66,0,0,0-1.83-.14,23.89,23.89,0,0,0-10.4,4.1,54.71,54.71,0,0,0-6.21,4.94,1.62,1.62,0,0,0,1.33,2.81,9.66,9.66,0,0,0,2.23-.61,63.31,63.31,0,0,0,14.85-8.41,2.17,2.17,0,0,0,1-1.24A1.46,1.46,0,0,0,237.89,50.41Z" style="fill:#fff"></path></g><path d="M216.85,71.27c.12.7-1.09,1.48-2.65,1.2s-2.42-1.43-2.06-2,1.43-.7,2.52-.52S216.73,70.55,216.85,71.27Z" style="fill:#fff"></path><path d="M242.1,91.32c.21.68-3.22,2.32-7.78,3.07S226,94.68,226,94s3.55-1.43,7.93-2.15S241.89,90.62,242.1,91.32Z" style="fill:#fff"></path><path d="M247.78,90.16A1.51,1.51,0,1,1,246,89.4,1.4,1.4,0,0,1,247.78,90.16Z" style="fill:#fff"></path><path d="M264.09,112.35c.33.63-3.34,3.17-8.49,4.93s-9.59,2-9.72,1.32,3.93-2.08,8.88-3.79S263.76,111.7,264.09,112.35Z" style="fill:#fff"></path><path d="M267.9,110.12a1.15,1.15,0,1,1-1.58-.71A1.23,1.23,0,0,1,267.9,110.12Z" style="fill:#fff"></path><path d="M241.14,119.37c.08.72-.67,1.38-1.66,1.49s-1.87-.39-1.94-1.11.67-1.38,1.66-1.48S241.07,118.66,241.14,119.37Z" style="fill:#fff"></path><path d="M284.85,135.51c.37.6-2.49,3-6.66,4.82s-7.89,2.27-8.08,1.58,3.05-2.22,7-4S284.47,134.88,284.85,135.51Z" style="fill:#fff"></path></g><g id="freepik--cake-pop-1--inject-52"><path d="M194.52,455.53h0a5.91,5.91,0,0,1-7.32-4L136.12,274.75l11.34-3.28,51.09,176.75A5.91,5.91,0,0,1,194.52,455.53Z" style="fill:#e0e0e0"></path><path d="M194.52,455.53s.32-.09.91-.39a5.86,5.86,0,0,0,3.18-6.29c-.45-1.8-1.11-3.87-1.78-6.21-2.72-9.36-6.66-22.88-11.54-39.63-9.71-33.53-23.15-79.93-38.08-131.46l.32.17-5.66,1.64L136.19,275l.18-.32L174.3,406.2c4.81,16.76,8.7,30.3,11.38,39.67.68,2.33,1.23,4.43,1.81,6.19a5.86,5.86,0,0,0,3.22,3.22,5.78,5.78,0,0,0,2.83.41c.65-.07,1-.19,1-.16l-.24.07a6,6,0,0,1-.73.14,5.72,5.72,0,0,1-2.88-.36,6,6,0,0,1-3.33-3.26c-.6-1.79-1.15-3.86-1.85-6.2-2.72-9.35-6.66-22.88-11.54-39.62L135.87,274.83l-.07-.25.25-.08,5.68-1.64,5.66-1.64.25-.07.07.25c14.87,51.56,28.26,98,37.93,131.51,4.81,16.76,8.7,30.31,11.38,39.67.66,2.35,1.3,4.41,1.74,6.24a6,6,0,0,1-1.07,4.53,5.84,5.84,0,0,1-2.24,1.84,5.43,5.43,0,0,1-.69.27Z" style="fill:#263238"></path><circle cx="122.34" cy="203.75" r="64.89" transform="translate(-108.24 146.19) rotate(-45)" style="fill:#ae7461"></circle><g style="opacity:0.2"><path d="M175.59,186.73a55.88,55.88,0,0,1-107.37,31C59.65,188.12,94,227.56,123.6,219S167,157.09,175.59,186.73Z"></path></g><path d="M153.93,253.26l-29,13.73c6.61,4,8.35,8.55,9.93,16.09a12.38,12.38,0,0,0,1.87,4.91c1,1.42,2.11,2.65,3.72,1.8,2.16-1.12,2-4.26,3.65-6,2.11-2.29,6.55-1.65,8.19-4.28,1.26-2,0-4.49-.71-6.69C149.44,266.49,151.69,259.6,153.93,253.26Z" style="fill:#ae7461"></path><g style="opacity:0.2"><path d="M129.7,268.05a25.71,25.71,0,0,0,17.54-4.24,21.74,21.74,0,0,1-1.53,4.15,7.85,7.85,0,0,1-2.92,3.25,8,8,0,0,1-6.38.4,24.28,24.28,0,0,1-5.79-3.09"></path></g><path d="M174.55,390.75h0a1.89,1.89,0,0,1-2.34-1.28l-24.16-83.59a1.89,1.89,0,0,1,1.29-2.33h0a1.88,1.88,0,0,1,2.34,1.29l24.16,83.58A1.88,1.88,0,0,1,174.55,390.75Z" style="fill:#fff"></path><path d="M178.57,396.87a2.16,2.16,0,1,1-2.68-1.48A2.16,2.16,0,0,1,178.57,396.87Z" style="fill:#fff"></path><g style="opacity:0.30000000000000004"><path d="M88.65,181.46a1,1,0,0,1-.73.57l-6.87,1.1a1,1,0,0,0-.51,1.76l5.13,5a1.1,1.1,0,0,1,.31.91l-1,7.08a1,1,0,0,0,1.48,1.07l6.08-3.4a1,1,0,0,1,.93,0l6.25,3.28a1,1,0,0,0,1.42-1.1l-1.36-7.06a1,1,0,0,1,.26-.91l4.86-5.06a1,1,0,0,0-.6-1.74l-6.93-1a1,1,0,0,1-.77-.55L93.36,175a1,1,0,0,0-1.79,0Z"></path><path d="M132.81,199.11l4.63-6a1.13,1.13,0,0,0-.84-1.81l-7.53-.2a1.1,1.1,0,0,1-.89-.51l-4.22-6.5a1.06,1.06,0,0,0-1.91.24l-2.39,7.3a1,1,0,0,1-.73.7l-7.24,2a1.11,1.11,0,0,0-.34,2l6.06,4.72a1.15,1.15,0,0,1,.43.94l-.25,7.74a1.09,1.09,0,0,0,1.7,1l6.13-4.38a1.05,1.05,0,0,1,1-.13l7.08,2.78a1.08,1.08,0,0,0,1.4-1.35l-2.27-7.43A1.13,1.13,0,0,1,132.81,199.11Z"></path><path d="M93.68,157.73l6.94,1.26a.9.9,0,0,1,.69.57l2.16,6.34a1,1,0,0,0,1.85.07l4.18-6.09a1.23,1.23,0,0,1,.87-.52l7.26-.72a1.08,1.08,0,0,0,.85-1.67l-4.36-5a.91.91,0,0,1-.15-.89l2.32-6.78a.92.92,0,0,0-1.32-1.11l-6.87,3a1.07,1.07,0,0,1-1,0l-5.83-3.47a1.15,1.15,0,0,0-1.66,1l.1,6.88a1.08,1.08,0,0,1-.44.86L93.38,156A.94.94,0,0,0,93.68,157.73Z"></path><path d="M60.3,202.93l5.81-1.7a.87.87,0,0,1,.8.18l3.78,4.76a.84.84,0,0,0,1.4-.66l.46-7.85a.87.87,0,0,1,.38-.73l6.24-4.83a1,1,0,0,0-.22-1.64l-5.83-.81a.92.92,0,0,1-.57-.64l-.84-6.79a.88.88,0,0,0-1.55-.35l-5,6.4a.85.85,0,0,1-.74.34l-5.2.33a.89.89,0,0,0-.74,1.42l2.67,4.56a1,1,0,0,1,.12.85l-2.06,5.93A.94.94,0,0,0,60.3,202.93Z"></path><path d="M69.65,173.76c1.42-.66,3.44-1.83,3.44-1.83s2,2.93,3,2.91c1.38,0,1.79-1.87,2.5-3.54s2.1-4.14,2.1-4.14l.88-1.25s5.69-2.76,5.93-3.48,0-1.29-.84-1.93-2.09-1.75-2.19-1.9,1.41-4.34,1.3-5.13-1.79-.66-2.58.33S79.29,158,79.29,158s-6.6,2-7,2.5c0,0-.62.33-.42,1.61.1.61.67,3.25.67,3.25-.17.34-6.43,7.27-5.4,8.38C67.93,174.58,68.61,174.25,69.65,173.76Z"></path><path d="M119.11,174.12l6.8,1.68a1,1,0,0,1,.71.64l2.61,6.7a1,1,0,0,0,1.79.17l3.54-6.11a1,1,0,0,1,.79-.49l7-.37a1,1,0,0,0,.68-1.69l-4.62-5.47a1.07,1.07,0,0,1-.22-.93l1.69-6.93a1,1,0,0,0-1.36-1.21l-6.4,2.73a1,1,0,0,1-.93-.09l-5.91-3.91a1,1,0,0,0-1.52.94l.66,7.15a1,1,0,0,1-.36.88l-5.34,4.51A1,1,0,0,0,119.11,174.12Z"></path><path d="M164.44,186.1a1,1,0,0,0-1.37-1.22l-6.4,2.73a1,1,0,0,1-.93-.08l-5.91-3.92a1,1,0,0,0-1.52.94l.66,7.16a1,1,0,0,1-.35.87l-5.35,4.51a1,1,0,0,0,.43,1.8l6.8,1.69a1,1,0,0,1,.71.63l2.61,6.7a1,1,0,0,0,1.79.17l3.54-6.11a1,1,0,0,1,.79-.49l7-.37a1,1,0,0,0,.68-1.69L163,194a1.07,1.07,0,0,1-.22-.94Z"></path><path d="M89.38,226a1.07,1.07,0,0,0,1.6,1l6.53-3.26a1.19,1.19,0,0,1,1,0l6.79,2.92a1,1,0,0,0,1.52-1L105.28,219a.87.87,0,0,1,.28-.85l5.19-4.78a.93.93,0,0,0-.66-1.61L102.6,211a1.06,1.06,0,0,1-.83-.5l-3.58-5.86a1.15,1.15,0,0,0-1.94.05l-3.08,6a1.07,1.07,0,0,1-.79.54L85,212.42a.91.91,0,0,0-.53,1.63l5.59,4.5a.89.89,0,0,1,.34.83Z"></path><path d="M152.89,157.54l2.91,6.19a1,1,0,0,1-.14.84l-4.5,3.8a.94.94,0,0,0,.68,1.5l7.86.76a.85.85,0,0,1,.71.42l4.57,6.39a.85.85,0,0,0,1.55-.19l.65-6a.86.86,0,0,1,.58-.58l5.82-1.66a.93.93,0,0,0,.27-1.62l-4.91-3.92a1,1,0,0,1-.35-.78l-.17-5.28a.89.89,0,0,0-1.38-.81l-4.59,2.49a.8.8,0,0,1-.8.1L154,156.42A.87.87,0,0,0,152.89,157.54Z"></path><path d="M129.39,148c-.34,1-.27,1.61.32,2.09s6.87-.23,6.87-.23l1.42.59s2.49,1.34,4,2.38,2.82,2.38,4,1.66c.78-.47.94-4,.94-4s2.33-.09,3.89-.29c1.14-.14,1.89-.22,2.1-1.39.28-1.48-8.71-4-9-4.2,0,0-.92-2.54-1.17-3.11-.51-1.19-1.21-1.14-1.21-1.14-.64-.23-7.26,1.63-7.26,1.63s-4.29-1.06-5.49-1.47-2.68.36-2.35,1.09,3.84,3.47,3.84,3.65S129.73,147,129.39,148Z"></path><path d="M157.48,228.12l6.87-1.1a1,1,0,0,0,.51-1.76l-5.13-5a1.05,1.05,0,0,1-.31-.91l1-7.08a1,1,0,0,0-1.48-1.07l-6.08,3.4a1,1,0,0,1-.93,0l-6.26-3.28a1,1,0,0,0-1.42,1.1l1.37,7.06a1,1,0,0,1-.26.91l-4.86,5.06a1.05,1.05,0,0,0,.6,1.75l6.93,1a1,1,0,0,1,.76.56l3.26,6.4a1,1,0,0,0,1.79,0l2.92-6.46A1,1,0,0,1,157.48,228.12Z"></path><path d="M152.71,247.73l-6.94-1.27a.87.87,0,0,1-.69-.57l-2.17-6.33a1,1,0,0,0-1.84-.07l-4.19,6.09a1.17,1.17,0,0,1-.86.51l-7.26.73a1.07,1.07,0,0,0-.85,1.67l4.35,5a.89.89,0,0,1,.16.89l-2.33,6.78a.92.92,0,0,0,1.32,1.1l6.88-3a1,1,0,0,1,1,0l5.83,3.46a1.15,1.15,0,0,0,1.66-1l-.1-6.87a1.12,1.12,0,0,1,.43-.87l5.93-4.64A.93.93,0,0,0,152.71,247.73Z"></path><path d="M186.13,204.09l-5.81,1.7a.86.86,0,0,1-.8-.18l-3.78-4.76a.84.84,0,0,0-1.4.66l-.46,7.85a.87.87,0,0,1-.38.73l-6.24,4.83a1,1,0,0,0,.22,1.64l5.83.81a.92.92,0,0,1,.57.64l.84,6.79a.88.88,0,0,0,1.55.35l5-6.4a.85.85,0,0,1,.74-.34l5.2-.33a.89.89,0,0,0,.74-1.42l-2.67-4.56a1,1,0,0,1-.12-.85l2.06-5.93A.94.94,0,0,0,186.13,204.09Z"></path><path d="M175.14,232.69c-1.42.66-3.44,1.83-3.44,1.83s-2-2.93-2.94-2.91c-1.39,0-1.79,1.87-2.5,3.54s-2.11,4.14-2.11,4.14l-.88,1.26s-5.69,2.76-5.93,3.47,0,1.29.84,1.93,2.1,1.75,2.2,1.9-1.42,4.35-1.3,5.14,1.78.66,2.57-.34,3.85-4.17,3.85-4.17,6.6-2,7-2.49c0,0,.62-.34.42-1.62-.1-.61-.67-3.25-.67-3.25.17-.34,6.43-7.27,5.41-8.38C176.87,231.87,176.18,232.2,175.14,232.69Z"></path><path d="M185.73,182.45c-.57-.21-3.1-1-3.1-1-.22-.31-3.38-9.34-4.8-9-1.1.32-1.12,1.1-1.17,2.28-.06,1.61,0,4,0,4s-3.44.45-3.83,1.28c-.6,1.28.81,2.53,1.93,4s2.62,3.9,2.62,3.9l.68,1.42s-.17,6.5.34,7.07,1.12.59,2,.16,2.44-1.07,2.61-1.09,3.11,3.38,3.84,3.65,1.37-1.31.87-2.51-1.86-5.51-1.86-5.51,1.26-7,1-7.59C186.93,183.6,186.92,182.88,185.73,182.45Z"></path><path d="M72.19,231.59c.82-1.14-.33-2.64-1.17-4.27S69.15,223,69.15,223l-.42-1.51s1.36-6.34,1-7-1-.8-2-.55-2.61.57-2.78.56-2.45-3.91-3.12-4.32-1.58,1-1.31,2.29.83,5.75.83,5.75-2.52,6.56-2.37,7.24c0,0-.13.71,1,1.36.53.31,2.88,1.53,2.88,1.53.16.36,1.62,9.81,3.09,9.69,1.15-.09,1.31-.85,1.57-2,.36-1.56.7-3.94.7-3.94S71.65,232.33,72.19,231.59Z"></path><path d="M126.29,236l-6.8-1.69a1,1,0,0,1-.71-.63l-2.61-6.7a1,1,0,0,0-1.79-.17L110.84,233a1,1,0,0,1-.79.49l-7,.37a1,1,0,0,0-.68,1.69L107,241a1.08,1.08,0,0,1,.22.93l-1.69,6.93a1,1,0,0,0,1.36,1.22l6.4-2.74a1,1,0,0,1,.93.09l5.91,3.91a1,1,0,0,0,1.52-.94l-.66-7.15a1,1,0,0,1,.35-.88l5.35-4.51A1,1,0,0,0,126.29,236Z"></path><path d="M92.51,252.61l-2.91-6.2a1,1,0,0,1,.14-.84l4.5-3.8a1,1,0,0,0-.69-1.5l-7.85-.75a.9.9,0,0,1-.71-.42l-4.57-6.4a.85.85,0,0,0-1.55.2l-.65,6a.88.88,0,0,1-.58.58l-5.83,1.66a.93.93,0,0,0-.26,1.62l4.91,3.92a1,1,0,0,1,.35.78l.17,5.28a.89.89,0,0,0,1.38.81l4.59-2.5a.82.82,0,0,1,.8-.1l7.64,2.74A.87.87,0,0,0,92.51,252.61Z"></path><path d="M116,262.19c.34-1,.27-1.61-.32-2.08s-6.87.22-6.87.22l-1.42-.59s-2.49-1.33-4-2.37-2.82-2.39-4-1.67c-.78.47-.94,4-.94,4s-2.33.09-3.89.28c-1.14.15-1.89.23-2.11,1.39-.27,1.49,8.72,4,9,4.21,0,0,.92,2.53,1.17,3.1.51,1.2,1.21,1.15,1.21,1.15.63.22,7.26-1.63,7.26-1.63s4.28,1.05,5.48,1.47,2.68-.36,2.36-1.09-3.85-3.48-3.84-3.65A26.57,26.57,0,0,1,116,262.19Z"></path></g><path d="M84,196.85l1.09-7.12a1.05,1.05,0,0,0-.31-.91l-5.26-4.94a1,1,0,0,1,.54-1.77l7.11-1.17a1,1,0,0,0,.77-.58L91,173.84a1,1,0,0,1,1.85,0l3.31,6.4a1,1,0,0,0,.79.55l7.15.91a1,1,0,0,1,.61,1.75l-5.07,5.12a1,1,0,0,0-.28.92l1.35,7.08a1,1,0,0,1-1.48,1.12l-6.44-3.24a1,1,0,0,0-1,0l-6.32,3.47A1,1,0,0,1,84,196.85Z" style="fill:#FF725E"></path><path d="M111.62,193.08l7.5-2.09a1.1,1.1,0,0,0,.76-.71l2.53-7.36a1.12,1.12,0,0,1,2-.25l4.3,6.49a1.11,1.11,0,0,0,.91.5l7.78.14a1.11,1.11,0,0,1,.86,1.8l-4.85,6.1a1.1,1.1,0,0,0-.19,1l2.28,7.45a1.12,1.12,0,0,1-1.46,1.37l-7.3-2.72a1.11,1.11,0,0,0-1,.13l-6.38,4.46a1.11,1.11,0,0,1-1.75-1l.33-7.78a1.08,1.08,0,0,0-.44-.94l-6.22-4.68A1.12,1.12,0,0,1,111.62,193.08Z" style="fill:#FF725E"></path><path d="M118.08,157.16l-7.52.8a1.27,1.27,0,0,0-.89.52l-4.39,6.16a1.09,1.09,0,0,1-1.91,0l-2.18-6.35a.86.86,0,0,0-.7-.56l-7.17-1.21a.92.92,0,0,1-.28-1.72L99.21,150a1.12,1.12,0,0,0,.46-.87l0-6.91a1.21,1.21,0,0,1,1.73-1l6,3.43a1.14,1.14,0,0,0,1,0l7.13-3.06c.85-.37,1.65.28,1.36,1.09l-2.47,6.84a.88.88,0,0,0,.15.89l4.46,5C119.5,156.07,119,157.07,118.08,157.16Z" style="fill:#FF725E"></path><path d="M57.4,188.16l5.39-.39a.87.87,0,0,0,.76-.35L68.79,181a.9.9,0,0,1,1.59.34l.81,6.81a.93.93,0,0,0,.58.64l6,.76a.94.94,0,0,1,.21,1.64l-6.5,4.91a.93.93,0,0,0-.4.74l-.54,7.9a.88.88,0,0,1-1.46.67l-3.86-4.74a.9.9,0,0,0-.83-.18l-6,1.76A.93.93,0,0,1,57.28,201l2.18-6a.91.91,0,0,0-.11-.86l-2.72-4.55A.9.9,0,0,1,57.4,188.16Z" style="fill:#FF725E"></path><path d="M71.39,164.3c-.18.35-6.72,7.37-5.67,8.48.82.86,1.53.52,2.61,0,1.47-.68,3.58-1.87,3.58-1.87s2.07,2.92,3,2.9c1.44,0,1.87-1.9,2.62-3.59s2.21-4.17,2.21-4.17l.93-1.27s5.9-2.83,6.16-3.55,0-1.29-.85-1.93-2.15-1.74-2.25-1.89,1.5-4.38,1.39-5.17-1.84-.65-2.67.36-4,4.22-4,4.22-6.84,2-7.27,2.58c0,0-.64.34-.44,1.62C70.82,161.66,71.39,164.3,71.39,164.3Z" style="fill:#FF725E"></path><path d="M144.15,173l-4.72-5.45a1,1,0,0,1-.22-.93l1.81-7a1,1,0,0,0-1.4-1.21L133,161.26a1.05,1.05,0,0,1-1-.08L126,157.3a1,1,0,0,0-1.59,1l.62,7.18a1,1,0,0,1-.37.89L119,170.91a1,1,0,0,0,.42,1.8l7,1.63a1,1,0,0,1,.72.63l2.64,6.71a1,1,0,0,0,1.84.15l3.73-6.17a1,1,0,0,1,.82-.5l7.19-.43A1,1,0,0,0,144.15,173Z" style="fill:#FF725E"></path><path d="M169.35,197.69l-4.72-5.45a1,1,0,0,1-.22-.93l1.81-7a1,1,0,0,0-1.4-1.21l-6.64,2.81a1,1,0,0,1-1-.08L151.15,182a1,1,0,0,0-1.59,1l.62,7.18a1,1,0,0,1-.37.89l-5.57,4.58a1,1,0,0,0,.43,1.8l7,1.63a1,1,0,0,1,.72.63l2.64,6.71a1,1,0,0,0,1.85.15l3.72-6.17a1,1,0,0,1,.82-.5l7.2-.43A1,1,0,0,0,169.35,197.69Z" style="fill:#FF725E"></path><path d="M89.9,226l6.79-3.34a1.24,1.24,0,0,1,1,0l7,2.87c.83.34,1.76-.29,1.58-1.07l-1.54-6.53a.89.89,0,0,1,.29-.85l5.42-4.85a.93.93,0,0,0-.67-1.61l-7.74-.69a1.14,1.14,0,0,1-.86-.5l-3.65-5.86a1.19,1.19,0,0,0-2,.07l-3.25,6.1a1.14,1.14,0,0,1-.82.55l-7.67,1.22a.93.93,0,0,0-.56,1.65L89,217.62a.9.9,0,0,1,.35.84l-1.09,6.62C88.12,225.86,89.1,226.43,89.9,226Z" style="fill:#FF725E"></path><path d="M169.19,154.62l-4.77,2.55a.85.85,0,0,1-.83.11l-7.88-2.68a.9.9,0,0,0-1.16,1.14l2.95,6.2a1,1,0,0,1-.15.84l-4.69,3.86a.93.93,0,0,0,.69,1.5l8.11.69a.89.89,0,0,1,.74.41l4.67,6.39a.89.89,0,0,0,1.6-.21l.73-6.07a.89.89,0,0,1,.6-.59l6-1.73a.93.93,0,0,0,.29-1.63l-5-3.89a1,1,0,0,1-.36-.78l-.13-5.31A.9.9,0,0,0,169.19,154.62Z" style="fill:#FF725E"></path><path d="M145.35,142.74c.34.2,9.61,2.65,9.31,4.15-.23,1.17-1,1.26-2.19,1.41-1.61.21-4,.33-4,.33s-.2,3.58-1,4.06c-1.23.73-2.59-.61-4.12-1.64s-4.1-2.35-4.1-2.35l-1.46-.58s-6.5.76-7.11.29-.67-1.1-.31-2.09.89-2.62.9-2.8-3.61-2.9-3.94-3.63,1.21-1.53,2.45-1.12,5.66,1.43,5.66,1.43,6.86-1.93,7.52-1.7c0,0,.72-.06,1.24,1.13C144.42,140.2,145.35,142.74,145.35,142.74Z" style="fill:#FF725E"></path><path d="M161.82,210.71l-1.09,7.13a1,1,0,0,0,.32.91l5.25,4.93a1,1,0,0,1-.54,1.78l-7.11,1.16a1.07,1.07,0,0,0-.77.58l-3.07,6.53a1,1,0,0,1-1.85,0l-3.31-6.4a1,1,0,0,0-.79-.55l-7.15-.91a1,1,0,0,1-.6-1.75l5.07-5.13a1.06,1.06,0,0,0,.28-.92L145.11,211a1,1,0,0,1,1.47-1.11l6.45,3.23a1,1,0,0,0,1,0l6.31-3.48A1,1,0,0,1,161.82,210.71Z" style="fill:#FF725E"></path><path d="M153.88,234.34a1,1,0,0,1-.94-.57l-3.31-6.4a1,1,0,0,0-.77-.54l-7.15-.9a1.08,1.08,0,0,1-.87-.71,1.05,1.05,0,0,1,.25-1.09l5.07-5.12a1,1,0,0,0,.27-.9L145.08,211a1.06,1.06,0,0,1,.4-1,1,1,0,0,1,1.11-.1l6.45,3.23a1,1,0,0,0,.93,0l6.32-3.47a1.08,1.08,0,0,1,1.12.06,1.06,1.06,0,0,1,.44,1l-1.09,7.12a1,1,0,0,0,.31.89l5.25,4.94a1,1,0,0,1,.29,1.07,1.06,1.06,0,0,1-.84.74l-7.12,1.17a1,1,0,0,0-.74.56l-3.07,6.53a1.06,1.06,0,0,1-.94.6Zm-7.76-24.52a1,1,0,0,0-.61.21,1,1,0,0,0-.38,1l1.35,7.08a1,1,0,0,1-.29.94l-5.06,5.13a1,1,0,0,0-.24,1,1,1,0,0,0,.82.67l7.16.9a1,1,0,0,1,.8.56l3.31,6.41a1,1,0,0,0,.9.54h0a1,1,0,0,0,.89-.58l3.07-6.52a1.07,1.07,0,0,1,.79-.59l7.11-1.17a1,1,0,0,0,.8-.7,1,1,0,0,0-.27-1L161,218.77a1.08,1.08,0,0,1-.32-.93l1.09-7.13h0a1,1,0,0,0-.42-1,1,1,0,0,0-1.06,0L154,213.15a1.11,1.11,0,0,1-1,0l-6.44-3.24A1,1,0,0,0,146.12,209.82Z" style="fill:#263238"></path><path d="M128.78,245.68l7.52-.8a1.24,1.24,0,0,0,.89-.52l4.39-6.16a1.08,1.08,0,0,1,1.9.06l2.18,6.34a.9.9,0,0,0,.71.57l7.16,1.21a.93.93,0,0,1,.29,1.72l-6.17,4.71a1.14,1.14,0,0,0-.46.88l0,6.91a1.19,1.19,0,0,1-1.72,1l-6-3.42a1.08,1.08,0,0,0-1,0l-7.14,3.06c-.84.36-1.65-.29-1.35-1.1l2.46-6.84a.86.86,0,0,0-.15-.89l-4.45-5C127.36,246.77,127.88,245.77,128.78,245.68Z" style="fill:#FF725E"></path><path d="M189.48,216.26l-5.38.39a.86.86,0,0,0-.76.35l-5.24,6.47a.9.9,0,0,1-1.59-.34l-.81-6.82a.94.94,0,0,0-.58-.63l-6-.76a.94.94,0,0,1-.21-1.65l6.5-4.9a1,1,0,0,0,.4-.75l.54-7.89a.89.89,0,0,1,1.46-.68l3.86,4.75a.92.92,0,0,0,.83.18l6-1.77a.94.94,0,0,1,1.12,1.23l-2.19,6a1,1,0,0,0,.11.85l2.73,4.56A.9.9,0,0,1,189.48,216.26Z" style="fill:#FF725E"></path><path d="M173.81,239.56c.18-.35,6.72-7.37,5.67-8.48-.82-.86-1.53-.52-2.61,0-1.47.68-3.58,1.87-3.58,1.87s-2.07-2.92-3-2.9c-1.44,0-1.87,1.9-2.62,3.59s-2.21,4.17-2.21,4.17l-.93,1.27s-5.9,2.83-6.16,3.55,0,1.29.85,1.93,2.15,1.74,2.25,1.89-1.5,4.38-1.39,5.17,1.84.65,2.67-.36,4-4.22,4-4.22,6.84-2,7.27-2.58c0,0,.64-.34.44-1.62C174.38,242.21,173.81,239.56,173.81,239.56Z" style="fill:#FF725E"></path><path d="M185.08,179.54c-.23-.32-3.41-9.36-4.88-8.95-1.15.32-1.17,1.11-1.23,2.3-.08,1.62,0,4,0,4s-3.56.49-4,1.33c-.63,1.29.81,2.54,2,4s2.67,3.9,2.67,3.9l.69,1.41s-.23,6.54.29,7.11,1.15.58,2.1.14,2.54-1.1,2.72-1.12,3.18,3.36,3.94,3.63,1.42-1.32.92-2.52-1.88-5.53-1.88-5.53,1.37-7,1.1-7.63c0,0,0-.73-1.24-1.15C187.68,180.27,185.08,179.54,185.08,179.54Z" style="fill:#FF725E"></path><path d="M60.77,227.73c.16.35,1.59,9.84,3.11,9.71,1.18-.11,1.36-.87,1.64-2,.39-1.58.76-4,.76-4s3.58.19,4.15-.56c.86-1.14-.32-2.64-1.18-4.28s-1.89-4.33-1.89-4.33L67,220.76s1.46-6.37,1.06-7-1-.79-2.05-.54a25.87,25.87,0,0,1-2.87.59c-.18,0-2.49-3.9-3.18-4.31s-1.65,1-1.38,2.31.8,5.78.8,5.78-2.67,6.62-2.52,7.29c0,0-.13.72,1,1.36C58.35,226.52,60.77,227.73,60.77,227.73Z" style="fill:#FF725E"></path><path d="M101.64,234.55l4.72,5.44a1,1,0,0,1,.22.94l-1.81,7a1,1,0,0,0,1.4,1.21l6.64-2.81a1.05,1.05,0,0,1,1,.08l6.08,3.88a1,1,0,0,0,1.58-1l-.62-7.18a1,1,0,0,1,.38-.89l5.56-4.58a1,1,0,0,0-.42-1.8l-7-1.63a1.07,1.07,0,0,1-.73-.63l-2.64-6.71a1,1,0,0,0-1.84-.16l-3.72,6.18a1,1,0,0,1-.82.49l-7.2.44A1,1,0,0,0,101.64,234.55Z" style="fill:#FF725E"></path><path d="M120.4,250.46a1.08,1.08,0,0,1-.57-.17l-6.07-3.88a1,1,0,0,0-.94-.08l-6.64,2.81a1.05,1.05,0,0,1-1.43-1.24l1.81-7a1,1,0,0,0-.22-.91l-4.72-5.45a1.06,1.06,0,0,1,.74-1.75l7.19-.43a1,1,0,0,0,.81-.49l3.72-6.17a1.06,1.06,0,0,1,1.89.16l2.63,6.71a1,1,0,0,0,.71.61l7,1.63a1.09,1.09,0,0,1,.79.79,1.07,1.07,0,0,1-.36,1.06l-5.57,4.58a1,1,0,0,0-.36.87l.62,7.18a1.05,1.05,0,0,1-.51,1A1,1,0,0,1,120.4,250.46Zm-7.19-4.26a1.06,1.06,0,0,1,.57.17l6.08,3.88a1,1,0,0,0,1.06,0,1,1,0,0,0,.49-.95l-.62-7.18a1.05,1.05,0,0,1,.38-.91l5.57-4.58a1,1,0,0,0-.42-1.76l-7-1.63a1.06,1.06,0,0,1-.74-.64l-2.64-6.71a1,1,0,0,0-.85-.64,1,1,0,0,0-.95.49l-3.72,6.17a1.06,1.06,0,0,1-.84.51l-7.2.43a1,1,0,0,0-.87.62,1,1,0,0,0,.17,1.05l4.72,5.45a1.06,1.06,0,0,1,.23,1l-1.81,7a1,1,0,0,0,1.36,1.18l6.64-2.8A1,1,0,0,1,113.21,246.2Z" style="fill:#263238"></path><path d="M76.61,252.94l4.76-2.55a.88.88,0,0,1,.83-.1L90.08,253a.91.91,0,0,0,1.17-1.14l-3-6.2a.93.93,0,0,1,.15-.84l4.69-3.86a.93.93,0,0,0-.7-1.5l-8.11-.69a.91.91,0,0,1-.74-.42l-4.67-6.38a.88.88,0,0,0-1.59.21l-.73,6.07a.92.92,0,0,1-.61.59l-6,1.72a.94.94,0,0,0-.29,1.63l5,3.9a.94.94,0,0,1,.36.78l.13,5.31A.9.9,0,0,0,76.61,252.94Z" style="fill:#FF725E"></path><path d="M100.44,264.82c-.33-.2-9.61-2.65-9.31-4.14.23-1.17,1-1.26,2.19-1.41,1.61-.22,4-.33,4-.33s.2-3.58,1-4.06c1.23-.73,2.59.61,4.13,1.63s4.09,2.36,4.09,2.36l1.47.57s6.5-.75,7.1-.28.68,1.1.31,2.09-.89,2.61-.9,2.79,3.61,2.91,3.94,3.64-1.21,1.53-2.44,1.12-5.66-1.43-5.66-1.43-6.87,1.92-7.52,1.7c0,0-.73.06-1.25-1.14C101.38,267.36,100.44,264.82,100.44,264.82Z" style="fill:#FF725E"></path><path d="M107.36,238.81c-.11.1-.84-.58-1.63-1.51s-1.34-1.76-1.23-1.85.84.58,1.63,1.51S107.47,238.72,107.36,238.81Z" style="fill:#fff"></path><path d="M107.58,242.6c.14,0,.09.89-.12,1.93s-.48,1.85-.62,1.82-.09-.89.11-1.93S107.44,242.57,107.58,242.6Z" style="fill:#fff"></path><path d="M113.31,229.33c.14.06-.1.86-.52,1.79s-.87,1.63-1,1.57.1-.86.53-1.79S113.18,229.27,113.31,229.33Z" style="fill:#fff"></path><path d="M90.73,212.05a6,6,0,0,1-2.38.65,6.11,6.11,0,0,1-2.48.14,6.19,6.19,0,0,1,2.39-.65A6.06,6.06,0,0,1,90.73,212.05Z" style="fill:#fff"></path><path d="M94.84,207.16c.13.05,0,.7-.33,1.43s-.69,1.29-.82,1.23,0-.7.34-1.43S94.71,207.1,94.84,207.16Z" style="fill:#fff"></path><path d="M86.39,190.36a4.89,4.89,0,0,1-.08,2.48,4.7,4.7,0,0,1-.87,2.32,25.7,25.7,0,0,1,1-4.8Z" style="fill:#fff"></path><path d="M85.38,187.36c-.11.09-.84-.57-1.63-1.48s-1.35-1.72-1.24-1.81.84.56,1.63,1.47S85.49,187.26,85.38,187.36Z" style="fill:#fff"></path><path d="M60.12,196.85c.13.06-.15.9-.61,1.88s-1,1.72-1.09,1.65.15-.9.62-1.88S60,196.79,60.12,196.85Z" style="fill:#fff"></path><path d="M61,193.45c-.13.07-.65-.61-1.18-1.52s-.84-1.71-.72-1.78.65.61,1.17,1.52S61.14,193.38,61,193.45Z" style="fill:#fff"></path><path d="M70.21,167.17c.11.09-.19.62-.67,1.18s-1,.93-1.08.84.2-.63.68-1.18S70.11,167.08,70.21,167.17Z" style="fill:#fff"></path><path d="M100,152c.07.12-.58.64-1.45,1.16s-1.64.84-1.71.72.57-.65,1.44-1.17S99.94,151.87,100,152Z" style="fill:#fff"></path><path d="M102.44,148.52c-.15,0-.37-.64-.49-1.47s-.12-1.53,0-1.55.36.64.49,1.47S102.58,148.5,102.44,148.52Z" style="fill:#fff"></path><path d="M125.19,167.89c.11.08-.39.91-1.34,1.62s-1.88,1-1.93.83.74-.58,1.62-1.24S125.07,167.79,125.19,167.89Z" style="fill:#fff"></path><path d="M126.92,165.33c-.14,0-.35-.51-.48-1.2s-.1-1.26,0-1.28.36.51.48,1.19S127.06,165.3,126.92,165.33Z" style="fill:#fff"></path><path d="M118.37,198.41c-.1.11-.93-.48-1.85-1.31s-1.59-1.6-1.5-1.7.93.48,1.85,1.31S118.46,198.31,118.37,198.41Z" style="fill:#fff"></path><path d="M119,201.94c.15,0,.32.83.39,1.87s0,1.89-.12,1.9-.32-.83-.39-1.87S118.83,202,119,201.94Z" style="fill:#fff"></path><path d="M150.33,197.42c-.05.14-.77,0-1.61-.27s-1.49-.63-1.44-.77.77,0,1.61.28S150.37,197.29,150.33,197.42Z" style="fill:#fff"></path><path d="M148.13,218.36c-.14,0-.49-.82-.77-1.91a4.22,4.22,0,0,1-.27-2c.14,0,.49.82.77,1.92S148.27,218.32,148.13,218.36Z" style="fill:#fff"></path><path d="M147.53,221c.1.1-.37.72-1.06,1.37s-1.32,1.09-1.42,1,.38-.72,1.06-1.37S147.43,220.88,147.53,221Z" style="fill:#fff"></path><path d="M137.73,246.9c0,.14-.79.27-1.77.29s-1.77-.08-1.78-.23.79-.27,1.77-.29S137.73,246.75,137.73,246.9Z" style="fill:#fff"></path><path d="M141.16,242.61c.13.06,0,.8-.4,1.66s-.76,1.52-.89,1.46,0-.8.4-1.66S141,242.56,141.16,242.61Z" style="fill:#fff"></path><path d="M105.39,260.16a4.9,4.9,0,0,1-2.13-.75c-1.11-.54-2-1.08-1.9-1.21a4.9,4.9,0,0,1,2.13.75C104.6,259.49,105.45,260,105.39,260.16Z" style="fill:#fff"></path><path d="M78.56,237.37c-.14,0-.26-.74-.25-1.65s.12-1.65.26-1.65.26.74.26,1.65S78.71,237.37,78.56,237.37Z" style="fill:#fff"></path><path d="M61.52,215c-.14,0-.36-.43-.5-1s-.13-1.12,0-1.15.36.43.5,1S61.66,215,61.52,215Z" style="fill:#fff"></path><path d="M132.61,145c.13.06.06.5-.15,1s-.5.84-.63.78-.06-.5.15-1S132.48,144.89,132.61,145Z" style="fill:#fff"></path><path d="M158.55,160.82c-.13.05-.48-.51-.78-1.25s-.42-1.39-.29-1.44.48.51.78,1.25S158.68,160.76,158.55,160.82Z" style="fill:#fff"></path><path d="M158.88,164.42c.09.11-.46.64-1.21,1.17s-1.43.87-1.51.75.46-.64,1.21-1.18S158.8,164.3,158.88,164.42Z" style="fill:#fff"></path><path d="M179.74,182.78c-.12.07-.55-.44-1-1.15s-.63-1.35-.51-1.42.56.45,1,1.16S179.87,182.71,179.74,182.78Z" style="fill:#fff"></path></g></svg>
