<svg class="animated" id="freepik_stories-features-overview" xmlns="http://www.w3.org/2000/svg" viewBox="0 0 500 500" version="1.1" xmlns:xlink="http://www.w3.org/1999/xlink" xmlns:svgjs="http://svgjs.com/svgjs"><style>svg#freepik_stories-features-overview:not(.animated) .animable {opacity: 0;}svg#freepik_stories-features-overview.animated #freepik--background-complete--inject-2 {animation: 1.5s Infinite  linear floating;animation-delay: 0s;}            @keyframes floating {                0% {                    opacity: 1;                    transform: translateY(0px);                }                50% {                    transform: translateY(-10px);                }                100% {                    opacity: 1;                    transform: translateY(0px);                }            }        .animator-hidden { display: none; }</style><g id="freepik--background-complete--inject-2" class="animable animator-active animator-hidden" style="transform-origin: 247.63px 255.66px;"><rect x="282.82" y="48.05" width="61.72" height="64.34" style="fill: rgb(224, 224, 224); transform-origin: 313.68px 80.22px;" id="el59coputk8t" class="animable"></rect><rect x="278.64" y="48.05" width="61.72" height="64.34" style="fill: rgb(250, 250, 250); transform-origin: 309.5px 80.22px;" id="elong8gt01rse" class="animable"></rect><path d="M340.38,112.41H278.62V48h61.76Zm-61.72,0h61.69V48.07H278.66Z" style="fill: rgb(224, 224, 224); transform-origin: 309.5px 80.205px;" id="elammffx8c8t9" class="animable"></path><rect x="286.94" y="56.7" width="45.13" height="47.04" style="fill: rgb(250, 250, 250); transform-origin: 309.505px 80.22px;" id="el5j0e93o2w89" class="animable"></rect><path d="M286.94,104.05a7.51,7.51,0,0,1-1.12,1.3c-.72.76-1.73,1.79-2.87,2.91s-2.17,2.11-2.94,2.82a7.56,7.56,0,0,1-1.31,1.09,7.19,7.19,0,0,1,1.11-1.29c.72-.76,1.74-1.8,2.88-2.92s2.18-2.12,2.95-2.83A7.35,7.35,0,0,1,286.94,104.05Z" style="fill: rgb(224, 224, 224); transform-origin: 282.82px 108.11px;" id="eliodltcishkl" class="animable"></path><path d="M332.07,103.94a7.19,7.19,0,0,1,1.29,1.11c.76.72,1.79,1.74,2.91,2.87s2.11,2.18,2.82,3a7.18,7.18,0,0,1,1.09,1.3,6.82,6.82,0,0,1-1.29-1.1c-.76-.73-1.79-1.74-2.91-2.88s-2.12-2.18-2.83-3A6.69,6.69,0,0,1,332.07,103.94Z" style="fill: rgb(224, 224, 224); transform-origin: 336.125px 108.08px;" id="el7e2f1aksskr" class="animable"></path><path d="M331.94,56.82a8.21,8.21,0,0,1,1.12-1.29c.72-.76,1.73-1.79,2.87-2.91s2.17-2.12,2.94-2.82a7,7,0,0,1,1.31-1.09A7.19,7.19,0,0,1,339.07,50c-.72.76-1.74,1.79-2.87,2.91s-2.19,2.12-3,2.83A6.82,6.82,0,0,1,331.94,56.82Z" style="fill: rgb(224, 224, 224); transform-origin: 336.06px 52.765px;" id="elkvtkscyb4es" class="animable"></path><path d="M286.81,56.94a7.58,7.58,0,0,1-1.29-1.12c-.76-.72-1.79-1.73-2.91-2.86s-2.11-2.18-2.82-3a7,7,0,0,1-1.09-1.31A7.19,7.19,0,0,1,280,49.81c.76.72,1.79,1.74,2.92,2.88s2.12,2.18,2.82,3A6.36,6.36,0,0,1,286.81,56.94Z" style="fill: rgb(224, 224, 224); transform-origin: 282.755px 52.795px;" id="el73jh8ux89o4" class="animable"></path><path d="M331.94,103.74s0-.08,0-.23,0-.37,0-.65c0-.59,0-1.44,0-2.54,0-2.23,0-5.47,0-9.59,0-8.24-.05-20-.09-34l.17.17-45,0h0l.2-.2c0,17.26,0,33.42,0,47l-.17-.17,32.58.09,9.16,0,2.42,0h0l-2.39,0-9.12,0-32.69.09h-.17v-.17c0-13.62,0-29.78,0-47v-.2h.2l45,0h.18v.18c0,14.1-.07,25.87-.09,34.14,0,4.1,0,7.33,0,9.55,0,1.09,0,1.92,0,2.5,0,.28,0,.49,0,.64A.67.67,0,0,1,331.94,103.74Z" style="fill: rgb(224, 224, 224); transform-origin: 309.53px 80.04px;" id="elqt9wdzz2st" class="animable"></path><rect x="301.97" y="72.69" width="15.06" height="15.06" style="fill: rgb(235, 235, 235); transform-origin: 309.5px 80.22px;" id="elinohf4zp22" class="animable"></rect><rect x="45.48" y="74.63" width="86.78" height="90.46" style="fill: rgb(224, 224, 224); transform-origin: 88.87px 119.86px;" id="el1mn0cptogfz" class="animable"></rect><rect x="39.6" y="74.63" width="86.78" height="90.46" style="fill: rgb(250, 250, 250); transform-origin: 82.99px 119.86px;" id="elxjvf23eov7" class="animable"></rect><path d="M126.41,165.11H39.58V74.6h86.83Zm-86.78-.05h86.73V74.65H39.63Z" style="fill: rgb(224, 224, 224); transform-origin: 82.995px 119.855px;" id="ely16y483jjh8" class="animable"></path><rect x="51.27" y="86.79" width="63.45" height="66.14" style="fill: rgb(250, 250, 250); transform-origin: 82.995px 119.86px;" id="elo5xbqkucgw" class="animable"></rect><path d="M51.27,153.37a10.17,10.17,0,0,1-1.57,1.82c-1,1.07-2.43,2.51-4,4.09s-3.06,3-4.14,4a9.65,9.65,0,0,1-1.84,1.53A11,11,0,0,1,41.25,163c1-1.07,2.44-2.52,4-4.1s3.07-3,4.15-4A9.83,9.83,0,0,1,51.27,153.37Z" style="fill: rgb(224, 224, 224); transform-origin: 45.495px 159.09px;" id="elfwtojndxg9d" class="animable"></path><path d="M114.72,153.2a10.73,10.73,0,0,1,1.82,1.57c1.07,1,2.51,2.44,4.09,4s3,3.07,4,4.15a9.82,9.82,0,0,1,1.53,1.83,9.86,9.86,0,0,1-1.81-1.56c-1.07-1-2.52-2.44-4.1-4s-3-3.07-4-4.15A9.46,9.46,0,0,1,114.72,153.2Z" style="fill: rgb(224, 224, 224); transform-origin: 120.44px 158.975px;" id="el218ftc2z4po" class="animable"></path><path d="M114.54,87a10.73,10.73,0,0,1,1.57-1.82c1-1.07,2.44-2.51,4-4.09s3.07-3,4.15-4a9.82,9.82,0,0,1,1.83-1.53,9.86,9.86,0,0,1-1.56,1.81c-1,1.07-2.44,2.52-4,4.1s-3.07,3-4.15,4A9.46,9.46,0,0,1,114.54,87Z" style="fill: rgb(224, 224, 224); transform-origin: 120.315px 81.28px;" id="elsrnte9os6l" class="animable"></path><path d="M51.1,87.13a10.29,10.29,0,0,1-1.82-1.57c-1.07-1-2.52-2.44-4.09-4s-3-3.07-4-4.15a10.36,10.36,0,0,1-1.53-1.83,9.14,9.14,0,0,1,1.81,1.56c1.07,1,2.52,2.44,4.1,4s3,3.07,4,4.15A10,10,0,0,1,51.1,87.13Z" style="fill: rgb(224, 224, 224); transform-origin: 45.38px 81.355px;" id="el575o5ilptym" class="animable"></path><path d="M114.54,152.93s0-.12,0-.32,0-.53,0-.93q0-1.25,0-3.57c0-3.13,0-7.69-.07-13.48,0-11.58-.07-28.08-.12-47.84l.24.24-63.26,0h0l.28-.28c0,24.27,0,47,0,66.14l-.24-.24,45.81.12,12.87.06,3.41,0h.88a1.71,1.71,0,0,1,.3,0h-1.13l-3.36,0L97.24,153l-46,.13H51v-.24c0-19.16,0-41.87,0-66.14v-.28h.29l63.26,0h.25v.25c-.05,19.82-.1,36.38-.13,48,0,5.76,0,10.3-.06,13.42,0,1.53,0,2.71,0,3.53,0,.38,0,.67,0,.89A1.71,1.71,0,0,1,114.54,152.93Z" style="fill: rgb(224, 224, 224); transform-origin: 82.9px 119.8px;" id="eldwut0u50kjr" class="animable"></path><rect x="72.41" y="109.27" width="21.17" height="21.17" style="fill: rgb(235, 235, 235); transform-origin: 82.995px 119.855px;" id="elkctlcrkyo6r" class="animable"></rect><rect x="366.32" y="100.56" width="90.73" height="94.58" style="fill: rgb(224, 224, 224); transform-origin: 411.685px 147.85px;" id="elxcj5vju9ce9" class="animable"></rect><rect x="360.17" y="100.56" width="90.73" height="94.58" style="fill: rgb(250, 250, 250); transform-origin: 405.535px 147.85px;" id="el32jtvk730ns" class="animable"></rect><path d="M450.94,195.17H360.15V100.53h90.79Zm-90.74-.06h90.68V100.59H360.2Z" style="fill: rgb(224, 224, 224); transform-origin: 405.545px 147.85px;" id="els16ym6sm83o" class="animable"></path><rect x="372.37" y="113.27" width="66.34" height="69.15" style="fill: rgb(250, 250, 250); transform-origin: 405.54px 147.845px;" id="el3lxia5qm6sy" class="animable"></rect><path d="M372.37,182.89a11.3,11.3,0,0,1-1.64,1.9c-1.06,1.12-2.54,2.63-4.21,4.28s-3.21,3.1-4.34,4.14a10.92,10.92,0,0,1-1.91,1.6,9.8,9.8,0,0,1,1.62-1.89c1.06-1.12,2.56-2.64,4.23-4.29s3.21-3.11,4.34-4.15A10.52,10.52,0,0,1,372.37,182.89Z" style="fill: rgb(224, 224, 224); transform-origin: 366.32px 188.85px;" id="el8i0bh8ih9to" class="animable"></path><path d="M438.71,182.72a11,11,0,0,1,1.9,1.63c1.12,1.06,2.64,2.55,4.28,4.22s3.11,3.2,4.15,4.34a10.52,10.52,0,0,1,1.59,1.91,11.13,11.13,0,0,1-1.89-1.62c-1.12-1.06-2.64-2.56-4.28-4.23s-3.12-3.21-4.16-4.34A10.52,10.52,0,0,1,438.71,182.72Z" style="fill: rgb(224, 224, 224); transform-origin: 444.67px 188.77px;" id="eldw9zxbmzrk" class="animable"></path><path d="M438.53,113.46a10.85,10.85,0,0,1,1.64-1.9c1.06-1.12,2.54-2.64,4.21-4.28s3.21-3.11,4.34-4.15a10.52,10.52,0,0,1,1.91-1.59,10.56,10.56,0,0,1-1.62,1.89c-1.06,1.12-2.56,2.64-4.23,4.28s-3.21,3.12-4.34,4.16A10.52,10.52,0,0,1,438.53,113.46Z" style="fill: rgb(224, 224, 224); transform-origin: 444.58px 107.5px;" id="elamhkid7cupb" class="animable"></path><path d="M372.19,113.63a10.85,10.85,0,0,1-1.9-1.64c-1.12-1.06-2.64-2.55-4.28-4.22s-3.11-3.2-4.15-4.33a10,10,0,0,1-1.59-1.92,11.57,11.57,0,0,1,1.89,1.63c1.12,1.06,2.64,2.55,4.28,4.23s3.12,3.21,4.16,4.34A10.52,10.52,0,0,1,372.19,113.63Z" style="fill: rgb(224, 224, 224); transform-origin: 366.23px 107.575px;" id="elv9mzyyrzmbr" class="animable"></path><path d="M438.53,182.43a2.47,2.47,0,0,1,0-.34c0-.23,0-.55,0-1,0-.87,0-2.12,0-3.74,0-3.27,0-8-.07-14.09,0-12.11-.07-29.37-.13-50l.26.26-66.15,0h0l.29-.3c0,25.39,0,49.13,0,69.16l-.25-.25,47.9.12,13.46.07,3.56,0h.92l.32,0h-.29l-.9,0-3.51,0-13.4.06-48.06.13h-.25v-.25c0-20,0-43.77,0-69.16V113h.3l66.15,0h.26v.25c-.06,20.73-.1,38-.13,50.19,0,6-.06,10.78-.07,14,0,1.6,0,2.83,0,3.68,0,.4,0,.71,0,.94S438.53,182.43,438.53,182.43Z" style="fill: rgb(224, 224, 224); transform-origin: 405.585px 147.755px;" id="elew56ify22kc" class="animable"></path><rect x="394.47" y="136.78" width="22.14" height="22.14" style="fill: rgb(235, 235, 235); transform-origin: 405.54px 147.85px;" id="elnekqn763iee" class="animable"></rect><polygon points="44.19 417.01 44.19 463.32 111.92 463.32 186.63 463.32 186.63 417.01 44.19 417.01" style="fill: rgb(245, 245, 245); transform-origin: 115.41px 440.165px;" id="el7f11iq01uvk" class="animable"></polygon><polygon points="38.21 404.06 38.21 417.01 191.6 417.01 191.6 404.06 111.92 404.06 38.21 404.06" style="fill: rgb(224, 224, 224); transform-origin: 114.905px 410.535px;" id="elqjz0eoyz2" class="animable"></polygon><polygon points="114.91 463.32 186.63 463.32 186.63 417.01 191.6 417.01 191.6 404.06 111.92 404.06 111.92 415.81 114.91 463.32" style="fill: rgb(224, 224, 224); transform-origin: 151.76px 433.69px;" id="elalova3r88w" class="animable"></polygon><rect x="64.11" y="424.48" width="28.89" height="6.97" style="fill: rgb(224, 224, 224); transform-origin: 78.555px 427.965px;" id="elf1wt8zrcbfs" class="animable"></rect><rect x="60.39" y="440.17" width="37.09" height="14.72" style="fill: rgb(255, 255, 255); transform-origin: 78.935px 447.53px;" id="eli4gp90msr3f" class="animable"></rect></g><g id="freepik--Character--inject-2" class="animable" style="transform-origin: 325.517px 305.484px;"><path d="M244.32,328.57s-2.34-10.16-11.77-9.65-11.72.51-15.79,0-10.39-5.41-12.17-3.89-.79,4.85,2.52,7.79,9,5,9,5l-12.05,2.07s-10.86-5.8-13.41-4.78a3.94,3.94,0,0,0-2.34,3.84s-4.51-2-5.78-.24-1.59,3-.31,4c0,0-.84-.83-3.18-.14-2,.59-1.83,4.28,0,5.27l.62.36s17.08,9.83,17.6,9.9c3,.4,21.42-.38,30.9-.82a9.67,9.67,0,0,1,8.64,4.52L252.06,376,269.3,356.1Z" style="fill: rgb(183, 136, 118); transform-origin: 223.452px 345.369px;" id="elcbknj4ulpvn" class="animable"></path><path d="M213.36,334.13a19.22,19.22,0,0,1-2.79.62c-1.77.33-4.25.77-7.15,1.26l-.07,0-.07,0-3.86-1.77L190.21,330l-2.78-1.32a4.64,4.64,0,0,1-1-.56,4.69,4.69,0,0,1,1.07.37l2.85,1.17,4.19,1.81,5.09,2.32,3.85,1.79-.15,0c2.9-.46,5.4-.83,7.18-1.08A18.16,18.16,0,0,1,213.36,334.13Z" style="fill: rgb(170, 101, 80); transform-origin: 199.895px 332.065px;" id="ellzt2v72b63k" class="animable"></path><path d="M209.13,338.66a14.6,14.6,0,0,0-6.88,5.46,8.66,8.66,0,0,1,6.88-5.46Z" style="fill: rgb(170, 101, 80); transform-origin: 205.69px 341.39px;" id="elj2nxkrvptt" class="animable"></path><path d="M228.68,324.42c.06,0,.11.62.44,1.62a8.51,8.51,0,0,0,2.32,3.58l.35.31-.46.09a24.34,24.34,0,0,0-4.68,1.39,24.68,24.68,0,0,0-6.57,4c-1.51,1.29-2.31,2.24-2.38,2.18s.15-.28.5-.72a18.8,18.8,0,0,1,1.63-1.73,22.06,22.06,0,0,1,6.62-4.24,22.58,22.58,0,0,1,4.8-1.37l-.12.4a8.1,8.1,0,0,1-2.28-3.84A4,4,0,0,1,228.68,324.42Z" style="fill: rgb(170, 101, 80); transform-origin: 224.739px 331.006px;" id="eld9kgq9sdwod" class="animable"></path><path d="M217.39,327.3a28.46,28.46,0,0,1-6.57,1.77c-1.85.34-3.54.58-4.76.7a7.51,7.51,0,0,1-2,.08c0-.16,3-.6,6.66-1.29l4.7-.93A8.76,8.76,0,0,1,217.39,327.3Z" style="fill: rgb(170, 101, 80); transform-origin: 210.725px 328.591px;" id="elkwpiwzx0xgf" class="animable"></path><path d="M201.35,340.64a25.22,25.22,0,0,1-2.85-1.15c-1.75-.72-4.2-1.65-6.93-2.62s-5.19-1.9-6.94-2.65a14.82,14.82,0,0,1-2.77-1.35,23.07,23.07,0,0,1,2.9,1l7,2.5c2.73,1,5.17,2,6.89,2.78A13.53,13.53,0,0,1,201.35,340.64Z" style="fill: rgb(170, 101, 80); transform-origin: 191.605px 336.755px;" id="elga5f4ycq7e8" class="animable"></path><path d="M205.69,340.23a11.37,11.37,0,0,1-7.36.73c0-.15,1.68-.06,3.69-.27S205.65,340.08,205.69,340.23Z" style="fill: rgb(170, 101, 80); transform-origin: 202.01px 340.731px;" id="elgukcy3hnnpv" class="animable"></path><path d="M300.72,281.81s-15.25,8.77-18.44,35.57c-1.66,14-7.75,39.95-7.75,39.95L262,343.27l-18.93,21.66s20.45,43.65,32,55.55,34.46,15.57,34.46,15.57l4.61-72.95Z" style="fill: rgb(126, 87, 194); transform-origin: 278.605px 358.93px;" id="el64mcq3ms3on" class="animable"></path><path d="M416.35,269.76l-35.23-6.17-44.91,2.23s-37.4,15.44-35.49,16L293.43,354l18.06,34.88L307,463.19H431l-6.47-51.66-8.11-62.25,15.39,48.19,2.33,65.72h34.5c3.65-28.62,4.79-68.38,4.79-68.38l-28.16-92a53.65,53.65,0,0,0-23.85-30.58A28.87,28.87,0,0,0,416.35,269.76Z" style="fill: rgb(126, 87, 194); transform-origin: 383.43px 363.39px;" id="elxyeukj5np3e" class="animable"></path><path d="M300.32,318.23l.08.37c.05.27.12.63.2,1.09.17,1,.42,2.38.73,4.18.61,3.63,1.49,8.89,2.49,15.4S306,353.55,307,362.19s2.09,18.18,2.67,28.22c.05.94.1,1.87.15,2.73h0c-.52,19.49-1.12,37-1.67,49.64-.28,6.31-.53,11.41-.75,14.93q-.17,2.61-.27,4c0,.44-.06.79-.08,1.05a2.52,2.52,0,0,1,0,.36,2,2,0,0,1,0-.36c0-.27,0-.61,0-1.06,0-.95.1-2.31.18-4,.13-3.55.33-8.64.58-14.94.45-12.64,1-30.15,1.51-49.63v0c0-.86-.1-1.79-.15-2.73-.58-10-1.59-19.55-2.63-28.19s-2.14-16.41-3.1-22.92-1.78-11.76-2.33-15.43l-.63-4.2c-.06-.46-.11-.82-.15-1.09A1.81,1.81,0,0,1,300.32,318.23Z" style="fill: rgb(38, 50, 56); transform-origin: 305.068px 390.675px;" id="elnrytokct8w" class="animable"></path><path d="M408.41,322.15a1.44,1.44,0,0,1-.11-.46c-.06-.37-.14-.81-.23-1.34,0-.3-.09-.62-.14-1s-.06-.74-.09-1.16a25.19,25.19,0,0,1-.09-2.84c0-.53,0-1.08,0-1.65s.1-1.17.16-1.79a35.17,35.17,0,0,1,.6-3.91,42.91,42.91,0,0,1,2.86-8.6,43.84,43.84,0,0,1,4.75-7.72,37.63,37.63,0,0,1,2.62-3c.43-.44.83-.88,1.26-1.27l1.25-1.09a25.4,25.4,0,0,1,2.23-1.75c.34-.25.65-.49,1-.68l.83-.51,1.17-.69a2.47,2.47,0,0,1,.42-.21s-.11.12-.37.3l-1.1.77-.81.54c-.29.21-.59.46-.91.71a27,27,0,0,0-2.17,1.8l-1.21,1.1c-.42.39-.81.84-1.23,1.28a35.37,35.37,0,0,0-2.55,3A40.32,40.32,0,0,0,409,308.13a36.92,36.92,0,0,0-.64,3.86c-.07.61-.16,1.19-.19,1.76s-.05,1.11-.07,1.64c-.08,1,0,2,0,2.81,0,.42,0,.8,0,1.16s.07.67.11,1c.05.53.09,1,.12,1.34A1.78,1.78,0,0,1,408.41,322.15Z" style="fill: rgb(38, 50, 56); transform-origin: 417.321px 302.315px;" id="eliqzbt8mg63" class="animable"></path><path d="M431.77,397.47a2.62,2.62,0,0,1-.23-.6c-.15-.45-.34-1-.57-1.74-.49-1.57-1.17-3.74-2-6.4-1.69-5.41-4-12.89-6.69-21.11s-5.16-15.66-7.16-20.95c-1-2.63-2.05-4.69-2.67-6.15-.31-.73-.55-1.3-.7-1.69a4.4,4.4,0,0,1-.2-.61,3,3,0,0,1,.3.57l.78,1.65c.68,1.43,1.74,3.46,2.83,6.09,2.1,5.29,4.63,12.7,7.31,20.93s4.95,15.72,6.56,21.16c.8,2.72,1.43,4.93,1.85,6.46.19.72.35,1.3.47,1.76A2.89,2.89,0,0,1,431.77,397.47Z" style="fill: rgb(38, 50, 56); transform-origin: 421.66px 367.845px;" id="elh72qsdwwxn9" class="animable"></path><path d="M457.76,395.17c0,.09-1.34-.29-3.51-.63a33.66,33.66,0,0,0-8.53-.2,33.31,33.31,0,0,0-8.29,2c-2,.8-3.24,1.46-3.29,1.38a3.57,3.57,0,0,1,.8-.54,21.8,21.8,0,0,1,2.35-1.18,29.36,29.36,0,0,1,8.37-2.2,29,29,0,0,1,8.65.35,20.19,20.19,0,0,1,2.55.64A3.52,3.52,0,0,1,457.76,395.17Z" style="fill: rgb(38, 50, 56); transform-origin: 445.95px 395.677px;" id="elnzw51kh36g" class="animable"></path><path d="M301.78,390.08a12.65,12.65,0,0,1-.93-1.39c-.61-.89-1.51-2.16-2.72-3.65-2.39-3-5.9-7-9.8-11.43s-7.43-8.4-9.92-11.35c-1.24-1.47-2.24-2.67-2.91-3.52a10.15,10.15,0,0,1-1-1.34,9.08,9.08,0,0,1,1.15,1.21l3,3.41,10,11.24c3.9,4.41,7.37,8.46,9.7,11.55a42.49,42.49,0,0,1,2.6,3.77c.28.46.46.84.59,1.1S301.8,390.07,301.78,390.08Z" style="fill: rgb(38, 50, 56); transform-origin: 288.141px 373.74px;" id="elih74lqv7yd" class="animable"></path><g id="el2l8dxejooa9"><g style="opacity: 0.3; transform-origin: 302.091px 406.67px;" class="animable"><path d="M308.67,436.05c.56-20.2,1.61-38.82-.22-58.76-.82,17.7-7.26,38.41-13.75,54.9Z" id="elft58b89jeqd" class="animable" style="transform-origin: 302.091px 406.67px;"></path></g></g><g id="el9bqndwphxym"><g style="opacity: 0.3; transform-origin: 417.663px 373.42px;" class="animable"><path d="M416.38,349.28s-5.75-12.86-5.36-12.86c-.57,24.06,4.33,51.68,13.33,74Z" id="elojtbthxvvsg" class="animable" style="transform-origin: 417.663px 373.42px;"></path></g></g><path d="M400.57,417.48a6.72,6.72,0,0,1-.69.44l-2,1.17c-1.75,1-4.28,2.52-7.37,4.43s-6.78,4.16-11,6.53a96.84,96.84,0,0,1-14.14,6.68,47.5,47.5,0,0,1-15.33,3.12,23.07,23.07,0,0,1-6.79-1,16.1,16.1,0,0,1-5.29-2.78,13.36,13.36,0,0,1-4.76-7.1,10.7,10.7,0,0,1-.31-2.33,5.13,5.13,0,0,1,.05-.81,15.07,15.07,0,0,0,.46,3.09,13.52,13.52,0,0,0,4.78,6.87,16,16,0,0,0,5.2,2.65,22.83,22.83,0,0,0,6.66.89,48.07,48.07,0,0,0,15.15-3.13,100.87,100.87,0,0,0,14.09-6.61c4.18-2.34,7.88-4.58,11-6.43s5.68-3.31,7.46-4.29l2.07-1.09A4.19,4.19,0,0,1,400.57,417.48Z" style="fill: rgb(38, 50, 56); transform-origin: 366.73px 428.665px;" id="elpdjd0hgts28" class="animable"></path><path d="M400.42,388.19a11.39,11.39,0,0,1-.39,1.74,19,19,0,0,1-.58,2c-.26.77-.52,1.67-.92,2.62s-.79,2-1.32,3.09-1.12,2.24-1.76,3.44a51.41,51.41,0,0,1-11.18,13.62c-1,.87-2,1.71-3,2.4s-1.91,1.35-2.78,1.9-1.67,1-2.38,1.42-1.34.72-1.86,1a13.63,13.63,0,0,1-1.63.72,11.5,11.5,0,0,1,1.54-.9c.5-.27,1.12-.6,1.8-1s1.5-.87,2.33-1.47,1.78-1.19,2.72-1.93,1.94-1.55,3-2.42A54,54,0,0,0,395,400.85c.65-1.18,1.29-2.29,1.79-3.39s1-2.1,1.37-3,.7-1.81,1-2.57.51-1.43.67-2A10.7,10.7,0,0,1,400.42,388.19Z" style="fill: rgb(38, 50, 56); transform-origin: 386.52px 405.165px;" id="elpgxb8ebuofe" class="animable"></path><path d="M302.09,342.07c0,.14-5.24-.89-11.63-2.3s-11.56-2.66-11.52-2.8,5.23.88,11.63,2.29S302.12,341.93,302.09,342.07Z" style="fill: rgb(250, 250, 250); transform-origin: 290.515px 339.52px;" id="elrspzjcbcrd7" class="animable"></path><path d="M302.09,336.21a18.83,18.83,0,0,1-3.29-.37c-2-.31-4.8-.81-7.87-1.39l-7.83-1.53a24.58,24.58,0,0,1-3.23-.74,18.83,18.83,0,0,1,3.29.37c2,.31,4.81.81,7.87,1.39l7.83,1.54A23.8,23.8,0,0,1,302.09,336.21Z" style="fill: rgb(250, 250, 250); transform-origin: 290.98px 334.195px;" id="el55ibmnqk5or" class="animable"></path><path d="M408.6,337c0,.14-22.51.09-50.28-.12s-50.27-.5-50.27-.64,22.51-.09,50.28.12S408.6,336.82,408.6,337Z" style="fill: rgb(250, 250, 250); transform-origin: 358.325px 336.62px;" id="el33d9s5m6v8b" class="animable"></path><path d="M410.26,342.07c0,.14-23.16.26-51.73.26s-51.73-.12-51.73-.26,23.16-.26,51.73-.26S410.26,341.92,410.26,342.07Z" style="fill: rgb(250, 250, 250); transform-origin: 358.53px 342.07px;" id="el2n9f2of3g9j" class="animable"></path><path d="M452.42,330.19s0,0,.12,0-.09,0-.15.06h-.09v-.1h.44l-.31.11c-1.84.68-9.58,3.3-18.71,6.78l-13.46,5.17-4.08,1.56a9.74,9.74,0,0,1-1.52.52,8.44,8.44,0,0,1,1.44-.7c.95-.42,2.32-1,4-1.72,3.41-1.42,8.14-3.33,13.41-5.32,9.15-3.48,17-5.94,18.87-6.4l0,.11h-.12v-.1h.09c.06,0,.11,0,.15.08Z" style="fill: rgb(250, 250, 250); transform-origin: 433.7px 337.22px;" id="elnugkrt8km28" class="animable"></path><path d="M451.6,323.73c0,.14-8.73,3.21-19.61,6.86s-19.73,6.51-19.77,6.38,8.73-3.21,19.61-6.87S451.55,323.59,451.6,323.73Z" style="fill: rgb(250, 250, 250); transform-origin: 431.91px 330.35px;" id="el4h5ywqds6i6" class="animable"></path><path d="M384.71,264.34a4.21,4.21,0,0,1,.09.81,19,19,0,0,1,.06,2.32,25.12,25.12,0,0,1-1.77,8.37,25.85,25.85,0,0,1-7.42,10.25,25.47,25.47,0,0,1-29.33,1.79,25.73,25.73,0,0,1-8.61-9.27,25.11,25.11,0,0,1-2.78-8.09,18.45,18.45,0,0,1-.22-2.32,3.83,3.83,0,0,1,0-.81,4.11,4.11,0,0,1,.11.81c0,.53.15,1.3.32,2.29a26.27,26.27,0,0,0,2.9,7.94,25.79,25.79,0,0,0,8.54,9,25.17,25.17,0,0,0,28.78-1.76,25.83,25.83,0,0,0,9.29-18.25c0-1,.06-1.78,0-2.31A4.56,4.56,0,0,1,384.71,264.34Z" style="fill: rgb(250, 250, 250); transform-origin: 359.79px 278.014px;" id="eldvfg7256h5v" class="animable"></path><path d="M262.88,345.34a4.34,4.34,0,0,1-.53,1c-.36.6-.92,1.46-1.63,2.51-1.43,2.08-3.51,4.89-6,7.84a96.72,96.72,0,0,1-6.76,7.2c-.91.88-1.66,1.57-2.2,2a4,4,0,0,1-.87.67,5.62,5.62,0,0,1,.73-.82l2.08-2.14c1.76-1.81,4.14-4.35,6.62-7.28s4.6-5.69,6.1-7.72l1.76-2.4A4.55,4.55,0,0,1,262.88,345.34Z" style="fill: rgb(250, 250, 250); transform-origin: 253.885px 355.95px;" id="eli50mby67ktj" class="animable"></path><g id="elg5m1o7gmyec"><g style="opacity: 0.3; transform-origin: 374.18px 412.041px;" class="animable"><path d="M375.85,420.3c-5.05,2.87-11.86,3.33-17.94,3.49a7.73,7.73,0,0,1-3.38-.45,2.86,2.86,0,0,1-1.82-2.66c.13-1.38,1.5-2.26,2.77-2.79,4.91-2,10.42-1.92,15.58-3.21,8.78-2.21,17.75-8.48,24.59-14.42a53.49,53.49,0,0,1-19.8,20" id="elfj62oatnx8g" class="animable" style="transform-origin: 374.18px 412.041px;"></path></g></g><path d="M356.94,288h0a22.55,22.55,0,0,1-20.76-22.69c0-5.62.1-10.12.1-10.12s-18.1-2.81-18.32-20.91,2.91-59.67,2.91-59.67h0a62.9,62.9,0,0,1,63.22,7.95l2.68,2.06L381.25,267A22.56,22.56,0,0,1,356.94,288Z" style="fill: rgb(183, 136, 118); transform-origin: 352.359px 228.784px;" id="elz9rvufoi5h9" class="animable"></path><path d="M336.25,254.91a42.13,42.13,0,0,0,23.6-6.7s-5.57,13-23.64,11.39Z" style="fill: rgb(170, 101, 80); transform-origin: 348.03px 253.974px;" id="el9u591127eyd" class="animable"></path><path d="M384.54,203.35c.31-.13,12.44-3.68,12,8.7s-12.74,9.42-12.75,9.07S384.54,203.35,384.54,203.35Z" style="fill: rgb(183, 136, 118); transform-origin: 390.171px 212.229px;" id="el7x8612xle1t" class="animable"></path><path d="M387.76,216.55c.06,0,.21.16.57.34a2.18,2.18,0,0,0,1.61.08c1.32-.44,2.49-2.48,2.62-4.71a7.08,7.08,0,0,0-.5-3.1,2.51,2.51,0,0,0-1.57-1.71,1.1,1.1,0,0,0-1.29.55c-.18.34-.11.59-.17.61s-.26-.21-.15-.72a1.41,1.41,0,0,1,.51-.76,1.68,1.68,0,0,1,1.21-.28,3,3,0,0,1,2.19,2,7.28,7.28,0,0,1,.63,3.47c-.15,2.5-1.51,4.79-3.31,5.25a2.31,2.31,0,0,1-2-.39C387.77,216.85,387.72,216.57,387.76,216.55Z" style="fill: rgb(170, 101, 80); transform-origin: 390.592px 212.24px;" id="elvu98fux3lg" class="animable"></path><path d="M327.44,203.61a2.58,2.58,0,0,0,2.49,2.61,2.47,2.47,0,0,0,2.67-2.33,2.59,2.59,0,0,0-2.49-2.61A2.47,2.47,0,0,0,327.44,203.61Z" style="fill: rgb(38, 50, 56); transform-origin: 330.02px 203.75px;" id="elwilq5h2vuzg" class="animable"></path><path d="M324.3,200.05c.32.34,2.27-1.11,5.06-1.1s4.82,1.4,5.12,1.06c.15-.15-.18-.76-1.07-1.41a7.1,7.1,0,0,0-4.1-1.26,6.79,6.79,0,0,0-4,1.3C324.43,199.29,324.14,199.9,324.3,200.05Z" style="fill: rgb(38, 50, 56); transform-origin: 329.386px 198.721px;" id="el08yxbcw3nxqo" class="animable"></path><path d="M354.15,204.22a2.59,2.59,0,0,0,2.49,2.61,2.48,2.48,0,0,0,2.67-2.33,2.58,2.58,0,0,0-2.49-2.61A2.47,2.47,0,0,0,354.15,204.22Z" style="fill: rgb(38, 50, 56); transform-origin: 356.73px 204.36px;" id="el0gock09fsznh" class="animable"></path><path d="M351.64,200.57c.32.34,2.28-1.11,5.06-1.1s4.82,1.4,5.12,1.06c.15-.15-.17-.76-1.06-1.41a7.12,7.12,0,0,0-4.1-1.26,6.76,6.76,0,0,0-4,1.3C351.77,199.81,351.48,200.42,351.64,200.57Z" style="fill: rgb(38, 50, 56); transform-origin: 356.727px 199.241px;" id="elxk228i1nhn" class="animable"></path><path d="M341.54,221.2c0-.16-1.71-.45-4.51-.81-.71-.08-1.39-.22-1.51-.7a3.67,3.67,0,0,1,.48-2.11c.67-1.72,1.36-3.52,2.1-5.41,2.92-7.7,5-14,4.72-14.14s-2.93,6-5.85,13.73l-2,5.44a4.13,4.13,0,0,0-.37,2.79,1.77,1.77,0,0,0,1.17,1,4.67,4.67,0,0,0,1.2.17C339.78,221.35,341.53,221.36,341.54,221.2Z" style="fill: rgb(38, 50, 56); transform-origin: 338.675px 209.67px;" id="eld33mcxnn2ac" class="animable"></path><path d="M350.92,189.67c.28.76,3.05.4,6.32.79s5.9,1.29,6.33.61c.2-.33-.26-1-1.33-1.77a11.08,11.08,0,0,0-9.64-1.06C351.41,188.72,350.8,189.31,350.92,189.67Z" style="fill: rgb(38, 50, 56); transform-origin: 357.26px 189.455px;" id="elbfd42vtrnc8" class="animable"></path><path d="M325.32,192c.49.64,2.4,0,4.71-.05s4.25.42,4.7-.24c.2-.32-.11-1-1-1.55a6.46,6.46,0,0,0-3.83-1,6.53,6.53,0,0,0-3.76,1.27C325.37,191,325.1,191.7,325.32,192Z" style="fill: rgb(38, 50, 56); transform-origin: 330.017px 190.716px;" id="el116iyh2oc7b" class="animable"></path><path d="M312.05,163.16a6.69,6.69,0,0,1,2.47-6,4.74,4.74,0,0,1,6.14.46,5.53,5.53,0,0,1,4.75-6.71c3-.18,5.47,2.05,8.33,2.83s5.77.1,8.45-1,5.18-2.57,7.89-3.56a23.16,23.16,0,0,1,29.61,13.6c4-1.24,8.46.77,10.9,4.12s3.07,7.76,2.58,11.88A37.67,37.67,0,0,1,391.1,187c0,.23,0,.46,0,.7-.19,9.95-1.31,21.64-5.56,21.7-7.4.12-5.64-13.83-5.64-13.83-9.08-3.51-5.7-17.12-8-19.18s-7-6.86-26,2.86c-7.38,3.77-17.2,3.65-22.56,2.44l-.48-.1-.11,0a.94.94,0,0,0-.15-.06,17.33,17.33,0,0,1-4.88-2.07,9.67,9.67,0,0,1-4-4.47,5.27,5.27,0,0,1,1-5.67A11.58,11.58,0,0,1,312.05,163.16Z" style="fill: rgb(38, 50, 56); transform-origin: 352.665px 178.59px;" id="el4ffswwbiog" class="animable"></path><path d="M339.18,229.76a12.59,12.59,0,0,0,1.62,3.16,4.21,4.21,0,0,0,3,1.74,3.77,3.77,0,0,0,3.19-1.74,6,6,0,0,0,.89-3.63c-.05-1.14-.58-2.5-1.71-2.64a2.79,2.79,0,0,0-1.38.31l-6,2.42" style="fill: rgb(170, 101, 80); transform-origin: 343.344px 230.654px;" id="elv7ih84ncdg" class="animable"></path><path d="M341.57,234.67a8.35,8.35,0,0,0,3.18-.39,4.57,4.57,0,0,0,2.41-2.19,4.8,4.8,0,0,0,.08-3.9,4.41,4.41,0,0,0-.52-.9c-.24-.24-.2-.23-.45-.2s-.64.26-1,.38l-1,.4c-1.28.52-2.44,1-3.41,1.33-2,.73-3.2,1.12-3.25,1s1.07-.76,2.95-1.67c.94-.45,2.07-1,3.32-1.54l1-.44a11.42,11.42,0,0,1,1.09-.45,1.44,1.44,0,0,1,.89,0,1.72,1.72,0,0,1,.66.52,5.45,5.45,0,0,1,.48,5.91,5.07,5.07,0,0,1-3,2.45,4.81,4.81,0,0,1-2.58.1C341.82,234.93,341.54,234.73,341.57,234.67Z" style="fill: rgb(38, 50, 56); transform-origin: 343.13px 230.62px;" id="elzjpkmygl9vo" class="animable"></path><path d="M372.55,174.65a10.66,10.66,0,0,0,0-2.19,8.49,8.49,0,0,0-2.83-5.08,11.46,11.46,0,0,0-8.15-2.69c-3.35,0-6.91,1.12-10.59,2.36a57,57,0,0,1-5.48,1.59,28.4,28.4,0,0,1-5.29.65,28.82,28.82,0,0,1-8.92-1.18,27.44,27.44,0,0,1-5.58-2.36,15.13,15.13,0,0,1-1.4-.87,2.82,2.82,0,0,1-.46-.34s.69.38,2,1a30.56,30.56,0,0,0,5.59,2.18,28.62,28.62,0,0,0,14,.38c1.77-.4,3.58-1,5.43-1.58,3.67-1.24,7.3-2.35,10.75-2.36A11.8,11.8,0,0,1,370,167.1a8.6,8.6,0,0,1,2.78,5.34A5.05,5.05,0,0,1,372.55,174.65Z" style="fill: rgb(69, 90, 100); transform-origin: 348.333px 169.398px;" id="el3btgs90q3jc" class="animable"></path><path d="M386.63,205.24s-.1-.12-.24-.38a10.47,10.47,0,0,1-.56-1.15,23.11,23.11,0,0,1-1.45-4.5,24.72,24.72,0,0,1-.46-7,61.24,61.24,0,0,1,1.61-8.41,16.39,16.39,0,0,0,0-8.32,8.39,8.39,0,0,0-1.74-3.15,6.3,6.3,0,0,0-2.6-1.71,6,6,0,0,0-4.46.12,7.8,7.8,0,0,0-1.39,1,3.39,3.39,0,0,1,1.29-1.16,6,6,0,0,1,4.68-.28,6.57,6.57,0,0,1,2.81,1.76,8.85,8.85,0,0,1,1.88,3.3,16.61,16.61,0,0,1,0,8.58,65.36,65.36,0,0,0-1.64,8.34,25.53,25.53,0,0,0,.34,6.89,27,27,0,0,0,1.27,4.49C386.41,204.67,386.67,205.22,386.63,205.24Z" style="fill: rgb(69, 90, 100); transform-origin: 380.987px 187.597px;" id="eljwmjlcxtgf" class="animable"></path><path d="M374.29,173.19a4,4,0,0,1,0-.73c0-.53,0-1.21.07-2.07a24,24,0,0,0-.83-7.52,13.34,13.34,0,0,0-2.42-4.57,9.37,9.37,0,0,0-4.85-3.2,12.27,12.27,0,0,0-6.48.26,29.9,29.9,0,0,0-6.48,2.94,53.46,53.46,0,0,1-6.42,3.3,19.47,19.47,0,0,1-6.62,1.33,21.1,21.1,0,0,1-6.07-.74,23.52,23.52,0,0,1-4.91-2,20.1,20.1,0,0,1-5.83-5,13.84,13.84,0,0,1-1.18-1.72,5,5,0,0,1-.35-.64,3.19,3.19,0,0,1,.44.58,17.46,17.46,0,0,0,1.25,1.65,20.83,20.83,0,0,0,5.85,4.77,23.92,23.92,0,0,0,4.85,1.93,20.63,20.63,0,0,0,5.93.68,19.09,19.09,0,0,0,6.44-1.32,54.27,54.27,0,0,0,6.36-3.29,29.88,29.88,0,0,1,6.6-3,12.71,12.71,0,0,1,6.74-.24,9.76,9.76,0,0,1,5.07,3.4,13.58,13.58,0,0,1,2.44,4.74,23.13,23.13,0,0,1,.68,7.63c-.05.91-.12,1.61-.18,2.08A3.29,3.29,0,0,1,374.29,173.19Z" style="fill: rgb(69, 90, 100); transform-origin: 348.28px 163.01px;" id="elsiwaphkamvd" class="animable"></path></g><g id="freepik--Desk--inject-2" class="animable" style="transform-origin: 254.09px 463.19px;"><path d="M481.09,463.19c0,.14-101.63.26-227,.26s-227-.12-227-.26,101.61-.26,227-.26S481.09,463,481.09,463.19Z" style="fill: rgb(38, 50, 56); transform-origin: 254.09px 463.19px;" id="elome2fzfspl9" class="animable"></path></g><g id="freepik--Plant--inject-2" class="animable" style="transform-origin: 198.907px 428.554px;"><path d="M200.76,422.13c1.93,2.73,5.65,1.8,7.36.12s2.44-4.1,3.09-6.41c1.48-5.29,3-10.83,1.82-16.19a8.94,8.94,0,0,0-2.09-4.39,4.68,4.68,0,0,0-4.45-1.45c-1.88.51-3,2.35-3.87,4.1a38.49,38.49,0,0,0-3.71,16.57c0,2.67.33,5.46,1.85,7.65" style="fill: rgb(126, 87, 194); transform-origin: 206.181px 408.783px;" id="el7ly8b2693w8" class="animable"></path><g id="elzjm9xn9iu9b"><g style="opacity: 0.2; transform-origin: 206.181px 408.783px;" class="animable"><path d="M200.76,422.13c1.93,2.73,5.65,1.8,7.36.12s2.44-4.1,3.09-6.41c1.48-5.29,3-10.83,1.82-16.19a8.94,8.94,0,0,0-2.09-4.39,4.68,4.68,0,0,0-4.45-1.45c-1.88.51-3,2.35-3.87,4.1a38.49,38.49,0,0,0-3.71,16.57c0,2.67.33,5.46,1.85,7.65" id="elvu5fzrpwyae" class="animable" style="transform-origin: 206.181px 408.783px;"></path></g></g><path d="M208,436a16.52,16.52,0,0,1,10.29-1.31,8.54,8.54,0,0,1,5.1,2.24c1.28,1.4,1.53,3.86.08,5.08a4.88,4.88,0,0,1-3.2.83c-2.73,0-5.75-.48-7.92,1.17-1.23.94-2.05,2.5-3.53,3a3.51,3.51,0,0,1-3.87-1.69,6,6,0,0,1-.46-4.43A6.74,6.74,0,0,1,208,436Z" style="fill: rgb(126, 87, 194); transform-origin: 214.36px 440.745px;" id="elqo0nta9z4j" class="animable"></path><path d="M195.52,426.09a10,10,0,0,0,1.5-9.17,17.69,17.69,0,0,0-5.47-7.84,29.32,29.32,0,0,0-9.75-5.68,10.46,10.46,0,0,0-4.38-.71,4.56,4.56,0,0,0-3.65,2.24c-1,1.95,0,4.31,1,6.24a75.33,75.33,0,0,0,6.44,9.68c1.93,2.45,4.13,4.87,7.05,6s5.95.95,7.49-1.08" style="fill: rgb(126, 87, 194); transform-origin: 185.443px 415.109px;" id="elayqxtuhvbhe" class="animable"></path><path d="M200.87,463.4a6.25,6.25,0,0,0,.16-1.24c.08-.9.19-2,.31-3.39a47.92,47.92,0,0,1,.74-5,38.08,38.08,0,0,1,1.77-5.89,21.72,21.72,0,0,1,3-5.33,11.27,11.27,0,0,1,3.77-3.17,10.66,10.66,0,0,1,3.19-1,6.37,6.37,0,0,0,1.24-.18,5.6,5.6,0,0,0-1.26,0,9.68,9.68,0,0,0-3.33.89,11.26,11.26,0,0,0-4,3.2,21.28,21.28,0,0,0-3.07,5.44,35.91,35.91,0,0,0-1.77,6,44.54,44.54,0,0,0-.63,5c-.1,1.45-.13,2.61-.15,3.42A5.28,5.28,0,0,0,200.87,463.4Z" style="fill: rgb(38, 50, 56); transform-origin: 207.933px 450.782px;" id="elefa5rmit67m" class="animable"></path><path d="M201.08,460.79a2.12,2.12,0,0,0,0-.57c0-.44,0-1,0-1.65,0-1.44,0-3.51,0-6.07.1-5.11.5-12.18,1.3-19.95s1.91-14.76,2.92-19.77c.24-1.26.48-2.39.7-3.39s.4-1.84.58-2.54.28-1.18.38-1.6a2.05,2.05,0,0,0,.09-.57,2.88,2.88,0,0,0-.19.54c-.13.41-.28.94-.47,1.58s-.42,1.54-.67,2.53-.52,2.12-.78,3.37a188.64,188.64,0,0,0-3.07,19.8c-.81,7.78-1.15,14.87-1.15,20,0,2.56.05,4.64.12,6.07,0,.67.08,1.22.11,1.65A3.14,3.14,0,0,0,201.08,460.79Z" style="fill: rgb(38, 50, 56); transform-origin: 203.885px 432.735px;" id="eloeu3iwgb8d" class="animable"></path><path d="M201,447.13a9.82,9.82,0,0,0,0-1.72,46.1,46.1,0,0,0-.56-4.67A64.07,64.07,0,0,0,196,425.92a42.88,42.88,0,0,0-8.43-13,21,21,0,0,0-2-1.82c-.3-.25-.57-.5-.84-.7l-.77-.52a10,10,0,0,0-1.45-.92,50,50,0,0,1,4.78,4.21,45.53,45.53,0,0,1,8.22,12.91,63.82,63.82,0,0,1,2.9,8c.76,2.5,1.27,4.79,1.66,6.73s.58,3.52.71,4.62A12.51,12.51,0,0,0,201,447.13Z" style="fill: rgb(38, 50, 56); transform-origin: 191.774px 428.045px;" id="elexatihc8q0w" class="animable"></path></g><g id="freepik--Features--inject-2" class="animable" style="transform-origin: 167.068px 254.891px;"><polygon points="220.13 307.47 177.7 305.66 177.7 263.24 220.13 263.24 220.13 307.47" style="fill: rgb(126, 87, 194); transform-origin: 198.915px 285.355px;" id="el5p4004q9fwg" class="animable"></polygon><rect x="194.52" y="251.1" width="42.43" height="42.43" style="fill: rgb(126, 87, 194); transform-origin: 215.735px 272.315px;" id="ele42faj6kbsj" class="animable"></rect><polygon points="220.13 305.66 236.95 293.53 236.95 251.1 220.13 263.24 220.13 305.66" style="fill: rgb(126, 87, 194); transform-origin: 228.54px 278.38px;" id="el7kvouatdk9t" class="animable"></polygon><polygon points="177.7 263.24 194.52 251.1 236.95 251.1 220.13 263.24 177.7 263.24" style="fill: rgb(126, 87, 194); transform-origin: 207.325px 257.17px;" id="elscnln1kp7hr" class="animable"></polygon><polygon points="220.13 307.47 236.95 293.53 236.95 251.1 220.13 263.24 220.13 307.47" style="fill: rgb(126, 87, 194); transform-origin: 228.54px 279.285px;" id="elic72iy3g5ha" class="animable"></polygon><g id="el97ueh384mn"><polygon points="177.7 263.24 194.52 251.1 236.95 251.1 220.13 263.24 177.7 263.24" style="fill: rgb(255, 255, 255); opacity: 0.3; transform-origin: 207.325px 257.17px;" class="animable"></polygon></g><g id="elrm6p8hu58rn"><polygon points="220.13 307.47 236.95 293.53 236.95 251.1 220.13 263.24 220.13 307.47" style="opacity: 0.4; transform-origin: 228.54px 279.285px;" class="animable"></polygon></g><path d="M242.88,295.15a6.31,6.31,0,0,1,.26,2.5c-.21.42-.06.12-.1.21h0l0,0-.06,0-.1.07-.2.15-.38.27c-.25.17-.47.32-.67.43-.39.24-.65.36-.69.3s.14-.28.47-.59l.6-.52.36-.3.2-.15.1-.08,0,0,0,0h0c0,.1.11-.2-.1.21A6.31,6.31,0,0,1,242.88,295.15Z" style="fill: rgb(126, 87, 194); transform-origin: 242.052px 297.123px;" id="ele6srtpy9nxs" class="animable"></path><path d="M242.88,284.43a13.94,13.94,0,0,1,0,5.36,13.94,13.94,0,0,1,0-5.36Z" style="fill: rgb(126, 87, 194); transform-origin: 242.88px 287.11px;" id="el57kooqxxxje" class="animable"></path><path d="M242.88,273.71a13.94,13.94,0,0,1,0,5.36,13.94,13.94,0,0,1,0-5.36Z" style="fill: rgb(126, 87, 194); transform-origin: 242.88px 276.39px;" id="el7d0oh6y2m93" class="animable"></path><path d="M242.88,263a13.94,13.94,0,0,1,0,5.36,13.94,13.94,0,0,1,0-5.36Z" style="fill: rgb(126, 87, 194); transform-origin: 242.88px 265.68px;" id="elbjw1dclsuok" class="animable"></path><path d="M242.88,252.27a13.94,13.94,0,0,1,0,5.36,13.94,13.94,0,0,1,0-5.36Z" style="fill: rgb(126, 87, 194); transform-origin: 242.88px 254.95px;" id="elhl16qrvncq8" class="animable"></path><path d="M240.38,244.41a6.11,6.11,0,0,1,2.5-.26l.26.26h0v.49l0,.47c0,.3,0,.57-.06.8,0,.45-.11.73-.18.73s-.14-.28-.18-.73c0-.23,0-.5-.06-.8v-1h0l.26.26A6.31,6.31,0,0,1,240.38,244.41Z" style="fill: rgb(126, 87, 194); transform-origin: 241.76px 245.509px;" id="elpxxbnwey49s" class="animable"></path><path d="M230.79,244.41a11.21,11.21,0,0,1,4.8,0,11.21,11.21,0,0,1-4.8,0Z" style="fill: rgb(126, 87, 194); transform-origin: 233.19px 244.41px;" id="elyokxizizpq" class="animable"></path><path d="M221.2,244.41a11.16,11.16,0,0,1,4.79,0,11.16,11.16,0,0,1-4.79,0Z" style="fill: rgb(126, 87, 194); transform-origin: 223.595px 244.41px;" id="elw8nwice104i" class="animable"></path><path d="M211.61,244.41a11.16,11.16,0,0,1,4.79,0,11.16,11.16,0,0,1-4.79,0Z" style="fill: rgb(126, 87, 194); transform-origin: 214.005px 244.41px;" id="el37gbd5e1p6e" class="animable"></path><path d="M202,244.41a11.16,11.16,0,0,1,4.79,0,11.16,11.16,0,0,1-4.79,0Z" style="fill: rgb(126, 87, 194); transform-origin: 204.395px 244.41px;" id="elgxjpi2rymfi" class="animable"></path><path d="M192.63,245c0-.07.16-.34.54-.72l0,0h.09c.41,0,.94-.06,1.53-.06a5.6,5.6,0,0,1,2.39.26,5.79,5.79,0,0,1-2.39.26c-.59,0-1.12,0-1.53-.06l.13-.05C193,244.87,192.68,245,192.63,245Z" style="fill: rgb(126, 87, 194); transform-origin: 194.905px 244.594px;" id="elifyib994sh" class="animable"></path><path d="M185.25,251.09c-.09-.11.66-.89,1.68-1.73s1.92-1.44,2-1.33-.66.88-1.68,1.73S185.34,251.2,185.25,251.09Z" style="fill: rgb(126, 87, 194); transform-origin: 187.089px 249.56px;" id="el2lw9flmgqmp" class="animable"></path><path d="M177.87,257.21c-.09-.11.66-.88,1.68-1.73s1.92-1.44,2-1.33-.66.89-1.68,1.73S178,257.33,177.87,257.21Z" style="fill: rgb(126, 87, 194); transform-origin: 179.709px 255.681px;" id="el9l9gnb05b9r" class="animable"></path><path d="M172.23,264.37a6.32,6.32,0,0,1-.24-2.5l.1-.2h0l0,0,.05,0,.1-.08.19-.15.37-.29.65-.47c.38-.25.63-.38.68-.32s-.13.28-.45.61c-.16.16-.35.35-.57.55l-.35.31-.19.16-.1.08-.05,0,0,0h0c0-.08-.09.2.1-.19A6.35,6.35,0,0,1,172.23,264.37Z" style="fill: rgb(126, 87, 194); transform-origin: 173.047px 262.358px;" id="eliysp0yl48us" class="animable"></path><path d="M172.13,274.29a6.11,6.11,0,0,1-.23-2.48,6.21,6.21,0,0,1,.28-2.48,11.74,11.74,0,0,1-.05,5Z" style="fill: rgb(126, 87, 194); transform-origin: 172.143px 271.83px;" id="elr3e1culphbj" class="animable"></path><path d="M172,284.21a6,6,0,0,1-.24-2.48,6.21,6.21,0,0,1,.28-2.48,6,6,0,0,1,.24,2.48A6.21,6.21,0,0,1,172,284.21Z" style="fill: rgb(126, 87, 194); transform-origin: 172.02px 281.73px;" id="elytlpkdow04" class="animable"></path><path d="M171.94,294.13a6.22,6.22,0,0,1-.24-2.48,6.11,6.11,0,0,1,.29-2.48,6.11,6.11,0,0,1,.23,2.48A6.21,6.21,0,0,1,171.94,294.13Z" style="fill: rgb(126, 87, 194); transform-origin: 171.962px 291.65px;" id="elsmtx6xi5smb" class="animable"></path><path d="M171.84,304.05a6.11,6.11,0,0,1-.23-2.48,6.21,6.21,0,0,1,.28-2.48,6.22,6.22,0,0,1,.24,2.48A6.11,6.11,0,0,1,171.84,304.05Z" style="fill: rgb(126, 87, 194); transform-origin: 171.868px 301.57px;" id="elk30wem50t8" class="animable"></path><path d="M174.27,311.55a6.36,6.36,0,0,1-2.51.22c-.51-.53-.14-.15-.25-.27h0V311l0-.47c0-.3,0-.57.06-.79.05-.45.12-.73.19-.73s.14.28.18.73c0,.23,0,.5.05.8s0,.32,0,.47v.47h0l-.26-.26A6.31,6.31,0,0,1,174.27,311.55Z" style="fill: rgb(126, 87, 194); transform-origin: 172.876px 310.41px;" id="elm7rrm8l6ytr" class="animable"></path><path d="M183.74,311.7a5.42,5.42,0,0,1-2.37.23,5.78,5.78,0,0,1-2.36-.3,5.33,5.33,0,0,1,2.37-.22A5.72,5.72,0,0,1,183.74,311.7Z" style="fill: rgb(126, 87, 194); transform-origin: 181.375px 311.668px;" id="elb3ohhwc0qkj" class="animable"></path><path d="M193.21,311.86a5.7,5.7,0,0,1-2.37.22,5.44,5.44,0,0,1-2.36-.3,5.7,5.7,0,0,1,2.37-.22A5.58,5.58,0,0,1,193.21,311.86Z" style="fill: rgb(126, 87, 194); transform-origin: 190.845px 311.82px;" id="elrtzh1qoasb" class="animable"></path><path d="M202.69,312a10.94,10.94,0,0,1-4.74-.08,10.94,10.94,0,0,1,4.74.08Z" style="fill: rgb(126, 87, 194); transform-origin: 200.32px 311.96px;" id="ele2frntg3sf8" class="animable"></path><path d="M212.16,312.17a10.94,10.94,0,0,1-4.74-.08,5.8,5.8,0,0,1,2.38-.22A5.66,5.66,0,0,1,212.16,312.17Z" style="fill: rgb(126, 87, 194); transform-origin: 209.79px 312.111px;" id="el34lhbuxv91b" class="animable"></path><path d="M221.63,312.33a5.7,5.7,0,0,1-2.37.22,5.58,5.58,0,0,1-2.36-.3,5.7,5.7,0,0,1,2.37-.22A5.4,5.4,0,0,1,221.63,312.33Z" style="fill: rgb(126, 87, 194); transform-origin: 219.265px 312.29px;" id="elc7t5iel8fig" class="animable"></path><path d="M229.56,307.74c.08.11-.69.84-1.74,1.63a5.73,5.73,0,0,1-2,1.23c-.09-.12.69-.85,1.73-1.64S229.47,307.62,229.56,307.74Z" style="fill: rgb(126, 87, 194); transform-origin: 227.689px 309.162px;" id="eloaichadxph" class="animable"></path><path d="M237.11,302c.09.11-.69.85-1.73,1.64a5.79,5.79,0,0,1-2,1.22c-.08-.12.69-.85,1.73-1.64S237,301.9,237.11,302Z" style="fill: rgb(126, 87, 194); transform-origin: 235.246px 303.424px;" id="elgn6n5k5fvb7" class="animable"></path><path d="M231.36,241c.14,0,.14.61,0,1.28s-.39,1.19-.53,1.16-.13-.6,0-1.27S231.22,240.92,231.36,241Z" style="fill: rgb(126, 87, 194); transform-origin: 231.097px 242.217px;" id="elf9cr5dfigwm" class="animable"></path><path d="M233.66,230.79a6.69,6.69,0,0,1-.32,2.6,6.8,6.8,0,0,1-.83,2.48,13.08,13.08,0,0,1,1.15-5.08Z" style="fill: rgb(126, 87, 194); transform-origin: 233.094px 233.33px;" id="elc297mj9b1wc" class="animable"></path><path d="M236,220.62a13.31,13.31,0,0,1-1.14,5.08,13.31,13.31,0,0,1,1.14-5.08Z" style="fill: rgb(126, 87, 194); transform-origin: 235.43px 223.16px;" id="el05vk8flmczk5" class="animable"></path><path d="M238.25,210.45a13.18,13.18,0,0,1-1.15,5.09,6.68,6.68,0,0,1,.32-2.6A6.81,6.81,0,0,1,238.25,210.45Z" style="fill: rgb(126, 87, 194); transform-origin: 237.666px 212.995px;" id="elpxdi4j16od" class="animable"></path><path d="M240.54,200.28a6.68,6.68,0,0,1-.32,2.6,6.6,6.6,0,0,1-.83,2.49,13.18,13.18,0,0,1,1.15-5.09Z" style="fill: rgb(126, 87, 194); transform-origin: 239.974px 202.825px;" id="elk6r45pqpda" class="animable"></path><path d="M242.84,190.12a6.93,6.93,0,0,1-.32,2.6,6.8,6.8,0,0,1-.83,2.48,6.69,6.69,0,0,1,.32-2.6A6.59,6.59,0,0,1,242.84,190.12Z" style="fill: rgb(126, 87, 194); transform-origin: 242.264px 192.66px;" id="elrcx2virqtjo" class="animable"></path><path d="M244.53,182.6c.14,0,.13.6,0,1.27s-.39,1.2-.53,1.16-.13-.6,0-1.27S244.39,182.56,244.53,182.6Z" style="fill: rgb(126, 87, 194); transform-origin: 244.265px 183.815px;" id="el13dzflzik86j" class="animable"></path><path d="M192.18,242.17c.13-.06.48.39.79,1s.46,1.17.33,1.24-.48-.39-.79-1S192.05,242.24,192.18,242.17Z" style="fill: rgb(126, 87, 194); transform-origin: 192.74px 243.291px;" id="elx97tu7ar5q8" class="animable"></path><path d="M187.79,233.47c.13-.07.73.86,1.33,2.06a6.09,6.09,0,0,1,.87,2.29c-.13.07-.73-.86-1.33-2.06A6.09,6.09,0,0,1,187.79,233.47Z" style="fill: rgb(126, 87, 194); transform-origin: 188.89px 235.645px;" id="el51wx9kyyoc9" class="animable"></path><path d="M183.41,224.76a6.06,6.06,0,0,1,1.33,2.06,6,6,0,0,1,.86,2.3,6.06,6.06,0,0,1-1.33-2.06A5.93,5.93,0,0,1,183.41,224.76Z" style="fill: rgb(126, 87, 194); transform-origin: 184.505px 226.94px;" id="elplvvn2zzvir" class="animable"></path><path d="M179,216.06c.13-.07.72.86,1.33,2.06a6,6,0,0,1,.86,2.29c-.13.07-.72-.86-1.33-2.06A6,6,0,0,1,179,216.06Z" style="fill: rgb(126, 87, 194); transform-origin: 180.095px 218.235px;" id="elt1fjt4i0gen" class="animable"></path><path d="M174.64,207.35a5.9,5.9,0,0,1,1.33,2.06,6,6,0,0,1,.87,2.3,5.9,5.9,0,0,1-1.33-2.06A6.11,6.11,0,0,1,174.64,207.35Z" style="fill: rgb(126, 87, 194); transform-origin: 175.74px 209.53px;" id="el341so88w5wj" class="animable"></path><path d="M170.26,198.65c.13-.07.72.86,1.33,2.06a6,6,0,0,1,.86,2.29,6.06,6.06,0,0,1-1.33-2.06A6,6,0,0,1,170.26,198.65Z" style="fill: rgb(126, 87, 194); transform-origin: 171.355px 200.823px;" id="elshc9l0o1t5k" class="animable"></path><path d="M165.88,189.94a6.06,6.06,0,0,1,1.33,2.06,6,6,0,0,1,.86,2.29c-.13.07-.72-.85-1.33-2A6,6,0,0,1,165.88,189.94Z" style="fill: rgb(126, 87, 194); transform-origin: 166.975px 192.117px;" id="elfitzlnwfogw" class="animable"></path><path d="M161.49,181.24c.13-.07.73.85,1.33,2.06a6,6,0,0,1,.87,2.29,5.9,5.9,0,0,1-1.33-2.06A6.09,6.09,0,0,1,161.49,181.24Z" style="fill: rgb(126, 87, 194); transform-origin: 162.59px 183.413px;" id="el4ci0b0sd6ol" class="animable"></path><path d="M158.18,174.65c.13-.06.48.38.79,1s.46,1.17.33,1.23-.48-.38-.79-1S158.05,174.72,158.18,174.65Z" style="fill: rgb(126, 87, 194); transform-origin: 158.74px 175.765px;" id="elu4kfo8y9xpm" class="animable"></path><path d="M113.87,257.3c0,.14-.58.22-1.27.16s-1.24-.21-1.23-.35.58-.22,1.27-.17S113.88,257.16,113.87,257.3Z" style="fill: rgb(126, 87, 194); transform-origin: 112.62px 257.203px;" id="elfeddo49n5wp" class="animable"></path><path d="M124,258.1a6.54,6.54,0,0,1-2.56.06,6.49,6.49,0,0,1-2.52-.46,6.52,6.52,0,0,1,2.56-.06A6.33,6.33,0,0,1,124,258.1Z" style="fill: rgb(126, 87, 194); transform-origin: 121.46px 257.9px;" id="elkv824ey5hys" class="animable"></path><path d="M134.19,258.89a12.58,12.58,0,0,1-5.08-.4,12.58,12.58,0,0,1,5.08.4Z" style="fill: rgb(126, 87, 194); transform-origin: 131.65px 258.69px;" id="elew5ff3hqcw7" class="animable"></path><path d="M144.35,259.69a12.58,12.58,0,0,1-5.08-.4,6.54,6.54,0,0,1,2.56-.06A6.22,6.22,0,0,1,144.35,259.69Z" style="fill: rgb(126, 87, 194); transform-origin: 141.81px 259.46px;" id="elr56mtplv91" class="animable"></path><path d="M154.52,260.48a6.32,6.32,0,0,1-2.56.06,6.54,6.54,0,0,1-2.52-.45A6.3,6.3,0,0,1,152,260,6.65,6.65,0,0,1,154.52,260.48Z" style="fill: rgb(126, 87, 194); transform-origin: 151.98px 260.276px;" id="ely18kmwssvbh" class="animable"></path><path d="M164.68,261.28a6.54,6.54,0,0,1-2.56.06,6.33,6.33,0,0,1-2.52-.46,12.58,12.58,0,0,1,5.08.4Z" style="fill: rgb(126, 87, 194); transform-origin: 162.14px 261.11px;" id="el1963o7dx6ce" class="animable"></path><path d="M172.25,261.87c0,.15-.57.22-1.26.17s-1.24-.22-1.23-.36.58-.22,1.27-.16S172.27,261.73,172.25,261.87Z" style="fill: rgb(126, 87, 194); transform-origin: 171.005px 261.778px;" id="elwsgx540gnss" class="animable"></path><g id="elye97t6mu6y"><circle cx="137.48" cy="137.41" r="44.03" style="fill: rgb(255, 255, 255); transform-origin: 137.48px 137.41px; transform: rotate(-76.97deg);" class="animable"></circle></g><path d="M181.51,137.41s0-.24-.06-.72-.08-1.18-.14-2.09q0-.69-.09-1.53c-.05-.57-.17-1.18-.27-1.84s-.22-1.38-.34-2.15a23.05,23.05,0,0,0-.58-2.4A41.79,41.79,0,0,0,175.16,115,43.65,43.65,0,0,0,164,102.56l-1.9-1.42c-.67-.43-1.37-.83-2.06-1.26s-1.38-.89-2.14-1.24l-2.27-1.09L154.48,97l-1.22-.44-2.46-.9c-.84-.28-1.72-.45-2.58-.69a21.37,21.37,0,0,0-2.66-.6,40.16,40.16,0,0,0-5.53-.64c-.95,0-1.9-.13-2.86-.11l-2.9.15c-.48,0-1,0-1.46.09l-1.46.23c-1,.16-2,.27-2.95.48a45,45,0,0,0-5.84,1.71,46.29,46.29,0,0,0-5.71,2.51c-.92.5-1.81,1.08-2.73,1.63-.44.28-.92.53-1.35.85l-1.29,1a49.2,49.2,0,0,0-5,4.22l-2.23,2.45-.56.62-.5.66-1,1.34-1,1.35-.88,1.44-.88,1.45-.44.73-.38.76-1.48,3.09L96,123.59a43.45,43.45,0,0,0,0,27.63c.4,1.08.8,2.16,1.19,3.24s1,2.06,1.49,3.09l.37.76.44.73.89,1.45.88,1.44,1,1.35,1,1.34.5.67.56.61,2.22,2.45a49.42,49.42,0,0,0,5,4.23l1.29,1c.43.33.91.57,1.35.86.92.54,1.81,1.12,2.73,1.63a46.29,46.29,0,0,0,5.71,2.51,48.42,48.42,0,0,0,5.84,1.71c1,.2,2,.32,2.95.48l1.46.22c.49.07,1,.06,1.46.1l2.9.15c1,0,1.91-.08,2.86-.11a40.3,40.3,0,0,0,5.54-.65,21.62,21.62,0,0,0,2.65-.6c.87-.23,1.74-.41,2.58-.69l2.47-.9,1.21-.44,1.16-.55,2.27-1.09a23.83,23.83,0,0,0,2.14-1.24c.7-.42,1.4-.82,2.06-1.26l1.9-1.41a43.92,43.92,0,0,0,11.15-12.44A42,42,0,0,0,180,148.13a23.05,23.05,0,0,0,.58-2.4c.12-.76.23-1.48.34-2.14s.22-1.28.27-1.84.07-1.08.09-1.54c.06-.91.11-1.6.14-2.09s.06-.71.06-.71,0,.24,0,.71-.05,1.19-.08,2.1c0,.46,0,1-.07,1.54s-.16,1.18-.25,1.85-.2,1.39-.32,2.15a22.38,22.38,0,0,1-.55,2.42A41.79,41.79,0,0,1,175.41,160a43.75,43.75,0,0,1-11.18,12.59l-1.9,1.43c-.67.44-1.38.85-2.08,1.28s-1.39.91-2.15,1.26l-2.29,1.11-1.17.56-1.23.45-2.48.91c-.85.28-1.73.47-2.61.71a23.52,23.52,0,0,1-2.67.61,42.63,42.63,0,0,1-5.6.66c-1,0-1.91.13-2.88.12l-2.93-.15c-.49,0-1,0-1.48-.09l-1.48-.22c-1-.16-2-.28-3-.48a48.34,48.34,0,0,1-11.68-4.25c-.94-.51-1.83-1.1-2.76-1.65-.45-.29-.94-.53-1.37-.86l-1.31-1a50.39,50.39,0,0,1-5-4.27l-2.26-2.48-.56-.62-.51-.67-1-1.36-1-1.36-.89-1.46L99,159.29l-.45-.73-.38-.78q-.75-1.54-1.5-3.12c-.4-1.09-.8-2.18-1.21-3.28a43.88,43.88,0,0,1,0-27.95l1.2-3.28c.5-1.05,1-2.09,1.51-3.13l.37-.77.45-.73.89-1.47.9-1.46,1-1.36,1-1.36.51-.67.57-.62,2.25-2.48a49.09,49.09,0,0,1,5-4.26l1.3-1c.43-.32.92-.57,1.37-.86.93-.55,1.82-1.14,2.76-1.64a48.34,48.34,0,0,1,11.68-4.25c1-.21,2-.32,3-.48l1.48-.22c.49-.07,1-.06,1.48-.1l2.93-.14c1,0,1.93.08,2.88.11a40.66,40.66,0,0,1,5.59.67,21.3,21.3,0,0,1,2.68.61c.88.24,1.76.42,2.6.7l2.49.92,1.23.45,1.16.56,2.3,1.11c.76.35,1.44.84,2.15,1.25s1.4.84,2.07,1.28l1.91,1.43a43.88,43.88,0,0,1,11.18,12.59,41.9,41.9,0,0,1,4.82,11.78,22.92,22.92,0,0,1,.55,2.42c.12.77.22,1.49.32,2.15s.2,1.29.25,1.85.05,1.09.07,1.55c0,.91.06,1.61.08,2.09S181.51,137.41,181.51,137.41Z" style="fill: rgb(126, 87, 194); transform-origin: 137.343px 137.42px;" id="elk34nxmpad5" class="animable"></path><path d="M142,113a14.32,14.32,0,0,1,3.79,1l2.79-2.34,4.78,3.64-1.51,3.31a14.48,14.48,0,0,1,2,3.39l3.62.32.81,5.95-3.41,1.28a14.42,14.42,0,0,1-1,3.79l2.34,2.78-3.64,4.79-3.31-1.51a15,15,0,0,1-3.39,2l-.32,3.62-6,.81-1.27-3.4a15.12,15.12,0,0,1-3.79-1l-2.78,2.33-4.79-3.64,1.51-3.31a14.59,14.59,0,0,1-2-3.38l-3.62-.32-.81-6,3.4-1.27a15.12,15.12,0,0,1,1-3.79l-2.33-2.79,3.64-4.78,3.31,1.5a15,15,0,0,1,3.38-2l.32-3.62,6-.81L142,113Zm-2.44,8.27a6.45,6.45,0,1,0,7.25,5.52A6.46,6.46,0,0,0,139.56,121.26Z" style="fill: none; transform-origin: 140.14px 127.69px;" id="elksxgbaj0lmo" class="animable"></path><path d="M139.56,121.26s.13-.05.4-.09a4.93,4.93,0,0,1,1.19,0,6.41,6.41,0,0,1,4,1.81,6.64,6.64,0,0,1,0,9.51,6.65,6.65,0,0,1-7.86,1.06,6.63,6.63,0,0,1-2.56-9.15,6.39,6.39,0,0,1,3.32-2.8,5.2,5.2,0,0,1,1.16-.3,1.24,1.24,0,0,1,.42,0s-.57.11-1.5.5a6.47,6.47,0,0,0-3.08,2.8,6.28,6.28,0,0,0,0,6,6.2,6.2,0,0,0,2.54,2.56,6.27,6.27,0,0,0,3.79.69,6.25,6.25,0,0,0,5.23-4.82,6.3,6.3,0,0,0-1.64-5.74,6.43,6.43,0,0,0-3.72-1.87C140.13,121.21,139.56,121.31,139.56,121.26Z" style="fill: rgb(38, 50, 56); transform-origin: 140.495px 127.757px;" id="elx7j0bq1ayj" class="animable"></path><path d="M142,113l-.09-.21-.26-.63-1-2.54.09,0-6,.86.11-.12c-.09,1.1-.19,2.32-.29,3.62v.09l-.09,0a14.47,14.47,0,0,0-3.34,2l-.08.06-.09,0-3.32-1.49.23-.06-3.63,4.79v-.25l2.34,2.78.08.1,0,.12a14.68,14.68,0,0,0-1,3.73V126l-.13,0-3.4,1.28.15-.25c.26,1.87.53,3.89.82,6l-.22-.2,3.62.31h.15l0,.14a15,15,0,0,0,2,3.33l.09.12-.06.14-1.51,3.3-.07-.3,4.78,3.63h-.32l2.79-2.33.12-.1.14.06a14.74,14.74,0,0,0,3.72,1h0l.22.17h0v0l0,.05,0,.11.08.21.16.43.31.85c.22.57.43,1.14.64,1.7l-.28-.17,6-.8-.22.23c.1-1.22.21-2.43.32-3.62v-.15l.14-.06a14.31,14.31,0,0,0,3.33-1.94l.12-.09.14.06,3.31,1.51-.3.08q1.86-2.46,3.65-4.78v.3c-.79-1-1.56-1.88-2.33-2.79l-.09-.11.06-.13a14.82,14.82,0,0,0,1-3.73l0-.14.12-.05,3.41-1.26-.14.23c-.28-2.09-.54-4.07-.79-6l.18.17-3.62-.33h-.11l0-.1a14.65,14.65,0,0,0-1.94-3.35l-.06-.09,0-.09,1.52-3.3.05.19-4.76-3.68h.14l-2.8,2.31,0,0-.05,0a15.65,15.65,0,0,0-2.81-.88l-.71-.14L142,113a.7.7,0,0,1,.25,0,6.22,6.22,0,0,1,.72.1,13.49,13.49,0,0,1,2.85.81h-.08l2.76-2.36.07-.06.08.06,4.8,3.61.1.07-.05.12L152,118.67l0-.17a14.89,14.89,0,0,1,2,3.41l-.15-.11,3.62.31h.15l0,.16.82,5.95,0,.18-.16.06-3.4,1.28.15-.19a15.1,15.1,0,0,1-1,3.85l0-.23c.77.91,1.55,1.83,2.34,2.78l.12.14-.11.16-3.64,4.79-.12.15-.18-.08-3.31-1.5.26,0a14.92,14.92,0,0,1-3.44,2l.16-.21c-.11,1.19-.21,2.4-.32,3.61l0,.21-.2,0-6,.81-.21,0-.07-.2-.63-1.7-.32-.85-.16-.43-.08-.21,0-.11,0-.05v0h0l.21.17h0a15.32,15.32,0,0,1-3.86-1l.27,0-2.79,2.33-.16.13-.16-.12-4.78-3.65-.16-.12.08-.19,1.51-3.3,0,.26a14.83,14.83,0,0,1-2-3.45l.2.15-3.61-.32-.2,0,0-.19c-.28-2.07-.55-4.09-.8-6l0-.18.18-.07,3.4-1.26-.14.18a15.21,15.21,0,0,1,1-3.85l0,.22c-.82-1-1.61-1.92-2.33-2.79l-.1-.12.09-.13,3.66-4.78.09-.11.14.06,3.3,1.52-.18,0a14.67,14.67,0,0,1,3.43-2l-.09.13c.12-1.31.24-2.52.34-3.62v-.11h.1l6-.76h.07l0,.06c.38,1.09.68,1.94.9,2.54.09.27.17.49.22.66A.9.9,0,0,1,142,113Z" style="fill: rgb(38, 50, 56); transform-origin: 140.155px 127.77px;" id="el19g84o4lzpxh" class="animable"></path><path d="M131.45,148.36a8.15,8.15,0,0,1,2.09.55l1.54-1.28,2.64,2-.83,1.82a8.1,8.1,0,0,1,1.09,1.87l2,.18.44,3.29-1.87.7a8.28,8.28,0,0,1-.56,2.09l1.29,1.54-2,2.64-1.82-.83a8.67,8.67,0,0,1-1.87,1.08l-.18,2-3.29.45-.7-1.88a8.15,8.15,0,0,1-2.09-.55l-1.54,1.29-2.64-2,.83-1.83a7.9,7.9,0,0,1-1.09-1.87l-2-.17-.45-3.29,1.88-.7a8.33,8.33,0,0,1,.55-2.1l-1.29-1.53,2-2.64,1.83.83a7.9,7.9,0,0,1,1.87-1.09l.17-2,3.29-.45.7,1.88Zm-1.35,4.57a3.56,3.56,0,1,0,4,3A3.56,3.56,0,0,0,130.1,152.93Z" style="fill: rgb(126, 87, 194); fill-rule: evenodd; transform-origin: 130.43px 156.47px;" id="ell70rmalhih" class="animable"></path><g id="elp2pok0vdyx"><circle cx="257.83" cy="141.77" r="44.03" style="fill: rgb(255, 255, 255); transform-origin: 257.83px 141.77px; transform: rotate(-45deg);" class="animable"></circle></g><path d="M301.86,141.77s0-.24-.06-.71-.08-1.19-.13-2.09c0-.46-.06-1-.09-1.54s-.18-1.18-.28-1.84-.22-1.38-.34-2.15-.38-1.55-.57-2.4a42.16,42.16,0,0,0-4.88-11.68,43.79,43.79,0,0,0-11.15-12.44l-1.9-1.42c-.66-.43-1.36-.83-2.06-1.26s-1.38-.89-2.13-1.24L276,101.91l-1.16-.55-1.21-.44-2.47-.9c-.84-.27-1.71-.45-2.58-.69a23.65,23.65,0,0,0-2.65-.6,40.12,40.12,0,0,0-5.54-.64c-.95,0-1.9-.12-2.86-.11l-2.9.15c-.48,0-1,0-1.46.09l-1.46.23c-1,.16-2,.28-2.95.48a48.09,48.09,0,0,0-11.55,4.22c-.92.5-1.81,1.09-2.72,1.63-.45.29-.93.53-1.36.85l-1.28,1a49.31,49.31,0,0,0-5,4.22l-2.23,2.45-.56.62-.5.66-1,1.34-1,1.35-.88,1.44-.88,1.45-.44.73-.37.76-1.49,3.09L216.32,128a43.35,43.35,0,0,0,0,27.63l1.19,3.24,1.48,3.09.38.76.44.73.88,1.45.88,1.44,1,1.35,1,1.34.5.67.56.61,2.23,2.46a49.2,49.2,0,0,0,5,4.22l1.29,1c.43.33.91.57,1.36.86.91.54,1.8,1.13,2.72,1.63a45.76,45.76,0,0,0,5.72,2.51,47.38,47.38,0,0,0,5.84,1.71c1,.2,2,.32,2.94.48l1.46.22c.49.07,1,.06,1.47.1l2.9.15c1,0,1.91-.08,2.85-.11a41.72,41.72,0,0,0,5.54-.64,25.49,25.49,0,0,0,2.65-.6c.87-.24,1.75-.42,2.58-.7l2.47-.89,1.22-.45,1.15-.55,2.28-1.09c.76-.34,1.43-.83,2.14-1.23s1.39-.83,2.06-1.27l1.89-1.41a43.62,43.62,0,0,0,11.15-12.44,42.33,42.33,0,0,0,4.88-11.69c.19-.85.48-1.63.57-2.4s.23-1.48.34-2.14.22-1.28.28-1.84.06-1.08.09-1.54c.05-.91.1-1.6.13-2.09s.06-.71.06-.71,0,.24,0,.71,0,1.19-.08,2.1c0,.46,0,1-.06,1.54s-.17,1.18-.26,1.85-.2,1.39-.31,2.16-.37,1.56-.56,2.41a41.36,41.36,0,0,1-4.82,11.79,43.81,43.81,0,0,1-11.17,12.58l-1.91,1.43c-.67.45-1.38.85-2.07,1.29s-1.39.9-2.16,1.25L276.16,182l-1.17.56-1.22.45-2.49.91c-.84.28-1.73.47-2.6.71a24.19,24.19,0,0,1-2.68.61,39.52,39.52,0,0,1-5.59.66c-1,0-1.92.13-2.89.12l-2.93-.15c-.49,0-1,0-1.48-.09l-1.47-.22c-1-.16-2-.28-3-.48a47.24,47.24,0,0,1-5.91-1.72,46.68,46.68,0,0,1-5.78-2.53c-.93-.51-1.83-1.1-2.76-1.65-.45-.28-.93-.53-1.37-.86l-1.3-1a50.5,50.5,0,0,1-5-4.27l-2.25-2.48-.57-.62-.51-.67-1-1.36-1-1.36-.9-1.46-.89-1.46-.45-.74-.37-.77c-.5-1-1-2.08-1.51-3.13l-1.2-3.28a43.79,43.79,0,0,1,0-27.95l1.2-3.28,1.51-3.12.38-.78.44-.73.9-1.47.89-1.46,1-1.36,1-1.35.51-.68.57-.62c.75-.83,1.51-1.65,2.25-2.48a50.39,50.39,0,0,1,5-4.26l1.3-1c.44-.33.92-.58,1.37-.87.93-.55,1.83-1.13,2.76-1.64a45.23,45.23,0,0,1,5.78-2.53,47.24,47.24,0,0,1,5.91-1.72c1-.2,2-.32,3-.48l1.47-.22c.49-.07,1-.06,1.48-.1l2.93-.14c1,0,1.93.08,2.88.12a39.48,39.48,0,0,1,5.6.66,21.55,21.55,0,0,1,2.67.61c.88.24,1.76.42,2.61.71l2.48.91L275,101l1.17.56,2.29,1.11c.76.35,1.44.84,2.15,1.25s1.41.84,2.08,1.28l1.9,1.43a43.88,43.88,0,0,1,11.18,12.59A41.31,41.31,0,0,1,300.58,131c.19.86.47,1.65.56,2.42s.21,1.49.31,2.16.21,1.28.26,1.84,0,1.09.06,1.55c0,.91.06,1.61.08,2.1S301.86,141.77,301.86,141.77Z" style="fill: rgb(126, 87, 194); transform-origin: 257.735px 141.75px;" id="ell9loud1vmtr" class="animable"></path><g id="elxbvpgff1gvb"><circle cx="256.54" cy="142" r="22.16" style="fill: rgb(245, 245, 245); transform-origin: 256.54px 142px; transform: rotate(-65.66deg);" class="animable"></circle></g><path d="M234.43,140.55a2.45,2.45,0,0,1,0,.36c0,.26,0,.61,0,1.05v.78c0,.28,0,.59.08.93a17.24,17.24,0,0,0,.32,2.3,21.56,21.56,0,0,0,2.08,6A22,22,0,0,0,262.64,163a23.46,23.46,0,0,0,2.93-1.07,21.88,21.88,0,0,0,2.79-1.55,24.27,24.27,0,0,0,2.62-1.94,26.23,26.23,0,0,0,2.31-2.4,21.38,21.38,0,0,0,3.52-5.81,23.71,23.71,0,0,0,1.58-6.82,23.47,23.47,0,0,0-.68-7,21.11,21.11,0,0,0-2.72-6.23,26.49,26.49,0,0,0-2-2.68,23.84,23.84,0,0,0-2.34-2.27,22.42,22.42,0,0,0-2.57-1.9,22,22,0,0,0-29.69,6.16,21.14,21.14,0,0,0-2.84,5.68,16.1,16.1,0,0,0-.62,2.24c-.07.33-.15.63-.2.91s-.08.54-.11.77c-.06.44-.11.78-.14,1a2.08,2.08,0,0,1-.07.36,1.39,1.39,0,0,1,0-.36c0-.27.06-.61.1-1.05,0-.24.05-.5.08-.78s.11-.59.18-.92a16.26,16.26,0,0,1,.58-2.28,21.09,21.09,0,0,1,2.79-5.78A22.2,22.2,0,0,1,271,124.91a23.83,23.83,0,0,1,2.4,2.32,26.1,26.1,0,0,1,2,2.73,21.61,21.61,0,0,1,2.79,6.38,23.89,23.89,0,0,1,.7,7.13,24.34,24.34,0,0,1-1.62,7,22,22,0,0,1-3.61,6,26.13,26.13,0,0,1-2.37,2.45,25.35,25.35,0,0,1-2.68,2,23.51,23.51,0,0,1-2.86,1.58A22.83,22.83,0,0,1,251,163.66a22.33,22.33,0,0,1-14.3-11.55,21.25,21.25,0,0,1-2-6.1,17,17,0,0,1-.27-2.33c0-.34-.06-.65-.06-.94s0-.54,0-.78c0-.44,0-.79.05-1.05A1.65,1.65,0,0,1,234.43,140.55Z" style="fill: rgb(38, 50, 56); transform-origin: 256.647px 141.957px;" id="elq6azy2409v" class="animable"></path><path d="M266.6,142.68a3.81,3.81,0,0,1-.79,0l-2.15.05c-1.83,0-4.37,0-7.25,0h-.14v-1.58c0-3.21,0-6.11,0-8.21,0-1,0-1.86.05-2.49a5.2,5.2,0,0,1,.05-.92,5.7,5.7,0,0,1,.06.92c0,.63,0,1.47,0,2.49,0,2.1.05,5,.05,8.21v1.44l-.15-.14c2.88,0,5.42,0,7.25.05l2.15,0A3.81,3.81,0,0,1,266.6,142.68Z" style="fill: rgb(38, 50, 56); transform-origin: 261.435px 136.13px;" id="el23ui7q8pr8u" class="animable"></path><path d="M256.48,123.48a12.43,12.43,0,0,1,0,3.72,12.43,12.43,0,0,1,0-3.72Z" style="fill: rgb(38, 50, 56); transform-origin: 256.48px 125.34px;" id="el9mug6k2r89l" class="animable"></path><path d="M266.58,126.47a12,12,0,0,1-2.6,2.6,5.91,5.91,0,0,1,1.2-1.4A5.84,5.84,0,0,1,266.58,126.47Z" style="fill: rgb(38, 50, 56); transform-origin: 265.28px 127.77px;" id="elj044clke70j" class="animable"></path><path d="M272.48,132.92a8.08,8.08,0,0,1-1.53,1,7.61,7.61,0,0,1-1.6.88,4.84,4.84,0,0,1,1.45-1.13A5,5,0,0,1,272.48,132.92Z" style="fill: rgb(38, 50, 56); transform-origin: 270.915px 133.86px;" id="elh9sxupvcvsq" class="animable"></path><path d="M275.94,142.49a23.11,23.11,0,0,1-5.08,0,23.11,23.11,0,0,1,5.08,0Z" style="fill: rgb(38, 50, 56); transform-origin: 273.4px 142.49px;" id="elaovp4o7okxo" class="animable"></path><path d="M240.75,142.15a20.64,20.64,0,0,1-4.8,0,20.64,20.64,0,0,1,4.8,0Z" style="fill: rgb(38, 50, 56); transform-origin: 238.35px 142.15px;" id="elrf1usigiu" class="animable"></path><path d="M243.23,149.27a9.73,9.73,0,0,1-1.81,1.65,10.39,10.39,0,0,1-2,1.42,11.09,11.09,0,0,1,1.81-1.65A11,11,0,0,1,243.23,149.27Z" style="fill: rgb(38, 50, 56); transform-origin: 241.325px 150.805px;" id="elz3jsuywrlse" class="animable"></path><path d="M249.38,154.78a16.86,16.86,0,0,1-1.24,2.14,15.11,15.11,0,0,1-1.31,2.09,8.22,8.22,0,0,1,1.07-2.24A8,8,0,0,1,249.38,154.78Z" style="fill: rgb(38, 50, 56); transform-origin: 248.105px 156.895px;" id="elhdd9637ri6e" class="animable"></path><path d="M256.48,161.89a23.11,23.11,0,0,1,0-5.08,23.11,23.11,0,0,1,0,5.08Z" style="fill: rgb(38, 50, 56); transform-origin: 256.48px 159.35px;" id="elgim0cqaita" class="animable"></path><path d="M267.42,158.51a7.68,7.68,0,0,1-2.09-1.43,7.86,7.86,0,0,1-1.71-1.88,20.64,20.64,0,0,1,1.9,1.66A21.85,21.85,0,0,1,267.42,158.51Z" style="fill: rgb(38, 50, 56); transform-origin: 265.52px 156.855px;" id="elsjhuo8ac2kh" class="animable"></path><path d="M272.56,153a9,9,0,0,1-1.68-1.48,8.21,8.21,0,0,1-1.48-1.68,9,9,0,0,1,1.68,1.48A9,9,0,0,1,272.56,153Z" style="fill: rgb(38, 50, 56); transform-origin: 270.98px 151.42px;" id="elo0slplxvnef" class="animable"></path><path d="M243,135.33a7.21,7.21,0,0,1-1.48-1.28,6.76,6.76,0,0,1-1.28-1.49,7.21,7.21,0,0,1,1.48,1.28A6.76,6.76,0,0,1,243,135.33Z" style="fill: rgb(38, 50, 56); transform-origin: 241.62px 133.945px;" id="elgwd0vmj6y3j" class="animable"></path><path d="M249.34,128.65a6.19,6.19,0,0,1-1.46-1.25,6.55,6.55,0,0,1-1.26-1.45,6.19,6.19,0,0,1,1.46,1.25A6.55,6.55,0,0,1,249.34,128.65Z" style="fill: rgb(38, 50, 56); transform-origin: 247.98px 127.3px;" id="el51jl5mwojle" class="animable"></path><g id="el5e2usf1wghj"><circle cx="273.4" cy="123.48" r="11.62" style="fill: rgb(126, 87, 194); transform-origin: 273.4px 123.48px; transform: rotate(-22.33deg);" class="animable"></circle></g><path d="M279,119.86a11.6,11.6,0,0,1-1.43,1.86c-.92,1.1-2.23,2.61-3.7,4.25-.41.45-.81.88-1.19,1.31l-.17.18-.18-.16c-1.33-1.19-2.47-2.25-3.27-3a6.83,6.83,0,0,1-1.21-1.29,6.92,6.92,0,0,1,1.43,1.05c.86.7,2,1.71,3.38,2.88l-.35,0q.56-.64,1.17-1.32c1.47-1.64,2.82-3.1,3.82-4.15A10,10,0,0,1,279,119.86Z" style="fill: rgb(250, 250, 250); transform-origin: 273.425px 123.66px;" id="elkzym4g5hni8" class="animable"></path><path d="M168.05,314.85c-.09-.1.66-.94,1.69-1.86s1.93-1.59,2-1.48-.66.94-1.69,1.86S168.15,315,168.05,314.85Z" style="fill: rgb(126, 87, 194); transform-origin: 169.894px 313.184px;" id="el1vqnrm39t7n" class="animable"></path><path d="M160.62,321.54c-.1-.11.65-.94,1.68-1.87s1.94-1.58,2-1.47-.65.94-1.68,1.86S160.71,321.65,160.62,321.54Z" style="fill: rgb(126, 87, 194); transform-origin: 162.457px 319.87px;" id="elcclmnbujxe" class="animable"></path><path d="M153.18,328.23c-.1-.11.66-1,1.69-1.87a6.33,6.33,0,0,1,2-1.48c.09.11-.66.94-1.69,1.87A6.33,6.33,0,0,1,153.18,328.23Z" style="fill: rgb(126, 87, 194); transform-origin: 155.024px 326.555px;" id="elh96imfcsaip" class="animable"></path><path d="M145.75,334.91c-.1-.1.65-.94,1.68-1.86s1.94-1.59,2-1.48-.65.94-1.68,1.87S145.84,335,145.75,334.91Z" style="fill: rgb(126, 87, 194); transform-origin: 147.587px 333.238px;" id="elkt0ymeryr8" class="animable"></path><path d="M138.31,341.6c-.1-.11.66-.94,1.69-1.86s1.93-1.59,2-1.48-.66.94-1.69,1.86S138.41,341.71,138.31,341.6Z" style="fill: rgb(126, 87, 194); transform-origin: 140.153px 339.93px;" id="elulqeo8qog" class="animable"></path><g id="el3qd3gsmxcrx"><circle cx="111.37" cy="377.29" r="44.03" style="fill: rgb(255, 255, 255); transform-origin: 111.37px 377.29px; transform: rotate(-76.68deg);" class="animable"></circle></g><path d="M155.4,377.29s0-.24-.06-.71-.07-1.18-.13-2.09c0-.46-.06-1-.09-1.54s-.18-1.18-.28-1.84-.22-1.38-.34-2.14a22.33,22.33,0,0,0-.57-2.4,42.08,42.08,0,0,0-4.88-11.69,43.79,43.79,0,0,0-11.15-12.44L136,341c-.67-.44-1.37-.84-2.07-1.27s-1.37-.89-2.13-1.23l-2.28-1.09-1.16-.55-1.21-.45-2.47-.89c-.84-.28-1.71-.46-2.58-.7a26.08,26.08,0,0,0-2.65-.6,41.72,41.72,0,0,0-5.54-.64c-.94,0-1.9-.12-2.86-.11l-2.89.15c-.49,0-1,0-1.47.1l-1.46.22c-1,.16-2,.28-2.94.48a47.38,47.38,0,0,0-5.84,1.71,45,45,0,0,0-5.71,2.51c-.93.5-1.82,1.09-2.73,1.63-.45.29-.93.53-1.35.86l-1.29,1a49.31,49.31,0,0,0-5,4.22l-2.22,2.45-.56.62-.51.67-1,1.34-1,1.34-.88,1.44-.88,1.45-.44.73-.37.77c-.5,1-1,2.05-1.49,3.08s-.79,2.16-1.19,3.25a43.32,43.32,0,0,0,0,27.62c.4,1.08.79,2.17,1.19,3.24s1,2.07,1.48,3.09l.38.77.44.72.88,1.45.88,1.45,1,1.34,1,1.34.5.67.56.62,2.23,2.45a49.31,49.31,0,0,0,5,4.22l1.28,1c.43.32.91.56,1.36.85.91.54,1.8,1.13,2.72,1.63a45.76,45.76,0,0,0,5.72,2.51,44.14,44.14,0,0,0,5.84,1.71c1,.21,2,.32,2.94.48l1.46.23c.49.06,1,.06,1.47.09l2.9.15c1,0,1.91-.08,2.85-.11a40.12,40.12,0,0,0,5.54-.64,20.82,20.82,0,0,0,2.65-.6c.87-.24,1.75-.42,2.58-.69l2.47-.9,1.22-.44,1.15-.55,2.28-1.1c.76-.34,1.43-.83,2.14-1.23s1.39-.83,2.06-1.27l1.89-1.41a43.68,43.68,0,0,0,11.16-12.44A42.4,42.4,0,0,0,153.93,388a22.9,22.9,0,0,0,.57-2.4c.12-.77.24-1.48.34-2.15s.22-1.27.28-1.84.06-1.08.09-1.54c.06-.9.1-1.6.13-2.09s.06-.71.06-.71,0,.24,0,.72,0,1.18-.08,2.09c0,.46,0,1-.06,1.55s-.16,1.18-.26,1.84-.2,1.39-.31,2.16a23.66,23.66,0,0,1-.56,2.42,41.66,41.66,0,0,1-4.81,11.78,44,44,0,0,1-11.18,12.58l-1.91,1.44c-.67.44-1.38.84-2.07,1.28s-1.39.9-2.16,1.25l-2.29,1.11-1.17.56-1.22.45-2.49.91c-.84.29-1.73.47-2.6.71a22.13,22.13,0,0,1-2.68.61,39.52,39.52,0,0,1-5.59.66c-1,0-1.92.13-2.89.12l-2.93-.14c-.49,0-1,0-1.47-.1l-1.48-.22c-1-.16-2-.27-3-.48a45.6,45.6,0,0,1-5.91-1.72,46.49,46.49,0,0,1-5.78-2.53c-.93-.5-1.83-1.09-2.76-1.64-.45-.29-.93-.54-1.37-.87l-1.3-1a49.2,49.2,0,0,1-5-4.27l-2.25-2.47-.57-.63-.51-.67-1-1.36-1-1.36-.9-1.45-.89-1.47-.44-.74-.38-.77-1.51-3.13-1.2-3.28a43.79,43.79,0,0,1,0-27.95l1.2-3.28c.51-1,1-2.08,1.51-3.12l.38-.78.45-.73.89-1.47.89-1.45,1-1.37,1-1.35.51-.67.57-.63L80.05,346a50.5,50.5,0,0,1,5-4.27l1.31-1c.43-.33.91-.58,1.37-.87.92-.54,1.82-1.13,2.75-1.64a48,48,0,0,1,5.78-2.53A47.24,47.24,0,0,1,102.2,334c1-.2,2-.32,3-.48l1.47-.22c.5-.06,1-.06,1.48-.09l2.93-.15c1,0,1.93.08,2.89.12a39.52,39.52,0,0,1,5.59.66,23.52,23.52,0,0,1,2.67.61c.88.24,1.76.43,2.61.71l2.49.91,1.22.45,1.17.56,2.29,1.11c.77.35,1.44.84,2.15,1.25s1.41.84,2.08,1.29l1.9,1.43a43.85,43.85,0,0,1,11.18,12.58,41.36,41.36,0,0,1,4.82,11.79,22.91,22.91,0,0,1,.56,2.41c.11.77.22,1.49.31,2.16s.21,1.28.26,1.85,0,1.08.06,1.54c0,.91.07,1.61.08,2.1S155.4,377.29,155.4,377.29Z" style="fill: rgb(126, 87, 194); transform-origin: 111.271px 377.285px;" id="el9jdf0ntvri8" class="animable"></path><path d="M133.46,397a5.58,5.58,0,0,1-.85.05l-2.43.05-9,.09-29.55.09H89.28V397c0-11,.06-20.94.08-28.15,0-3.53.07-6.4.09-8.45,0-1,0-1.72.05-2.29a7,7,0,0,1,0-.8,4.1,4.1,0,0,1,.06.8c0,.57,0,1.33,0,2.29,0,2.05,0,4.92.09,8.45,0,7.21,0,17.11.08,28.15l-.28-.28h2.11l29.55.08,9,.09,2.43.05A4.67,4.67,0,0,1,133.46,397Z" style="fill: rgb(38, 50, 56); transform-origin: 111.37px 377.295px;" id="el36bss0wo8pi" class="animable"></path><path d="M128.58,366.94a10.66,10.66,0,0,1-1.31,1.25l-3.7,3.25c-3.15,2.73-7.52,6.47-12.36,10.57l-.74.63-.19.16-.18-.17-5.5-5.11H105l-8.08,6.66-2.34,1.87a5.25,5.25,0,0,1-.88.63,5.07,5.07,0,0,1,.77-.76l2.25-2,7.94-6.81.18-.15.17.16,5.52,5.08h-.37l.73-.62c4.85-4.11,9.26-7.8,12.47-10.45l3.82-3.12A12,12,0,0,1,128.58,366.94Z" style="fill: rgb(38, 50, 56); transform-origin: 111.14px 376.81px;" id="el8hvveivsox9" class="animable"></path><path d="M128.58,376.13a14.35,14.35,0,0,1-.19-2.73c0-1.7-.08-4.06-.08-6.68l.27.28h-.47c-2.73,0-5.2,0-7-.08a14.55,14.55,0,0,1-2.9-.2,16.71,16.71,0,0,1,2.9-.2c1.79,0,4.26-.08,7-.08h.75v.28c0,2.62,0,5-.08,6.68A12.86,12.86,0,0,1,128.58,376.13Z" style="fill: rgb(38, 50, 56); transform-origin: 123.535px 371.285px;" id="elm46xylsyfr" class="animable"></path><g id="elinqbx2367fl"><circle cx="67.34" cy="253.98" r="44.03" style="fill: rgb(255, 255, 255); transform-origin: 67.34px 253.98px; transform: rotate(-76.13deg);" class="animable"></circle></g><path d="M111.37,254s0-.25-.06-.72-.07-1.18-.13-2.09c0-.46-.06-1-.09-1.54s-.18-1.17-.28-1.84-.22-1.38-.34-2.14-.38-1.55-.57-2.4A42.16,42.16,0,0,0,105,231.57a43.81,43.81,0,0,0-11.15-12.45L92,217.71c-.67-.43-1.37-.83-2.07-1.26s-1.37-.89-2.13-1.24l-2.28-1.09-1.16-.55-1.21-.44-2.47-.9c-.84-.28-1.71-.46-2.58-.69a21.62,21.62,0,0,0-2.65-.6,40.12,40.12,0,0,0-5.54-.64c-.94,0-1.9-.13-2.86-.11l-2.89.15c-.49,0-1,0-1.47.09l-1.46.23c-1,.16-2,.27-2.94.47a45.76,45.76,0,0,0-5.84,1.72,45,45,0,0,0-5.71,2.51c-.93.5-1.82,1.08-2.73,1.63-.45.28-.93.53-1.35.85l-1.29,1a49.31,49.31,0,0,0-5,4.22l-2.22,2.45-.56.61-.51.67-1,1.34-1,1.35-.88,1.44-.88,1.45-.44.72-.37.77L27,236.92l-1.19,3.24a43.32,43.32,0,0,0,0,27.62c.4,1.09.79,2.17,1.19,3.25s1,2.06,1.48,3.08l.38.77.44.73.88,1.45.88,1.44,1,1.35,1,1.34.5.66.56.62,2.23,2.45a49.31,49.31,0,0,0,5,4.22l1.28,1c.43.32.91.57,1.36.85.91.55,1.8,1.13,2.72,1.63a48.56,48.56,0,0,0,11.56,4.23c1,.2,2,.31,2.94.48l1.46.22c.49.06,1,.06,1.47.09l2.9.15c1,0,1.91-.07,2.85-.11a40.12,40.12,0,0,0,5.54-.64,20.82,20.82,0,0,0,2.65-.6c.87-.23,1.75-.41,2.58-.69l2.47-.9,1.22-.44,1.15-.55,2.28-1.09c.76-.35,1.43-.84,2.14-1.24s1.39-.82,2.06-1.26l1.89-1.41A43.71,43.71,0,0,0,105,276.38a42.4,42.4,0,0,0,4.87-11.68,22.9,22.9,0,0,0,.57-2.4c.12-.76.24-1.48.34-2.14s.22-1.28.28-1.84.06-1.08.09-1.54c.06-.91.1-1.6.13-2.09s.06-.71.06-.71,0,.24,0,.71,0,1.19-.08,2.09c0,.47,0,1-.06,1.55s-.16,1.18-.26,1.85-.2,1.38-.31,2.15a23.07,23.07,0,0,1-.56,2.42,41.55,41.55,0,0,1-4.81,11.78A44,44,0,0,1,94.1,289.12l-1.91,1.43c-.67.44-1.38.85-2.07,1.28s-1.39.91-2.16,1.26l-2.29,1.11-1.17.55-1.22.45-2.49.92c-.84.28-1.73.46-2.6.7a22.16,22.16,0,0,1-2.68.62,42.68,42.68,0,0,1-5.59.66c-1,0-1.92.13-2.89.12l-2.93-.15c-.49,0-1,0-1.47-.09l-1.48-.23c-1-.16-2-.27-3-.47a47.29,47.29,0,0,1-5.91-1.73A46.49,46.49,0,0,1,46.48,293c-.93-.5-1.83-1.09-2.76-1.64-.45-.29-.93-.53-1.37-.86l-1.3-1a49.09,49.09,0,0,1-5-4.26l-2.25-2.48-.57-.62-.51-.67-1-1.36-1-1.36-.9-1.46-.89-1.47-.44-.73-.38-.78c-.5-1-1-2.08-1.51-3.12L25.34,268a43.79,43.79,0,0,1,0-27.95l1.2-3.28,1.51-3.13.38-.77.45-.74.89-1.46.89-1.46,1-1.36,1-1.36.51-.67.57-.62L36,222.67a49.09,49.09,0,0,1,5-4.26l1.31-1c.43-.32.91-.57,1.37-.86.92-.55,1.82-1.14,2.75-1.64a46.49,46.49,0,0,1,5.78-2.53,45.6,45.6,0,0,1,5.91-1.72c1-.21,2-.32,3-.48l1.47-.23c.5-.06,1-.06,1.48-.09l2.93-.14c1,0,1.93.08,2.89.11a42.68,42.68,0,0,1,5.59.66,21.57,21.57,0,0,1,2.67.62c.88.24,1.76.42,2.61.7l2.49.92,1.22.45,1.17.55L88,214.86c.77.35,1.44.85,2.15,1.26s1.41.84,2.08,1.28l1.9,1.43a43.88,43.88,0,0,1,11.18,12.59,41.31,41.31,0,0,1,4.82,11.78c.19.86.47,1.64.56,2.42s.22,1.48.31,2.15.21,1.28.26,1.85,0,1.08.06,1.55c0,.91.06,1.6.08,2.09S111.37,254,111.37,254Z" style="fill: rgb(126, 87, 194); transform-origin: 67.2274px 253.97px;" id="elchwioqt77cr" class="animable"></path><path d="M68.48,234.83l4.77,9.67a1.26,1.26,0,0,0,.94.67l10.67,1.55a1.24,1.24,0,0,1,.68,2.12l-7.72,7.52a1.25,1.25,0,0,0-.35,1.1l1.82,10.62a1.24,1.24,0,0,1-1.8,1.31l-9.54-5a1.23,1.23,0,0,0-1.15,0l-9.55,5a1.23,1.23,0,0,1-1.79-1.31l1.82-10.62a1.26,1.26,0,0,0-.36-1.1l-7.72-7.52a1.25,1.25,0,0,1,.69-2.12l10.67-1.55a1.25,1.25,0,0,0,.93-.67l4.77-9.67A1.24,1.24,0,0,1,68.48,234.83Z" style="fill: rgb(250, 250, 250); transform-origin: 67.3763px 251.839px;" id="el3rdpg0zqus8" class="animable"></path><path d="M68.48,234.83s0-.1-.2-.26a1.21,1.21,0,0,0-2,.39l-.93,1.94c-.7,1.46-1.56,3.23-2.56,5.29l-.78,1.6c-.13.28-.27.56-.41.84a1.42,1.42,0,0,1-.83.67c-1.33.22-2.66.4-4.09.62l-4.48.67-2.37.36a1,1,0,0,0-.56,1.64L57,256.13a1.51,1.51,0,0,1,.47,1.51l-.24,1.44c-.17,1-.33,1.94-.5,2.92-.33,2-.68,4-1,6a1,1,0,0,0,.44,1.1.87.87,0,0,0,.59.14,1.42,1.42,0,0,0,.63-.24l2.83-1.48,5.77-3,.74-.39a1.55,1.55,0,0,1,1-.11,3.63,3.63,0,0,1,.81.36l.72.38,2.87,1.51,5.59,2.94a1,1,0,0,0,1.37-.8,3.11,3.11,0,0,0-.08-.69c-.17-1-.34-2-.51-3-.33-2-.66-3.89-1-5.78l-.24-1.4a1.53,1.53,0,0,1,.54-1.46c.66-.65,1.32-1.28,2-1.91q1.95-1.89,3.77-3.67l1.8-1.74a1,1,0,0,0-.13-1.71,3.6,3.6,0,0,0-1.07-.23L83,246.65l-2.19-.33-4.07-.61-1.88-.28c-.31-.06-.58-.07-.91-.16a1.36,1.36,0,0,1-.75-.6l-2.58-5.3L69,236l-.4-.87c-.09-.2-.13-.31-.13-.31a1.28,1.28,0,0,1,.17.28c.12.22.27.5.45.86.41.79,1,1.9,1.69,3.31l2.65,5.24A1.09,1.09,0,0,0,74,245c.24.07.58.09.87.14l1.87.26,4.08.58,2.19.31,1.14.16a3.77,3.77,0,0,1,1.2.26,1.46,1.46,0,0,1,.23,2.37l-1.78,1.75-3.76,3.68-2,1.93a1,1,0,0,0-.39,1l.24,1.4q.49,2.82,1,5.78c.17,1,.34,2,.52,3a3.44,3.44,0,0,1,.08.83,1.4,1.4,0,0,1-.37.84,1.47,1.47,0,0,1-1.7.37l-5.63-2.94L69,265.21l-.72-.38a3.25,3.25,0,0,0-.68-.31,1,1,0,0,0-.63.07l-.73.38-5.77,3-2.83,1.49a2.14,2.14,0,0,1-.83.3,1.46,1.46,0,0,1-.91-.23,1.51,1.51,0,0,1-.66-1.62q.53-3.06,1-6c.17-1,.34-2,.51-2.92l.24-1.44a1,1,0,0,0-.32-1.09l-7.76-7.61a1.46,1.46,0,0,1-.23-1.39,1.44,1.44,0,0,1,1-.93l2.4-.35,4.48-.63,4.06-.58a1.11,1.11,0,0,0,.64-.5l.41-.83.8-1.59,2.64-5.25c.37-.72.69-1.36,1-1.92a1.33,1.33,0,0,1,1.32-.8,1.21,1.21,0,0,1,.86.45A.7.7,0,0,1,68.48,234.83Z" style="fill: rgb(38, 50, 56); transform-origin: 67.3403px 251.932px;" id="elyqwq1432nkn" class="animable"></path><g id="elg5ngjhdzinn"><circle cx="67.34" cy="253.98" r="44.03" style="fill: rgb(255, 255, 255); transform-origin: 67.34px 253.98px; transform: rotate(-76.13deg);" class="animable"></circle></g><path d="M111.37,254s0-.25-.06-.72-.07-1.18-.13-2.09c0-.46-.06-1-.09-1.54s-.18-1.17-.28-1.84-.22-1.38-.34-2.14-.38-1.55-.57-2.4A42.16,42.16,0,0,0,105,231.57a43.81,43.81,0,0,0-11.15-12.45L92,217.71c-.67-.43-1.37-.83-2.07-1.26s-1.37-.89-2.13-1.24l-2.28-1.09-1.16-.55-1.21-.44-2.47-.9c-.84-.28-1.71-.46-2.58-.69a21.62,21.62,0,0,0-2.65-.6,40.12,40.12,0,0,0-5.54-.64c-.94,0-1.9-.13-2.86-.11l-2.89.15c-.49,0-1,0-1.47.09l-1.46.23c-1,.16-2,.27-2.94.47a45.76,45.76,0,0,0-5.84,1.72,45,45,0,0,0-5.71,2.51c-.93.5-1.82,1.08-2.73,1.63-.45.28-.93.53-1.35.85l-1.29,1a49.31,49.31,0,0,0-5,4.22l-2.22,2.45-.56.61-.51.67-1,1.34-1,1.35-.88,1.44-.88,1.45-.44.72-.37.77L27,236.92l-1.19,3.24a43.32,43.32,0,0,0,0,27.62c.4,1.09.79,2.17,1.19,3.25s1,2.06,1.48,3.08l.38.77.44.73.88,1.45.88,1.44,1,1.35,1,1.34.5.66.56.62,2.23,2.45a49.31,49.31,0,0,0,5,4.22l1.28,1c.43.32.91.57,1.36.85.91.55,1.8,1.13,2.72,1.63a48.56,48.56,0,0,0,11.56,4.23c1,.2,2,.31,2.94.48l1.46.22c.49.06,1,.06,1.47.09l2.9.15c1,0,1.91-.07,2.85-.11a40.12,40.12,0,0,0,5.54-.64,20.82,20.82,0,0,0,2.65-.6c.87-.23,1.75-.41,2.58-.69l2.47-.9,1.22-.44,1.15-.55,2.28-1.09c.76-.35,1.43-.84,2.14-1.24s1.39-.82,2.06-1.26l1.89-1.41A43.71,43.71,0,0,0,105,276.38a42.4,42.4,0,0,0,4.87-11.68,22.9,22.9,0,0,0,.57-2.4c.12-.76.24-1.48.34-2.14s.22-1.28.28-1.84.06-1.08.09-1.54c.06-.91.1-1.6.13-2.09s.06-.71.06-.71,0,.24,0,.71,0,1.19-.08,2.09c0,.47,0,1-.06,1.55s-.16,1.18-.26,1.85-.2,1.38-.31,2.15a23.07,23.07,0,0,1-.56,2.42,41.55,41.55,0,0,1-4.81,11.78A44,44,0,0,1,94.1,289.12l-1.91,1.43c-.67.44-1.38.85-2.07,1.28s-1.39.91-2.16,1.26l-2.29,1.11-1.17.55-1.22.45-2.49.92c-.84.28-1.73.46-2.6.7a22.16,22.16,0,0,1-2.68.62,42.68,42.68,0,0,1-5.59.66c-1,0-1.92.13-2.89.12l-2.93-.15c-.49,0-1,0-1.47-.09l-1.48-.23c-1-.16-2-.27-3-.47a47.29,47.29,0,0,1-5.91-1.73A46.49,46.49,0,0,1,46.48,293c-.93-.5-1.83-1.09-2.76-1.64-.45-.29-.93-.53-1.37-.86l-1.3-1a49.09,49.09,0,0,1-5-4.26l-2.25-2.48-.57-.62-.51-.67-1-1.36-1-1.36-.9-1.46-.89-1.47-.44-.73-.38-.78c-.5-1-1-2.08-1.51-3.12L25.34,268a43.79,43.79,0,0,1,0-27.95l1.2-3.28,1.51-3.13.38-.77.45-.74.89-1.46.89-1.46,1-1.36,1-1.36.51-.67.57-.62L36,222.67a49.09,49.09,0,0,1,5-4.26l1.31-1c.43-.32.91-.57,1.37-.86.92-.55,1.82-1.14,2.75-1.64a46.49,46.49,0,0,1,5.78-2.53,45.6,45.6,0,0,1,5.91-1.72c1-.21,2-.32,3-.48l1.47-.23c.5-.06,1-.06,1.48-.09l2.93-.14c1,0,1.93.08,2.89.11a42.68,42.68,0,0,1,5.59.66,21.57,21.57,0,0,1,2.67.62c.88.24,1.76.42,2.61.7l2.49.92,1.22.45,1.17.55L88,214.86c.77.35,1.44.85,2.15,1.26s1.41.84,2.08,1.28l1.9,1.43a43.88,43.88,0,0,1,11.18,12.59,41.31,41.31,0,0,1,4.82,11.78c.19.86.47,1.64.56,2.42s.22,1.48.31,2.15.21,1.28.26,1.85,0,1.08.06,1.55c0,.91.06,1.6.08,2.09S111.37,254,111.37,254Z" style="fill: rgb(126, 87, 194); transform-origin: 67.2274px 253.97px;" id="elozjm4pvzhx" class="animable"></path><path d="M68.48,234.83l4.77,9.67a1.26,1.26,0,0,0,.94.67l10.67,1.55a1.24,1.24,0,0,1,.68,2.12l-7.72,7.52a1.25,1.25,0,0,0-.35,1.1l1.82,10.62a1.24,1.24,0,0,1-1.8,1.31l-9.54-5a1.23,1.23,0,0,0-1.15,0l-9.55,5a1.23,1.23,0,0,1-1.79-1.31l1.82-10.62a1.26,1.26,0,0,0-.36-1.1l-7.72-7.52a1.25,1.25,0,0,1,.69-2.12l10.67-1.55a1.25,1.25,0,0,0,.93-.67l4.77-9.67A1.24,1.24,0,0,1,68.48,234.83Z" style="fill: rgb(250, 250, 250); transform-origin: 67.3763px 251.839px;" id="elvbltodxegad" class="animable"></path><path d="M68.48,234.83s0-.1-.2-.26a1.21,1.21,0,0,0-2,.39l-.93,1.94c-.7,1.46-1.56,3.23-2.56,5.29l-.78,1.6c-.13.28-.27.56-.41.84a1.42,1.42,0,0,1-.83.67c-1.33.22-2.66.4-4.09.62l-4.48.67-2.37.36a1,1,0,0,0-.56,1.64L57,256.13a1.51,1.51,0,0,1,.47,1.51l-.24,1.44c-.17,1-.33,1.94-.5,2.92-.33,2-.68,4-1,6a1,1,0,0,0,.44,1.1.87.87,0,0,0,.59.14,1.42,1.42,0,0,0,.63-.24l2.83-1.48,5.77-3,.74-.39a1.55,1.55,0,0,1,1-.11,3.63,3.63,0,0,1,.81.36l.72.38,2.87,1.51,5.59,2.94a1,1,0,0,0,1.37-.8,3.11,3.11,0,0,0-.08-.69c-.17-1-.34-2-.51-3-.33-2-.66-3.89-1-5.78l-.24-1.4a1.53,1.53,0,0,1,.54-1.46c.66-.65,1.32-1.28,2-1.91q1.95-1.89,3.77-3.67l1.8-1.74a1,1,0,0,0-.13-1.71,3.6,3.6,0,0,0-1.07-.23L83,246.65l-2.19-.33-4.07-.61-1.88-.28c-.31-.06-.58-.07-.91-.16a1.36,1.36,0,0,1-.75-.6l-2.58-5.3L69,236l-.4-.87c-.09-.2-.13-.31-.13-.31a1.28,1.28,0,0,1,.17.28c.12.22.27.5.45.86.41.79,1,1.9,1.69,3.31l2.65,5.24A1.09,1.09,0,0,0,74,245c.24.07.58.09.87.14l1.87.26,4.08.58,2.19.31,1.14.16a3.77,3.77,0,0,1,1.2.26,1.46,1.46,0,0,1,.23,2.37l-1.78,1.75-3.76,3.68-2,1.93a1,1,0,0,0-.39,1l.24,1.4q.49,2.82,1,5.78c.17,1,.34,2,.52,3a3.44,3.44,0,0,1,.08.83,1.4,1.4,0,0,1-.37.84,1.47,1.47,0,0,1-1.7.37l-5.63-2.94L69,265.21l-.72-.38a3.25,3.25,0,0,0-.68-.31,1,1,0,0,0-.63.07l-.73.38-5.77,3-2.83,1.49a2.14,2.14,0,0,1-.83.3,1.46,1.46,0,0,1-.91-.23,1.51,1.51,0,0,1-.66-1.62q.53-3.06,1-6c.17-1,.34-2,.51-2.92l.24-1.44a1,1,0,0,0-.32-1.09l-7.76-7.61a1.46,1.46,0,0,1-.23-1.39,1.44,1.44,0,0,1,1-.93l2.4-.35,4.48-.63,4.06-.58a1.11,1.11,0,0,0,.64-.5l.41-.83.8-1.59,2.64-5.25c.37-.72.69-1.36,1-1.92a1.33,1.33,0,0,1,1.32-.8,1.21,1.21,0,0,1,.86.45A.7.7,0,0,1,68.48,234.83Z" style="fill: rgb(38, 50, 56); transform-origin: 67.3403px 251.932px;" id="el7a9dmjfkyjv" class="animable"></path></g><defs>     <filter id="active" height="200%">         <feMorphology in="SourceAlpha" result="DILATED" operator="dilate" radius="2"></feMorphology>                <feFlood flood-color="#32DFEC" flood-opacity="1" result="PINK"></feFlood>        <feComposite in="PINK" in2="DILATED" operator="in" result="OUTLINE"></feComposite>        <feMerge>            <feMergeNode in="OUTLINE"></feMergeNode>            <feMergeNode in="SourceGraphic"></feMergeNode>        </feMerge>    </filter>    <filter id="hover" height="200%">        <feMorphology in="SourceAlpha" result="DILATED" operator="dilate" radius="2"></feMorphology>                <feFlood flood-color="#ff0000" flood-opacity="0.5" result="PINK"></feFlood>        <feComposite in="PINK" in2="DILATED" operator="in" result="OUTLINE"></feComposite>        <feMerge>            <feMergeNode in="OUTLINE"></feMergeNode>            <feMergeNode in="SourceGraphic"></feMergeNode>        </feMerge>            <feColorMatrix type="matrix" values="0   0   0   0   0                0   1   0   0   0                0   0   0   0   0                0   0   0   1   0 "></feColorMatrix>    </filter></defs></svg>