<svg xmlns="http://www.w3.org/2000/svg" version="1.1" xmlns:xlink="http://www.w3.org/1999/xlink" xmlns:svgjs="http://svgjs.dev/svgjs" viewBox="0 0 800 800"><defs><linearGradient x1="50%" y1="0%" x2="50%" y2="100%" id="ffflurry-grad" gradientTransform="rotate(270)"><stop stop-color="hsl(0, 0%, 100%)" stop-opacity="1" offset="0%"></stop><stop stop-color="hsl(184, 74%, 44%)" stop-opacity="1" offset="45%"></stop><stop stop-color="hsl(332, 87%, 70%)" stop-opacity="1" offset="100%"></stop></linearGradient></defs><rect width="100%" height="100%" fill="hsl(0, 0%, 100%)"></rect><g fill="url(#ffflurry-grad)"><rect width="121" height="3" x="605.5" y="763.5" rx="1.5" transform="rotate(45, 666, 765)" opacity="0.84"></rect><rect width="190" height="3" x="59" y="709.5" rx="1.5" transform="rotate(45, 154, 711)" opacity="0.56"></rect><rect width="250" height="3" x="454" y="773.5" rx="1.5" transform="rotate(45, 579, 775)" opacity="0.61"></rect><rect width="354" height="3" x="168" y="35.5" rx="1.5" transform="rotate(45, 345, 37)" opacity="0.91"></rect><rect width="502" height="3" x="118" y="662.5" rx="1.5" transform="rotate(45, 369, 664)" opacity="0.67"></rect><rect width="455" height="3" x="304.5" y="421.5" rx="1.5" transform="rotate(45, 532, 423)" opacity="0.64"></rect><rect width="285" height="3" x="292.5" y="754.5" rx="1.5" transform="rotate(45, 435, 756)" opacity="0.34"></rect><rect width="328" height="3" x="482" y="479.5" rx="1.5" transform="rotate(45, 646, 481)" opacity="0.78"></rect><rect width="406" height="3" x="255" y="66.5" rx="1.5" transform="rotate(45, 458, 68)" opacity="0.25"></rect><rect width="589" height="3" x="-245.5" y="293.5" rx="1.5" transform="rotate(45, 49, 295)" opacity="0.75"></rect><rect width="141" height="3" x="-17.5" y="543.5" rx="1.5" transform="rotate(45, 53, 545)" opacity="0.78"></rect><rect width="155" height="3" x="366.5" y="190.5" rx="1.5" transform="rotate(45, 444, 192)" opacity="0.77"></rect><rect width="190" height="3" x="46" y="28.5" rx="1.5" transform="rotate(45, 141, 30)" opacity="0.81"></rect><rect width="471" height="3" x="100.5" y="177.5" rx="1.5" transform="rotate(45, 336, 179)" opacity="0.46"></rect><rect width="57" height="3" x="590.5" y="541.5" rx="1.5" transform="rotate(45, 619, 543)" opacity="0.31"></rect><rect width="444" height="3" x="371" y="715.5" rx="1.5" transform="rotate(45, 593, 717)" opacity="0.10"></rect><rect width="88" height="3" x="371" y="289.5" rx="1.5" transform="rotate(45, 415, 291)" opacity="0.64"></rect><rect width="161" height="3" x="142.5" y="769.5" rx="1.5" transform="rotate(45, 223, 771)" opacity="0.21"></rect><rect width="670" height="3" x="-72" y="297.5" rx="1.5" transform="rotate(45, 263, 299)" opacity="0.33"></rect><rect width="153" height="3" x="154.5" y="199.5" rx="1.5" transform="rotate(45, 231, 201)" opacity="0.63"></rect><rect width="434" height="3" x="-144" y="39.5" rx="1.5" transform="rotate(45, 73, 41)" opacity="0.39"></rect><rect width="377" height="3" x="-54.5" y="338.5" rx="1.5" transform="rotate(45, 134, 340)" opacity="0.18"></rect><rect width="579" height="3" x="258.5" y="320.5" rx="1.5" transform="rotate(45, 548, 322)" opacity="0.59"></rect><rect width="61" height="3" x="255.5" y="617.5" rx="1.5" transform="rotate(45, 286, 619)" opacity="0.61"></rect><rect width="108" height="3" x="234" y="498.5" rx="1.5" transform="rotate(45, 288, 500)" opacity="0.84"></rect><rect width="135" height="3" x="-39.5" y="729.5" rx="1.5" transform="rotate(45, 28, 731)" opacity="0.65"></rect><rect width="85" height="3" x="266.5" y="391.5" rx="1.5" transform="rotate(45, 309, 393)" opacity="0.82"></rect><rect width="462" height="3" x="524" y="213.5" rx="1.5" transform="rotate(45, 755, 215)" opacity="0.23"></rect><rect width="84" height="3" x="620" y="194.5" rx="1.5" transform="rotate(45, 662, 196)" opacity="0.72"></rect><rect width="456" height="3" x="476" y="440.5" rx="1.5" transform="rotate(45, 704, 442)" opacity="0.21"></rect><rect width="218" height="3" x="270" y="736.5" rx="1.5" transform="rotate(45, 379, 738)" opacity="0.43"></rect><rect width="383" height="3" x="559.5" y="305.5" rx="1.5" transform="rotate(45, 751, 307)" opacity="0.86"></rect><rect width="163" height="3" x="-39.5" y="629.5" rx="1.5" transform="rotate(45, 42, 631)" opacity="0.37"></rect><rect width="322" height="3" x="213" y="556.5" rx="1.5" transform="rotate(45, 374, 558)" opacity="0.18"></rect><rect width="418" height="3" x="508" y="694.5" rx="1.5" transform="rotate(45, 717, 696)" opacity="0.81"></rect><rect width="174" height="3" x="298" y="368.5" rx="1.5" transform="rotate(45, 385, 370)" opacity="0.14"></rect><rect width="76" height="3" x="704" y="516.5" rx="1.5" transform="rotate(45, 742, 518)" opacity="0.20"></rect><rect width="284" height="3" x="-91" y="198.5" rx="1.5" transform="rotate(45, 51, 200)" opacity="0.32"></rect><rect width="335" height="3" x="-32.5" y="508.5" rx="1.5" transform="rotate(45, 135, 510)" opacity="0.72"></rect><rect width="363" height="3" x="266.5" y="626.5" rx="1.5" transform="rotate(45, 448, 628)" opacity="0.51"></rect><rect width="237" height="3" x="542.5" y="365.5" rx="1.5" transform="rotate(45, 661, 367)" opacity="0.91"></rect><rect width="224" height="3" x="390" y="747.5" rx="1.5" transform="rotate(45, 502, 749)" opacity="0.14"></rect><rect width="130" height="3" x="84" y="600.5" rx="1.5" transform="rotate(45, 149, 602)" opacity="0.86"></rect><rect width="975" height="3" x="108.5" y="74.5" rx="1.5" transform="rotate(45, 596, 76)" opacity="0.82"></rect><rect width="534" height="3" x="488" y="615.5" rx="1.5" transform="rotate(45, 755, 617)" opacity="0.11"></rect><rect width="408" height="3" x="174" y="464.5" rx="1.5" transform="rotate(45, 378, 466)" opacity="0.31"></rect><rect width="84" height="3" x="113" y="426.5" rx="1.5" transform="rotate(45, 155, 428)" opacity="0.30"></rect><rect width="448" height="3" x="298" y="670.5" rx="1.5" transform="rotate(45, 522, 672)" opacity="0.57"></rect><rect width="121" height="3" x="-13.5" y="425.5" rx="1.5" transform="rotate(45, 47, 427)" opacity="0.49"></rect><rect width="241" height="3" x="136.5" y="707.5" rx="1.5" transform="rotate(45, 257, 709)" opacity="0.66"></rect><rect width="522" height="3" x="17" y="76.5" rx="1.5" transform="rotate(45, 278, 78)" opacity="0.93"></rect><rect width="552" height="3" x="-46" y="395.5" rx="1.5" transform="rotate(45, 230, 397)" opacity="1.00"></rect><rect width="43" height="3" x="740.5" y="749.5" rx="1.5" transform="rotate(45, 762, 751)" opacity="0.33"></rect><rect width="429" height="3" x="3.5" y="513.5" rx="1.5" transform="rotate(45, 218, 515)" opacity="0.23"></rect><rect width="326" height="3" x="-33" y="775.5" rx="1.5" transform="rotate(45, 130, 777)" opacity="0.51"></rect><rect width="375" height="3" x="448.5" y="288.5" rx="1.5" transform="rotate(45, 636, 290)" opacity="0.39"></rect><rect width="626" height="3" x="-204" y="116.5" rx="1.5" transform="rotate(45, 109, 118)" opacity="0.45"></rect><rect width="355" height="3" x="-32.5" y="218.5" rx="1.5" transform="rotate(45, 145, 220)" opacity="0.08"></rect><rect width="234" height="3" x="362" y="372.5" rx="1.5" transform="rotate(45, 479, 374)" opacity="0.86"></rect><rect width="227" height="3" x="538.5" y="670.5" rx="1.5" transform="rotate(45, 652, 672)" opacity="0.38"></rect><rect width="389" height="3" x="540.5" y="73.5" rx="1.5" transform="rotate(45, 735, 75)" opacity="0.50"></rect><rect width="231" height="3" x="81.5" y="79.5" rx="1.5" transform="rotate(45, 197, 81)" opacity="0.22"></rect><rect width="95" height="3" x="466.5" y="563.5" rx="1.5" transform="rotate(45, 514, 565)" opacity="0.80"></rect><rect width="406" height="3" x="374" y="627.5" rx="1.5" transform="rotate(45, 577, 629)" opacity="0.09"></rect><rect width="92" height="3" x="37" y="727.5" rx="1.5" transform="rotate(45, 83, 729)" opacity="0.28"></rect><rect width="870" height="3" x="108" y="215.5" rx="1.5" transform="rotate(45, 543, 217)" opacity="0.39"></rect><rect width="448" height="3" x="430" y="599.5" rx="1.5" transform="rotate(45, 654, 601)" opacity="0.71"></rect><rect width="151" height="3" x="454.5" y="493.5" rx="1.5" transform="rotate(45, 530, 495)" opacity="0.90"></rect><rect width="315" height="3" x="423.5" y="380.5" rx="1.5" transform="rotate(45, 581, 382)" opacity="0.56"></rect><rect width="98" height="3" x="-26" y="39.5" rx="1.5" transform="rotate(45, 23, 41)" opacity="0.71"></rect><rect width="113" height="3" x="525.5" y="472.5" rx="1.5" transform="rotate(45, 582, 474)" opacity="0.34"></rect><rect width="243" height="3" x="495.5" y="421.5" rx="1.5" transform="rotate(45, 617, 423)" opacity="0.19"></rect><rect width="152" height="3" x="123" y="650.5" rx="1.5" transform="rotate(45, 199, 652)" opacity="0.82"></rect><rect width="48" height="3" x="733" y="392.5" rx="1.5" transform="rotate(45, 757, 394)" opacity="0.18"></rect><rect width="295" height="3" x="-116.5" y="123.5" rx="1.5" transform="rotate(45, 31, 125)" opacity="0.86"></rect><rect width="491" height="3" x="71.5" y="759.5" rx="1.5" transform="rotate(45, 317, 761)" opacity="0.21"></rect><rect width="514" height="3" x="201" y="476.5" rx="1.5" transform="rotate(45, 458, 478)" opacity="0.19"></rect></g></svg>