<!--?xml version="1.0" standalone="no"?-->              <svg id="sw-js-blob-svg" viewBox="0 0 100 100" xmlns="http://www.w3.org/2000/svg">                    <defs>                         <linearGradient id="sw-gradient" x1="0" x2="1" y1="1" y2="0">                            <stop id="stop1" stop-color="rgba(248, 117, 55, 1)" offset="0%"></stop>                            <stop id="stop2" stop-color="rgba(251, 168, 31, 1)" offset="100%"></stop>                        </linearGradient>                    </defs>                <path fill="url(#sw-gradient)" d="M19.1,-23.7C25.1,-17.8,30.4,-12,32.5,-5C34.6,2,33.4,10.3,30.2,18.9C27,27.5,21.7,36.4,14.7,37.9C7.6,39.5,-1.3,33.7,-10.7,30C-20.1,26.3,-30,24.7,-35.8,18.7C-41.5,12.7,-43.2,2.4,-39.9,-5.5C-36.7,-13.4,-28.6,-18.9,-21.1,-24.6C-13.7,-30.2,-6.8,-36.1,-0.1,-35.9C6.6,-35.8,13.1,-29.6,19.1,-23.7Z" width="100%" height="100%" transform="translate(50 50)" stroke-width="0" style="transition: all 0.3s ease 0s;"></path>              </svg>