<svg xmlns="http://www.w3.org/2000/svg" xmlns:xlink="http://www.w3.org/1999/xlink" id="visual" version="1.1" viewBox="0 0 900 233.09"><path d="M0 194L21.5 200C43 206 86 218 128.8 224.2C171.7 230.3 214.3 230.7 257.2 232C300 233.3 343 235.7 385.8 223.2C428.7 210.7 471.3 183.3 514.2 170.7C557 158 600 160 642.8 174.3C685.7 188.7 728.3 215.3 771.2 225.7C814 236 857 230 878.5 227L900 224L900 0L878.5 0C857 0 814 0 771.2 0C728.3 0 685.7 0 642.8 0C600 0 557 0 514.2 0C471.3 0 428.7 0 385.8 0C343 0 300 0 257.2 0C214.3 0 171.7 0 128.8 0C86 0 43 0 21.5 0L0 0Z" fill="#8f0505"></path><path d="M0 149L21.5 156.8C43 164.7 86 180.3 128.8 179.5C171.7 178.7 214.3 161.3 257.2 150.5C300 139.7 343 135.3 385.8 143.3C428.7 151.3 471.3 171.7 514.2 183.8C557 196 600 200 642.8 190.5C685.7 181 728.3 158 771.2 156.5C814 155 857 175 878.5 185L900 195L900 0L878.5 0C857 0 814 0 771.2 0C728.3 0 685.7 0 642.8 0C600 0 557 0 514.2 0C471.3 0 428.7 0 385.8 0C343 0 300 0 257.2 0C214.3 0 171.7 0 128.8 0C86 0 43 0 21.5 0L0 0Z" fill="#84002b"></path><path d="M0 156L21.5 148.8C43 141.7 86 127.3 128.8 116.8C171.7 106.3 214.3 99.7 257.2 105C300 110.3 343 127.7 385.8 136.8C428.7 146 471.3 147 514.2 140.5C557 134 600 120 642.8 115.8C685.7 111.7 728.3 117.3 771.2 115.3C814 113.3 857 103.7 878.5 98.8L900 94L900 0L878.5 0C857 0 814 0 771.2 0C728.3 0 685.7 0 642.8 0C600 0 557 0 514.2 0C471.3 0 428.7 0 385.8 0C343 0 300 0 257.2 0C214.3 0 171.7 0 128.8 0C86 0 43 0 21.5 0L0 0Z" fill="#6b0042"></path><path d="M0 78L21.5 78.2C43 78.3 86 78.7 128.8 84.3C171.7 90 214.3 101 257.2 99C300 97 343 82 385.8 73.7C428.7 65.3 471.3 63.7 514.2 63.8C557 64 600 66 642.8 74.7C685.7 83.3 728.3 98.7 771.2 101.2C814 103.7 857 93.3 878.5 88.2L900 83L900 0L878.5 0C857 0 814 0 771.2 0C728.3 0 685.7 0 642.8 0C600 0 557 0 514.2 0C471.3 0 428.7 0 385.8 0C343 0 300 0 257.2 0C214.3 0 171.7 0 128.8 0C86 0 43 0 21.5 0L0 0Z" fill="#48144d"></path><path d="M0 72L21.5 68C43 64 86 56 128.8 49C171.7 42 214.3 36 257.2 32.2C300 28.3 343 26.7 385.8 29.7C428.7 32.7 471.3 40.3 514.2 44.2C557 48 600 48 642.8 44.3C685.7 40.7 728.3 33.3 771.2 32.5C814 31.7 857 37.3 878.5 40.2L900 43L900 0L878.5 0C857 0 814 0 771.2 0C728.3 0 685.7 0 642.8 0C600 0 557 0 514.2 0C471.3 0 428.7 0 385.8 0C343 0 300 0 257.2 0C214.3 0 171.7 0 128.8 0C86 0 43 0 21.5 0L0 0Z" fill="#1e1b4b"></path></svg>