<svg id="visual" viewBox="0 0 900 600" width="900" height="600" xmlns="http://www.w3.org/2000/svg" xmlns:xlink="http://www.w3.org/1999/xlink" version="1.1"><g stroke-width="1" stroke-linejoin="bevel"><path d="M471 312L501 369L574 339Z" fill="#246688" stroke="#246688"></path><path d="M501 369L606 372L574 339Z" fill="#205a7a" stroke="#205a7a"></path><path d="M471 312L436 427L501 369Z" fill="#277297" stroke="#277297"></path><path d="M501 369L477 528L606 372Z" fill="#1d4e6b" stroke="#1d4e6b"></path><path d="M471 312L381 325L436 427Z" fill="#00101c" stroke="#00101c"></path><path d="M622 177L470 182L574 339Z" fill="#205a7a" stroke="#205a7a"></path><path d="M574 339L470 182L471 312Z" fill="#15384f" stroke="#15384f"></path><path d="M471 312L363 192L381 325Z" fill="#112e42" stroke="#112e42"></path><path d="M685 478L668 391L638 516Z" fill="#0c2435" stroke="#0c2435"></path><path d="M606 372L676 266L574 339Z" fill="#081a28" stroke="#081a28"></path><path d="M668 391L676 266L606 372Z" fill="#112e42" stroke="#112e42"></path><path d="M676 266L622 177L574 339Z" fill="#081a28" stroke="#081a28"></path><path d="M363 192L333 273L381 325Z" fill="#1d4e6b" stroke="#1d4e6b"></path><path d="M275 476L431 535L436 427Z" fill="#1d4e6b" stroke="#1d4e6b"></path><path d="M470 182L363 192L471 312Z" fill="#112e42" stroke="#112e42"></path><path d="M431 535L477 528L436 427Z" fill="#15384f" stroke="#15384f"></path><path d="M436 427L477 528L501 369Z" fill="#15384f" stroke="#15384f"></path><path d="M622 177L580 115L470 182Z" fill="#19435d" stroke="#19435d"></path><path d="M470 182L394 105L363 192Z" fill="#112e42" stroke="#112e42"></path><path d="M676 266L716 218L622 177Z" fill="#1d4e6b" stroke="#1d4e6b"></path><path d="M622 177L690 88L580 115Z" fill="#205a7a" stroke="#205a7a"></path><path d="M764 238L716 218L676 266Z" fill="#205a7a" stroke="#205a7a"></path><path d="M638 516L668 391L606 372Z" fill="#0c2435" stroke="#0c2435"></path><path d="M805 319L764 238L676 266Z" fill="#246688" stroke="#246688"></path><path d="M477 528L638 516L606 372Z" fill="#00101c" stroke="#00101c"></path><path d="M268 380L436 427L381 325Z" fill="#0c2435" stroke="#0c2435"></path><path d="M477 528L571 600L638 516Z" fill="#15384f" stroke="#15384f"></path><path d="M363 192L321 202L333 273Z" fill="#19435d" stroke="#19435d"></path><path d="M298 104L321 202L363 192Z" fill="#112e42" stroke="#112e42"></path><path d="M580 115L499 77L470 182Z" fill="#19435d" stroke="#19435d"></path><path d="M499 77L394 105L470 182Z" fill="#1d4e6b" stroke="#1d4e6b"></path><path d="M805 319L676 266L668 391Z" fill="#246688" stroke="#246688"></path><path d="M716 218L690 88L622 177Z" fill="#081a28" stroke="#081a28"></path><path d="M175 318L268 380L333 273Z" fill="#081a28" stroke="#081a28"></path><path d="M333 273L268 380L381 325Z" fill="#297ea6" stroke="#297ea6"></path><path d="M830 408L805 319L668 391Z" fill="#00101c" stroke="#00101c"></path><path d="M461 600L571 600L477 528Z" fill="#246688" stroke="#246688"></path><path d="M638 516L691 600L685 478Z" fill="#277297" stroke="#277297"></path><path d="M786 75L716 218L764 238Z" fill="#0c2435" stroke="#0c2435"></path><path d="M786 75L690 88L716 218Z" fill="#246688" stroke="#246688"></path><path d="M580 115L536 0L499 77Z" fill="#00101c" stroke="#00101c"></path><path d="M375 600L461 600L431 535Z" fill="#112e42" stroke="#112e42"></path><path d="M431 535L461 600L477 528Z" fill="#112e42" stroke="#112e42"></path><path d="M268 380L275 476L436 427Z" fill="#1d4e6b" stroke="#1d4e6b"></path><path d="M378 0L298 104L394 105Z" fill="#0c2435" stroke="#0c2435"></path><path d="M394 105L298 104L363 192Z" fill="#297ea6" stroke="#297ea6"></path><path d="M179 189L175 318L333 273Z" fill="#112e42" stroke="#112e42"></path><path d="M175 318L227 429L268 380Z" fill="#00101c" stroke="#00101c"></path><path d="M268 380L227 429L275 476Z" fill="#0c2435" stroke="#0c2435"></path><path d="M275 476L375 600L431 535Z" fill="#277297" stroke="#277297"></path><path d="M286 600L375 600L275 476Z" fill="#112e42" stroke="#112e42"></path><path d="M685 478L830 408L668 391Z" fill="#246688" stroke="#246688"></path><path d="M824 480L830 408L685 478Z" fill="#205a7a" stroke="#205a7a"></path><path d="M583 0L536 0L580 115Z" fill="#15384f" stroke="#15384f"></path><path d="M499 77L378 0L394 105Z" fill="#00101c" stroke="#00101c"></path><path d="M571 600L691 600L638 516Z" fill="#1d4e6b" stroke="#1d4e6b"></path><path d="M690 88L583 0L580 115Z" fill="#0c2435" stroke="#0c2435"></path><path d="M774 600L824 480L685 478Z" fill="#277297" stroke="#277297"></path><path d="M179 189L333 273L321 202Z" fill="#297ea6" stroke="#297ea6"></path><path d="M536 0L378 0L499 77Z" fill="#15384f" stroke="#15384f"></path><path d="M900 134L786 75L764 238Z" fill="#205a7a" stroke="#205a7a"></path><path d="M690 88L733 0L583 0Z" fill="#15384f" stroke="#15384f"></path><path d="M900 287L764 238L805 319Z" fill="#081a28" stroke="#081a28"></path><path d="M194 512L286 600L275 476Z" fill="#0c2435" stroke="#0c2435"></path><path d="M194 512L275 476L227 429Z" fill="#081a28" stroke="#081a28"></path><path d="M191 139L179 189L321 202Z" fill="#1d4e6b" stroke="#1d4e6b"></path><path d="M191 139L321 202L298 104Z" fill="#15384f" stroke="#15384f"></path><path d="M691 600L774 600L685 478Z" fill="#205a7a" stroke="#205a7a"></path><path d="M900 393L805 319L830 408Z" fill="#297ea6" stroke="#297ea6"></path><path d="M900 393L900 287L805 319Z" fill="#277297" stroke="#277297"></path><path d="M193 0L191 139L298 104Z" fill="#081a28" stroke="#081a28"></path><path d="M83 439L194 512L227 429Z" fill="#277297" stroke="#277297"></path><path d="M786 75L733 0L690 88Z" fill="#1d4e6b" stroke="#1d4e6b"></path><path d="M824 480L900 393L830 408Z" fill="#19435d" stroke="#19435d"></path><path d="M900 508L900 393L824 480Z" fill="#246688" stroke="#246688"></path><path d="M900 287L900 210L764 238Z" fill="#297ea6" stroke="#297ea6"></path><path d="M786 75L815 0L733 0Z" fill="#15384f" stroke="#15384f"></path><path d="M378 0L265 0L298 104Z" fill="#19435d" stroke="#19435d"></path><path d="M900 210L900 134L764 238Z" fill="#246688" stroke="#246688"></path><path d="M900 600L900 508L824 480Z" fill="#1d4e6b" stroke="#1d4e6b"></path><path d="M194 512L202 600L286 600Z" fill="#1d4e6b" stroke="#1d4e6b"></path><path d="M106 519L202 600L194 512Z" fill="#297ea6" stroke="#297ea6"></path><path d="M900 0L815 0L786 75Z" fill="#205a7a" stroke="#205a7a"></path><path d="M179 189L108 169L175 318Z" fill="#0c2435" stroke="#0c2435"></path><path d="M175 318L83 439L227 429Z" fill="#00101c" stroke="#00101c"></path><path d="M191 139L108 169L179 189Z" fill="#297ea6" stroke="#297ea6"></path><path d="M76 124L108 169L191 139Z" fill="#081a28" stroke="#081a28"></path><path d="M66 339L83 439L175 318Z" fill="#205a7a" stroke="#205a7a"></path><path d="M108 169L66 339L175 318Z" fill="#1d4e6b" stroke="#1d4e6b"></path><path d="M265 0L193 0L298 104Z" fill="#00101c" stroke="#00101c"></path><path d="M83 439L106 519L194 512Z" fill="#246688" stroke="#246688"></path><path d="M774 600L900 600L824 480Z" fill="#1d4e6b" stroke="#1d4e6b"></path><path d="M129 0L76 124L191 139Z" fill="#297ea6" stroke="#297ea6"></path><path d="M108 169L0 269L66 339Z" fill="#297ea6" stroke="#297ea6"></path><path d="M900 134L900 0L786 75Z" fill="#19435d" stroke="#19435d"></path><path d="M193 0L129 0L191 139Z" fill="#205a7a" stroke="#205a7a"></path><path d="M0 193L108 169L76 124Z" fill="#1d4e6b" stroke="#1d4e6b"></path><path d="M0 193L0 269L108 169Z" fill="#205a7a" stroke="#205a7a"></path><path d="M66 339L0 408L83 439Z" fill="#205a7a" stroke="#205a7a"></path><path d="M83 439L0 539L106 519Z" fill="#1d4e6b" stroke="#1d4e6b"></path><path d="M0 269L0 408L66 339Z" fill="#1d4e6b" stroke="#1d4e6b"></path><path d="M0 539L68 600L106 519Z" fill="#246688" stroke="#246688"></path><path d="M106 519L68 600L202 600Z" fill="#297ea6" stroke="#297ea6"></path><path d="M0 103L0 193L76 124Z" fill="#277297" stroke="#277297"></path><path d="M0 0L0 103L76 124Z" fill="#246688" stroke="#246688"></path><path d="M0 408L0 539L83 439Z" fill="#00101c" stroke="#00101c"></path><path d="M0 539L0 600L68 600Z" fill="#00101c" stroke="#00101c"></path><path d="M129 0L0 0L76 124Z" fill="#112e42" stroke="#112e42"></path></g></svg>