<svg id="visual" viewBox="0 0 900 600" width="900" height="600" xmlns="http://www.w3.org/2000/svg" xmlns:xlink="http://www.w3.org/1999/xlink" version="1.1"><g><g transform="translate(608 109)"><path d="M0 -129.5L112.2 -64.8L112.2 64.8L0 129.5L-112.2 64.8L-112.2 -64.8Z" fill="#8306b5"></path></g><g transform="translate(266 466)"><path d="M0 -89L77.1 -44.5L77.1 44.5L0 89L-77.1 44.5L-77.1 -44.5Z" fill="#8306b5"></path></g><g transform="translate(608 372)"><path d="M0 -104L90.1 -52L90.1 52L0 104L-90.1 52L-90.1 -52Z" fill="#8306b5"></path></g><g transform="translate(186 20)"><path d="M0 -106L91.8 -53L91.8 53L0 106L-91.8 53L-91.8 -53Z" fill="#8306b5"></path></g><g transform="translate(792 583)"><path d="M0 -101L87.5 -50.5L87.5 50.5L0 101L-87.5 50.5L-87.5 -50.5Z" fill="#8306b5"></path></g><g transform="translate(19 584)"><path d="M0 -95L82.3 -47.5L82.3 47.5L0 95L-82.3 47.5L-82.3 -47.5Z" fill="#8306b5"></path></g><g transform="translate(882 112)"><path d="M0 -99L85.7 -49.5L85.7 49.5L0 99L-85.7 49.5L-85.7 -49.5Z" fill="#8306b5"></path></g><g transform="translate(18 274)"><path d="M0 -93L80.5 -46.5L80.5 46.5L0 93L-80.5 46.5L-80.5 -46.5Z" fill="#8306b5"></path></g></g></svg>