<svg xmlns="http://www.w3.org/2000/svg" viewBox="0 0 500 500"><g id="freepik--Floor--inject-92"><path id="freepik--floor--inject-92" d="M79.31,236.53C-15,291-15,379.2,79.31,433.62s247.11,54.43,341.38,0S515,291,420.69,236.53,173.58,182.1,79.31,236.53Z" style="fill:#fafafa"></path></g><g id="freepik--Napkin--inject-92"><g id="freepik--napkin--inject-92"><polygon points="170.34 431.84 422.03 456.71 447.48 271.84 170.34 431.84" style="fill:#e0e0e0"></polygon><polygon points="170.34 431.84 423.81 443.77 447.48 271.84 170.34 431.84" style="opacity:0.1"></polygon><polygon points="170.34 431.84 455.78 436.63 447.48 271.84 170.34 431.84" style="fill:#f0f0f0"></polygon><polygon points="454.89 419.05 454.15 404.22 224.28 400.7 199.28 415.14 454.89 419.05" style="fill:#BA68C8"></polygon></g></g><g id="freepik--Shadows--inject-92"><path id="freepik--Shadow--inject-92" d="M378.93,236c71.2,41.11,71.2,107.76,0,148.87s-186.65,41.11-257.85,0-71.2-107.76,0-148.87S307.73,194.91,378.93,236Z" style="opacity:0.15"></path><g id="freepik--shadow--inject-92"><path d="M31.27,357.93l166.26,81.24c11.49-7.31,27.48-9.3,45.31-2.48,18.77,7.18,36.32,25.9,22.24,35.72s-48.21,8.44-65.65-2.47c-12-7.53-14.48-17.46-9.37-24.24L17.11,367.81C12.08,365.46,26.24,355.58,31.27,357.93Z" style="fill:#e0e0e0"></path></g></g><g id="freepik--Spoon--inject-92"><g id="freepik--spoon--inject-92"><g id="freepik--tea-spoon--inject-92"><path d="M269.72,462.79l.06,0c-4.32,4.17-9.33,8.26-21.85,9.92s-29.89.51-43.81-7.84c-13.33-8-13.3-18.82-11.83-23.88.16-.28,2-4.1,2.22-4.37l7.36-6.43a48.28,48.28,0,0,1,23.21-5.92c18.15.2,40.09,10.15,47.19,25.51C274.75,455.16,273.36,459.51,269.72,462.79Z" style="fill:#ebebeb"></path><path d="M18.17,359.18l179,80.59a42.54,42.54,0,0,1,8.35-5.83l-.17-2L32,347.41c-4.28-2-15.27,5-15,8.42,0,.33.14,1.7.17,2.05A1.55,1.55,0,0,0,18.17,359.18Z" style="fill:#ebebeb"></path><path d="M246.51,427.76c-17.57-6.72-33.33-4.75-44.65,2.46L32,347.41c-4.95-2.32-18.9,7.41-13.95,9.73l176.52,79.5c-5,6.68-2.92,14.05,9.23,21,15.77,9,50.8,15,64.68,5.35S265,434.84,246.51,427.76Z" style="fill:#f5f5f5"></path><path d="M272.38,458.57c-3.22-8.11-15.93-17.76-28-22.55-17.09-6.78-30.52-5.22-38.58,1.36s-6.82,15,8.37,23.34a72.33,72.33,0,0,0,9.27,4.16c16.31,3.95,35.55,4.66,45-1.93A12,12,0,0,0,272.38,458.57Z" style="fill:#fafafa"></path><path d="M220.79,458.53c10.88,6,33,10.61,39.94,4.93s-6.26-17.59-18.51-22.45-21.65-3.71-27.36,1S210,452.62,220.79,458.53Z" style="fill:#fff"></path><path d="M30.12,347.86a3.48,3.48,0,0,1,1.47.27L201.51,431l.4.19.38-.24a42.94,42.94,0,0,1,23.14-6.46,58.37,58.37,0,0,1,20.8,4.07c13.73,5.26,25.3,16,26.34,24.47.46,3.73-1.09,6.86-4.61,9.31-4.48,3.13-11.71,4.79-20.89,4.79-14.5,0-32.55-4.28-42.92-10.18-6.59-3.75-10.36-7.71-11.2-11.76-.54-2.65.2-5.35,2.21-8l.61-.81-.92-.41L18.34,356.41c-.58-.27-.64-.57-.55-1,.6-2.68,7.94-7.59,12.33-7.59m0-.81c-5.85,0-16.55,8-12.12,10.09l176.52,79.5c-5,6.68-2.92,14.05,9.23,21,10.09,5.74,28.06,10.29,43.32,10.29,8.61,0,16.36-1.45,21.36-4.94,13.87-9.68-3.42-28.11-21.92-35.19a58.94,58.94,0,0,0-21.08-4.13,43.49,43.49,0,0,0-23.57,6.59L32,347.41a4.36,4.36,0,0,0-1.83-.36Z" style="fill:#ebebeb"></path><path d="M196,435.66S40.84,366,31.87,362C22,357.7,16.1,355.85,21.78,351.88c6.66-4.64,8.52-3,8.52-3a15.42,15.42,0,0,0-6.37,2.82c-3.33,2.56,0,5.3,7.17,8S196,435.66,196,435.66Z" style="fill:#fff;opacity:0.1"></path></g></g></g><g id="freepik--Cake--inject-92"><g id="freepik--cake--inject-92"><g id="freepik--Plate--inject-92"><path d="M374.67,226.39c-68.85-39.75-180.48-39.75-249.34,0h0v-7.16c-36,20.79-53.14,48.33-51.49,75.56-1.65,27.23,15.49,54.77,51.49,75.55,68.85,39.75,180.48,39.75,249.34,0S443.52,266.14,374.67,226.39Z" style="fill:#BA68C8"></path><path d="M374.67,226.39c-68.85-39.75-180.48-39.75-249.34,0h0v-7.16c-36,20.79-53.14,48.33-51.49,75.56-1.65,27.23,15.49,54.77,51.49,75.55,68.85,39.75,180.48,39.75,249.34,0S443.52,266.14,374.67,226.39Z" style="fill:#fff;opacity:0.30000000000000004"></path><path d="M374.67,219.23c68.85,39.75,68.85,104.2,0,144s-180.49,39.75-249.34,0-68.85-104.2,0-144S305.82,179.48,374.67,219.23Z" style="fill:#fafafa"></path><path d="M250,190.42c46.92,0,91,10.54,124.16,29.68,33,19,51.14,44.29,51.14,71.11s-18.17,52.07-51.14,71.11C341,381.46,296.92,392,250,392s-91-10.55-124.17-29.68c-33-19-51.14-44.3-51.14-71.11s18.16-52.07,51.14-71.12C159,201,203.08,190.42,250,190.42h0m0-1c-45.11,0-90.24,9.94-124.67,29.81-68.85,39.75-68.85,104.2,0,144C159.76,383.06,204.87,393,250,393s90.24-9.94,124.67-29.82c68.85-39.75,68.85-104.2,0-144-34.43-19.88-79.54-29.82-124.67-29.81Z" style="fill:#ebebeb"></path><path d="M165.47,246.15c-47.32,27.32-47.33,71.61,0,98.93s124,27.32,171.35,0,47.32-71.61,0-98.93S212.78,218.83,165.47,246.15Z" style="fill:#BA68C8"></path><path d="M165.47,246.15c-47.32,27.32-47.33,71.61,0,98.93s124,27.32,171.35,0,47.32-71.61,0-98.93S212.78,218.83,165.47,246.15Z" style="fill:#fff;opacity:0.5"></path><path d="M171.3,251.2c-44.1,24.53-44.1,64.3,0,88.82S286.88,364.55,331,340s44.1-64.3,0-88.82S215.39,226.68,171.3,251.2Z" style="fill:#fafafa"></path></g><path id="freepik--shadow--inject-92" d="M357.54,341.8c11.53,6.27,10.25,13.39-4,12.05-33.72-3.2-195-16-229.81-18.92-10.3-.86-11.36-7.35-5.34-22.69s36.33-61.36,78.2-67.31C196.6,244.93,346,335.52,357.54,341.8Z" style="opacity:0.15"></path><g id="freepik--Slice--inject-92"><path d="M357.54,183.56V344.84a4.19,4.19,0,0,1-4.75,4.15l-210-28.47a8.81,8.81,0,0,1-7.63-8.73V152.71a4.19,4.19,0,0,1,1.67-3.34l87.25-65.21a8.37,8.37,0,0,1,11.19,1L355.65,178.7A7.23,7.23,0,0,1,357.54,183.56Z" style="fill:#ebebeb"></path><path d="M185.19,98.79a211.83,211.83,0,0,1,38.57-17.14c3.85-1.29,7.63-2.11,13,2.1S356,179.12,356,179.12a.81.81,0,0,1-.7,1.35L138.21,151c-3-.41-3,1.68-3,1.68h0a10,10,0,0,1,.81-4C144,130.42,160.41,113.1,185.19,98.79Z" style="fill:#fafafa"></path><path d="M228.93,81.49h0c2.41,0,4.73.94,7.31,3,5.19,4,112.23,89.75,118.92,95.11L138.33,150.16a6.55,6.55,0,0,0-.86-.06,4.18,4.18,0,0,0-1.06.12,7.59,7.59,0,0,1,.41-1.16c8.18-18.67,25.06-35.79,48.81-49.5A210.83,210.83,0,0,1,224,82.49a15.18,15.18,0,0,1,4.89-1m0-.88a16.35,16.35,0,0,0-5.17,1,211.83,211.83,0,0,0-38.57,17.14C160.41,113.1,144,130.42,136,148.7a10,10,0,0,0-.81,4s0-1.73,2.27-1.73a6.73,6.73,0,0,1,.74.05l217.12,29.44h.11a.81.81,0,0,0,.59-1.35S242.18,88,236.79,83.75c-3-2.36-5.55-3.14-7.86-3.14Z" style="fill:#ebebeb"></path><path d="M352.79,349,151.17,321.65a4.66,4.66,0,0,1-4-4.62V305.77a3.73,3.73,0,0,1,4.22-3.69L357.54,330v14.83A4.19,4.19,0,0,1,352.79,349Z" style="fill:#BA68C8"></path><path d="M352.79,349,151.17,321.65a4.66,4.66,0,0,1-4-4.62V305.77a3.73,3.73,0,0,1,4.22-3.69L357.54,330v14.83A4.19,4.19,0,0,1,352.79,349Z" style="opacity:0.4"></path><path d="M151.35,302.08a3.73,3.73,0,0,0-4.22,3.69V317a4.66,4.66,0,0,0,4,4.62l43.46,5.89-20.21-6.76c-3.4-1.14-7-2.39-9.32-5.11-1.24-1.43-2-3.8-.58-5.08a4.16,4.16,0,0,1,2.76-.82c12.74-.45,24.11,8.39,36.8,9.54,6.83.62,13.79-1,20.54.18,3.92.7,7.63,2.33,11.56,2.94,9,1.41,17-3.11,25.41-5.42Zm26.21,11.11c-1.8-.57-4.29-1.32-6-.33a2.16,2.16,0,0,0-1.14,1.59c-.23,2.86,5.63,3.93,7.62,4.23,1.58.24,5.3.06,4.09-2.57C181.35,314.5,179.12,313.7,177.56,313.19Zm8.19,8.75a3.44,3.44,0,0,0,1.55.77,10.42,10.42,0,0,0,1.92.33c1.31.12,2.15-1,1.25-2.06a4.38,4.38,0,0,0-3.11-1.44C186,319.46,184.46,320.65,185.75,321.94Z" style="opacity:0.2"></path><path d="M357.54,321.86l-206.37-28a4.67,4.67,0,0,1-4-4.63V278a3.72,3.72,0,0,1,4.22-3.69l206.19,27.92Z" style="fill:#BA68C8"></path><path d="M357.54,321.86l-206.37-28a4.67,4.67,0,0,1-4-4.63V278a3.72,3.72,0,0,1,4.22-3.69l206.19,27.92Z" style="opacity:0.2"></path><path d="M151.35,274.27a3.72,3.72,0,0,0-4.22,3.69v11.25a4.67,4.67,0,0,0,4,4.63L189,299a106.12,106.12,0,0,1-19.49-9.05c-1.29-.77-2.65-1.69-3.11-3.12-1.47-4.7,7-2.29,9-1.89,4.33.89,8.51,2.47,12.95,2.76,6.82.44,13.6-2,20.43-.86,3,.53,5.93,2.7,8.78,3.88a41.74,41.74,0,0,0,10.11,2.88c6.32.88,12.74-.11,19-1.1,2.78-.43,5.53-1.12,8.34-1.36a36.39,36.39,0,0,1,8.26.62,126.81,126.81,0,0,1,17.57,3.53c5.46,1.59,10.74,3.78,16.22,5.31a41,41,0,0,0,14.82,1.62c4.68-.41,9.2-1.42,13.9-2.07,2.42-.33,6.07-.15,8.64-1.06Zm40.1,19.41a1.92,1.92,0,0,0,.68,1.11c2.22,2.08,5.55,2.32,8.6,2.43a2.49,2.49,0,0,0,2.17-.63C205.36,293.21,191,289,191.45,293.68Zm18.08-2.79c-.87-.65-4.95-2.07-4.51.34.27,1.46,2.48,1.85,3.67,1.75a3.34,3.34,0,0,0,.77-.12l.1,0a1,1,0,0,0,.62-.6C210.34,291.72,210,291.21,209.53,290.89Zm87.13,12.62a10.24,10.24,0,0,0-5.87-.33,2.1,2.1,0,0,0-1.5,2c.08,1.05,1.16,1.71,2.15,2.09a16.78,16.78,0,0,0,6.69,1.09,2.18,2.18,0,0,0,1.19-.3C301.33,306.6,297.92,304,296.66,303.51Z" style="opacity:0.2"></path><path d="M357.54,294,151.17,266a4.66,4.66,0,0,1-4-4.62V250.14a3.73,3.73,0,0,1,4.22-3.69l206.19,27.92Z" style="fill:#BA68C8"></path><path d="M357.54,294,151.17,266a4.66,4.66,0,0,1-4-4.62V250.14a3.73,3.73,0,0,1,4.22-3.69l206.19,27.92Z" style="fill:#fff;opacity:0.2"></path><path d="M151.35,246.45a3.73,3.73,0,0,0-4.22,3.69V261.4a4.66,4.66,0,0,0,4,4.62l41.61,5.65c-8.3-3.36-17.92-4-25.41-9-1.86-1.25-3.74-3.37-3-5.47s3.84-2.45,6.2-2.31c17.71,1.11,35.59,2.25,52.58,7.33,8.79,2.63,17.41,6.32,26.57,6.81,8.53.46,17.42-1.86,25.45,1.05,4.15,1.51,7.76,4.34,12,5.57a17.29,17.29,0,0,0,14.88-2.69A86.23,86.23,0,0,1,309,267.8Zm123.07,28.1a7.17,7.17,0,0,0-5.82-.94c-1.42.29-3.61.93-2.05,2.68a3.83,3.83,0,0,0,1.62,1,16.23,16.23,0,0,0,6.62,1C277.33,278.06,275.73,275.35,274.42,274.55Zm-15.07-2.06a1.27,1.27,0,0,0,.61,1.17,2.72,2.72,0,0,0,1.31.4,7.17,7.17,0,0,0,1.85,0c.66-.1,1.43-.42,1.5-1.09C264.86,270.76,259.64,270.08,259.35,272.49Zm-85.11-14.4c-2.31.07-4.73,2-2,3.79a12.33,12.33,0,0,0,6,1.89,2.35,2.35,0,0,0,2.06-.52,1.57,1.57,0,0,0,.24-1.44,3.19,3.19,0,0,0-.8-1.28A7.78,7.78,0,0,0,174.24,258.09Z" style="fill:#BA68C8"></path><path d="M357.54,266.23l-206.37-28a4.65,4.65,0,0,1-4-4.62V222.32a3.73,3.73,0,0,1,4.22-3.69l206.19,27.93Z" style="fill:#BA68C8"></path><path d="M357.54,266.23l-206.37-28a4.65,4.65,0,0,1-4-4.62V222.32a3.73,3.73,0,0,1,4.22-3.69l206.19,27.93Z" style="fill:#fff;opacity:0.7000000000000001"></path><path d="M151.35,218.63a3.73,3.73,0,0,0-4.22,3.69v11.26a4.65,4.65,0,0,0,4,4.62l32.1,4.36q-3.15-1-6.29-2.08c-4.94-1.7-10.1-3.68-13.4-7.74-1-1.23-1.82-2.88-1.22-4.34.89-2.2,4-2.16,6.32-1.59,6.82,1.69,13.39,4.62,20.4,5.11s14.43-1.53,21.19.64c6,1.94,10.91,7.05,17.2,7.79,5.06.6,9.8-1.79,13.87-4.55a38.29,38.29,0,0,1,6.17-3.89l.4-.2Zm58.5,17.73c-1.31-.21-3.7.31-4.18,1.72a2,2,0,0,0,.47,1.86,4.31,4.31,0,0,0,1.69,1.05,12.17,12.17,0,0,0,5.06.86,2.18,2.18,0,0,0,.8-.14,1.54,1.54,0,0,0,.81-1.51,3,3,0,0,0-.77-1.63A7.08,7.08,0,0,0,209.85,236.36Zm10.72,4.95a3.74,3.74,0,0,0-2.65-.16,1,1,0,0,0-.7.56c-.14.44.26.86.65,1.11a5.19,5.19,0,0,0,2.87.77,1.23,1.23,0,0,0,.73-.21C222.3,242.69,221.18,241.6,220.57,241.31Z" style="fill:#BA68C8;opacity:0.30000000000000004"></path><path d="M357.54,238.41l-206.37-28a4.67,4.67,0,0,1-4-4.63V194.51a3.72,3.72,0,0,1,4.22-3.69l206.19,27.92Z" style="fill:#BA68C8"></path><path d="M357.54,238.41l-206.37-28a4.67,4.67,0,0,1-4-4.63V194.51a3.72,3.72,0,0,1,4.22-3.69l206.19,27.92Z" style="fill:#fff;opacity:0.4"></path><path d="M151.35,190.82a3.72,3.72,0,0,0-4.22,3.69v11.25a4.67,4.67,0,0,0,4,4.63l14.72,2c-2.43-1.23-6.59-3.4-8.53-5.27-2.49-2.41-4.17-7.39-1.69-9.13,1.85-1.29,8.5-.91,10.75-.67,30.17,3.23,60.86,5,89.37,13.19,14.08,4,28.72,9.52,43,6.11,3.9-.94,7.62-2.54,11.52-3.48.77-.19,1.54-.34,2.32-.49Zm9,13a3.19,3.19,0,0,0,1.15.68,3.89,3.89,0,0,0,1.81.27,2,2,0,0,0,1.49-1c.88-1.62-1.36-3.8-2.94-3.77A2.27,2.27,0,0,0,160.35,203.81Zm9.16,2.54c-.74-.42-2.32-.87-2.86.09a1.24,1.24,0,0,0,.8,1.66,3.56,3.56,0,0,0,2.21.19.88.88,0,0,0,.55-.42A1.34,1.34,0,0,0,169.51,206.35Z" style="fill:#BA68C8;opacity:0.6000000000000001"></path><path d="M357.54,210.59l-206.37-28a4.66,4.66,0,0,1-4-4.62V166.69a3.73,3.73,0,0,1,4.22-3.69l206.19,27.92Z" style="fill:#BA68C8"></path><path d="M151.35,163a3.73,3.73,0,0,0-4.22,3.69V178a4.66,4.66,0,0,0,4,4.62l22.35,3c-1.35-.54-2.7-1.09-4-1.66-4.17-1.78-8.47-3.91-11-7.68-1.49-2.23-1.73-6.05.83-6.86a4.86,4.86,0,0,1,1.94-.1c13.8,1.23,26.4,9,40.2,10.09,9.93.81,20.07-1.85,29.81.26,8,1.74,15.08,6.59,23,8.66,8.19,2.13,16.79,1.12,24.78-1.36A75,75,0,0,0,292,182.05Z" style="opacity:0.15"></path><path d="M162.8,173.13c1.11-.08,2.66.92,2.58,2.14a.62.62,0,0,1-.18.43.93.93,0,0,1-.61.2,3.15,3.15,0,0,1-2.6-1A1.06,1.06,0,0,1,162.8,173.13Z" style="opacity:0.15"></path><path d="M170.68,179.43c-.74,1.67-4.06,1.24-4.26-.64a1.6,1.6,0,0,1,1.81-1.67,3.35,3.35,0,0,1,1.88.56A1.56,1.56,0,0,1,170.68,179.43Z" style="opacity:0.15"></path><path d="M166.66,304.16c12.29,1.66,21.94,7.82,33.74,9.7s22.52-.54,28.69,1.34,10.89,5,21.14,3.75a157.69,157.69,0,0,1,27.93.31s-6.17-4.56-52-10.46C181.61,303.07,166.66,304.16,166.66,304.16Z" style="fill:#ebebeb"></path><path d="M157.36,275.08c10.45,1.41,14.32,7.47,24.56,9s19.71-.93,24.85-.26c11.4,1.5,14.44,4.55,23.21,6s16.91-2.58,23.6-1.67c0,0-7.92-5.61-49.15-10.93S157.36,275.08,157.36,275.08Z" style="fill:#ebebeb"></path><path d="M282.8,291.76c15.45,2.4,18.42,7,30.7,9.35s21.53-2,29-.95c0,0-7.31-5-29.86-7.56S282.8,291.76,282.8,291.76Z" style="fill:#ebebeb"></path><path d="M215.72,255.17c13.34,1.8,16.35,5.58,32.17,8.88s20.26,0,26.65,1,9.57,7.28,19.71,8.34c8.48.88,12.47-5.86,20.52-4.77,0,0-9.14-5.88-47.73-10.5S215.72,255.17,215.72,255.17Z" style="fill:#ebebeb"></path><path d="M157.36,219.45c10,1.36,20.35,8.39,30.34,9.34s14.16-1.06,22.49-.19,13.05,8.76,20.82,9.81,13.78-7.12,22-6c0,0-11.36-6.6-44.95-10.54S157.36,219.45,157.36,219.45Z" style="fill:#ebebeb"></path><path d="M250.19,204.2c16,2.16,26.05,8.42,40.55,10.75s21.1-2.4,28.58-1.39C319.32,213.56,296.6,202.93,250.19,204.2Z" style="fill:#ebebeb"></path><path d="M160,164.16c12,1.63,25,8.43,38.06,9.91s25.38,1,37.38,2.43,18.52,8.1,30.36,9.41,24.51-4.1,33.4-2.89c0,0-29.46-11.24-71.64-16S160,164.16,160,164.16Z" style="fill:#ebebeb"></path><path d="M135.2,238.5c0,12.39-3,20.83-3,31.12s.29,11.1.29,18.56-5.69,18.46-3.84,24.38c2.28,7.32,5.84,6.83,14.18,8Z" style="fill:#f0f0f0"></path><path d="M355.65,178.7c12.5,8.58,4.59,12.93,7.16,18.62,2.85,6.3,5,16.94-5.27,21.42V205.87c0-9.2-4.9-15.09-12.63-16.66Z" style="fill:#ebebeb"></path><path d="M224,81.56l-.27.09a220.14,220.14,0,0,0-27.95,11.48,9.68,9.68,0,0,0-.75,7.17c-6.73.08-13.42,1.59-18.56,4.56-8.37,4.83-10.09,12-5.17,17.86a46,46,0,0,0-20,2.72,91.52,91.52,0,0,0-12,16.62c1,3.19,3.64,6.24,7.91,8.71a30.3,30.3,0,0,0,4.41,2.08L171,155.47a39.56,39.56,0,0,0,16.75-4.7c6.16-3.56,8.92-8.33,8.29-13a24.06,24.06,0,0,0,4.39,3.21c11.86,6.85,31.09,6.85,42.94,0s11.86-17.94,0-24.79a36.93,36.93,0,0,0-9.67-3.75,33.55,33.55,0,0,0,8.71-3.4c7-4,9.5-9.67,7.53-14.86-7.13-5.7-12-9.55-13.06-10.41A43.67,43.67,0,0,0,224,81.56Z" style="opacity:0.1"></path><path d="M217.07,73.11a40.6,40.6,0,0,0-13.6,7.94c-3.62,3.09-6.61,10.34-3.32,16.88,4.24,8.42,13.17,8.16,13.17,8.16A38.91,38.91,0,0,1,213.61,90C215.68,81.8,217.07,73.11,217.07,73.11Z" style="fill:#f0f0f0"></path><path d="M227.51,72.68c1.92,2.73,8.69,4.23,13.2,7.17s6.77,4.9,8,8.77.32,9.59-4.73,12-15.35-5.84-16.45-8.81S227.51,72.68,227.51,72.68Z" style="fill:#f0f0f0"></path><path d="M224.37,67.64c2.52,2.33,3.54,4.42,3.39,8.62-.11,3.22-.22,10.45,9,15.41,8.13,4.35,9.1,8.65,4.76,12.45-4.17,3.66-9.93,2.86-9.93,2.86s-12.09-2.78-14.55-11.82S219.31,71.65,224.37,67.64Z" style="fill:#fafafa"></path><path d="M223.33,109.6c7.86,0,11-3.38,7.37-7.87-1.81-2.23-5.08-3.15-7.14-5.42a14.19,14.19,0,0,1-4.18-8.56c-.7-8,9-16.38,3.35-23.38-.62,3.82-2.21,6-7.86,10.58a22.35,22.35,0,0,0-7,24.84C209.86,105.42,218.27,109.6,223.33,109.6Z" style="fill:#f5f5f5"></path><path d="M207,101.54c-.9-1.88-1-6.65-.41-9,1,5.33,4.72,9.63,11.94,11.64a22.26,22.26,0,0,0,8,.87c3.08-.3,4.87-1.47,4.71-2.64a5.23,5.23,0,0,0-.4-.56,5.72,5.72,0,0,0-.52-.6c-.08-.08-.17-.18-.26-.26a2.41,2.41,0,0,0-.24-.21,6.13,6.13,0,0,0-.7-.56,3.15,3.15,0,0,0-.29-.22l-.17-.1c-.49-.32-1-.63-1.43-.9-.94-.59-1.77-1.12-2.32-1.51l-.35-.29c-.21-.17-.4-.35-.6-.53,0,0,0,0-.07-.07s-.34-.35-.51-.53-.52-.6-.74-.89l-.38-.45a.55.55,0,0,1-.09-.14,8.94,8.94,0,0,1-.56-.77c-.21-.3-.39-.6-.55-.88A15.22,15.22,0,0,1,220,90.6l-.15-.51a.32.32,0,0,1,0-.08c1.39,3.58,5.38,6.37,9.07,7.95a18.31,18.31,0,0,0,10.68,1.15c3.36-.5,3.47-2.32,3.47-2.56a.45.45,0,0,0-.11-.15,17.93,17.93,0,0,0-6.12-4.73,20.81,20.81,0,0,1-3.69-2.5,18.37,18.37,0,0,0,4.44,2.08,20.52,20.52,0,0,0,7.94.8c2.94-.61,3.43-2,2.94-4.15.09.24.19.47.27.72,1.2,3.87.32,9.59-4.73,12h0a7.12,7.12,0,0,1-2.4,3.5c-4.17,3.66-9.93,2.86-9.93,2.86h0c-1.17,1.63-4,2.62-8.29,2.62a19.61,19.61,0,0,1-10-3.51h0s-8.93.26-13.17-8.16a13.37,13.37,0,0,1-1.37-7.08h0A11.39,11.39,0,0,0,207,101.54Z" style="opacity:0.1"></path><path d="M188.55,89.34a41.66,41.66,0,0,0-13.91,8.13c-3.7,3.16-6.77,10.58-3.4,17.28,4.34,8.61,13.47,8.34,13.47,8.34a39.79,39.79,0,0,1,.3-16.48C187.14,98.24,188.55,89.34,188.55,89.34Z" style="fill:#f0f0f0"></path><path d="M199.23,88.91c2,2.79,8.9,4.33,13.51,7.33s6.92,5,8.16,9,.33,9.81-4.84,12.27-15.7-6-16.83-9S199.23,88.91,199.23,88.91Z" style="fill:#f0f0f0"></path><path d="M196,83.75c2.58,2.39,3.62,4.52,3.47,8.82-.11,3.29-.22,10.7,9.23,15.76,8.33,4.46,9.32,8.86,4.88,12.74-4.27,3.74-10.16,2.93-10.16,2.93s-12.37-2.84-14.89-12.09S190.85,87.85,196,83.75Z" style="fill:#fafafa"></path><path d="M195,126.68c8,0,11.28-3.45,7.54-8.05-1.85-2.28-5.2-3.22-7.3-5.54a14.58,14.58,0,0,1-4.29-8.76c-.71-8.22,9.23-16.76,3.44-23.93-.64,3.91-2.27,6.14-8,10.83a22.87,22.87,0,0,0-7.11,25.42C181.17,122.4,189.78,126.68,195,126.68Z" style="fill:#f5f5f5"></path><path d="M178.28,118.44c-.93-1.93-1-6.81-.43-9.16,1,5.45,4.83,9.85,12.22,11.91a22.39,22.39,0,0,0,8.16.88c3.15-.3,5-1.5,4.82-2.69a4.57,4.57,0,0,0-.41-.57,5.12,5.12,0,0,0-.53-.62l-.27-.27a1.57,1.57,0,0,0-.24-.21,5.45,5.45,0,0,0-.72-.57c-.1-.09-.2-.16-.29-.23l-.18-.1q-.75-.5-1.47-.93c-.95-.6-1.81-1.14-2.36-1.54a4.37,4.37,0,0,1-.36-.3c-.21-.17-.41-.36-.61-.54,0,0-.05,0-.07-.07-.19-.17-.36-.36-.53-.54s-.53-.62-.76-.92a5,5,0,0,1-.38-.45.65.65,0,0,1-.1-.15,13.6,13.6,0,0,1-1.13-1.68,15.54,15.54,0,0,1-1.13-2.45c-.07-.23-.13-.42-.15-.52a.17.17,0,0,1,0-.08c1.43,3.66,5.51,6.52,9.29,8.13A18.71,18.71,0,0,0,211.55,116c3.44-.51,3.56-2.38,3.56-2.62a.52.52,0,0,0-.12-.16,18.35,18.35,0,0,0-6.26-4.83,21.84,21.84,0,0,1-3.78-2.56,19,19,0,0,0,4.55,2.13,20.89,20.89,0,0,0,8.12.81c3-.62,3.51-2.08,3-4.24.09.25.19.48.27.74,1.23,4,.33,9.81-4.84,12.27h0a7.34,7.34,0,0,1-2.46,3.58c-4.27,3.74-10.16,2.93-10.16,2.93h0c-1.2,1.66-4.13,2.68-8.48,2.68a20.1,20.1,0,0,1-10.25-3.59h0s-9.13.27-13.47-8.34a13.63,13.63,0,0,1-1.4-7.25h0A11.67,11.67,0,0,0,178.28,118.44Z" style="opacity:0.1"></path><path d="M160,114.22a42,42,0,0,0-14.09,8.24c-3.75,3.19-6.86,10.71-3.44,17.49,4.39,8.73,13.64,8.46,13.64,8.46a40.35,40.35,0,0,1,.31-16.7C158.52,123.24,160,114.22,160,114.22Z" style="fill:#f0f0f0"></path><path d="M170.77,113.78c2,2.83,9,4.39,13.68,7.43s7,5.08,8.27,9.09.33,9.94-4.9,12.43-15.91-6-17-9.12S170.77,113.78,170.77,113.78Z" style="fill:#f0f0f0"></path><path d="M167.52,108.56c2.61,2.42,3.66,4.58,3.51,8.93-.11,3.34-.22,10.84,9.35,16,8.43,4.51,9.44,9,5,12.9-4.33,3.79-10.3,3-10.3,3S162.5,146.45,160,137.08,162.27,112.71,167.52,108.56Z" style="fill:#fafafa"></path><path d="M166.44,152.05c8.14,0,11.43-3.51,7.64-8.16-1.87-2.31-5.27-3.26-7.4-5.62a14.76,14.76,0,0,1-4.34-8.87c-.72-8.33,9.35-17,3.48-24.23-.64,4-2.29,6.21-8.15,11a23.16,23.16,0,0,0-7.2,25.74C152.48,147.71,161.19,152.05,166.44,152.05Z" style="fill:#f5f5f5"></path><path d="M149.54,143.69c-.94-1.95-1-6.89-.43-9.27,1,5.51,4.9,10,12.38,12.06a22.77,22.77,0,0,0,8.27.89c3.19-.3,5-1.51,4.88-2.73a4.65,4.65,0,0,0-.42-.57,6.1,6.1,0,0,0-.53-.63l-.28-.27a2.5,2.5,0,0,0-.24-.22,7.59,7.59,0,0,0-.73-.57c-.1-.09-.2-.16-.3-.24L172,142l-1.49-.94c-1-.6-1.84-1.15-2.4-1.56l-.36-.3a8.11,8.11,0,0,1-.62-.55s0,0-.08-.07c-.18-.17-.36-.36-.53-.55s-.53-.62-.77-.92-.27-.31-.39-.47a1.21,1.21,0,0,1-.1-.14,17.29,17.29,0,0,1-1.14-1.71,15,15,0,0,1-1.14-2.48l-.16-.52a.34.34,0,0,1,0-.09c1.44,3.71,5.57,6.61,9.4,8.24a19.06,19.06,0,0,0,11.07,1.2c3.48-.52,3.6-2.42,3.6-2.66a.4.4,0,0,0-.12-.16,18.64,18.64,0,0,0-6.34-4.9,21.48,21.48,0,0,1-3.83-2.59,19.45,19.45,0,0,0,4.61,2.16,21.26,21.26,0,0,0,8.22.82c3.05-.62,3.56-2.1,3.05-4.29.09.25.19.48.28.74,1.25,4,.33,9.94-4.9,12.43h0a7.35,7.35,0,0,1-2.48,3.62c-4.33,3.79-10.3,3-10.3,3h0c-1.21,1.68-4.18,2.72-8.59,2.72a20.49,20.49,0,0,1-10.38-3.64h0s-9.25.27-13.64-8.46a13.78,13.78,0,0,1-1.42-7.34h0A11.83,11.83,0,0,0,149.54,143.69Z" style="opacity:0.1"></path><g id="freepik--Strawberry--inject-92"><path d="M221.15,139.37a38.78,38.78,0,0,1-9.79-1.16,28.44,28.44,0,0,1-5.34-2c-9.22-4.54-13-13.34-12.8-21.7.22-12,9.9-28.72,15.25-35.82,4.24-5.65,6.36-8.25,9.76-9.07a13.57,13.57,0,0,1,3.42-.3c5.09.27,8.66,4.65,12.41,9.76l.29.39h0c4.14,5.74,15.52,23.53,16,35C250.75,126.32,241.56,139.37,221.15,139.37Z" style="fill:#BA68C8"></path><path d="M221.15,139.37a38.78,38.78,0,0,1-9.79-1.16,28.44,28.44,0,0,1-5.34-2c-9.22-4.54-13-13.34-12.8-21.7.22-12,9.9-28.72,15.25-35.82,4.24-5.65,6.36-8.25,9.76-9.07a13.57,13.57,0,0,1,3.42-.3c5.09.27,8.66,4.65,12.41,9.76l.29.39h0c4.14,5.74,15.52,23.53,16,35C250.75,126.32,241.56,139.37,221.15,139.37Z" style="fill:#BA68C8"></path><path d="M221.15,139.37a38.78,38.78,0,0,1-9.79-1.16,23.62,23.62,0,0,1,0-10.46,6,6,0,0,1,2.22-3.32,3.06,3.06,0,0,1,3.74.17c.76.76,1,2.07,2.07,2.39,1.22.38,2.31-1.09,2.3-2.38s-.68-2.47-.83-3.75a4.87,4.87,0,0,1,1.73-4.25c1.4-1.15,3.9-2.42,4.34-4.31.31-1.33-.44-2.7-.36-4.06a5,5,0,0,1,1.93-3.32c1-.86,2.17-1.5,3.19-2.34a3.64,3.64,0,0,0,1.1-1.33,5.18,5.18,0,0,0,.28-1.57,28,28,0,0,0,.37-3.14,3.46,3.46,0,0,0-1.22-2.8,3.17,3.17,0,0,0-1.51-.54,17,17,0,0,1-3.11-.33,3.32,3.32,0,0,1-1.12-.63h0a6.76,6.76,0,0,1-1.89-2.93c-.59-1.53-.74-2.94.58-4.21a5.76,5.76,0,0,1,3.3-1.43,23.53,23.53,0,0,1,3.66,0,2,2,0,0,0,2.24-3,5.8,5.8,0,0,0-.68-1.42,5.86,5.86,0,0,0-.37-.5l.34.26s.11.08.17.13l.52.36s0,0,0,0h0c4.14,5.74,15.52,23.53,16,35C250.75,126.32,241.56,139.37,221.15,139.37Z" style="fill:#fff;opacity:0.1"></path><path d="M234.35,79.5s0,0,0,0l-.52-.36c-.06,0-.12-.08-.17-.13l-.34-.26-.68-.61a3.3,3.3,0,0,0-1.48-1,1.73,1.73,0,0,0-2,1.16c-.1.37,0,.77-.13,1.15a.9.9,0,0,1-.77.79,1.51,1.51,0,0,1-.62-.2c-1.93-.87-3.76.29-5.38,1.24a14.12,14.12,0,0,0-5.62,5.4c-.31.56-.52,1.21-1.28,1.33s-1.47-.37-2.21-.24A2.55,2.55,0,0,0,211.42,89a9.66,9.66,0,0,0-.81,2.76A15.58,15.58,0,0,1,209,95.65c-.55,1-1.13,2.53-2.24,3.07-.62.31-1.37.32-2,.61a2.93,2.93,0,0,0-1.57,2.85,6.54,6.54,0,0,0,1.23,3.14,2.64,2.64,0,0,1,.6,1.58c-.1.87-1.05,1.37-1.78,1.89-3.05,2.23-2.8,6.6-2.72,9.85.13,4.9.83,11,3.75,15,.66.92,1.25,1.78,1.8,2.57-9.22-4.54-13-13.34-12.8-21.7.22-12,9.9-28.72,15.25-35.82,4.24-5.65,6.36-8.25,9.76-9.07a13.57,13.57,0,0,1,3.42-.3c5.09.27,8.66,4.65,12.41,9.76Z" style="opacity:0.15"></path><path d="M207.18,81.87a6.54,6.54,0,0,0-1,2,2.55,2.55,0,0,0,.21,2.37c.55.72,1.18.22,1.68-.33a4,4,0,0,0,1-3.42,1.25,1.25,0,0,0-.61-1A1.17,1.17,0,0,0,207.18,81.87Z" style="fill:#BA68C8"></path><path d="M218.93,76.1a6.12,6.12,0,0,0-.38,2.17,2.58,2.58,0,0,0,.91,2.21c.75.54,1.2-.11,1.52-.77a4,4,0,0,0-.08-3.55,1.28,1.28,0,0,0-.87-.75A1.1,1.1,0,0,0,218.93,76.1Z" style="fill:#BA68C8"></path><path d="M195.83,113.74a.56.56,0,0,0,.16.24.58.58,0,0,0,.39.08,2,2,0,0,0,1.47-1,3.4,3.4,0,0,0,.41-1.71,6.3,6.3,0,0,0-.28-2,.43.43,0,0,0-.12-.23.46.46,0,0,0-.21-.1,1.51,1.51,0,0,0-1.53.82A5.27,5.27,0,0,0,195.83,113.74Z" style="fill:#BA68C8"></path><path d="M225.1,120.43a.82.82,0,0,0-.6.5,1.77,1.77,0,0,0-.09.76,4.13,4.13,0,0,0,.52,1.73,1.1,1.1,0,0,0,.42.46c.69.38.94-.52.94-1a4,4,0,0,0-.31-1.48,2.06,2.06,0,0,0-.55-.89A.47.47,0,0,0,225.1,120.43Z" style="fill:#fafafa"></path><path d="M222.44,99.1a.81.81,0,0,0-.66.43,1.68,1.68,0,0,0-.19.73,4,4,0,0,0,.28,1.78,1.09,1.09,0,0,0,.35.51c.64.46,1-.4,1.07-.86a4.27,4.27,0,0,0-.11-1.51,2.13,2.13,0,0,0-.44-1A.41.41,0,0,0,222.44,99.1Z" style="fill:#fafafa"></path><path d="M219,76.29a.81.81,0,0,0-.66.43,1.69,1.69,0,0,0-.19.74,4,4,0,0,0,.28,1.78,1.14,1.14,0,0,0,.36.51c.63.46,1-.41,1.06-.87a4,4,0,0,0-.11-1.5,2.06,2.06,0,0,0-.43-.95A.42.42,0,0,0,219,76.29Z" style="fill:#fafafa"></path><path d="M206.71,119.77a.88.88,0,0,0-.67.43,1.75,1.75,0,0,0-.18.74,3.89,3.89,0,0,0,.29,1.78,1.12,1.12,0,0,0,.35.51c.64.46,1-.41,1.06-.87a4,4,0,0,0-.11-1.5,2.08,2.08,0,0,0-.44-1A.4.4,0,0,0,206.71,119.77Z" style="fill:#fafafa"></path><path d="M237.13,123.33a.82.82,0,0,0-.7.37,1.64,1.64,0,0,0-.26.72,4.16,4.16,0,0,0,.11,1.79,1.11,1.11,0,0,0,.3.54c.59.52,1-.32,1.15-.77a4,4,0,0,0,0-1.51,2,2,0,0,0-.34-1A.41.41,0,0,0,237.13,123.33Z" style="fill:#fafafa"></path><path d="M226.9,87.54a.8.8,0,0,0-.54.56,1.58,1.58,0,0,0,0,.75,4.21,4.21,0,0,0,.7,1.68,1.17,1.17,0,0,0,.46.42c.73.31.89-.61.84-1.07a4.07,4.07,0,0,0-.47-1.44,2,2,0,0,0-.65-.83A.41.41,0,0,0,226.9,87.54Z" style="fill:#fafafa"></path><path d="M196.52,109.61a.85.85,0,0,0-.73.32,1.68,1.68,0,0,0-.32.69,4.06,4.06,0,0,0-.05,1.8,1.1,1.1,0,0,0,.25.56c.55.56,1.07-.23,1.21-.67a4.28,4.28,0,0,0,.17-1.51,2,2,0,0,0-.26-1A.42.42,0,0,0,196.52,109.61Z" style="fill:#fafafa"></path><path d="M230.56,78.17a.79.79,0,0,0-.46.63,1.63,1.63,0,0,0,.1.75,4.17,4.17,0,0,0,.92,1.57,1.23,1.23,0,0,0,.52.35c.77.22.79-.71.68-1.16a4.23,4.23,0,0,0-.66-1.37,2.24,2.24,0,0,0-.76-.74A.46.46,0,0,0,230.56,78.17Z" style="fill:#fafafa"></path><path d="M207.46,82.3a.84.84,0,0,0-.78.17,1.76,1.76,0,0,0-.46.62,4,4,0,0,0-.42,1.76,1,1,0,0,0,.13.6c.41.65,1.09,0,1.32-.44a4.15,4.15,0,0,0,.48-1.44,2,2,0,0,0,0-1A.4.4,0,0,0,207.46,82.3Z" style="fill:#fafafa"></path><path d="M213.36,89.08a.85.85,0,0,0-.73.31,1.66,1.66,0,0,0-.32.7,3.91,3.91,0,0,0-.07,1.8,1.1,1.1,0,0,0,.25.56c.54.56,1.06-.23,1.21-.67a4,4,0,0,0,.18-1.5,2.06,2.06,0,0,0-.24-1A.43.43,0,0,0,213.36,89.08Z" style="fill:#fafafa"></path><path d="M215.76,127.27a.83.83,0,0,0-.6.51,1.6,1.6,0,0,0-.09.75,4,4,0,0,0,.51,1.73,1.1,1.1,0,0,0,.42.46c.69.39.94-.52.94-1a4,4,0,0,0-.31-1.48,2.18,2.18,0,0,0-.55-.89A.44.44,0,0,0,215.76,127.27Z" style="fill:#fafafa"></path><path d="M231.64,106.78a.83.83,0,0,0-.6.51,1.59,1.59,0,0,0-.09.75,4.08,4.08,0,0,0,.51,1.73,1.17,1.17,0,0,0,.42.46c.69.39,1-.52,1-1a4.45,4.45,0,0,0-.31-1.48,2.21,2.21,0,0,0-.56-.89A.44.44,0,0,0,231.64,106.78Z" style="fill:#fafafa"></path><path d="M214.5,110.12a.86.86,0,0,0-.71.36,1.81,1.81,0,0,0-.27.71,4.05,4.05,0,0,0,.07,1.8,1.27,1.27,0,0,0,.29.55c.58.52,1.05-.3,1.16-.75a4.27,4.27,0,0,0,.07-1.51,2.15,2.15,0,0,0-.32-1A.42.42,0,0,0,214.5,110.12Z" style="fill:#fafafa"></path><path d="M244.11,113.25a.85.85,0,0,0-.6.51,1.6,1.6,0,0,0-.08.75,3.9,3.9,0,0,0,.51,1.73,1.1,1.1,0,0,0,.42.46c.69.39.94-.52.94-1a4,4,0,0,0-.31-1.48,2.18,2.18,0,0,0-.55-.89A.47.47,0,0,0,244.11,113.25Z" style="fill:#fafafa"></path><path d="M205.21,100.55a.83.83,0,0,0-.73.33,1.75,1.75,0,0,0-.3.7,4.2,4.2,0,0,0,0,1.8,1.17,1.17,0,0,0,.27.56c.56.54,1.06-.26,1.19-.71a3.8,3.8,0,0,0,.13-1.5,2.05,2.05,0,0,0-.27-1A.44.44,0,0,0,205.21,100.55Z" style="fill:#fafafa"></path><path d="M237.89,95.42a.79.79,0,0,0-.51.58,1.63,1.63,0,0,0,0,.76,4.17,4.17,0,0,0,.78,1.63,1.26,1.26,0,0,0,.49.4c.75.28.85-.65.78-1.1a4,4,0,0,0-.54-1.42,2.16,2.16,0,0,0-.7-.8A.4.4,0,0,0,237.89,95.42Z" style="fill:#fafafa"></path><path d="M231.16,111.4l-.5,0c-.94,0-.93.81-.53,1.4a2.34,2.34,0,0,0,1.15.85,4.15,4.15,0,0,0,4.58-1.47,4.93,4.93,0,0,0,.45-4.72c-.67-1.65-2.84-1.76-2.58.34a7.43,7.43,0,0,1,.17,1.62,2.62,2.62,0,0,1-1,1.77A2.67,2.67,0,0,1,231.16,111.4Z" style="fill:#fff;opacity:0.25"></path><path d="M223,103.61c0-.35.28-.63.53-.89a3.53,3.53,0,0,0,1-2.22,2.62,2.62,0,0,0-1-2.18,11.58,11.58,0,0,1-1.19-.85,3,3,0,0,1-.26-2.94,3.4,3.4,0,0,1,1.69-2.34c1.32-.54,2.87.41,4.25,0a2.13,2.13,0,0,0,1.5-1.52,12.73,12.73,0,0,1,.2-1.26.78.78,0,0,1,1.41-.36,2.74,2.74,0,0,1,.27,3,7.16,7.16,0,0,1-2.19,2.4c-.44.33-.9.66-1.37,1a3.06,3.06,0,0,0-.88.71,1.87,1.87,0,0,0-.24,1.31c.07.45.23.87.34,1.31a5.06,5.06,0,0,1-.26,3.28,4.59,4.59,0,0,1-1.81,2C224.45,104.41,223,104.6,223,103.61Z" style="fill:#fff;opacity:0.25"></path><path d="M239.18,99.85A2.1,2.1,0,0,0,240.26,98a6,6,0,0,0-.49-2.15,1,1,0,0,1-.09-.7.83.83,0,0,1,1.12-.32,2.13,2.13,0,0,1,.84.94,5.1,5.1,0,0,1,.88,3.1c-.22,1.65-2.39,4-4.19,2.4C237.46,100.48,238.52,100.17,239.18,99.85Z" style="fill:#fff;opacity:0.25"></path><path d="M236.3,129a.8.8,0,0,0,.2.42c.53.59,1.63.33,2.26.09a8,8,0,0,0,5-5.55,6.71,6.71,0,0,1,.59-2,7.52,7.52,0,0,1,2.19-1.87,5.47,5.47,0,0,0,2-2.53,3.17,3.17,0,0,0-.45-3c-.32-.41-.95-.73-1.38-.43s-.3.92-.3,1.42a2.45,2.45,0,0,1-1.94,2.3c-.64.14-1.31,0-2,.12a3.58,3.58,0,0,0-2.62,1.94c-1.38,2.71.72,6.26-2.7,8.15C236.72,128.2,236.26,128.54,236.3,129Z" style="fill:#fff;opacity:0.25"></path></g></g></g></g><g id="freepik--Sparkles--inject-92"><path id="freepik--Shine--inject-92" d="M409.28,148.72a.39.39,0,0,0-.35-.38l-8.39-.93a1.91,1.91,0,0,1-1.69-1.72l-1-10.71a.39.39,0,0,0-.39-.35.37.37,0,0,0-.38.35l-1,10.71a1.91,1.91,0,0,1-1.68,1.72l-8.4.93a.39.39,0,0,0,0,.77l8.4.93a1.91,1.91,0,0,1,1.68,1.71l1,10.72a.37.37,0,0,0,.38.35.39.39,0,0,0,.39-.35l1-10.72a1.91,1.91,0,0,1,1.69-1.71l8.39-.93A.39.39,0,0,0,409.28,148.72Zm-8.83.55a2.68,2.68,0,0,0-2.37,2.41l-.58,6.44-.58-6.44a2.67,2.67,0,0,0-2.37-2.41l-4.92-.55,4.92-.54a2.68,2.68,0,0,0,2.37-2.42l.58-6.44.58,6.44a2.69,2.69,0,0,0,2.37,2.42l4.92.54ZM71,210.69l-6.2-.69a1.28,1.28,0,0,1-1.13-1.14L63,201a.42.42,0,0,0-.83,0l-.72,7.91A1.26,1.26,0,0,1,60.31,210l-6.2.69a.42.42,0,0,0,0,.83l6.2.69a1.26,1.26,0,0,1,1.12,1.14l.72,7.91a.42.42,0,0,0,.83,0l.71-7.91a1.28,1.28,0,0,1,1.13-1.14l6.2-.69a.42.42,0,0,0,0-.83Zm-6.15.7a2.26,2.26,0,0,0-2,2l-.32,3.5-.31-3.5a2.27,2.27,0,0,0-2-2l-2.59-.28,2.59-.29a2.27,2.27,0,0,0,2-2h0l.31-3.5.32,3.5a2.26,2.26,0,0,0,2,2l2.6.29Zm365.31-25-5.38-.6a1.21,1.21,0,0,1-1.08-1.1l-.62-6.87a.25.25,0,0,0-.5,0l-.62,6.87a1.21,1.21,0,0,1-1.08,1.1l-5.38.6a.25.25,0,0,0,0,.49l5.38.6a1.21,1.21,0,0,1,1.08,1.1l.62,6.87a.25.25,0,0,0,.5,0l.62-6.87a1.21,1.21,0,0,1,1.08-1.1l5.38-.6a.24.24,0,0,0,.22-.24A.24.24,0,0,0,430.18,186.36Zm-5.44.59a1.73,1.73,0,0,0-1.52,1.56l-.37,4.13-.37-4.13A1.73,1.73,0,0,0,421,187l-3.16-.34,3.16-.35a1.72,1.72,0,0,0,1.52-1.55l.37-4.13.37,4.13a1.72,1.72,0,0,0,1.52,1.55l3.16.35Zm14.74-75-9.68-1.07a2.18,2.18,0,0,1-1.93-2l-1.12-12.34a.45.45,0,0,0-.44-.41.46.46,0,0,0-.45.41l-1.11,12.34a2.18,2.18,0,0,1-1.94,2l-9.68,1.07a.45.45,0,0,0,0,.89l9.68,1.07a2.19,2.19,0,0,1,1.94,2l1.11,12.35a.45.45,0,0,0,.45.4.44.44,0,0,0,.44-.4l1.12-12.35a2.18,2.18,0,0,1,1.93-2l9.68-1.07a.45.45,0,0,0,0-.89ZM429.71,113a3.09,3.09,0,0,0-2.73,2.79l-.67,7.42-.67-7.42a3.09,3.09,0,0,0-2.73-2.79l-5.67-.62,5.67-.63a3.09,3.09,0,0,0,2.73-2.79l.67-7.42L427,109a3.09,3.09,0,0,0,2.73,2.79l5.66.63ZM160.81,62.57l-5.6-.62a1.16,1.16,0,0,1-1-1l-.64-7.14a.37.37,0,0,0-.38-.34.36.36,0,0,0-.37.34l-.65,7.14a1.15,1.15,0,0,1-1,1l-5.6.62a.38.38,0,0,0,0,.75l5.6.62a1.14,1.14,0,0,1,1,1l.65,7.14a.37.37,0,0,0,.37.34.38.38,0,0,0,.38-.34l.64-7.15a1.15,1.15,0,0,1,1-1l5.6-.62a.38.38,0,0,0,0-.75Zm-5.68.62a1.9,1.9,0,0,0-1.69,1.72l-.27,3-.26-3a1.9,1.9,0,0,0-1.69-1.72L149,62.94l2.19-.24A1.91,1.91,0,0,0,152.91,61h0l.26-3,.27,3a1.91,1.91,0,0,0,1.69,1.72l2.19.24Zm191.42,39.22-5.6-.62a1.14,1.14,0,0,1-1-1l-.65-7.14a.38.38,0,0,0-.75,0l-.65,7.14a1.15,1.15,0,0,1-1,1l-5.6.62a.38.38,0,0,0,0,.75l5.6.62a1.14,1.14,0,0,1,1,1l.65,7.14a.38.38,0,0,0,.75,0l.65-7.14a1.14,1.14,0,0,1,1-1l5.6-.62a.38.38,0,0,0,0-.75Zm-5.68.62a1.91,1.91,0,0,0-1.69,1.72l-.26,3-.27-3A1.91,1.91,0,0,0,337,103l-2.19-.25,2.19-.24a1.91,1.91,0,0,0,1.69-1.72h0l.27-3,.26,3a1.91,1.91,0,0,0,1.69,1.72l2.19.24ZM319.68,74.47l-8-.88A1.82,1.82,0,0,1,310.1,72l-.92-10.19a.37.37,0,0,0-.37-.33.35.35,0,0,0-.36.33L307.53,72a1.83,1.83,0,0,1-1.6,1.64l-8,.88a.37.37,0,0,0,0,.73l8,.88a1.82,1.82,0,0,1,1.6,1.64l.92,10.18a.36.36,0,0,0,.36.34.38.38,0,0,0,.37-.34l.92-10.18a1.81,1.81,0,0,1,1.6-1.64l8-.88a.37.37,0,0,0,0-.73Zm-8.06.88a2.56,2.56,0,0,0-2.26,2.3l-.55,6.12-.55-6.12a2.55,2.55,0,0,0-2.25-2.3l-4.68-.52,4.68-.51a2.55,2.55,0,0,0,2.25-2.3l.55-6.12.55,6.12a2.56,2.56,0,0,0,2.26,2.3l4.67.51ZM71.13,121.78l-6.28-.7a1.27,1.27,0,0,1-1.14-1.16l-.72-8a.43.43,0,0,0-.43-.39.42.42,0,0,0-.42.39l-.72,8a1.29,1.29,0,0,1-1.14,1.16l-6.28.7a.42.42,0,0,0,0,.84l6.28.7a1.29,1.29,0,0,1,1.14,1.16l.72,8a.42.42,0,0,0,.42.39.43.43,0,0,0,.43-.39l.72-8a1.27,1.27,0,0,1,1.14-1.16l6.28-.7a.42.42,0,0,0,0-.84Zm-6,.73a2.48,2.48,0,0,0-2.19,2.24l-.35,3.84-.34-3.84A2.49,2.49,0,0,0,60,122.51l-2.85-.31,2.85-.31a2.49,2.49,0,0,0,2.19-2.24h0l.34-3.84.35,3.84a2.48,2.48,0,0,0,2.19,2.24l2.85.31ZM111.74,164,102.06,163a2.2,2.2,0,0,1-1.94-2L99,148.63a.45.45,0,0,0-.89,0L97,161a2.2,2.2,0,0,1-1.94,2L85.39,164a.44.44,0,0,0,0,.88L95.07,166A2.2,2.2,0,0,1,97,168l1.11,12.35a.45.45,0,0,0,.89,0L100.12,168a2.2,2.2,0,0,1,1.94-2l9.68-1.07a.44.44,0,0,0,0-.88ZM102,165.09a3.11,3.11,0,0,0-2.73,2.79l-.66,7.42-.67-7.42a3.11,3.11,0,0,0-2.73-2.79l-5.67-.62,5.67-.63a3.09,3.09,0,0,0,2.73-2.78l.67-7.42.66,7.42a3.09,3.09,0,0,0,2.73,2.78l5.67.63Z" style="fill:#BA68C8;opacity:0.30000000000000004"></path></g></svg>
