<svg xmlns="http://www.w3.org/2000/svg" preserveAspectRatio="none" fill="#fff" fill-rule="evenodd" viewBox="0 0 1000 320"><path d="M1000 100L537.139 285.144a99.994 99.994 0 01-74.278 0L0 100v220h1000V100z"/><path fill-opacity=".5" d="M0 100V50l455.279 227.639a99.995 99.995 0 0089.442 0L1000 50v50L537.139 285.144a99.994 99.994 0 01-74.278 0L0 100z"/><path fill-opacity=".2" d="M0 0v50l455.279 227.639a99.995 99.995 0 0089.442 0L1000 50V0L551.45 269.13c-31.669 19.001-71.231 19.001-102.9 0L0 0z"/></svg>