<svg xmlns="http://www.w3.org/2000/svg" viewBox="0 0 750 500"><g id="freepik--background-complete--inject-4"><rect x="182.12" y="263.06" width="49.67" height="13.14" style="fill:#f5f5f5"></rect><path d="M704.12,189.85A11.5,11.5,0,0,0,708.5,178c-1.35-6.21-7.16-10.21-13-8.95s-9.44,7.32-8.09,13.52a11.5,11.5,0,0,0,9,9c-15.66,6-11,23.48-11,23.48l38.35-8.33S720.71,188.71,704.12,189.85Z" style="fill:#ebebeb"></path><path d="M704.11,317.38a1.41,1.41,0,0,1,0-.25c0-.19,0-.42,0-.7,0-.65,0-1.52,0-2.63,0-2.31-.06-5.56-.1-9.56l.18.18-31.66.08.26-.26h0V311c0,2.2,0,4.33,0,6.38l-.25-.25,22.64.12,6.6.07,1.78,0,.64,0a4,4,0,0,1-.58,0l-1.73,0-6.54.07-22.81.12h-.25v-.25q0-3.08,0-6.38v-6.74h0l.26-.26,31.66.08h.19v.18c0,4.05-.07,7.34-.1,9.67,0,1.09,0,2,0,2.59A7,7,0,0,1,704.11,317.38Z" style="fill:#ebebeb"></path><path d="M699.28,330.79a2.07,2.07,0,0,1,0-.23l0-.68q0-.93,0-2.58c0-2.27-.05-5.53-.09-9.64l.15.15-49.66.1.25-.25h0v6.65c0,2.19,0,4.35,0,6.46l-.24-.24,35.39.11,10.45.07,2.82,0,.74,0h.26s-.07,0-.23,0l-.7,0-2.78,0-10.39.07-35.56.11h-.25v-6.71c0-1.1,0-2.2,0-3.31v-3.34h0l.26-.26,49.66.1h.16v.16c0,4.15-.07,7.44-.09,9.73,0,1.09,0,1.94,0,2.55,0,.26,0,.48,0,.65S699.29,330.8,699.28,330.79Z" style="fill:#e0e0e0"></path><rect x="54.88" y="335.68" width="49.67" height="13.14" style="fill:#f5f5f5"></rect><path d="M83.54,362.66s0-.09,0-.24l0-.68c0-.62,0-1.48,0-2.58,0-2.27,0-5.53-.08-9.64l.15.15-49.66.1.25-.25h0v6.65c0,2.2,0,4.35,0,6.47l-.25-.25,35.4.11,10.45.07,2.82,0,.74,0a.76.76,0,0,1,.26,0h-.23l-.71,0-2.77,0-10.39.07-35.57.11h-.24v-.24c0-2.12,0-4.27,0-6.47v-6.65h0l.26-.26,49.66.1h.16v.16c0,4.15-.06,7.44-.08,9.73,0,1.09,0,1.94,0,2.55,0,.27,0,.48,0,.65A.85.85,0,0,1,83.54,362.66Z" style="fill:#e0e0e0"></path><rect x="510.09" y="351.03" width="49.67" height="13.14" style="fill:#f5f5f5"></rect><path d="M538.76,378a1.35,1.35,0,0,1,0-.24l0-.68c0-.61,0-1.48,0-2.58,0-2.27-.05-5.53-.09-9.64l.16.15-49.67.1.25-.25h0V378l-.25-.25,35.39.11,10.45.07,2.83,0,.73,0,.27,0h-.23l-.71,0-2.77,0-10.39.07-35.57.11h-.25V364.89h0l.25-.26,49.67.1h.15v.16c0,4.15-.06,7.44-.08,9.73,0,1.09,0,1.94,0,2.55,0,.27,0,.48,0,.65A1.66,1.66,0,0,1,538.76,378Z" style="fill:#e0e0e0"></path><path d="M386.61,414.87s0-.09,0-.25,0-.41,0-.69c0-.65,0-1.53-.05-2.64,0-2.3-.06-5.56-.1-9.56l.18.19L355,402c-.24.24.31-.31.26-.25h0v3.39c0,1.13,0,2.25,0,3.34,0,2.2,0,4.34,0,6.38l-.24-.25,22.63.12,6.61.07,1.78,0,.63,0a3.75,3.75,0,0,1-.57,0l-1.73,0-6.55.06-22.8.12h-.25v-.25c0-2,0-4.18,0-6.38v-6.73h0c-.06.05.49-.5.26-.27l31.65.08h.19v.18c0,4-.08,7.34-.1,9.67,0,1.09,0,2-.05,2.6A5,5,0,0,1,386.61,414.87Z" style="fill:#ebebeb"></path><path d="M381.79,428.29a1.35,1.35,0,0,1,0-.24v-.67c0-.62,0-1.48,0-2.59,0-2.27-.05-5.53-.09-9.64l.16.15-49.67.1c.12-.11-.25.26.25-.25h0v13.12l-.25-.25,35.4.11,10.44.07,2.83,0h.74l.26,0-.23,0h-.71l-2.77,0-10.39.07-35.57.12h-.25V415.17h0l.25-.25,49.67.1h.15v.15c0,4.15-.06,7.44-.08,9.73,0,1.09,0,1.94,0,2.55,0,.27,0,.48,0,.65A1.66,1.66,0,0,1,381.79,428.29Z" style="fill:#e0e0e0"></path><rect x="426.78" y="277.3" width="49.67" height="13.14" style="fill:#f5f5f5"></rect><circle cx="633.68" cy="64.41" r="33.28" style="fill:#e0e0e0"></circle><path d="M603.64,62.37a30.3,30.3,0,1,1,28.24,32.22A30.3,30.3,0,0,1,603.64,62.37Z" style="fill:#fff"></path><path d="M647.75,64.9a6.55,6.55,0,0,1-1.07.07l-2.95.06c-2.5,0-6,.06-9.91.06h-.19V62.93c0-4.38,0-8.36,0-11.23,0-1.39.05-2.54.07-3.41a9,9,0,0,1,.07-1.25,6.63,6.63,0,0,1,.08,1.25c0,.87,0,2,.06,3.41,0,2.87.06,6.85.06,11.23v2l-.2-.2c3.93,0,7.41,0,9.91.07l2.95.06A5.37,5.37,0,0,1,647.75,64.9Z" style="fill:#e0e0e0"></path><path d="M633.92,38.65a8.88,8.88,0,0,1,.19,2.54,8.92,8.92,0,0,1-.19,2.55,8.31,8.31,0,0,1-.2-2.55A8.27,8.27,0,0,1,633.92,38.65Z" style="fill:#e0e0e0"></path><path d="M647.72,42.73a8.06,8.06,0,0,1-1.64,1.92,7.73,7.73,0,0,1-1.91,1.63,8.68,8.68,0,0,1,1.64-1.91A8.43,8.43,0,0,1,647.72,42.73Z" style="fill:#e0e0e0"></path><path d="M655.79,51.55A10.43,10.43,0,0,1,653.7,53a10.34,10.34,0,0,1-2.2,1.21,11.21,11.21,0,0,1,4.29-2.61Z" style="fill:#e0e0e0"></path><path d="M660.52,64.64a31.78,31.78,0,0,1-6.94,0,30.2,30.2,0,0,1,6.94,0Z" style="fill:#e0e0e0"></path><path d="M612.4,64.17a27,27,0,0,1-6.56,0,28.41,28.41,0,0,1,6.56,0Z" style="fill:#e0e0e0"></path><path d="M615.8,73.91a14.18,14.18,0,0,1-2.47,2.25,13.83,13.83,0,0,1-2.73,1.94,15.2,15.2,0,0,1,2.48-2.24A14.48,14.48,0,0,1,615.8,73.91Z" style="fill:#e0e0e0"></path><path d="M624.2,81.45a22.18,22.18,0,0,1-1.69,2.92,21.16,21.16,0,0,1-1.79,2.86,11.38,11.38,0,0,1,1.46-3.06A10.77,10.77,0,0,1,624.2,81.45Z" style="fill:#e0e0e0"></path><path d="M633.92,91.17a15.36,15.36,0,0,1-.2-3.48,15.3,15.3,0,0,1,.2-3.47,16.44,16.44,0,0,1,.19,3.47A16.5,16.5,0,0,1,633.92,91.17Z" style="fill:#e0e0e0"></path><path d="M648.87,86.54A14.88,14.88,0,0,1,643.68,82a31.42,31.42,0,0,1,2.59,2.28A29.26,29.26,0,0,1,648.87,86.54Z" style="fill:#e0e0e0"></path><path d="M655.89,79a12.25,12.25,0,0,1-2.29-2,11.38,11.38,0,0,1-2-2.3,12.71,12.71,0,0,1,2.29,2A11.38,11.38,0,0,1,655.89,79Z" style="fill:#e0e0e0"></path><path d="M615.48,54.84a9.41,9.41,0,0,1-2-1.75,8.76,8.76,0,0,1-1.75-2,9.78,9.78,0,0,1,2,1.75A9.24,9.24,0,0,1,615.48,54.84Z" style="fill:#e0e0e0"></path><path d="M624.15,45.72a9.17,9.17,0,0,1-2-1.71,8.68,8.68,0,0,1-1.71-2,9.26,9.26,0,0,1,2,1.71A8.89,8.89,0,0,1,624.15,45.72Z" style="fill:#e0e0e0"></path><path d="M607.06,64.37a30.12,30.12,0,0,1,28.33-30.06c-.59,0-1.19-.06-1.79-.06a30.12,30.12,0,0,0,0,60.24c.6,0,1.2,0,1.79-.06A30.12,30.12,0,0,1,607.06,64.37Z" style="fill:#f5f5f5"></path><path d="M603.64,62.37s0,.17,0,.49,0,.82,0,1.44c0,.32,0,.67,0,1.06s.07.82.11,1.28.09,1,.14,1.49a13.85,13.85,0,0,0,.28,1.67A29,29,0,0,0,607,78.05a30.08,30.08,0,0,0,7.1,9l1.24,1.06c.43.33.9.64,1.35,1s.91.68,1.42,1l1.51.85.77.43.81.36,1.66.73c.56.22,1.15.39,1.74.59a17.6,17.6,0,0,0,1.79.53,27.68,27.68,0,0,0,3.78.69c.65.06,1.3.17,2,.2l2,0c.34,0,.68,0,1,0l1-.09c.67-.06,1.36-.1,2-.19a31.59,31.59,0,0,0,4.09-.91l1-.3.51-.16.5-.2,2-.81c.66-.3,1.3-.66,2-1,.32-.17.66-.32,1-.52l.93-.61a33.47,33.47,0,0,0,3.6-2.67l1.64-1.58.41-.4.37-.44.75-.87.76-.88.67-1,.67-1,.33-.48c.1-.16.2-.34.29-.51.39-.68.78-1.36,1.16-2s.64-1.45,1-2.17a32.62,32.62,0,0,0,2.17-9.39,32,32,0,0,0-.93-9.59c-.22-.76-.44-1.52-.67-2.28s-.58-1.46-.88-2.19l-.22-.54-.27-.52-.54-1-.54-1-.63-1-.63-1-.31-.48-.36-.45-1.42-1.78a32.74,32.74,0,0,0-3.22-3.13l-.84-.72c-.28-.24-.6-.43-.89-.65-.61-.41-1.19-.85-1.8-1.24L647.9,37.7l-.47-.27-.49-.22-1-.43A32.12,32.12,0,0,0,642,35.34c-.66-.18-1.34-.31-2-.46l-1-.22c-.33-.07-.67-.09-1-.13l-2-.24c-.66,0-1.31,0-2,0a28.63,28.63,0,0,0-3.84.19,16.57,16.57,0,0,0-1.85.3c-.6.12-1.21.2-1.8.35l-1.73.51-.86.25-.82.32-1.61.65c-.54.2-1,.51-1.52.75s-1,.51-1.48.78l-1.36.88A30.22,30.22,0,0,0,609,47.27a28.83,28.83,0,0,0-3.87,7.8,13.57,13.57,0,0,0-.5,1.63c-.12.51-.23,1-.33,1.45s-.21.87-.28,1.25-.09.74-.13,1.05c-.08.63-.14,1.1-.18,1.43s-.07.49-.07.49a4.42,4.42,0,0,1,0-.49c0-.33.08-.81.15-1.43,0-.32.07-.67.11-1.06s.17-.8.26-1.26.2-.94.31-1.46.32-1.06.49-1.64a28.79,28.79,0,0,1,3.84-7.87A30.14,30.14,0,0,1,617.09,39l1.37-.9c.48-.27,1-.52,1.48-.79s1-.55,1.54-.76l1.62-.66.83-.33.86-.25,1.75-.52c.59-.15,1.2-.24,1.82-.36a14.14,14.14,0,0,1,1.86-.3,29.06,29.06,0,0,1,3.87-.21c.66,0,1.32,0,2,0l2,.23c.33.05.67.07,1,.14l1,.22c.67.15,1.35.27,2,.46a31.58,31.58,0,0,1,4,1.45l1,.43.49.22.47.27,1.9,1.07c.62.39,1.21.84,1.82,1.26.3.21.62.41.91.65l.85.73a35.81,35.81,0,0,1,3.26,3.15l1.43,1.8.36.46.32.48.64,1,.64,1,.54,1,.55,1,.27.52.23.55c.29.74.59,1.47.89,2.21s.45,1.54.68,2.31a32.69,32.69,0,0,1,.94,9.7,32.53,32.53,0,0,1-2.2,9.48c-.33.74-.65,1.47-1,2.2l-1.17,2.08c-.1.17-.19.34-.3.51l-.34.49-.67,1-.68,1-.76.89-.76.88-.38.44-.42.41L654,87.25a33.24,33.24,0,0,1-3.64,2.7l-.94.61a9.27,9.27,0,0,1-1,.53c-.66.34-1.3.7-2,1l-2,.81-.51.21-.51.15-1,.3a29.94,29.94,0,0,1-4.13.92c-.69.09-1.38.13-2.06.19l-1,.09c-.34,0-.68,0-1,0l-2,0c-.67,0-1.32-.15-2-.21a29.78,29.78,0,0,1-3.81-.71,16.35,16.35,0,0,1-1.81-.54c-.59-.21-1.18-.37-1.75-.6l-1.67-.74-.82-.37-.77-.43L618,90.27c-.51-.27-1-.64-1.42-1s-.92-.64-1.36-1l-1.25-1.07a30.13,30.13,0,0,1-7.11-9.14,28.94,28.94,0,0,1-2.78-8.3,16.36,16.36,0,0,1-.27-1.69c0-.53-.08-1-.12-1.49s-.08-.89-.09-1.28,0-.75,0-1.07c0-.62,0-1.1,0-1.44S603.64,62.37,603.64,62.37Z" style="fill:#e0e0e0"></path><path d="M369.58,343l-41.12-20a5.73,5.73,0,0,1-2.64-7.65l27.72-56.91a5.72,5.72,0,0,1,7.65-2.64l26.07,12.69,10.06,30.64L377.23,340.4A5.73,5.73,0,0,1,369.58,343Z" style="fill:#ebebeb"></path><path d="M387.26,268.51l-7.8,16a5.34,5.34,0,0,0,2.46,7.12l15.4,7.5Z" style="fill:#e0e0e0"></path><path d="M376.33,282.2c-.1.21-4.44-1.7-9.69-4.26s-9.43-4.8-9.33-5,4.44,1.7,9.7,4.26S376.43,282,376.33,282.2Z" style="fill:#fff"></path><path d="M384.21,297.24c-.1.2-7.19-3-15.83-7.25s-15.58-7.79-15.48-8,7.19,3,15.84,7.25S384.31,297,384.21,297.24Z" style="fill:#fff"></path><path d="M383.35,306.17c-.1.21-7.83-3.35-17.25-7.93s-17-8.48-16.88-8.69,7.82,3.35,17.25,7.94S383.45,306,383.35,306.17Z" style="fill:#fff"></path><path d="M379.87,313.31c-.1.2-7.82-3.35-17.24-7.94s-17-8.48-16.88-8.68,7.82,3.35,17.24,7.94S380,313.1,379.87,313.31Z" style="fill:#fff"></path><path d="M376.4,320.44c-.1.21-7.82-3.35-17.25-7.93s-17-8.48-16.88-8.69,7.82,3.35,17.25,7.94S376.5,320.24,376.4,320.44Z" style="fill:#fff"></path><path d="M372.92,327.58c-.1.2-7.82-3.35-17.24-7.94s-17-8.48-16.88-8.68,7.82,3.35,17.24,7.94S373,327.37,372.92,327.58Z" style="fill:#fff"></path><rect x="63.6" y="32.3" width="118.84" height="153.48" transform="translate(246.04 218.08) rotate(180)" style="fill:#e0e0e0"></rect><path d="M63.6,185.78a2.33,2.33,0,0,1,.33-.41l1-1.15,4-4.4.05,0h.07c10.33-.11,30.63-.18,53.94-.18s43.61.07,53.94.18H177l.05,0,4,4.4,1,1.15a2.33,2.33,0,0,1,.33.41,2.17,2.17,0,0,1-.39-.35L181,184.34l-4.12-4.29.12,0c-10.33.11-30.63.18-53.94.18s-43.61-.07-53.94-.18l.12,0-4.13,4.29L64,185.43A2.69,2.69,0,0,1,63.6,185.78Z" style="fill:#ebebeb"></path><path d="M182.44,32.3a2.33,2.33,0,0,1-.33.41l-1,1.15-4,4.4-.05.05H177c-10.33.11-30.63.18-53.94.18s-43.61-.07-53.94-.18H69L69,38.26l-4-4.4-1-1.15a2.33,2.33,0,0,1-.33-.41,2.69,2.69,0,0,1,.39.35l1.08,1.09L69.2,38,69.08,38c10.33-.11,30.63-.18,53.94-.18s43.61.07,53.94.18l-.12.05L181,33.74l1.09-1.09A2.17,2.17,0,0,1,182.44,32.3Z" style="fill:#ebebeb"></path><rect x="69.08" y="38.15" width="107.88" height="141.79" transform="translate(246.04 218.08) rotate(180)" style="fill:#fff"></rect><path d="M158.58,55.53c.19,0,.35,23.86.35,53.28s-.16,53.27-.35,53.27-.34-23.84-.34-53.27S158.39,55.53,158.58,55.53Z" style="fill:#e0e0e0"></path><path d="M155.21,55.53c.19,0,.34,23.86.34,53.28s-.15,53.27-.34,53.27-.34-23.84-.34-53.27S155,55.53,155.21,55.53Z" style="fill:#e0e0e0"></path><path d="M151.84,55.53c.19,0,.34,23.86.34,53.28s-.15,53.27-.34,53.27-.35-23.84-.35-53.27S151.65,55.53,151.84,55.53Z" style="fill:#e0e0e0"></path><path d="M148.46,55.53c.19,0,.35,23.86.35,53.28s-.16,53.27-.35,53.27-.34-23.84-.34-53.27S148.27,55.53,148.46,55.53Z" style="fill:#e0e0e0"></path><path d="M145.09,55.53c.19,0,.34,23.86.34,53.28s-.15,53.27-.34,53.27-.35-23.84-.35-53.27S144.9,55.53,145.09,55.53Z" style="fill:#e0e0e0"></path><path d="M141.71,55.53c.19,0,.35,23.86.35,53.28s-.16,53.27-.35,53.27-.34-23.84-.34-53.27S141.52,55.53,141.71,55.53Z" style="fill:#e0e0e0"></path><path d="M138.34,55.53c.19,0,.34,23.86.34,53.28s-.15,53.27-.34,53.27-.35-23.84-.35-53.27S138.15,55.53,138.34,55.53Z" style="fill:#e0e0e0"></path><path d="M135,55.53c.19,0,.35,23.86.35,53.28s-.16,53.27-.35,53.27-.34-23.84-.34-53.27S134.77,55.53,135,55.53Z" style="fill:#e0e0e0"></path><path d="M131.59,55.53c.19,0,.34,23.86.34,53.28s-.15,53.27-.34,53.27-.34-23.84-.34-53.27S131.4,55.53,131.59,55.53Z" style="fill:#e0e0e0"></path><path d="M128.22,55.53c.19,0,.34,23.86.34,53.28s-.15,53.27-.34,53.27-.35-23.84-.35-53.27S128,55.53,128.22,55.53Z" style="fill:#e0e0e0"></path><path d="M124.84,55.53c.19,0,.34,23.86.34,53.28s-.15,53.27-.34,53.27-.34-23.84-.34-53.27S124.65,55.53,124.84,55.53Z" style="fill:#e0e0e0"></path><path d="M121.47,55.53c.19,0,.34,23.86.34,53.28s-.15,53.27-.34,53.27-.35-23.84-.35-53.27S121.28,55.53,121.47,55.53Z" style="fill:#e0e0e0"></path><path d="M118.09,55.53c.19,0,.35,23.86.35,53.28s-.16,53.27-.35,53.27-.34-23.84-.34-53.27S117.9,55.53,118.09,55.53Z" style="fill:#e0e0e0"></path><path d="M114.72,55.53c.19,0,.34,23.86.34,53.28s-.15,53.27-.34,53.27-.35-23.84-.35-53.27S114.53,55.53,114.72,55.53Z" style="fill:#e0e0e0"></path><path d="M111.34,55.53c.19,0,.35,23.86.35,53.28s-.16,53.27-.35,53.27-.34-23.84-.34-53.27S111.15,55.53,111.34,55.53Z" style="fill:#e0e0e0"></path><path d="M108,55.53c.19,0,.34,23.86.34,53.28s-.15,53.27-.34,53.27-.35-23.84-.35-53.27S107.78,55.53,108,55.53Z" style="fill:#e0e0e0"></path><path d="M104.59,55.53c.19,0,.35,23.86.35,53.28s-.16,53.27-.35,53.27-.34-23.84-.34-53.27S104.4,55.53,104.59,55.53Z" style="fill:#e0e0e0"></path><path d="M101.22,55.53c.19,0,.34,23.86.34,53.28s-.15,53.27-.34,53.27-.34-23.84-.34-53.27S101,55.53,101.22,55.53Z" style="fill:#e0e0e0"></path><path d="M97.85,55.53c.19,0,.34,23.86.34,53.28s-.15,53.27-.34,53.27-.35-23.84-.35-53.27S97.66,55.53,97.85,55.53Z" style="fill:#e0e0e0"></path><path d="M94.47,55.53c.19,0,.35,23.86.35,53.28s-.16,53.27-.35,53.27-.34-23.84-.34-53.27S94.28,55.53,94.47,55.53Z" style="fill:#e0e0e0"></path><path d="M91.1,55.53c.19,0,.34,23.86.34,53.28s-.15,53.27-.34,53.27-.35-23.84-.35-53.27S90.91,55.53,91.1,55.53Z" style="fill:#e0e0e0"></path><path d="M87.72,55.53c.19,0,.35,23.86.35,53.28s-.16,53.27-.35,53.27-.34-23.84-.34-53.27S87.53,55.53,87.72,55.53Z" style="fill:#e0e0e0"></path></g><g id="freepik--Floor--inject-4"><path d="M688.39,474.43c0,.14-142.56.26-318.37.26s-318.41-.12-318.41-.26,142.53-.26,318.41-.26S688.39,474.28,688.39,474.43Z" style="fill:#263238"></path></g><g id="freepik--Board--inject-4"><rect x="305.55" y="43.83" width="241.03" height="199.52" style="fill:#fff"></rect><path d="M546.59,243.35c0-1.39-.07-79.28-.17-199.52l.17.16-241,0h0l.2-.19c0,72.22,0,140.39,0,199.52l-.18-.18,241,.18-241,.18h-.17v-.18c0-59.13,0-127.3,0-199.52v-.2h.22l241,0h.16v.17C546.65,164.07,546.59,242,546.59,243.35Z" style="fill:#263238"></path><path d="M518.88,97.69c0,.11-43.21.2-96.5.2s-96.51-.09-96.51-.2,43.2-.19,96.51-.19S518.88,97.58,518.88,97.69Z" style="fill:#e0e0e0"></path><path d="M518.88,119c0,.11-43.21.2-96.5.2s-96.51-.09-96.51-.2,43.2-.2,96.51-.2S518.88,118.9,518.88,119Z" style="fill:#e0e0e0"></path><path d="M518.88,140.32c0,.11-43.21.2-96.5.2s-96.51-.09-96.51-.2,43.2-.2,96.51-.2S518.88,140.21,518.88,140.32Z" style="fill:#e0e0e0"></path><path d="M518.88,161.63c0,.11-43.21.2-96.5.2s-96.51-.09-96.51-.2,43.2-.2,96.51-.2S518.88,161.52,518.88,161.63Z" style="fill:#e0e0e0"></path><path d="M518.88,182.94c0,.11-43.21.2-96.5.2s-96.51-.09-96.51-.2,43.2-.19,96.51-.19S518.88,182.83,518.88,182.94Z" style="fill:#e0e0e0"></path><path d="M518.88,204.26c0,.11-43.21.2-96.5.2s-96.51-.09-96.51-.2,43.2-.2,96.51-.2S518.88,204.15,518.88,204.26Z" style="fill:#e0e0e0"></path><rect x="444.38" y="163.46" width="19.23" height="61.91" style="fill:#455a64"></rect><rect x="480.69" y="143" width="19.23" height="82.37" style="fill:#455a64"></rect><rect x="343.16" y="196.39" width="19.23" height="28.98" style="fill:#455a64"></rect><rect x="374.97" y="187.74" width="19.23" height="37.63" style="fill:#455a64"></rect><rect x="407.94" y="176.8" width="19.23" height="48.57" style="fill:#455a64"></rect><path d="M546.69,54.89H305.53a7.36,7.36,0,0,1-7.36-7.36h0a7.35,7.35,0,0,1,7.36-7.35H546.69A7.35,7.35,0,0,1,554,47.53h0A7.36,7.36,0,0,1,546.69,54.89Z" style="fill:#263238"></path><path d="M520.63,225.37l-.88,0-2.6,0-10,0-36.7.06-121.1.06H325.24v-.2c0-41.69.05-78.53.06-104.95,0-13.2.05-23.8.06-31.11,0-3.64,0-6.46,0-8.38,0-1,0-1.68,0-2.17s0-.74,0-.74,0,.25,0,.74,0,1.22,0,2.17c0,1.92,0,4.74,0,8.38,0,7.31,0,17.91.06,31.11,0,26.42,0,63.26.07,105l-.2-.2h23.94l121.1.06,36.7.06,10,0,2.6,0C520.33,225.35,520.63,225.37,520.63,225.37Z" style="fill:#263238"></path><path d="M335,89.22a57.1,57.1,0,0,1-9.55,0,57.1,57.1,0,0,1,9.55,0Z" style="fill:#263238"></path><path d="M335,109.5a57.1,57.1,0,0,1-9.55,0,57.1,57.1,0,0,1,9.55,0Z" style="fill:#263238"></path><path d="M335,129.77a57.1,57.1,0,0,1-9.55,0,57.1,57.1,0,0,1,9.55,0Z" style="fill:#263238"></path><path d="M335,150.05a57.1,57.1,0,0,1-9.55,0,57.1,57.1,0,0,1,9.55,0Z" style="fill:#263238"></path><path d="M335,170.32a57.1,57.1,0,0,1-9.55,0,57.1,57.1,0,0,1,9.55,0Z" style="fill:#263238"></path><path d="M335,190.6a57.1,57.1,0,0,1-9.55,0,57.1,57.1,0,0,1,9.55,0Z" style="fill:#263238"></path></g><g id="freepik--Plant--inject-4"><path d="M433.63,437.13s-4.85-33.38-4.45-52.8,0-41.27,0-41.27h2.24s-1.52,38.55.13,61.8,6,32.27,6,32.27h-3.89" style="fill:#263238"></path><path d="M448.1,305.5a5.9,5.9,0,0,0-2-3c-1.42-.9-3.28-.53-4.87,0-6.76,2.39-12.75,15-15.48,21.63l9,30.24C450.88,339.39,453.69,319.67,448.1,305.5Z" style="fill:#455a64"></path><path d="M445.53,303.74a1.53,1.53,0,0,1-.13.39c-.11.29-.26.66-.44,1.11-.39.95-.94,2.33-1.6,4.05-1.32,3.43-3,8.23-4.51,13.64s-2.53,10.4-3.17,14c-.32,1.81-.56,3.28-.71,4.3-.08.48-.15.87-.2,1.17a1.58,1.58,0,0,1-.09.41,2.64,2.64,0,0,1,0-.42c0-.31.07-.7.12-1.18.11-1,.31-2.5.6-4.32a130,130,0,0,1,3.07-14.08,132.08,132.08,0,0,1,4.62-13.64c.7-1.7,1.29-3.08,1.72-4,.21-.44.37-.79.5-1.08A2.14,2.14,0,0,1,445.53,303.74Z" style="fill:#263238"></path><path d="M430.69,361.67c-8.41-4.65-13.37-13.4-13.83-23-.32-6.71,1.74-13.29,4.07-19.59a2.52,2.52,0,0,1,1-1.42,2.41,2.41,0,0,1,2.29.35c6.11,3.49,9.82,10.12,11.79,16.87a34.06,34.06,0,0,1,1.38,13.88,23.06,23.06,0,0,1-6.66,12.91" style="fill:#455a64"></path><path d="M430.69,361.67a2.18,2.18,0,0,1,0-.41c0-.3,0-.69,0-1.16,0-1-.05-2.46-.13-4.26a115.63,115.63,0,0,0-1.56-14c-.93-5.42-2.07-10.27-2.9-13.77-.41-1.72-.75-3.13-1-4.16-.1-.45-.19-.83-.25-1.13a1.73,1.73,0,0,1-.07-.4,2,2,0,0,1,.14.38c.08.3.19.67.32,1.12.28,1,.66,2.38,1.11,4.12.9,3.49,2.08,8.34,3,13.78a101.23,101.23,0,0,1,1.45,14c.05,1.8.05,3.26,0,4.27,0,.47,0,.86,0,1.16A1.2,1.2,0,0,1,430.69,361.67Z" style="fill:#263238"></path><g style="opacity:0.30000000000000004"><path d="M430.69,361.67c-8.41-4.65-13.37-13.4-13.83-23-.32-6.71,1.74-13.29,4.07-19.59a2.52,2.52,0,0,1,1-1.42,2.41,2.41,0,0,1,2.29.35c6.11,3.49,9.82,10.12,11.79,16.87a34.06,34.06,0,0,1,1.38,13.88,23.06,23.06,0,0,1-6.66,12.91"></path></g><path d="M440.18,412.74c8.28,1.82,15.1,7.66,23.09,10.5,5.28,1.88,11.26,2.55,15.48,6.24-1-2.56-3.41-4.26-5.75-5.72a102.47,102.47,0,0,0-20.92-10c-3.76-1.3-7.83-2.39-11.66-1.32" style="fill:#455a64"></path><path d="M428.21,420.12c-10.37-.17-21.28-9-31.6-9.52,10.8-3.49,26.26-.64,31.6,9.52" style="fill:#455a64"></path><path d="M432.27,395.25a33.69,33.69,0,0,1,16.57-1.13,100.32,100.32,0,0,1,16.18,4.4c-.53-3.6-3.44-6.31-6.18-8.7a43,43,0,0,0-6.5-5,14.42,14.42,0,0,0-7.79-2.19A12.32,12.32,0,0,0,436,387a14.23,14.23,0,0,0-3.68,8.29" style="fill:#455a64"></path><path d="M411,383.8c-6.52-5.58-16.41-5-25-4.84a203.92,203.92,0,0,1,38.76,24.16C425.1,397.05,419.23,390.84,411,383.8Z" style="fill:#455a64"></path><g style="opacity:0.30000000000000004"><path d="M411,383.8c-6.52-5.58-16.41-5-25-4.84a203.92,203.92,0,0,1,38.76,24.16C425.1,397.05,419.23,390.84,411,383.8Z"></path></g><path d="M435.2,376.11a72.06,72.06,0,0,1,10-5.84c3.43-1.56,6.64-4,10-5.84,4.3-2.33,8-5.57,12-8.46s8.28-5.5,13.12-6.26a25.84,25.84,0,0,0-11.94.69,77.11,77.11,0,0,0-11.24,4.37c-5.09,2.3-10.27,4.65-14.44,8.37s-7.92,7.4-7.48,13" style="fill:#455a64"></path><path d="M463.08,420.12a1.44,1.44,0,0,1-.33-.14l-.9-.47c-.78-.42-1.91-1-3.32-1.74-.7-.37-1.47-.76-2.31-1.15s-1.74-.82-2.69-1.23a39.18,39.18,0,0,0-6.39-2.23,13.7,13.7,0,0,0-6.65-.17,20.4,20.4,0,0,0-2.82.84A14.57,14.57,0,0,0,435.4,415a14.9,14.9,0,0,0-2.86,2.36c-.6.65-.89,1-.92,1s.05-.11.19-.3a6.79,6.79,0,0,1,.62-.81,13.27,13.27,0,0,1,2.83-2.49,14.11,14.11,0,0,1,2.3-1.23,19.86,19.86,0,0,1,2.85-.89,13.88,13.88,0,0,1,6.82.14,37.48,37.48,0,0,1,6.43,2.27c1,.43,1.87.85,2.69,1.27s1.61.81,2.3,1.2c1.4.74,2.51,1.39,3.27,1.84l.87.53C463,420,463.09,420.11,463.08,420.12Z" style="fill:#263238"></path><path d="M420.48,415a2.88,2.88,0,0,1,.65.19,14.63,14.63,0,0,1,1.69.74,20.52,20.52,0,0,1,8.66,8.32,12.35,12.35,0,0,1,.8,1.66,2.74,2.74,0,0,1,.22.64c-.06,0-.45-.85-1.24-2.17a23,23,0,0,0-8.56-8.22C421.35,415.39,420.46,415,420.48,415Z" style="fill:#263238"></path><path d="M397.54,383.28a1.59,1.59,0,0,1,.44.13l1.24.44,2,.72c.76.29,1.59.71,2.53,1.12a60.34,60.34,0,0,1,13.5,8.6,66.33,66.33,0,0,1,6.3,6.2,68.91,68.91,0,0,1,4.46,5.66c1.19,1.68,2.08,3.08,2.7,4l.71,1.11a3,3,0,0,1,.23.4,1.82,1.82,0,0,1-.29-.35c-.18-.24-.45-.61-.77-1.08-.65-.94-1.58-2.31-2.79-4s-2.72-3.56-4.51-5.58a68.2,68.2,0,0,0-6.28-6.15,63.58,63.58,0,0,0-13.37-8.64c-.93-.43-1.75-.86-2.5-1.17l-1.94-.77-1.22-.51A2.2,2.2,0,0,1,397.54,383.28Z" style="fill:#263238"></path><path d="M447.82,389.42a4.41,4.41,0,0,1-.82-.11l-1-.17c-.37-.08-.8-.08-1.27-.13a13.1,13.1,0,0,0-7.13,1.41,12.91,12.91,0,0,0-3.24,2.41,14.85,14.85,0,0,0-2.08,2.57,23.73,23.73,0,0,0-1.43,2.72,3.32,3.32,0,0,1,.21-.81,12.13,12.13,0,0,1,1-2.05,14.23,14.23,0,0,1,2.07-2.67,12.58,12.58,0,0,1,3.31-2.5,12.72,12.72,0,0,1,7.32-1.34c.48.07.92.09,1.29.18l.95.24A3.19,3.19,0,0,1,447.82,389.42Z" style="fill:#263238"></path><path d="M458.24,357.09a2.37,2.37,0,0,1-.39.24l-1.15.63c-1,.54-2.46,1.34-4.22,2.38s-3.81,2.34-6,3.9a50.76,50.76,0,0,0-6.71,5.62,16.86,16.86,0,0,0-2.74,3.56c-.68,1.3-1.33,2.56-1.93,3.77a69.93,69.93,0,0,0-2.88,6.56,40.33,40.33,0,0,0-1.4,4.62c-.27,1.11-.36,1.73-.4,1.73a2.23,2.23,0,0,1,0-.46c0-.3.1-.74.22-1.3a35.29,35.29,0,0,1,1.29-4.68,64.16,64.16,0,0,1,2.82-6.62c.6-1.22,1.24-2.48,1.91-3.79a17.33,17.33,0,0,1,2.8-3.64,48.33,48.33,0,0,1,6.78-5.64c2.21-1.56,4.3-2.83,6.07-3.86s3.25-1.78,4.28-2.28l1.19-.57A2.7,2.7,0,0,1,458.24,357.09Z" style="fill:#263238"></path><path d="M429.17,388.48a3.5,3.5,0,0,1-.21-.87l-.45-2.4A61.33,61.33,0,0,0,423.59,370l-1-2.22a4.4,4.4,0,0,1-.34-.83,3.66,3.66,0,0,1,.47.77c.27.51.66,1.25,1.11,2.17a51.23,51.23,0,0,1,4.95,15.31c.16,1,.28,1.84.34,2.42A4.92,4.92,0,0,1,429.17,388.48Z" style="fill:#263238"></path><path d="M428.42,364.89a28.23,28.23,0,0,0-3.37-11.19A37,37,0,0,0,400,335l23.19,34.56,3,6.17C428.23,372.4,428.68,368.81,428.42,364.89Z" style="fill:#455a64"></path><rect x="407.76" y="433.01" width="53.92" height="9.56" style="fill:#FF725E"></rect><polygon points="411.79 440.67 416.59 474.9 452.39 474.9 457.65 440.67 411.79 440.67" style="fill:#FF725E"></polygon><path d="M461.65,442.57c0,.11-12.16.19-27.16.19s-27.16-.08-27.16-.19,12.16-.19,27.16-.19S461.65,442.47,461.65,442.57Z" style="fill:#263238"></path></g><g id="freepik--speech-bubble-3--inject-4"><path d="M673.09,75.13a26.63,26.63,0,0,0-26.24,40h0l-3.66,9.82,9.91-2.58a26.62,26.62,0,1,0,20-47.18Z" style="fill:#fff"></path><path d="M673.09,75.13l.46.05,1.34.21,1,.17,1.16.32,1.36.38,1.49.58a26.5,26.5,0,0,1,3.4,1.63l1.81,1.16c.62.42,1.21.93,1.85,1.42a26.63,26.63,0,0,1,9.6,21.36,28.3,28.3,0,0,1-.38,3.63c-.12.6-.19,1.22-.35,1.83s-.34,1.21-.52,1.82a26.53,26.53,0,0,1-3.42,7,28.52,28.52,0,0,1-5.63,6,27.88,27.88,0,0,1-7.53,4.12c-.7.21-1.38.5-2.1.66l-2.17.5-2.23.28c-.74.1-1.5.06-2.25.1a15.81,15.81,0,0,1-2.28-.09,19.59,19.59,0,0,1-2.28-.24,28.26,28.26,0,0,1-4.48-1.13,26.92,26.92,0,0,1-8-4.44l.23,0-9.91,2.57a.24.24,0,0,1-.31-.18.26.26,0,0,1,0-.15q1.89-5.05,3.67-9.82a.25.25,0,0,1,.32-.14.16.16,0,0,1,.08.06h0l-.38.29A26.53,26.53,0,0,1,643,103.26a24.28,24.28,0,0,1,.3-5.87,24.72,24.72,0,0,1,.59-2.77,22.28,22.28,0,0,1,.85-2.62,26.89,26.89,0,0,1,5.34-8.59,25.84,25.84,0,0,1,6.85-5.33c.29-.15.57-.32.85-.47l.87-.38c.58-.25,1.12-.53,1.68-.72a27.21,27.21,0,0,1,3.18-.94l1.45-.33c.47-.08.93-.12,1.37-.17l1.25-.15c.39,0,.77,0,1.13,0,.72,0,1.35,0,1.9,0L672,75l.84.08.28,0h-.28l-.84,0L670.59,75c-.54,0-1.17,0-1.88,0-.36,0-.74,0-1.13,0l-1.24.16c-.43.07-.88.11-1.35.2l-1.44.34a27.56,27.56,0,0,0-3.13,1c-.55.19-1.09.47-1.66.72l-.85.39c-.29.14-.56.31-.85.47a25.46,25.46,0,0,0-6.72,5.3,26.53,26.53,0,0,0-5.22,8.5,27,27,0,0,0-1.39,5.31,24.51,24.51,0,0,0-.29,5.77A26.33,26.33,0,0,0,647.06,115a.25.25,0,0,1-.08.34.24.24,0,0,1-.3,0h0l.4-.09L643.42,125l-.3-.34,9.91-2.58a.25.25,0,0,1,.22,0,26.47,26.47,0,0,0,7.84,4.35,28.07,28.07,0,0,0,4.4,1.11,21.1,21.1,0,0,0,2.23.24,16.69,16.69,0,0,0,2.23.08c.74,0,1.49,0,2.22-.09l2.18-.28,2.13-.48c.71-.16,1.37-.44,2.06-.65a26,26,0,0,0,12.93-9.93,26.17,26.17,0,0,0,3.39-6.9c.17-.61.34-1.2.51-1.8s.23-1.2.35-1.8a26.36,26.36,0,0,0-9-24.69c-.63-.48-1.2-1-1.81-1.42l-1.79-1.17A28.75,28.75,0,0,0,679.8,77l-1.47-.59L677,76l-1.15-.34c-.35-.08-.68-.13-1-.19l-1.33-.27Z" style="fill:#263238"></path><path d="M662,96.26h4a3.35,3.35,0,0,1,3.44-3.37,3.2,3.2,0,0,1,3.1,2,3.56,3.56,0,0,1-.28,3.2c-.67,1.1-2.14,2.11-4.8,1.64v8.9h3.9v-5.21A7.64,7.64,0,0,0,676.83,96c0-5.77-5.18-7.11-7.39-7.11C667.74,88.89,662,89.3,662,96.26Z" style="fill:#455a64"></path><rect x="667.44" y="110.51" width="3.96" height="3.7" style="fill:#455a64"></rect></g><g id="freepik--character-3--inject-4"><path d="M620.38,99.05l.56,44.75c.09,7.61-1.32,18.81-13.36,18.41h0c-10.42-1.13-13.19-11-13.27-18.1,0-3.37-.08-6.18-.1-6.52,0,0-11.41-.93-12.37-12.2-.47-5.44-.51-16.74-.43-26.95A21.07,21.07,0,0,1,600.94,77.6l1.09-.08C613.81,77.35,620.54,87.26,620.38,99.05Z" style="fill:#ffbf9d"></path><path d="M594.21,137.59a27.34,27.34,0,0,0,14.36-5.42s-3,8.5-14.3,8.31Z" style="fill:#ff9a6c"></path><path d="M600.67,103.05c.22.23,1.52-.81,3.41-.87s3.3.88,3.49.64-.13-.53-.75-1a4.71,4.71,0,0,0-2.8-.8,4.63,4.63,0,0,0-2.71,1C600.74,102.52,600.56,103,600.67,103.05Z" style="fill:#263238"></path><path d="M599.86,108.39a1.53,1.53,0,0,0,1.59,1.43,1.46,1.46,0,0,0,1.47-1.48,1.52,1.52,0,0,0-1.58-1.43A1.46,1.46,0,0,0,599.86,108.39Z" style="fill:#263238"></path><path d="M595.94,116.18a12.46,12.46,0,0,0-2.85-.3c-.45,0-.87-.07-1-.36a2.23,2.23,0,0,1,.2-1.34l1.06-3.46c1.47-4.93,2.5-9,2.3-9s-1.55,3.89-3,8.82c-.35,1.22-.69,2.37-1,3.48a2.62,2.62,0,0,0-.1,1.76,1.13,1.13,0,0,0,.78.59,3,3,0,0,0,.76,0A10.84,10.84,0,0,0,595.94,116.18Z" style="fill:#263238"></path><path d="M601.47,95c.18.42,1.69.11,3.5.2s3.3.49,3.51.09c.09-.19-.19-.58-.8-1a5.9,5.9,0,0,0-5.34-.22C601.7,94.46,601.39,94.82,601.47,95Z" style="fill:#263238"></path><path d="M583.54,97.85c.2.34,1.67,0,3.46-.09s3.27.17,3.45-.19c.09-.17-.21-.47-.83-.74a6.63,6.63,0,0,0-5.26.21C583.74,97.36,583.46,97.69,583.54,97.85Z" style="fill:#263238"></path><path d="M620.07,107.46c.19-.09,7.58-2.85,7.9,4.87s-7.51,6.45-7.53,6.23S620.07,107.46,620.07,107.46Z" style="fill:#ffbf9d"></path><path d="M622.68,115.54s.14.09.37.18a1.35,1.35,0,0,0,1,0c.8-.33,1.44-1.66,1.42-3a4.48,4.48,0,0,0-.46-1.91,1.53,1.53,0,0,0-1-1,.68.68,0,0,0-.78.4c-.1.22,0,.37-.08.39s-.17-.13-.13-.45a.91.91,0,0,1,.29-.5,1,1,0,0,1,.73-.22,1.88,1.88,0,0,1,1.46,1.14,4.58,4.58,0,0,1,.56,2.13c0,1.56-.73,3-1.83,3.42a1.47,1.47,0,0,1-1.24-.15C622.7,115.73,622.65,115.55,622.68,115.54Z" style="fill:#ff9a6c"></path><path d="M597.76,121.54c-.08-.2,1.43-.65,2.5-2.07a9.1,9.1,0,0,0,1.07-2c.22-.56.39-.91.47-.89s.06.41-.06,1a5.79,5.79,0,0,1-1,2.26,4.66,4.66,0,0,1-2,1.51C598.18,121.59,597.78,121.6,597.76,121.54Z" style="fill:#263238"></path><path d="M566.44,88.32a1.88,1.88,0,0,1,.86-1.06,5.67,5.67,0,0,1,2.88-.47,16.31,16.31,0,0,0,8.47-2.57,37.7,37.7,0,0,1,4-4.78c3.41-3.52,6.22-5.92,9.13-7.09,3.76-1.51,10-2.13,14-1.1s7.44,4.21,8,8.23c2.2-1.86,5.5-1.85,8.18-.77l.06,0c3,1.06,4.68,4.21,5.56,7.25s1.26,6.3,2.87,9c.33.57.73,1.26.44,1.85a1.25,1.25,0,0,1-1.32.57,3.63,3.63,0,0,1-1.39-.63c.34.8.67,1.6,1,2.39a7.11,7.11,0,0,1-3.24-.21,70.61,70.61,0,0,1-2.12,8,4.63,4.63,0,0,0-3.16.78c-1,.94-1.51,2.71-3.25,2-.88-.34-1.69-2.2-2-3.1A44,44,0,0,1,613.43,88a14.19,14.19,0,0,0-4.37-3.15l.13.12c-3.14-1.09-6.71-2.17-9.69-.69-2.32,1.15-3.68,3.55-5.42,5.47a17.66,17.66,0,0,1-12.6,5.82c-.17,3.17.1,7.66-.07,10.83l-2.67-5.08v0a10.73,10.73,0,0,1-.57-1.12l-.06-.11v0c-.28-.6-.55-1.2-.9-1.8l0,0a2,2,0,0,1-2.89-2.65,4.42,4.42,0,0,1,1-1,3.16,3.16,0,0,1-3,.78,2.47,2.47,0,0,1-1.74-2.44,2.07,2.07,0,0,1,1.25-1.67,7.13,7.13,0,0,1-4-.89C567,90.07,566.18,89.32,566.44,88.32Z" style="fill:#263238"></path><path d="M610.13,80.77a9.61,9.61,0,0,1,1.14,1A8.09,8.09,0,0,1,613,85.55a14,14,0,0,1,.29,2.86c0,1-.08,2.15-.16,3.32a32,32,0,0,0-.08,3.7,13.35,13.35,0,0,0,.25,1.95,4.1,4.1,0,0,0,.8,1.89,1.69,1.69,0,0,0,1.59.53,2.55,2.55,0,0,0,1.43-.81,5.78,5.78,0,0,0,1.09-2.86l-.24,0a9.47,9.47,0,0,0,1.37,2.36,3.37,3.37,0,0,0,2.19,1.19,2.2,2.2,0,0,0,1.17-.2,1.92,1.92,0,0,0,.79-.78,2,2,0,0,0,.23-1,1.3,1.3,0,0,0-.36-.87l-.12.1a7.42,7.42,0,0,0,2.42,1.82,7,7,0,0,0,.75.29l.27.07s-.08,0-.25-.11-.42-.17-.73-.33a7.45,7.45,0,0,1-2.33-1.84l-.12.1a1.46,1.46,0,0,1,.07,1.68,1.69,1.69,0,0,1-.71.69,2,2,0,0,1-1.06.17,3.15,3.15,0,0,1-2-1.14,8.93,8.93,0,0,1-1.32-2.31l-.16-.36-.08.39a5.63,5.63,0,0,1-1,2.74,2.23,2.23,0,0,1-1.28.72,1.42,1.42,0,0,1-1.36-.45,3.93,3.93,0,0,1-.73-1.77,12.66,12.66,0,0,1-.25-1.91,29.47,29.47,0,0,1,.07-3.66c.07-1.17.15-2.29.13-3.34a14.3,14.3,0,0,0-.32-2.9,8,8,0,0,0-1.84-3.77A4.51,4.51,0,0,0,610.13,80.77Z" style="fill:#455a64"></path><path d="M575.27,91.74l.09.07.28.21a3.71,3.71,0,0,0,.48.3,5.39,5.39,0,0,0,.69.37,10,10,0,0,0,4.82.86,12.69,12.69,0,0,0,6.8-2.51,22.06,22.06,0,0,0,5.84-6.73c.82-1.37,1.49-2.77,2.23-4.06A14.84,14.84,0,0,1,599,76.82a7.64,7.64,0,0,1,3.24-2,5.69,5.69,0,0,1,1.72-.2,6,6,0,0,1,1.56.3,6.49,6.49,0,0,1,2.35,1.42A6.37,6.37,0,0,1,609.17,78a7.72,7.72,0,0,1,.58,1.69,1.09,1.09,0,0,0,0-.12c0-.09,0-.21,0-.35a6.07,6.07,0,0,0-.43-1.27A6.53,6.53,0,0,0,608,76.26a6.63,6.63,0,0,0-2.39-1.48,6.05,6.05,0,0,0-1.62-.33,5.72,5.72,0,0,0-1.78.19,7.74,7.74,0,0,0-3.36,2,14.93,14.93,0,0,0-2.58,3.47c-.74,1.3-1.41,2.7-2.22,4a22.3,22.3,0,0,1-5.76,6.68,12.74,12.74,0,0,1-6.67,2.52,10.11,10.11,0,0,1-4.77-.78C575.79,92.12,575.29,91.7,575.27,91.74Z" style="fill:#455a64"></path><path d="M574.24,86.78a2,2,0,0,0,.41.29,8.23,8.23,0,0,0,1.2.6,11.59,11.59,0,0,0,1.89.63,14.47,14.47,0,0,0,2.42.32,13.42,13.42,0,0,0,2.44-.17,11,11,0,0,0,1.93-.5,8,8,0,0,0,1.24-.53,2.16,2.16,0,0,0,.42-.25s-.65.27-1.71.6a12.78,12.78,0,0,1-1.92.44,14,14,0,0,1-2.39.14,14.35,14.35,0,0,1-2.38-.29,13.81,13.81,0,0,1-1.88-.56C574.87,87.1,574.27,86.74,574.24,86.78Z" style="fill:#455a64"></path><path d="M583.46,103.05c.22.23,1.52-.81,3.41-.87s3.3.88,3.5.64-.14-.53-.75-1a4.74,4.74,0,0,0-2.81-.8,4.63,4.63,0,0,0-2.71,1C583.53,102.52,583.35,103,583.46,103.05Z" style="fill:#263238"></path><path d="M583.86,108.39a1.52,1.52,0,0,0,1.58,1.43,1.46,1.46,0,0,0,1.47-1.48,1.52,1.52,0,0,0-1.58-1.43A1.46,1.46,0,0,0,583.86,108.39Z" style="fill:#263238"></path><path d="M594.76,441.31l.83,21.85s-21.92,8.18-22.16,12.23l42.41-.09.11-34.09Z" style="fill:#263238"></path><path d="M608.71,461.29a1.74,1.74,0,0,1,1.2,2,1.66,1.66,0,0,1-1.95,1.2,1.82,1.82,0,0,1-1.26-2.09,1.72,1.72,0,0,1,2.16-1" style="fill:#e0e0e0"></path><path d="M615.84,475.3l-.12-3.44-40.62,1.37s-1.89.83-1.67,2.16Z" style="fill:#455a64"></path><path d="M594.91,462.94c0,.21,1,.3,2.06,1s1.57,1.54,1.76,1.46-.12-1.28-1.37-2.06S594.86,462.75,594.91,462.94Z" style="fill:#fff"></path><path d="M590.46,464.79c0,.2.85.55,1.56,1.43s.91,1.8,1.11,1.79.34-1.18-.56-2.25S590.47,464.59,590.46,464.79Z" style="fill:#fff"></path><path d="M588,470.12c.18,0,.47-1-.06-2.12s-1.51-1.59-1.59-1.41.51.77.93,1.71S587.74,470.1,588,470.12Z" style="fill:#fff"></path><path d="M595.27,457.94c.09.19,1-.1,2.21,0s2.08.44,2.19.27-.77-.92-2.15-1S595.17,457.78,595.27,457.94Z" style="fill:#fff"></path><path d="M646.69,438.34,649,464.69l-4.19,21.36a2.71,2.71,0,0,0,2.32,3.21h0a2.68,2.68,0,0,0,2.33-.85c3.78-4.12,17.61-19.35,17.33-21.27-.32-2.22-.57-27.95-.57-27.95Z" style="fill:#263238"></path><path d="M647.11,489.26l19.55-23.9.07,1.12a4.08,4.08,0,0,1-.8,2.7c-1.54,2.08-5.95,7.72-16.41,19.23a2.7,2.7,0,0,1-2.41.85Z" style="fill:#455a64"></path><g style="opacity:0.6000000000000001"><path d="M660.7,457.19a1.63,1.63,0,0,0-.31,2.17,1.57,1.57,0,0,0,2.14.33,1.74,1.74,0,0,0,.32-2.3,1.64,1.64,0,0,0-2.27-.09" style="fill:#fff"></path></g><path d="M652.4,477.34a5.85,5.85,0,0,0-5.52-2.29c0-.06.29-.29.9-.41a4.3,4.3,0,0,1,4.28,1.77C652.4,476.93,652.47,477.32,652.4,477.34Z" style="fill:#fff"></path><path d="M650.75,481a22.74,22.74,0,0,0-2.41-1,22,22,0,0,0-2.6-.16c-.09-.13,1.15-.77,2.73-.4S650.88,480.92,650.75,481Z" style="fill:#fff"></path><path d="M655.61,472.59a27,27,0,0,0-3.62-1.77,25.22,25.22,0,0,0-4-.66,7.42,7.42,0,0,1,7.59,2.43Z" style="fill:#fff"></path><path d="M655.58,464.52c-.06.16-1.56-.35-3.46-.3s-3.37.61-3.44.45a5.18,5.18,0,0,1,3.43-1A5.24,5.24,0,0,1,655.58,464.52Z" style="fill:#fff"></path><path d="M655.1,456.77a8.55,8.55,0,0,0-7,.7c-.05-.06.22-.41.8-.8a5.89,5.89,0,0,1,5.29-.52C654.81,456.42,655.14,456.71,655.1,456.77Z" style="fill:#fff"></path><path d="M651.46,454.88a2.39,2.39,0,0,1-.1-1,6.92,6.92,0,0,1,.63-2.67,3,3,0,0,1,1.22-1.55,1.08,1.08,0,0,1,1.24.16A1.77,1.77,0,0,1,655,451a3.84,3.84,0,0,1-3.13,3.75,4.44,4.44,0,0,1-4.5-2,1.53,1.53,0,0,1-.15-1.28,1.06,1.06,0,0,1,1.07-.63,3.84,3.84,0,0,1,1.8.79,7.55,7.55,0,0,1,1.93,1.94,2.38,2.38,0,0,1,.47.88,12.62,12.62,0,0,0-2.63-2.48,3.55,3.55,0,0,0-1.58-.65.57.57,0,0,0-.59.34,1.07,1.07,0,0,0,.15.84,4,4,0,0,0,3.93,1.72,3.33,3.33,0,0,0,2.69-3.15,1.26,1.26,0,0,0-.31-.83.6.6,0,0,0-.68-.1,2.78,2.78,0,0,0-1.06,1.3A10.31,10.31,0,0,0,651.46,454.88Z" style="fill:#fff"></path><path d="M574.33,257.16a94.15,94.15,0,0,0-2.05,27.62c.46,5.87,20.26,168.25,20.26,168.25h26.75l-7.52-152.62,2.19.48s14.6,65.09,15.79,75.63c1.07,9.47,13.38,78.29,13.38,78.29l24.45.28-7.81-91-9.08-87.34-3.42-25.42Z" style="fill:#263238"></path><path d="M612.74,290.06s0,.07-.17.18a1.78,1.78,0,0,1-.65.31,3.09,3.09,0,0,1-2.54-.6,5,5,0,0,1-1.73-3.46c-.19-1.45-.22-3-.33-4.67-.18-3.3-.31-6.29-.38-8.46a24.13,24.13,0,0,1,0-3.51,23.43,23.43,0,0,1,.37,3.49c.17,2.16.36,5.15.54,8.45.11,1.65.13,3.24.28,4.64a4.76,4.76,0,0,0,1.49,3.23,2.94,2.94,0,0,0,2.26.69A5.37,5.37,0,0,0,612.74,290.06Z" style="fill:#455a64"></path><path d="M652.09,274.36a2.66,2.66,0,0,1-.75.27,14.35,14.35,0,0,1-2.14.36,15.45,15.45,0,0,1-12.87-5.17,14.2,14.2,0,0,1-1.3-1.74,2.3,2.3,0,0,1-.35-.71c.08-.05.67.91,1.92,2.2a16.44,16.44,0,0,0,12.58,5.05C651,274.55,652.07,274.27,652.09,274.36Z" style="fill:#455a64"></path><path d="M585,267.56a8.66,8.66,0,0,1-.4,2.69,20.44,20.44,0,0,1-2.69,6,20.11,20.11,0,0,1-4.48,4.8,8.64,8.64,0,0,1-2.32,1.41A24.34,24.34,0,0,0,585,267.56Z" style="fill:#455a64"></path><path d="M635.6,196l10,9.62-3.22-18.41,20.27-6.41S668,206.06,669,212c1.68,10.72-.39,26-10.38,27-10.81,1.16-19-9.5-24.16-16.49-4-5.38-10.44-14.78-10.44-14.78L635.6,196" style="fill:#e0e0e0"></path><path d="M558.37,179.62c-3.25,10.25-7.8,11.8-9.59,41.13-.35,5.73.88,13.36,6.31,15.2,6,2.05,15.07-1.68,18-6.63l.18-20.2Z" style="fill:#e0e0e0"></path><path d="M571.81,222.48a43.94,43.94,0,0,0-2-4.31,40.27,40.27,0,0,0-2.75-3.87,4.13,4.13,0,0,1,1.05.94,15.81,15.81,0,0,1,3.4,5.86A4.44,4.44,0,0,1,571.81,222.48Z" style="fill:#263238"></path><path d="M553.47,191.43c.18-.6,10.18-27.84,13.37-33.8,3.82-7.13,11.85-10.28,16.83-10.59S642,151,642,151s14.94,3.76,18,17.27c3.79,16.95,6.84,33.66,6.84,33.66L640,207.68l-3.14-7.92L586.69,211l-12.27-18.14Z" style="fill:#e0e0e0"></path><path d="M645.5,152.54l-20.83-9.18-2.34-9L598,145.87l-5.09-5.63-2.13,6.34-5.33,1.74L575,169l-1.93,47.9-2.52,40.25,2.7,6.35,22.3,3.29a25.21,25.21,0,0,0,7.36,0l45.28-7.4,1.16-13.3-4.83-36.65Z" style="fill:#e0e0e0"></path><path d="M622.33,134.37s-2.71.79-9.69,4.51-14.62,7-14.62,7l.59,11,25.88-13" style="fill:#e0e0e0"></path><polyline points="592.93 140.24 598.02 145.87 595.3 157.63 590.77 147" style="fill:#e0e0e0"></polyline><g style="opacity:0.30000000000000004"><path d="M597.93,147.08c-.23.17-1.64,13.58-1.64,13.58L622.22,145l-23.61,11.85Z"></path></g><path d="M598.1,197.14c.39-10.26-1.22-36.43-1.22-36.43l-3.38-.55a381.67,381.67,0,0,0-8.68,56.62c-1,12.62-1,27.23-1,27.23l6.79,14.57,7.51-14.48S597.63,209.6,598.1,197.14Z" style="fill:#455a64"></path><path d="M639.34,176.72a7.13,7.13,0,0,1,.24,1.06c.14.75.31,1.73.53,2.91.43,2.53,1,5.9,1.65,9.62s1.21,7.16,1.58,9.64c.18,1.23.32,2.23.41,2.92a7.7,7.7,0,0,1,.11,1.09,6.27,6.27,0,0,1-.25-1.06c-.13-.75-.31-1.73-.52-2.91-.45-2.53-1-5.89-1.69-9.62s-1.18-7.16-1.55-9.64c-.16-1.18-.3-2.17-.41-2.92A5.47,5.47,0,0,1,639.34,176.72Z" style="fill:#263238"></path><path d="M647.05,154.12s-.71.63-1.76,1.71a21.15,21.15,0,0,0-5.49,10.23c-.32,1.47-.4,2.41-.46,2.41a2.09,2.09,0,0,1,0-.67,15.43,15.43,0,0,1,.22-1.79,19.21,19.21,0,0,1,5.56-10.36,13.42,13.42,0,0,1,1.38-1.16A2.25,2.25,0,0,1,647.05,154.12Z" style="fill:#263238"></path><polygon points="598.11 151.12 595.79 150.21 593.59 153.98 593.2 160.16 596.29 160.66 598.62 156.84 598.11 151.12" style="fill:#455a64"></polygon><path d="M573.06,169.52c.1,0,.18,13.39.18,29.9s-.08,29.9-.18,29.9-.18-13.38-.18-29.9S573,169.52,573.06,169.52Z" style="fill:#263238"></path><path d="M598.27,145.77s-.5.86-1.32,2.24-1.91,3.3-3,5.51l-.24.53-.16.35-.17-.35a41.6,41.6,0,0,1-2.16-5.48c-.23-.71-.39-1.29-.49-1.7a1.77,1.77,0,0,1-.11-.63c.05,0,.32.85.83,2.25s1.26,3.33,2.26,5.41h-.33l.25-.53a45.55,45.55,0,0,1,3.05-5.5c.44-.67.82-1.2,1.09-1.56A2.86,2.86,0,0,1,598.27,145.77Z" style="fill:#263238"></path><path d="M624.67,143.36l-.36.21-1,.55-3.86,2c-3.26,1.7-7.73,4.11-12.68,6.76-3,1.6-5.86,3.09-8.35,4.33l-.23.12v-.26c0-3.22-.06-5.93-.08-7.89,0-.93,0-1.67,0-2.23s0-.79,0-.79a4.44,4.44,0,0,1,.07.79c0,.56.05,1.3.08,2.22,0,2,.13,4.68.21,7.9l-.23-.14c2.47-1.27,5.31-2.77,8.33-4.37,4.94-2.65,9.43-5,12.72-6.67,1.65-.82,3-1.46,3.92-1.9l1.08-.49C624.53,143.4,624.66,143.34,624.67,143.36Z" style="fill:#263238"></path><path d="M576.19,151.81s-.36.73-.88,1.9a21.43,21.43,0,0,0-1.49,4.77,21.84,21.84,0,0,0-.31,5c.08,1.28.21,2.07.15,2.08a1.83,1.83,0,0,1-.16-.54,11.63,11.63,0,0,1-.24-1.52,18.13,18.13,0,0,1,1.82-9.89,13,13,0,0,1,.76-1.34A1.77,1.77,0,0,1,576.19,151.81Z" style="fill:#263238"></path><path d="M595.72,161.06c-.05.09-.64-.19-1.31-.62s-1.17-.83-1.12-.92.64.2,1.31.62S595.78,161,595.72,161.06Z" style="fill:#263238"></path><path d="M596.84,159.55a17.09,17.09,0,0,1-1.58-3.13,17.73,17.73,0,0,1-1.24-3.28,16.72,16.72,0,0,1,1.57,3.13A17.38,17.38,0,0,1,596.84,159.55Z" style="fill:#263238"></path><g style="opacity:0.30000000000000004"><path d="M604.85,206.86a2.34,2.34,0,0,0-.8-1.52c-.86-.56-1.93.18-2.81.7-2.32,1.38-5.19,1.33-7.88,1.22A199.3,199.3,0,0,1,569.09,205a36.82,36.82,0,0,1-11.4-3.39c-3.51-1.88-6.57-4.91-7.7-8.72l-1.88-1c1.46,3.1,1.31,11.89,1.83,15.27s2,5.81,5.28,6.86a11.5,11.5,0,0,0,4.1.29c13.37-.66,26.87-.06,40.24-.72,1.91-.1,4.12-.36,5.15-2C605.57,210.19,605.23,208.42,604.85,206.86Z"></path></g><g style="opacity:0.30000000000000004"><path d="M626.36,211.59h0c1,5.63,2.93,13.23,5.72,18.21h8.12C637.12,226,626.36,211.59,626.36,211.59Z"></path></g><path d="M638.4,201.19l-15.14-19.07-9.7-2.56-11.26.63a2.41,2.41,0,0,0,1.22,2.81l-4.14-.05a2.35,2.35,0,0,0,1.32,3.17l-3,.31a4.25,4.25,0,0,0,4.42,2.75,64,64,0,0,1,8.76,0l5.55,3.59-8.58-1-6.32.74s-.94,1.54.45,2,6.83.48,6.83.48l7.62,3s2.74,4.54,3.72,5.79,5.89,3.8,5.89,3.8l2.34,2.41Z" style="fill:#ffbf9d"></path><path d="M600.31,182.53a16.19,16.19,0,0,0,3.21.11c2,0,4.72-.09,7.74-.2l2.9-.12H614c2.19.78,4.09,1.44,5.45,1.88a9.36,9.36,0,0,0,2.21.61,9.56,9.56,0,0,0-2.08-1c-1.32-.55-3.19-1.28-5.37-2.1l0,0h-.06l-2.9.09c-3,.12-5.76.25-7.74.38A16.46,16.46,0,0,0,600.31,182.53Z" style="fill:#ff9a6c"></path><path d="M599.35,185.94a14.1,14.1,0,0,0,2.92,0c1.8-.07,4.28-.22,7-.43l2.72-.22-.15,0a49,49,0,0,0,6.61,2.87,49.33,49.33,0,0,0-6.34-3.42l-.08,0H612l-2.73.19c-2.73.21-5.2.43-7,.62A13.57,13.57,0,0,0,599.35,185.94Z" style="fill:#ff9a6c"></path><path d="M607,168.64l-37.47.24h0l-6.7-6.6a2.9,2.9,0,0,0-2.05-.84H545.29a1.64,1.64,0,0,0-1.63,1.74l2.17,35.21,61.82,11,1-39.05A1.63,1.63,0,0,0,607,168.64Z" style="fill:#FF725E"></path><polygon points="607.3 207.01 544.67 203.05 544.67 164.79 606.25 164.79 607.3 207.01" style="fill:#fafafa"></polygon><path d="M537.93,169.79l6.31,37.32a2.7,2.7,0,0,0,2.66,2.26h60.69a.06.06,0,0,0,0-.06L601.71,169a2.7,2.7,0,0,0-2.67-2.31H540.6A2.7,2.7,0,0,0,537.93,169.79Z" style="fill:#FF725E"></path><path d="M534.45,183.28a2.81,2.81,0,0,1,0-3.47,4.27,4.27,0,0,1,3.28-1.56,9.63,9.63,0,0,1,3.66.76,24.72,24.72,0,0,1,4.15,2.07,4,4,0,0,1,2.06,2.42c.18,1.08-1,2.31-1.94,1.76a4.58,4.58,0,0,1,2.68,3.19c.2,1.37-.53,2.1-1.85,2.49a2.06,2.06,0,0,1,1.18,2.63,2.34,2.34,0,0,1-2.95.9,6.87,6.87,0,0,1-2.58-2.16,6.35,6.35,0,0,1,.74,4.33,8.44,8.44,0,0,1-5.54-6.8,3.92,3.92,0,0,1-1.07-4.81,4,4,0,0,1-2.41-3.39" style="fill:#ffbf9d"></path><path d="M546.45,191a14,14,0,0,1-1.26-1,8.6,8.6,0,0,0-3.32-1.7,4.63,4.63,0,0,0-2,0,3.76,3.76,0,0,0-1.47.74,4.65,4.65,0,0,0-1,1.21s0-.16.11-.42a3,3,0,0,1,.7-1,3.82,3.82,0,0,1,1.55-.85,4.62,4.62,0,0,1,2.16,0,7.78,7.78,0,0,1,3.4,1.84A5.88,5.88,0,0,1,546.45,191Z" style="fill:#ff9a6c"></path><path d="M546.13,185.4a6.71,6.71,0,0,1-1.53-.64,16.44,16.44,0,0,0-1.63-.71,14.58,14.58,0,0,0-2.1-.55,6.11,6.11,0,0,0-2.13,0,4,4,0,0,0-1.58.69,3.87,3.87,0,0,0-1,1.23s0-.17.12-.44a2.85,2.85,0,0,1,.77-1,3.85,3.85,0,0,1,1.66-.8,5.82,5.82,0,0,1,2.24,0,12.44,12.44,0,0,1,2.15.58,13.15,13.15,0,0,1,1.63.79A12.28,12.28,0,0,1,546.13,185.4Z" style="fill:#ff9a6c"></path><path d="M660.39,217.49a2.94,2.94,0,0,1-.46-.3l-1.27-.92L654,212.78l-15.74-12,.33,0-4.7,4.3c-2.57,2.36-5.06,4.62-7.35,6.72l0-.34L637,225.24c1.25,1.68,2.26,3,3,4l.78,1.09a1.69,1.69,0,0,1,.25.4,2.31,2.31,0,0,1-.31-.35l-.85-1-3.12-3.94-10.63-13.68-.14-.18.17-.16,7.34-6.73,4.7-4.29.16-.15.17.13,15.64,12.14,4.57,3.62,1.22,1C660.26,217.35,660.4,217.47,660.39,217.49Z" style="fill:#263238"></path></g><g id="freepik--character-2--inject-4"><path d="M283.14,439.75,281.92,462s22.21,8.71,22.38,12.85L261.07,474l.48-34.75Z" style="fill:#263238"></path><path d="M268.58,459.88a1.78,1.78,0,0,0-1.26,2,1.7,1.7,0,0,0,2,1.27,1.87,1.87,0,0,0,1.32-2.12,1.77,1.77,0,0,0-2.19-1.09" style="fill:#e0e0e0"></path><path d="M261.07,474l.18-3.5,41.39,2.09s1.9.87,1.66,2.23Z" style="fill:#455a64"></path><path d="M282.62,461.8c0,.21-1.07.29-2.12.95s-1.62,1.53-1.81,1.45.14-1.3,1.43-2.08S282.67,461.61,282.62,461.8Z" style="fill:#fff"></path><path d="M287.12,463.76c0,.21-.88.55-1.61,1.43s-1,1.82-1.17,1.8-.32-1.2.61-2.28S287.12,463.56,287.12,463.76Z" style="fill:#fff"></path><path d="M289.59,469.24c-.19,0-.46-1,.1-2.17s1.56-1.58,1.65-1.41-.54.79-1,1.73S289.8,469.22,289.59,469.24Z" style="fill:#fff"></path><path d="M282.34,456.7c-.1.19-1.06-.12-2.25-.06s-2.14.42-2.24.23.8-.92,2.21-1S282.44,456.53,282.34,456.7Z" style="fill:#fff"></path><path d="M230.79,437.56l-2.34,26.86,4.28,21.78a2.78,2.78,0,0,1-2.37,3.28h0a2.77,2.77,0,0,1-2.38-.87c-3.85-4.2-17.95-19.73-17.67-21.68.33-2.27.59-28.5.59-28.5Z" style="fill:#263238"></path><path d="M230.36,489.48l-19.93-24.37-.07,1.14a4.1,4.1,0,0,0,.81,2.75c1.58,2.12,6.07,7.87,16.73,19.61a2.77,2.77,0,0,0,2.46.87Z" style="fill:#455a64"></path><g style="opacity:0.6000000000000001"><path d="M216.51,456.78a1.68,1.68,0,0,1,.32,2.21,1.61,1.61,0,0,1-2.19.33,1.76,1.76,0,0,1-.32-2.34,1.67,1.67,0,0,1,2.31-.09" style="fill:#fff"></path></g><path d="M225,477.33a8.49,8.49,0,0,1,2.5-1.95,8.37,8.37,0,0,1,3.13-.39c0-.06-.29-.3-.92-.42a4.19,4.19,0,0,0-2.44.27,4.25,4.25,0,0,0-1.91,1.53C225,476.9,224.9,477.3,225,477.33Z" style="fill:#fff"></path><path d="M226.65,481.05a24.41,24.41,0,0,1,2.46-1,21.53,21.53,0,0,1,2.65-.17c.08-.14-1.17-.79-2.78-.41S226.52,481,226.65,481.05Z" style="fill:#fff"></path><path d="M221.69,472.48a27.7,27.7,0,0,1,3.69-1.81c2.15-.71,4-.49,4.05-.67a7.56,7.56,0,0,0-7.74,2.48Z" style="fill:#fff"></path><path d="M221.72,464.25c.06.17,1.59-.36,3.53-.3s3.44.61,3.51.45a6.84,6.84,0,0,0-7-.15Z" style="fill:#fff"></path><path d="M222.21,456.35a13.56,13.56,0,0,1,3.66-.42,13.1,13.1,0,0,1,3.51,1.13c.05-.05-.22-.41-.82-.81a6.06,6.06,0,0,0-5.39-.53C222.51,456,222.17,456.29,222.21,456.35Z" style="fill:#fff"></path><path d="M225.92,454.43a2.22,2.22,0,0,0,.1-1,7,7,0,0,0-.63-2.72,3.16,3.16,0,0,0-1.25-1.58,1.12,1.12,0,0,0-1.27.17,1.8,1.8,0,0,0-.5,1.19,3.9,3.9,0,0,0,3.18,3.82,4.53,4.53,0,0,0,4.6-2.08,1.58,1.58,0,0,0,.15-1.3,1.09,1.09,0,0,0-1.1-.65,3.92,3.92,0,0,0-1.83.81,8,8,0,0,0-2,2,2.43,2.43,0,0,0-.47.91,12.27,12.27,0,0,1,2.67-2.53,3.61,3.61,0,0,1,1.62-.67.59.59,0,0,1,.6.35,1.09,1.09,0,0,1-.15.85,4,4,0,0,1-4,1.76,3.4,3.4,0,0,1-2.75-3.21,1.3,1.3,0,0,1,.32-.84.61.61,0,0,1,.7-.11,2.9,2.9,0,0,1,1.08,1.33A10.24,10.24,0,0,1,225.92,454.43Z" style="fill:#fff"></path><path d="M304.55,252.85A95.67,95.67,0,0,1,306.64,281C306.18,287,286,452.54,286,452.54H258.72L266.39,297l-2.23.48s-14.89,66.36-16.1,77.11c-1.09,9.65-13.64,79.81-13.64,79.81l-24.93.29,8-92.8,9.26-89,3.49-25.92Z" style="fill:#263238"></path><path d="M262.09,281.07a4.86,4.86,0,0,0,1.14.65,13.17,13.17,0,0,0,3.37,1.18,7.31,7.31,0,0,0,2.52,0,5.1,5.1,0,0,0,2.62-1.27,6.19,6.19,0,0,0,1.6-2.78c.32-1.06.5-2.16.73-3.28.87-4.49,1.45-8.59,1.8-11.57.17-1.48.28-2.69.35-3.53a5.39,5.39,0,0,0,0-1.3,5.54,5.54,0,0,0-.26,1.28c-.14.94-.32,2.12-.53,3.5-.44,3-1.09,7-2,11.51-.44,2.21-.74,4.47-2.12,5.79a5.64,5.64,0,0,1-4.71,1.22,15.11,15.11,0,0,1-3.35-1A6.87,6.87,0,0,0,262.09,281.07Z" style="fill:#263238"></path><path d="M270.3,260s-.18-.14-.56-.16a2.4,2.4,0,0,0-1.53.49,2.75,2.75,0,0,0-1.15,2.1,2.7,2.7,0,0,0,4.6,1.73,2.71,2.71,0,0,0,.52-2.34,2.47,2.47,0,0,0-.82-1.38c-.31-.23-.52-.26-.53-.24a3.17,3.17,0,0,1,.95,1.69,2.38,2.38,0,0,1-.51,1.92,2.22,2.22,0,0,1-3.68-1.38,2.41,2.41,0,0,1,.87-1.78A3.11,3.11,0,0,1,270.3,260Z" style="fill:#263238"></path><path d="M227.09,271.2a3.3,3.3,0,0,0,.93.14,17.08,17.08,0,0,0,2.56,0,24.68,24.68,0,0,0,15.3-6.45,15.57,15.57,0,0,0,1.77-1.85,3,3,0,0,0,.54-.76c-.07-.07-.95.93-2.58,2.31A27.41,27.41,0,0,1,230.55,271C228.43,271.17,227.1,271.09,227.09,271.2Z" style="fill:#263238"></path><path d="M293.37,260.47a12.31,12.31,0,0,0,1.26,2.78,30.59,30.59,0,0,0,4.21,5.87,28.27,28.27,0,0,0,5.34,4.56,9.79,9.79,0,0,0,2.51,1.34,25.53,25.53,0,0,0-2.32-1.68,36.45,36.45,0,0,1-5.17-4.63,39.15,39.15,0,0,1-4.27-5.68C294,261.46,293.44,260.43,293.37,260.47Z" style="fill:#263238"></path><path d="M361.28,184.29l3.46-2.11s4.52-4,5.76-4.91,6-3,6.65-3,7.21-.36,8.76-1.09,3.23-1.67,3.23-1.67a2.4,2.4,0,0,1,.17,2.81c-.94,1.6-5.71,4.64-5.71,4.64l1.79,11.68s-4.45,3.51-7.22,3.74-5.44-.32-6.22-.07-2.73.93-2.73.93Z" style="fill:#9f7362"></path><polygon points="373.65 185.06 403.99 164.93 405.72 167.47 375.65 187.51 373.65 185.06" style="fill:#263238"></polygon><path d="M390.69,179.11s2.34.95,1.1,3.06-2.82,1.46-2.82,1.46a3.15,3.15,0,0,1-2.05,3.52,3.94,3.94,0,0,1-1.53,3.53l-1.47.76-.94-1.81s-5.56-.51-6.39-2.72l0-1.15a1.65,1.65,0,0,1-.91-1.62c.18-1.08.11-1.1,2.2-1.82s6.52-.24,6.52-.24S382,181.18,382,180s1-2,3.54-1.83A24.86,24.86,0,0,1,390.69,179.11Z" style="fill:#9f7362"></path><path d="M390.69,179.11a7.42,7.42,0,0,1-.91-.2c-.6-.14-1.48-.34-2.6-.5a16.92,16.92,0,0,0-1.88-.18,5.12,5.12,0,0,0-2.13.28,1.58,1.58,0,0,0-.83.74,1.37,1.37,0,0,0-.06,1.12,2.52,2.52,0,0,0,.9.91,6.6,6.6,0,0,0,1.24.64l1.06.43-1.14-.09a24.25,24.25,0,0,0-5.45,0,6.59,6.59,0,0,0-1.4.37,5.33,5.33,0,0,0-1.32.59.85.85,0,0,0-.27.56l-.06.38a1.22,1.22,0,0,0,0,.33,1.51,1.51,0,0,0,.81,1.07l.1.06v.11c0,.37,0,.76,0,1.15v-.06l.13.25a3.16,3.16,0,0,0,1.25,1.06,8.27,8.27,0,0,0,1.58.63,17.32,17.32,0,0,0,3.25.65l.11,0,0,.09c.32.62.63,1.22.93,1.82l-.25-.08c.5-.26,1-.52,1.48-.76h0a3.71,3.71,0,0,0,1.48-3.35v-.13l.1-.05a3.56,3.56,0,0,0,1.65-1.42,2.82,2.82,0,0,0,.34-1.92l0-.24.23.08a1.82,1.82,0,0,0,1.43-.13,2.94,2.94,0,0,0,1-.9,3.67,3.67,0,0,0,.54-1.06,1.75,1.75,0,0,0,0-1,2.42,2.42,0,0,0-.86-1.06c-.27-.18-.42-.25-.42-.27a1.38,1.38,0,0,1,.46.21,2.23,2.23,0,0,1,1,1.07,1.86,1.86,0,0,1,.08,1.06,3.52,3.52,0,0,1-.55,1.14,3.1,3.1,0,0,1-1.06,1,2.1,2.1,0,0,1-1.66.17l.19-.16a3.11,3.11,0,0,1-.34,2.13A3.91,3.91,0,0,1,387,187.3l.1-.17a4.45,4.45,0,0,1-.28,2,3.81,3.81,0,0,1-1.31,1.7h0l-1.48.77-.16.09-.09-.17-.95-1.81.16.1a18.93,18.93,0,0,1-3.34-.65,10,10,0,0,1-1.65-.66,3.6,3.6,0,0,1-1.4-1.21l-.17-.32v-.06c0-.4,0-.79,0-1.15l.11.17a1.89,1.89,0,0,1-1-1.38,1.36,1.36,0,0,1,0-.45l.06-.39a1.23,1.23,0,0,1,.4-.79,5.75,5.75,0,0,1,1.45-.65,7.39,7.39,0,0,1,1.47-.38,24.46,24.46,0,0,1,5.55,0l-.08.34a7.12,7.12,0,0,1-1.31-.7,2.93,2.93,0,0,1-1-1,1.76,1.76,0,0,1,1.06-2.26,5.35,5.35,0,0,1,2.26-.27,16.22,16.22,0,0,1,1.9.23,22.91,22.91,0,0,1,2.59.59c.3.09.52.16.67.22S390.7,179.1,390.69,179.11Z" style="fill:#65463c"></path><path d="M386.28,187.21a26.92,26.92,0,0,0-4.79-1.41,25.38,25.38,0,0,0-5-.07,3.93,3.93,0,0,1,1.44-.36,12.43,12.43,0,0,1,3.6,0,12.78,12.78,0,0,1,3.45,1A4.13,4.13,0,0,1,386.28,187.21Z" style="fill:#65463c"></path><path d="M388.89,183.79c-.07.08-1.09-.59-2.55-1s-2.67-.5-2.67-.62a5.29,5.29,0,0,1,2.78.23A4.36,4.36,0,0,1,388.89,183.79Z" style="fill:#65463c"></path><path d="M256.53,66.3a5.22,5.22,0,0,1,5.36-2.76,7.12,7.12,0,0,1,8.77,0,6.34,6.34,0,0,1,9.67,5,5.29,5.29,0,0,1,4.81,8.82,5.09,5.09,0,0,1-1.94,9.94l-25.59-15A5.21,5.21,0,0,1,256.53,66.3Z" style="fill:#263238"></path><path d="M284,88A21.59,21.59,0,0,0,262,68.56l-1.11,0c-12,1-18,11.71-16.68,23.72l2.58,40.1,1.75,5,20.74,26L274.53,140l.1-10.87s11.55-2,11.46-13.63C286,109.89,285,98.38,284,88Z" style="fill:#9f7362"></path><path d="M274.62,129.14A28.11,28.11,0,0,1,259.45,125s3.73,8.29,15.15,7Z" style="fill:#65463c"></path><path d="M280.81,98.76a1.66,1.66,0,0,1-1.56,1.71A1.59,1.59,0,0,1,277.52,99a1.65,1.65,0,0,1,1.56-1.7A1.57,1.57,0,0,1,280.81,98.76Z" style="fill:#263238"></path><path d="M281.72,94.27c-.2.22-1.47-.68-3.25-.64s-3.07,1-3.27.75.11-.49.67-.92a4.55,4.55,0,0,1,2.6-.86,4.34,4.34,0,0,1,2.6.78C281.62,93.79,281.82,94.17,281.72,94.27Z" style="fill:#263238"></path><path d="M265.57,99.84a1.66,1.66,0,0,1-1.56,1.7,1.58,1.58,0,0,1-1.74-1.45,1.67,1.67,0,0,1,1.56-1.71A1.59,1.59,0,0,1,265.57,99.84Z" style="fill:#263238"></path><path d="M264.68,94.37c-.2.22-1.47-.68-3.25-.64s-3.07,1-3.27.75.11-.49.67-.92a4.59,4.59,0,0,1,2.61-.86,4.31,4.31,0,0,1,2.59.78C264.59,93.89,264.78,94.28,264.68,94.37Z" style="fill:#263238"></path><path d="M270.82,107.45a11.5,11.5,0,0,1,2.88-.58c.45-.06.88-.16.95-.47a2.31,2.31,0,0,0-.33-1.34c-.45-1.09-.92-2.24-1.42-3.44-2-4.89-3.4-8.91-3.2-9s1.95,3.82,3.92,8.71c.47,1.21.93,2.36,1.36,3.46a2.63,2.63,0,0,1,.27,1.78,1.12,1.12,0,0,1-.73.68,2.59,2.59,0,0,1-.77.12A11.51,11.51,0,0,1,270.82,107.45Z" style="fill:#263238"></path><path d="M264.6,89.29c-.2.46-1.74.08-3.61.15s-3.4.49-3.6,0c-.09-.21.21-.64.86-1a5.43,5.43,0,0,1,2.75-.78,5.36,5.36,0,0,1,2.74.64C264.39,88.65,264.69,89.07,264.6,89.29Z" style="fill:#263238"></path><path d="M281.21,89.4c-.27.43-1.53.14-3,.27s-2.68.55-3,.16c-.15-.19,0-.62.51-1a4.13,4.13,0,0,1,2.37-.91,4.21,4.21,0,0,1,2.48.56C281.12,88.79,281.33,89.19,281.21,89.4Z" style="fill:#263238"></path><path d="M282.73,82.68s-3.21-7.2-6.74-8.82c-4.28-2-6,2.73-10.07,1.68s-8.14-2.93-12.2.28c-4.44,3.51-2.28,5.86-2.45,11-.7,20.87-4.39,26.84-5.67,17.05-.14-1.08-3.15-1.87-3.68-6.41-.7-5.88-1.07-13,.16-17.23,1-3.55,3-6,6.54-8.79,5.6-4.35,13.41-4.6,18.73-4.18S283,73.58,282.73,82.68Z" style="fill:#263238"></path><path d="M246.33,103.54a3.14,3.14,0,0,0-3.46-3c-2.16.25-4.53,1.52-4.3,6,.42,7.92,8.28,5.87,8.28,5.64S246.53,106.85,246.33,103.54Z" style="fill:#9f7362"></path><path d="M245,109.31s-.13.11-.36.23a1.43,1.43,0,0,1-1,.07c-.85-.26-1.63-1.55-1.74-3a4.59,4.59,0,0,1,.28-2,1.59,1.59,0,0,1,1-1.11.7.7,0,0,1,.84.33c.12.22.07.38.12.39s.16-.14.08-.47a1,1,0,0,0-.34-.48,1.09,1.09,0,0,0-.77-.16,2,2,0,0,0-1.38,1.31,4.63,4.63,0,0,0-.36,2.23c.13,1.59,1,3,2.19,3.31a1.46,1.46,0,0,0,1.25-.28C245,109.51,245,109.33,245,109.31Z" style="fill:#65463c"></path><path d="M246.17,88.19a7.54,7.54,0,0,0,3.38,1.48,2.59,2.59,0,0,0,2.83-1.88c.09-.55-.06-1.19.29-1.62s1.22-.38,1.89-.32a5,5,0,0,0,5.17-3.73,2.13,2.13,0,0,0,2.85.21A11.61,11.61,0,0,0,264.69,80a3.25,3.25,0,0,1,2.69-1.41,7.67,7.67,0,0,0,1.73.34c1-.11,1.53-1.34,1.66-2.38s.24-2.24,1.1-2.82,1.87-.26,2.84-.13,2.19-.13,2.41-1.07a1.87,1.87,0,0,0-.38-1.43,5.13,5.13,0,0,0-6.1-1.82,7,7,0,0,0-12.8-1.09A7.05,7.05,0,0,0,246.62,71,5.12,5.12,0,0,0,241,78.53a4.85,4.85,0,0,0-2.59,3.92c0,1.64,1.63,3.24,3.21,2.78A2.83,2.83,0,0,0,246.57,88" style="fill:#263238"></path><path d="M266.47,110.37a.78.78,0,0,0-.53-.09.65.65,0,0,0-.3.38,4,4,0,0,0,.45,3.82l0,0a2.65,2.65,0,0,0,4.48-.57l.62-1.33Z" style="fill:#65463c"></path><path d="M270.16,114.59c.06,0-.53.82-2,1a2.31,2.31,0,0,1-1.16-.19,2.52,2.52,0,0,1-1.1-.8,4.72,4.72,0,0,1-.79-2.89,5.59,5.59,0,0,1,.06-.8,1.17,1.17,0,0,1,.47-.8,1,1,0,0,1,.92.05l.61.31,2.09,1.09a8.92,8.92,0,0,1,1.87,1.12,9.17,9.17,0,0,1-2-.79l-2.14-1c-.39-.17-.9-.5-1.06-.35s-.27.69-.27,1.17a4.48,4.48,0,0,0,.65,2.59,2.18,2.18,0,0,0,.9.69,1.82,1.82,0,0,0,1,.22A4.69,4.69,0,0,0,270.16,114.59Z" style="fill:#263238"></path><path d="M241,85.22a1.85,1.85,0,0,0,.52,1.51,2.57,2.57,0,0,0,1.61.92,2.77,2.77,0,0,0,2.24-.7l-.33,0a7.47,7.47,0,0,0,1.62,1.94,4.46,4.46,0,0,0,1.46.87,3,3,0,0,0,1.6.12A3.14,3.14,0,0,0,252,88.47a4.61,4.61,0,0,0,.6-1.66c.08-.41.08-.64,0-.64s-.1.21-.22.6a5.57,5.57,0,0,1-.7,1.52,3.24,3.24,0,0,1-4.76.21,8.1,8.1,0,0,1-1.54-1.82l-.15-.23-.19.18a2.36,2.36,0,0,1-3.35-.07A3.76,3.76,0,0,1,241,85.22Z" style="fill:#455a64"></path><path d="M255.63,66.82s.21.06.56.2a2.71,2.71,0,0,1,1.26,1l.09.15.11-.15a9.88,9.88,0,0,1,3.77-3.18,7.61,7.61,0,0,1,3.1-.75,6.36,6.36,0,0,1,3.37.89,6.5,6.5,0,0,1,2,1.85,5.36,5.36,0,0,1,.92,2.37l0,.25.24-.07a4.5,4.5,0,0,1,3.3.33,4.38,4.38,0,0,1,1.84,1.9A5.79,5.79,0,0,1,276.8,74a1.53,1.53,0,0,0,.08-.65,4.31,4.31,0,0,0-.39-1.79,4.52,4.52,0,0,0-1.9-2.1A4.78,4.78,0,0,0,271,69l.27.18a5.75,5.75,0,0,0-1-2.58,7,7,0,0,0-2.18-2,6.83,6.83,0,0,0-3.61-.93,8,8,0,0,0-3.27.83,9.52,9.52,0,0,0-3.79,3.4h.2a2.73,2.73,0,0,0-1.41-1A1.3,1.3,0,0,0,255.63,66.82Z" style="fill:#455a64"></path><path d="M246.64,129.17,260.45,140l8.75,11.11,3.2-11.52,2.29-9,3.77,3.73L288,154.59l10.73,98.16s-18.71,5.48-28.4,6.14-25.13-2-25.13-2V205.25l-5.5-51.14,6.63-19.6Z" style="fill:#f5f5f5"></path><path d="M274.56,258.23a.94.94,0,0,1,0-.27c0-.2,0-.47,0-.81,0-.73-.07-1.78-.11-3.11-.1-2.72-.23-6.63-.39-11.44-.33-9.66-.87-23-1.63-37.72s-1.61-28-2.27-37.69c-.34-4.81-.61-8.7-.8-11.42l-.21-3.1c0-.34,0-.61,0-.81a1,1,0,0,1,0-.28s0,.09,0,.27.05.47.08.81c.07.73.17,1.77.29,3.1.24,2.69.55,6.59.92,11.41.74,9.63,1.63,23,2.4,37.69s1.24,28.07,1.51,37.73c.13,4.83.21,8.74.25,11.45,0,1.33,0,2.37,0,3.11V258C274.57,258.14,274.56,258.23,274.56,258.23Z" style="fill:#263238"></path><path d="M244.49,134.27l-3.2,4.4-26.16,13.77,14.56,44.41,3.92,24.91L218.9,280.92s17.85,6.14,19.42,4.18c.66-.82,2.53-5.08,4.48-9.74a104.31,104.31,0,0,0,7.49-29.05c1.1-10.08,2.1-22.92,1.36-31.61-1.37-16.28-3.53-43.15-3.72-50.21s-1.45-33.71-1.45-33.71Z" style="fill:#FF725E"></path><path d="M276.54,131.65l8.66,5.06,28,9.21L311,165.75l-1.29,51.3,8.83,61.58s-9.42,3.33-13.14,2-8.83-9.81-9-14.9-7.46-54.52-7.46-54.52l-7.06-66.49Z" style="fill:#FF725E"></path><path d="M285.74,136.68s.12.13.35.4l1,1.18c.85,1.08,2.07,2.6,3.59,4.51l.08.1-.1.07-3.05,2.32,0-.25,3.58,1.13.11,0v.12c-.07,6.38-.15,14.41-.25,23.12-.15,10.62-.29,20.24-.39,27.23-.07,3.46-.13,6.28-.17,8.26,0,.95-.05,1.7-.07,2.24,0,.24,0,.43,0,.59s0,.19,0,.19a1.39,1.39,0,0,1,0-.2c0-.15,0-.34,0-.58,0-.54,0-1.29,0-2.24,0-2,0-4.8,0-8.26.07-7,.17-16.61.28-27.24.12-8.7.24-16.73.33-23.11l.11.15-3.57-1.16-.26-.09.22-.16,3.08-2.28,0,.17L287,138.34l-.91-1.22A2.43,2.43,0,0,1,285.74,136.68Z" style="fill:#263238"></path><path d="M250.86,206.26a.79.79,0,0,1-.08-.19l-.18-.57c-.18-.53-.41-1.27-.72-2.2-.62-1.91-1.55-4.66-2.74-8-.61-1.69-1.27-3.54-2-5.53a65.39,65.39,0,0,1-2-6.44,144.63,144.63,0,0,1-2.81-15.2c-1-7.07-1.6-13.73-2-19.47v-.08l.06,0,3.08-3,0,.25-2.92-2.23-.12-.09.09-.11,5.27-7.16,1.46-1.93.38-.5.14-.16s0,.07-.1.19l-.36.52-1.39,2-5.17,7.23,0-.2,2.94,2.2.15.11-.13.13-3.07,3,.06-.14c.41,5.72,1.06,12.38,2,19.44a149.5,149.5,0,0,0,2.77,15.16c.58,2.29,1.24,4.43,2,6.42s1.34,3.85,1.93,5.54c1.16,3.4,2,6.17,2.63,8.09.29,1,.51,1.71.64,2.22l.15.59C250.85,206.19,250.86,206.26,250.86,206.26Z" style="fill:#263238"></path><polygon points="228.39 242.89 243.61 248.86 244.63 245.47 249.8 250.2 250.72 241.98 245.95 233.08 229.5 238.41 228.39 242.89" style="opacity:0.30000000000000004"></polygon><path d="M280.1,242.78,273.92,239l-5.43-4.92a13.73,13.73,0,0,0,4.23,2.3,3.49,3.49,0,0,0,4-1.49s-2.22-1.41-3-1.83-8.47-6.17-10.42-6.59-14.83-3.05-14.83-3.05l-.2.66-6.37,13.57,5.66,1.52a37.22,37.22,0,0,1,2.88,4.75c1.28,2.54,7.45,5.05,9.82,6.29s5.07-.93,5.07-.93c2.73.62,3.4-2.31,3.4-2.31,3.14-.42,3.41-3.84,3.41-3.84a74.17,74.17,0,0,0,7.45,2.52,1.08,1.08,0,0,0,1.29-.68A1.81,1.81,0,0,0,280.1,242.78Z" style="fill:#9f7362"></path><path d="M272.13,243.16a15.86,15.86,0,0,1-3.61-1.62,11.37,11.37,0,0,1-3.2-2.3c.07-.09,1.5.91,3.4,1.95A25.31,25.31,0,0,1,272.13,243.16Z" style="fill:#65463c"></path><path d="M262.11,242.66a15.92,15.92,0,0,1,3.55,2.1,31.68,31.68,0,0,1,3.34,2.41,15.75,15.75,0,0,1-3.56-2.08A30.51,30.51,0,0,1,262.11,242.66Z" style="fill:#65463c"></path><path d="M259.66,245.28c.08-.08,1.27.92,2.86,2a16.29,16.29,0,0,1,2.8,2.11,15.34,15.34,0,0,1-3-1.78A9.16,9.16,0,0,1,259.66,245.28Z" style="fill:#65463c"></path><path d="M261.25,228.7a3.29,3.29,0,0,1,1.37.3,10.5,10.5,0,0,1,3,1.65,14,14,0,0,1,2.38,2.42,4.07,4.07,0,0,1,.75,1.18c-.11.09-1.34-1.67-3.38-3.28A18.81,18.81,0,0,0,261.25,228.7Z" style="fill:#65463c"></path><path d="M201.66,226.86a5.8,5.8,0,0,1-2.73-4.71,53.27,53.27,0,0,1,.47-8c1.08-9.06,15.91-61.65,15.91-61.65l14.91,41-5.12,17.84,26.09,12.49-7.27,20.5S209.26,231.6,201.66,226.86Z" style="fill:#FF725E"></path><path d="M313.23,145.92l23.95,45.52.64.94,26.11-13.33,8.6,17.39L337.4,217.78a8.77,8.77,0,0,1-11.77-2.65L310.1,192l-4.18-19Z" style="fill:#FF725E"></path><path d="M310.25,158.91a2.49,2.49,0,0,1,.05.57c0,.42,0,1,.05,1.65,0,1.47.07,3.53.11,6.05.07,5.11.1,12.17,0,20s-.24,14.86-.4,20c-.1,2.52-.17,4.58-.23,6,0,.69-.06,1.23-.08,1.65a4.45,4.45,0,0,1-.06.57,2.9,2.9,0,0,1,0-.58c0-.41,0-1,0-1.64,0-1.48.06-3.53.1-6,.09-5.11.21-12.17.29-20s.09-14.86.1-20c0-2.52,0-4.58,0-6.05,0-.69,0-1.23,0-1.65A4.27,4.27,0,0,1,310.25,158.91Z" style="fill:#263238"></path><path d="M221.09,163.85a2.64,2.64,0,0,1,.17.46c.1.35.23.79.4,1.34.34,1.21.81,2.89,1.39,4.94,1.17,4.17,2.77,9.95,4.39,16.36s2.9,12.28,3.71,16.54c.41,2.13.71,3.86.9,5.06.08.56.15,1,.2,1.38a2.15,2.15,0,0,1,.05.48,2.18,2.18,0,0,1-.13-.47c-.07-.35-.16-.81-.28-1.37-.25-1.23-.59-2.94-1-5-.87-4.24-2.2-10.08-3.82-16.49s-3.18-12.19-4.27-16.39c-.53-2.06-1-3.75-1.28-5-.13-.56-.24-1-.32-1.36A2.81,2.81,0,0,1,221.09,163.85Z" style="fill:#263238"></path><path d="M210.3,231.07l.17.05.48.18c.46.16,1.08.4,1.88.7l7,2.69L244,244.1l-.26.12c1.52-4.29,3.16-8.94,4.87-13.76l2.39-6.74.1.24-25.78-12.45h0a15.34,15.34,0,0,0-6.09-.7,15.1,15.1,0,0,0-4.5,1.15,19,19,0,0,0-2.62,1.37l-.64.43-.23.13a1,1,0,0,1,.2-.16l.63-.46a16.58,16.58,0,0,1,2.59-1.46,15,15,0,0,1,10.75-.57h0l25.83,12.34.17.08-.06.17c-.78,2.19-1.58,4.45-2.39,6.75l-4.88,13.75-.07.18-.19-.07-24.09-9.54-7-2.8-1.86-.76-.48-.21C210.35,231.11,210.3,231.08,210.3,231.07Z" style="fill:#263238"></path><path d="M338,191.91a5.79,5.79,0,0,1,.06,1.79,26.61,26.61,0,0,1-.6,4.28c-.35,1.65-.7,3.12-.93,4.2a9.17,9.17,0,0,1-.44,1.73,6.89,6.89,0,0,1,.16-1.78c.16-1.1.47-2.59.81-4.23s.6-3.13.72-4.22A12.91,12.91,0,0,1,338,191.91Z" style="fill:#263238"></path><path d="M338,193a18.7,18.7,0,0,1-1.26,4.14,31.92,31.92,0,0,1-1.64,4,18.55,18.55,0,0,1,1.26-4.13A31.69,31.69,0,0,1,338,193Z" style="fill:#263238"></path><path d="M268.88,150.68a4.35,4.35,0,0,1-.74-.66l-1.94-1.93-6.57-6.71h.29a8.4,8.4,0,0,0-1.86,5.71l0,.45-.35-.28c-3.33-2.69-6-5.34-8-7.14-1-.91-1.81-1.63-2.37-2.12a9,9,0,0,1-.86-.79,5.46,5.46,0,0,1,1,.67c.59.46,1.43,1.16,2.46,2,2.06,1.75,4.79,4.36,8.09,7l-.32.18a8.82,8.82,0,0,1,2-6l.14-.16.15.15,6.47,6.81,1.86,2A7.45,7.45,0,0,1,268.88,150.68Z" style="fill:#263238"></path><path d="M277.67,136a2.52,2.52,0,0,1,0,.62c0,.4,0,1-.08,1.72a35.22,35.22,0,0,1-1,5.92l-.12.49-.23-.45a14.31,14.31,0,0,0-2.54-3.51,11.38,11.38,0,0,0-.89-.83l.33-.11a54.47,54.47,0,0,1-2.38,7.85c-.37,1-.7,1.73-.95,2.25a4.16,4.16,0,0,1-.41.79,3.91,3.91,0,0,1,.28-.85l.83-2.29a69.75,69.75,0,0,0,2.24-7.83l.07-.33.25.22a10.31,10.31,0,0,1,.91.85,14.4,14.4,0,0,1,2.6,3.62l-.35,0a45.45,45.45,0,0,0,1.11-5.85C277.56,136.87,277.62,136,277.67,136Z" style="fill:#263238"></path><polygon points="301.49 239.21 303.82 246.47 317.06 245.25 312.93 238.31 301.49 239.21" style="fill:#FF725E"></polygon><path d="M301.49,239.21a5.27,5.27,0,0,1,.79-.1l2.31-.23c2-.2,4.89-.47,8.33-.75H313l.06.1,4.14,6.93.17.27-.32,0-.68.06-12.56,1.12h-.13l0-.12c-.72-2.27-1.27-4.12-1.64-5.38-.18-.59-.32-1.07-.43-1.45a2.22,2.22,0,0,1-.12-.48s.08.19.2.53.3.87.51,1.46l1.77,5.22-.16-.1,12.55-1.21.68-.06-.15.3c-1.48-2.49-2.87-4.84-4.11-6.95l.17.09c-3.35.25-6.19.42-8.21.55l-2.37.14C301.81,239.21,301.5,239.22,301.49,239.21Z" style="fill:#263238"></path><rect x="293.25" y="181.59" width="14.22" height="4.59" style="fill:#FF725E"></rect><path d="M307.47,186.18a2.47,2.47,0,0,1,0-.34c0-.25,0-.55,0-.91,0-.84,0-2-.07-3.34l.13.13c-3.38.05-8.5.07-14.22.07.09-.09-.2.21.2-.2h0v4.57l-.2-.19c4.05,0,7.58,0,10.11.09l3,0a10.39,10.39,0,0,1,1.11.05,7.48,7.48,0,0,1-1,0l-2.95.06c-2.53,0-6.11.08-10.25.09h-.19v-.2c0-.73,0-1.47,0-2.24v-2.33h0l.2-.2c5.72,0,10.84,0,14.22.07h.14v.13c0,1.41-.05,2.56-.07,3.42A8.26,8.26,0,0,1,307.47,186.18Z" style="fill:#263238"></path><path d="M291.07,146.29l2.18,3s-.61,45.65-2.93,57Z" style="opacity:0.30000000000000004"></path></g></svg>
