<svg xmlns="http://www.w3.org/2000/svg" xmlns:xlink="http://www.w3.org/1999/xlink" id="visual"
    version="1.1" viewBox="0 382.63 960 158.37">
    <path
        d="M0 416L32 407.2C64 398.3 128 380.7 192 382.8C256 385 320 407 384 419.8C448 432.7 512 436.3 576 442C640 447.7 704 455.3 768 451.7C832 448 896 433 928 425.5L960 418L960 541L928 541C896 541 832 541 768 541C704 541 640 541 576 541C512 541 448 541 384 541C320 541 256 541 192 541C128 541 64 541 32 541L0 541Z"
        fill="#cbd5e1" stroke-linecap="round" stroke-linejoin="miter" />
</svg>