<svg id="visual" viewBox="0 0 900 600" width="900" height="600" xmlns="http://www.w3.org/2000/svg" xmlns:xlink="http://www.w3.org/1999/xlink" version="1.1"><path d="M0 412L21.5 429.2C43 446.3 86 480.7 128.8 486.3C171.7 492 214.3 469 257.2 456.2C300 443.3 343 440.7 385.8 453.3C428.7 466 471.3 494 514.2 496.8C557 499.7 600 477.3 642.8 458.5C685.7 439.7 728.3 424.3 771.2 415.3C814 406.3 857 403.7 878.5 402.3L900 401L900 601L878.5 601C857 601 814 601 771.2 601C728.3 601 685.7 601 642.8 601C600 601 557 601 514.2 601C471.3 601 428.7 601 385.8 601C343 601 300 601 257.2 601C214.3 601 171.7 601 128.8 601C86 601 43 601 21.5 601L0 601Z" fill="#0066FF" stroke-linecap="round" stroke-linejoin="miter"></path></svg>